<svg xmlns="http://www.w3.org/2000/svg" width="547.573" height="277.836" viewBox="0 0 547.573 277.836">
  <g id="Group_443" data-name="Group 443" transform="translate(-25.508)" opacity="0.729">
    <path id="Path_432" data-name="Path 432" d="M174.861,541.092l-1.048-.236a238.482,238.482,0,0,1,465.074-.634l-1.047.238C613.111,431.88,517.948,356.046,406.422,356.046,296.357,356.046,198.971,433.869,174.861,541.092Z" transform="translate(-97.395 -266.909)" fill="#3f3d56"/>
    <circle id="Ellipse_57" data-name="Ellipse 57" cx="29.166" cy="29.166" r="29.166" transform="translate(453.912 88.916)" fill="#ff6584"/>
    <rect id="Rectangle_194" data-name="Rectangle 194" width="1.074" height="42.421" transform="translate(470.924 234.687)" fill="#3f3d56"/>
    <path id="Path_433" data-name="Path 433" d="M910.864,614.978c.068,14.833-10.368,26.907-10.368,26.907s-10.547-11.977-10.615-26.81,10.368-26.907,10.368-26.907S910.8,600.144,910.864,614.978Z" transform="translate(-428.955 -374.885)" fill="#fcb320"/>
    <path id="Path_434" data-name="Path 434" d="M910.864,614.978c.068,14.833-10.368,26.907-10.368,26.907s-10.547-11.977-10.615-26.81,10.368-26.907,10.368-26.907S910.8,600.144,910.864,614.978Z" transform="translate(-428.955 -374.885)" opacity="0.1"/>
    <circle id="Ellipse_58" data-name="Ellipse 58" cx="16.779" cy="16.779" r="16.779" transform="translate(252.255 116.788)" fill="#00923f" opacity="0.4"/>
    <circle id="Ellipse_59" data-name="Ellipse 59" cx="11.771" cy="11.771" r="11.771" transform="translate(226.21 129.811)" fill="#fcb320" opacity="0.4"/>
    <circle id="Ellipse_60" data-name="Ellipse 60" cx="11.771" cy="11.771" r="11.771" transform="translate(100.021 163.64)" fill="#00923f" opacity="0.4"/>
    <circle id="Ellipse_61" data-name="Ellipse 61" cx="16.779" cy="16.779" r="16.779" transform="translate(443.036 115.408)" fill="#fcb320" opacity="0.4"/>
    <path id="Path_435" data-name="Path 435" d="M87.894,692.44a10.808,10.808,0,0,0,4.025,5.445,9.3,9.3,0,0,0-3.294-12.176A10.807,10.807,0,0,0,87.894,692.44Z" transform="translate(-57.485 -420.049)" fill="#3f3d56"/>
    <path id="Path_436" data-name="Path 436" d="M85.241,694.627a10.808,10.808,0,0,1,2.8,6.165,9.3,9.3,0,0,1-9.039-8.8A10.808,10.808,0,0,1,85.241,694.627Z" transform="translate(-53.495 -422.959)" fill="#00923f"/>
    <path id="Path_437" data-name="Path 437" d="M699.894,692.44a10.808,10.808,0,0,0,4.025,5.445,9.3,9.3,0,0,0-3.294-12.176A10.808,10.808,0,0,0,699.894,692.44Z" transform="translate(-340.858 -420.049)" fill="#3f3d56"/>
    <path id="Path_438" data-name="Path 438" d="M697.241,694.627a10.807,10.807,0,0,1,2.8,6.165,9.3,9.3,0,0,1-9.039-8.8A10.808,10.808,0,0,1,697.241,694.627Z" transform="translate(-336.869 -422.959)" fill="#fcb320"/>
    <path id="Path_439" data-name="Path 439" d="M66.221,441.685,64,437.983,84.735,420.21h53.318v5.183L118.8,446.129l-22.216,4.443Z" transform="translate(-29.634 -194.569)" fill="#3f3d56"/>
    <path id="Path_440" data-name="Path 440" d="M190.013,429.642V418.056h-6.981v3.654l-2.2-2.5-17.773,17.773-2.962,2.962-3.7,14.811,6.665,16.291h34.064V437.726Z" transform="translate(-72.417 -193.572)" fill="#ccc"/>
    <rect id="Rectangle_195" data-name="Rectangle 195" width="56.28" height="34.064" transform="translate(34.366 243.413)" fill="#f2f2f2"/>
    <rect id="Rectangle_196" data-name="Rectangle 196" width="11.848" height="10.367" transform="translate(71.022 254.151)" fill="#3f3d56"/>
    <rect id="Rectangle_197" data-name="Rectangle 197" width="10.367" height="23.697" transform="translate(55.841 253.781)" fill="#ccc"/>
    <path id="Path_441" data-name="Path 441" d="M78.1,476.317v-3.7H73.654v3.7H78.1Z" transform="translate(-34.104 -218.834)" fill="#3f3d56"/>
    <path id="Path_442" data-name="Path 442" d="M77.726,485.026H73.654v3.7H78.1v-3.7Z" transform="translate(-34.104 -224.581)" fill="#3f3d56"/>
    <rect id="Rectangle_198" data-name="Rectangle 198" width="4.443" height="3.703" transform="translate(46.955 253.781)" fill="#3f3d56"/>
    <rect id="Rectangle_199" data-name="Rectangle 199" width="4.443" height="3.703" transform="translate(46.955 260.445)" fill="#3f3d56"/>
    <path id="Path_443" data-name="Path 443" d="M194.628,477.007v-3.7h-4.443v3.7h4.443Z" transform="translate(-88.061 -219.153)" fill="#3f3d56"/>
    <path id="Path_444" data-name="Path 444" d="M194.258,485.716h-4.073v3.7h4.443v-3.7Z" transform="translate(-88.061 -224.9)" fill="#3f3d56"/>
    <rect id="Rectangle_200" data-name="Rectangle 200" width="4.443" height="3.703" transform="translate(109.529 254.151)" fill="#3f3d56"/>
    <rect id="Rectangle_201" data-name="Rectangle 201" width="4.443" height="3.703" transform="translate(109.529 260.816)" fill="#3f3d56"/>
    <path id="Path_445" data-name="Path 445" d="M465.221,441.685l-2.221-3.7,20.735-17.773h53.318v5.183L517.8,446.129l-22.216,4.443Z" transform="translate(-214.382 -194.569)" fill="#3f3d56"/>
    <path id="Path_446" data-name="Path 446" d="M589.014,429.642V418.056h-6.981v3.654l-2.2-2.5-17.773,17.773-2.962,2.962-3.7,14.811,6.665,16.291h34.064V437.726Z" transform="translate(-257.165 -193.572)" fill="#ccc"/>
    <rect id="Rectangle_202" data-name="Rectangle 202" width="56.28" height="34.064" transform="translate(248.618 243.413)" fill="#f2f2f2"/>
    <rect id="Rectangle_203" data-name="Rectangle 203" width="11.848" height="10.367" transform="translate(285.274 254.151)" fill="#3f3d56"/>
    <rect id="Rectangle_204" data-name="Rectangle 204" width="10.367" height="23.697" transform="translate(270.093 253.781)" fill="#ccc"/>
    <path id="Path_447" data-name="Path 447" d="M477.1,476.317v-3.7h-4.443v3.7H477.1Z" transform="translate(-218.852 -218.834)" fill="#3f3d56"/>
    <path id="Path_448" data-name="Path 448" d="M476.726,485.026h-4.072v3.7H477.1v-3.7Z" transform="translate(-218.852 -224.581)" fill="#3f3d56"/>
    <rect id="Rectangle_205" data-name="Rectangle 205" width="4.443" height="3.703" transform="translate(261.207 253.781)" fill="#3f3d56"/>
    <rect id="Rectangle_206" data-name="Rectangle 206" width="4.443" height="3.703" transform="translate(261.207 260.445)" fill="#3f3d56"/>
    <path id="Path_449" data-name="Path 449" d="M593.628,477.007v-3.7h-4.443v3.7h4.443Z" transform="translate(-272.81 -219.153)" fill="#3f3d56"/>
    <path id="Path_450" data-name="Path 450" d="M593.258,485.716h-4.073v3.7h4.443v-3.7Z" transform="translate(-272.81 -224.9)" fill="#3f3d56"/>
    <rect id="Rectangle_207" data-name="Rectangle 207" width="4.443" height="3.703" transform="translate(323.781 254.151)" fill="#3f3d56"/>
    <rect id="Rectangle_208" data-name="Rectangle 208" width="4.443" height="3.703" transform="translate(323.781 260.816)" fill="#3f3d56"/>
    <path id="Path_451" data-name="Path 451" d="M277.322,325.843l-3.7-2.962,20.735-18.513h52.577v16.292l-34.064,22.957Z" transform="translate(-126.694 -140.931)" fill="#3f3d56"/>
    <path id="Path_452" data-name="Path 452" d="M390.39,314.752V304.737h-6.981v2.453l-2.605-2.823L363.771,322.88l-6.664,4.443-10.334,75.5,15.585,15.585h36.219V323.621Z" transform="translate(-160.566 -140.931)" fill="#ccc"/>
    <rect id="Rectangle_209" data-name="Rectangle 209" width="56.28" height="95.528" transform="translate(146.926 181.95)" fill="#f2f2f2"/>
    <rect id="Rectangle_210" data-name="Rectangle 210" width="10.367" height="23.327" transform="translate(168.771 254.151)" fill="#ccc"/>
    <path id="Path_453" data-name="Path 453" d="M289.785,482.523v-3.7h-4.443v3.7h4.443Z" transform="translate(-132.122 -221.708)" fill="#3f3d56"/>
    <path id="Path_454" data-name="Path 454" d="M289.415,491.232h-4.073v3.7h4.443v-3.7Z" transform="translate(-132.122 -227.454)" fill="#3f3d56"/>
    <rect id="Rectangle_211" data-name="Rectangle 211" width="4.443" height="3.703" transform="translate(160.626 257.113)" fill="#3f3d56"/>
    <rect id="Rectangle_212" data-name="Rectangle 212" width="4.443" height="3.703" transform="translate(160.626 263.778)" fill="#3f3d56"/>
    <path id="Path_455" data-name="Path 455" d="M346.327,482.523v-3.7h-4.443v3.7h4.443Z" transform="translate(-158.302 -221.708)" fill="#3f3d56"/>
    <path id="Path_456" data-name="Path 456" d="M345.957,491.232h-4.073v3.7h4.443v-3.7Z" transform="translate(-158.302 -227.454)" fill="#3f3d56"/>
    <rect id="Rectangle_213" data-name="Rectangle 213" width="4.443" height="3.703" transform="translate(190.987 257.113)" fill="#3f3d56"/>
    <rect id="Rectangle_214" data-name="Rectangle 214" width="4.443" height="3.703" transform="translate(190.987 263.778)" fill="#3f3d56"/>
    <path id="Path_457" data-name="Path 457" d="M404.248,344.615v-3.7H399.8v3.7h4.443Z" transform="translate(-185.121 -157.852)" fill="#3f3d56"/>
    <path id="Path_458" data-name="Path 458" d="M403.878,353.325H399.8v3.7h4.443v-3.7Z" transform="translate(-185.121 -163.6)" fill="#3f3d56"/>
    <rect id="Rectangle_215" data-name="Rectangle 215" width="4.443" height="3.703" transform="translate(222.089 183.061)" fill="#3f3d56"/>
    <rect id="Rectangle_216" data-name="Rectangle 216" width="4.443" height="3.703" transform="translate(222.089 189.725)" fill="#3f3d56"/>
    <path id="Path_459" data-name="Path 459" d="M404.248,383.23v-3.7H399.8v3.7h4.443Z" transform="translate(-185.121 -175.732)" fill="#3f3d56"/>
    <path id="Path_460" data-name="Path 460" d="M403.878,391.939H399.8v3.7h4.443v-3.7Z" transform="translate(-185.121 -181.479)" fill="#3f3d56"/>
    <rect id="Rectangle_217" data-name="Rectangle 217" width="4.443" height="3.703" transform="translate(222.089 203.795)" fill="#3f3d56"/>
    <rect id="Rectangle_218" data-name="Rectangle 218" width="4.443" height="3.703" transform="translate(222.089 210.46)" fill="#3f3d56"/>
    <path id="Path_461" data-name="Path 461" d="M404.248,421.844v-3.7H399.8v3.7h4.443Z" transform="translate(-185.121 -193.611)" fill="#3f3d56"/>
    <path id="Path_462" data-name="Path 462" d="M403.878,430.553H399.8v3.7h4.443v-3.7Z" transform="translate(-185.121 -199.358)" fill="#3f3d56"/>
    <rect id="Rectangle_219" data-name="Rectangle 219" width="4.443" height="3.703" transform="translate(222.089 224.53)" fill="#3f3d56"/>
    <rect id="Rectangle_220" data-name="Rectangle 220" width="4.443" height="3.703" transform="translate(222.089 231.195)" fill="#3f3d56"/>
    <path id="Path_463" data-name="Path 463" d="M404.248,460.458v-3.7H399.8v3.7h4.443Z" transform="translate(-185.121 -211.491)" fill="#3f3d56"/>
    <path id="Path_464" data-name="Path 464" d="M403.878,469.167H399.8v3.7h4.443v-3.7Z" transform="translate(-185.121 -217.238)" fill="#3f3d56"/>
    <rect id="Rectangle_221" data-name="Rectangle 221" width="4.443" height="3.703" transform="translate(222.089 245.265)" fill="#3f3d56"/>
    <rect id="Rectangle_222" data-name="Rectangle 222" width="4.443" height="3.703" transform="translate(222.089 251.929)" fill="#3f3d56"/>
    <rect id="Rectangle_223" data-name="Rectangle 223" width="42.95" height="8.886" transform="translate(153.22 186.763)" fill="#3f3d56"/>
    <rect id="Rectangle_224" data-name="Rectangle 224" width="42.95" height="8.886" transform="translate(153.22 204.536)" fill="#3f3d56"/>
    <rect id="Rectangle_225" data-name="Rectangle 225" width="42.95" height="8.886" transform="translate(153.22 222.308)" fill="#3f3d56"/>
    <rect id="Rectangle_226" data-name="Rectangle 226" width="42.95" height="8.886" transform="translate(153.22 240.081)" fill="#3f3d56"/>
    <path id="Path_465" data-name="Path 465" d="M680.322,325.843l-3.7-2.962,20.735-18.513h52.577v16.292l-34.064,22.957Z" transform="translate(-313.294 -140.931)" fill="#3f3d56"/>
    <path id="Path_466" data-name="Path 466" d="M793.39,314.752V304.737h-6.981v2.453l-2.605-2.823L766.771,322.88l-6.664,4.443-10.334,75.5,15.585,15.585h36.219V323.621Z" transform="translate(-347.166 -140.931)" fill="#ccc"/>
    <rect id="Rectangle_227" data-name="Rectangle 227" width="56.28" height="95.528" transform="translate(363.325 181.95)" fill="#f2f2f2"/>
    <rect id="Rectangle_228" data-name="Rectangle 228" width="10.367" height="23.327" transform="translate(385.171 254.151)" fill="#ccc"/>
    <path id="Path_467" data-name="Path 467" d="M692.785,482.523v-3.7h-4.443v3.7h4.443Z" transform="translate(-318.722 -221.708)" fill="#3f3d56"/>
    <path id="Path_468" data-name="Path 468" d="M692.415,491.232h-4.073v3.7h4.443v-3.7Z" transform="translate(-318.722 -227.454)" fill="#3f3d56"/>
    <rect id="Rectangle_229" data-name="Rectangle 229" width="4.443" height="3.703" transform="translate(377.025 257.113)" fill="#3f3d56"/>
    <rect id="Rectangle_230" data-name="Rectangle 230" width="4.443" height="3.703" transform="translate(377.025 263.778)" fill="#3f3d56"/>
    <path id="Path_469" data-name="Path 469" d="M749.327,482.523v-3.7h-4.443v3.7h4.443Z" transform="translate(-344.903 -221.708)" fill="#3f3d56"/>
    <path id="Path_470" data-name="Path 470" d="M748.957,491.232h-4.073v3.7h4.443v-3.7Z" transform="translate(-344.903 -227.454)" fill="#3f3d56"/>
    <rect id="Rectangle_231" data-name="Rectangle 231" width="4.443" height="3.703" transform="translate(407.386 257.113)" fill="#3f3d56"/>
    <rect id="Rectangle_232" data-name="Rectangle 232" width="4.443" height="3.703" transform="translate(407.386 263.778)" fill="#3f3d56"/>
    <path id="Path_471" data-name="Path 471" d="M807.248,344.615v-3.7H802.8v3.7h4.443Z" transform="translate(-371.722 -157.852)" fill="#3f3d56"/>
    <path id="Path_472" data-name="Path 472" d="M806.878,353.325H802.8v3.7h4.443v-3.7Z" transform="translate(-371.722 -163.6)" fill="#3f3d56"/>
    <rect id="Rectangle_233" data-name="Rectangle 233" width="4.443" height="3.703" transform="translate(438.488 183.061)" fill="#3f3d56"/>
    <rect id="Rectangle_234" data-name="Rectangle 234" width="4.443" height="3.703" transform="translate(438.488 189.725)" fill="#3f3d56"/>
    <path id="Path_473" data-name="Path 473" d="M807.248,383.23v-3.7H802.8v3.7h4.443Z" transform="translate(-371.722 -175.732)" fill="#3f3d56"/>
    <path id="Path_474" data-name="Path 474" d="M806.878,391.939H802.8v3.7h4.443v-3.7Z" transform="translate(-371.722 -181.479)" fill="#3f3d56"/>
    <rect id="Rectangle_235" data-name="Rectangle 235" width="4.443" height="3.703" transform="translate(438.488 203.795)" fill="#3f3d56"/>
    <rect id="Rectangle_236" data-name="Rectangle 236" width="4.443" height="3.703" transform="translate(438.488 210.46)" fill="#3f3d56"/>
    <path id="Path_475" data-name="Path 475" d="M807.248,421.844v-3.7H802.8v3.7h4.443Z" transform="translate(-371.722 -193.611)" fill="#3f3d56"/>
    <path id="Path_476" data-name="Path 476" d="M806.878,430.553H802.8v3.7h4.443v-3.7Z" transform="translate(-371.722 -199.358)" fill="#3f3d56"/>
    <rect id="Rectangle_237" data-name="Rectangle 237" width="4.443" height="3.703" transform="translate(438.488 224.53)" fill="#3f3d56"/>
    <rect id="Rectangle_238" data-name="Rectangle 238" width="4.443" height="3.703" transform="translate(438.488 231.195)" fill="#3f3d56"/>
    <path id="Path_477" data-name="Path 477" d="M807.248,460.458v-3.7H802.8v3.7h4.443Z" transform="translate(-371.722 -211.491)" fill="#3f3d56"/>
    <path id="Path_478" data-name="Path 478" d="M806.878,469.167H802.8v3.7h4.443v-3.7Z" transform="translate(-371.722 -217.238)" fill="#3f3d56"/>
    <rect id="Rectangle_239" data-name="Rectangle 239" width="4.443" height="3.703" transform="translate(438.488 245.265)" fill="#3f3d56"/>
    <rect id="Rectangle_240" data-name="Rectangle 240" width="4.443" height="3.703" transform="translate(438.488 251.929)" fill="#3f3d56"/>
    <rect id="Rectangle_241" data-name="Rectangle 241" width="42.95" height="8.886" transform="translate(369.62 186.763)" fill="#3f3d56"/>
    <rect id="Rectangle_242" data-name="Rectangle 242" width="42.95" height="8.886" transform="translate(369.62 204.536)" fill="#3f3d56"/>
    <rect id="Rectangle_243" data-name="Rectangle 243" width="42.95" height="8.886" transform="translate(369.62 222.308)" fill="#3f3d56"/>
    <rect id="Rectangle_244" data-name="Rectangle 244" width="42.95" height="8.886" transform="translate(369.62 240.081)" fill="#3f3d56"/>
    <path id="Path_479" data-name="Path 479" d="M901.322,325.843l-3.7-2.962,20.735-18.513h52.577v16.292l-34.064,22.957Z" transform="translate(-415.624 -140.931)" fill="#3f3d56"/>
    <path id="Path_480" data-name="Path 480" d="M1014.39,314.752V304.737h-6.981v2.453l-2.605-2.823L987.771,322.88l-6.664,4.443-10.334,75.5,15.584,15.585h36.219V323.621Z" transform="translate(-449.496 -140.931)" fill="#ccc"/>
    <rect id="Rectangle_245" data-name="Rectangle 245" width="56.28" height="95.528" transform="translate(481.996 181.95)" fill="#f2f2f2"/>
    <rect id="Rectangle_246" data-name="Rectangle 246" width="10.367" height="23.327" transform="translate(503.841 254.151)" fill="#ccc"/>
    <path id="Path_481" data-name="Path 481" d="M913.785,482.523v-3.7h-4.443v3.7h4.443Z" transform="translate(-421.051 -221.708)" fill="#3f3d56"/>
    <path id="Path_482" data-name="Path 482" d="M913.415,491.232h-4.073v3.7h4.443v-3.7Z" transform="translate(-421.051 -227.454)" fill="#3f3d56"/>
    <rect id="Rectangle_247" data-name="Rectangle 247" width="4.443" height="3.703" transform="translate(495.696 257.113)" fill="#3f3d56"/>
    <rect id="Rectangle_248" data-name="Rectangle 248" width="4.443" height="3.703" transform="translate(495.696 263.778)" fill="#3f3d56"/>
    <path id="Path_483" data-name="Path 483" d="M970.327,482.523v-3.7h-4.443v3.7h4.443Z" transform="translate(-447.232 -221.708)" fill="#3f3d56"/>
    <path id="Path_484" data-name="Path 484" d="M969.957,491.232h-4.073v3.7h4.443v-3.7Z" transform="translate(-447.232 -227.454)" fill="#3f3d56"/>
    <rect id="Rectangle_249" data-name="Rectangle 249" width="4.443" height="3.703" transform="translate(526.057 257.113)" fill="#3f3d56"/>
    <rect id="Rectangle_250" data-name="Rectangle 250" width="4.443" height="3.703" transform="translate(526.057 263.778)" fill="#3f3d56"/>
    <path id="Path_485" data-name="Path 485" d="M1028.248,344.615v-3.7H1023.8v3.7h4.443Z" transform="translate(-474.051 -157.852)" fill="#3f3d56"/>
    <path id="Path_486" data-name="Path 486" d="M1027.878,353.325H1023.8v3.7h4.443v-3.7Z" transform="translate(-474.051 -163.6)" fill="#3f3d56"/>
    <rect id="Rectangle_251" data-name="Rectangle 251" width="4.443" height="3.703" transform="translate(557.159 183.061)" fill="#3f3d56"/>
    <rect id="Rectangle_252" data-name="Rectangle 252" width="4.443" height="3.703" transform="translate(557.159 189.725)" fill="#3f3d56"/>
    <path id="Path_487" data-name="Path 487" d="M1028.248,383.23v-3.7H1023.8v3.7h4.443Z" transform="translate(-474.051 -175.732)" fill="#3f3d56"/>
    <path id="Path_488" data-name="Path 488" d="M1027.878,391.939H1023.8v3.7h4.443v-3.7Z" transform="translate(-474.051 -181.479)" fill="#3f3d56"/>
    <rect id="Rectangle_253" data-name="Rectangle 253" width="4.443" height="3.703" transform="translate(557.159 203.795)" fill="#3f3d56"/>
    <rect id="Rectangle_254" data-name="Rectangle 254" width="4.443" height="3.703" transform="translate(557.159 210.46)" fill="#3f3d56"/>
    <path id="Path_489" data-name="Path 489" d="M1028.248,421.844v-3.7H1023.8v3.7h4.443Z" transform="translate(-474.051 -193.611)" fill="#3f3d56"/>
    <path id="Path_490" data-name="Path 490" d="M1027.878,430.553H1023.8v3.7h4.443v-3.7Z" transform="translate(-474.051 -199.358)" fill="#3f3d56"/>
    <rect id="Rectangle_255" data-name="Rectangle 255" width="4.443" height="3.703" transform="translate(557.159 224.53)" fill="#3f3d56"/>
    <rect id="Rectangle_256" data-name="Rectangle 256" width="4.443" height="3.703" transform="translate(557.159 231.195)" fill="#3f3d56"/>
    <path id="Path_491" data-name="Path 491" d="M1028.248,460.458v-3.7H1023.8v3.7h4.443Z" transform="translate(-474.051 -211.491)" fill="#3f3d56"/>
    <path id="Path_492" data-name="Path 492" d="M1027.878,469.167H1023.8v3.7h4.443v-3.7Z" transform="translate(-474.051 -217.238)" fill="#3f3d56"/>
    <rect id="Rectangle_257" data-name="Rectangle 257" width="4.443" height="3.703" transform="translate(557.159 245.265)" fill="#3f3d56"/>
    <rect id="Rectangle_258" data-name="Rectangle 258" width="4.443" height="3.703" transform="translate(557.159 251.929)" fill="#3f3d56"/>
    <rect id="Rectangle_259" data-name="Rectangle 259" width="42.95" height="8.886" transform="translate(488.29 186.763)" fill="#3f3d56"/>
    <rect id="Rectangle_260" data-name="Rectangle 260" width="42.95" height="8.886" transform="translate(488.29 204.536)" fill="#3f3d56"/>
    <rect id="Rectangle_261" data-name="Rectangle 261" width="42.95" height="8.886" transform="translate(488.29 222.308)" fill="#3f3d56"/>
    <rect id="Rectangle_262" data-name="Rectangle 262" width="42.95" height="8.886" transform="translate(488.29 240.081)" fill="#3f3d56"/>
    <rect id="Rectangle_264" data-name="Rectangle 264" width="1.074" height="42.421" transform="translate(135.317 234.687)" fill="#3f3d56"/>
    <path id="Path_493" data-name="Path 493" d="M285.864,614.978c.068,14.833-10.368,26.907-10.368,26.907s-10.547-11.977-10.615-26.81,10.368-26.907,10.368-26.907S285.8,600.144,285.864,614.978Z" transform="translate(-139.562 -374.885)" fill="#fcb320"/>
    <rect id="Rectangle_265" data-name="Rectangle 265" width="1.074" height="42.421" transform="translate(242.711 234.687)" fill="#3f3d56"/>
    <path id="Path_494" data-name="Path 494" d="M485.864,614.978c.068,14.833-10.368,26.907-10.368,26.907s-10.547-11.977-10.615-26.81,10.368-26.907,10.368-26.907S485.8,600.144,485.864,614.978Z" transform="translate(-232.168 -374.885)" fill="#00923f"/>
    <rect id="Rectangle_266" data-name="Rectangle 266" width="1.074" height="42.421" transform="translate(456.963 234.687)" fill="#3f3d56"/>
    <path id="Path_495" data-name="Path 495" d="M884.864,614.978c.068,14.833-10.368,26.907-10.368,26.907s-10.547-11.977-10.615-26.81,10.368-26.907,10.368-26.907S884.8,600.144,884.864,614.978Z" transform="translate(-416.916 -374.885)" fill="#00923f"/>
    <ellipse id="Ellipse_62" data-name="Ellipse 62" cx="20.405" cy="4.591" rx="20.405" ry="4.591" transform="translate(295.066 83.204)" fill="#fcb320"/>
    <path id="Path_496" data-name="Path 496" d="M621.253,214.6c0,13.049-23.627,49.938-23.627,49.938S574,227.647,574,214.6a23.627,23.627,0,0,1,47.253,0Z" transform="translate(-282.693 -190.972)" fill="#00923f"/>
    <circle id="Ellipse_63" data-name="Ellipse 63" cx="13.424" cy="13.424" r="13.424" transform="translate(301.509 10.202)" fill="#f2f2f2"/>
  </g>
</svg>
