<svg xmlns="http://www.w3.org/2000/svg" xmlns:xlink="http://www.w3.org/1999/xlink" width="247.424" height="188.124" viewBox="0 0 247.424 188.124">
  <defs>
    <linearGradient id="linear-gradient" x1="0.5" y1="1" x2="0.5" gradientUnits="objectBoundingBox">
      <stop offset="0" stop-color="gray" stop-opacity="0.251"/>
      <stop offset="0.54" stop-color="gray" stop-opacity="0.122"/>
      <stop offset="1" stop-color="gray" stop-opacity="0.102"/>
    </linearGradient>
  </defs>
  <g id="Group_407" data-name="Group 407" transform="translate(-17.321)">
    <path id="Path_276" data-name="Path 276" d="M809.215,650.62c0,1.641-9.563,6.424-20.924,6.424s-20.212-4.783-20.212-6.424,9.208-1.112,20.579-1.112S809.215,648.976,809.215,650.62Z" transform="translate(-579.561 -501.705)" fill="#504f60"/>
    <path id="Path_277" data-name="Path 277" d="M809.215,653.72c0,1.641-9.563,6.424-20.924,6.424s-20.212-4.783-20.212-6.424" transform="translate(-579.561 -504.805)" opacity="0.2"/>
    <path id="Path_278" data-name="Path 278" d="M502.553,534.143a12.7,12.7,0,0,0,5.523-.186c.278-.086.584-.278.556-.556a.672.672,0,0,0-.125-.278,17.182,17.182,0,0,1-1.669-3.179.278.278,0,0,0-.1-.145.261.261,0,0,0-.178,0c-.815.214-1.518.74-2.328.965a3.308,3.308,0,0,1-1.268.095c-.367-.042-.868-.345-1.2-.306C501.949,531.768,502.411,532.9,502.553,534.143Z" transform="translate(-387.302 -415.334)" fill="#6c63ff"/>
    <path id="Path_279" data-name="Path 279" d="M624.744,518.017a9.65,9.65,0,0,0,3.193-3,.52.52,0,0,0,.086-.259.534.534,0,0,0-.1-.25,10.334,10.334,0,0,0-2.595-2.8,7.565,7.565,0,0,0-1.446,1.335c-.306.323-1.151.834-1.16,1.327,0,.278.323.6.473.834.2.3.395.606.578.918A10.883,10.883,0,0,1,624.744,518.017Z" transform="translate(-474.624 -402.287)" fill="#6c63ff"/>
    <path id="Path_280" data-name="Path 280" d="M481.686,543.019a1.238,1.238,0,0,1-.222.806,1.093,1.093,0,0,1-.467.278c-2.578.923-5.562-.228-8.134.681-.528.186-1.029.456-1.56.634a8.487,8.487,0,0,1-1.947.345c-.909.086-1.824.142-2.736.167a6.581,6.581,0,0,1-2.063-.181,2.478,2.478,0,0,1-1.582-1.254,1.2,1.2,0,0,1-.078-.893.961.961,0,0,1,.17-.278,2.439,2.439,0,0,1,.606-.492l.948-.612a6.364,6.364,0,0,1,1.438-.762c.375-.122.773-.175,1.154-.278a7.833,7.833,0,0,0,3.3-2.461l1.29-1.377a1.3,1.3,0,0,1,.448-.359,1.24,1.24,0,0,1,.556-.053,7.436,7.436,0,0,1,3.518,1.179,4.553,4.553,0,0,0,.868.512,3.1,3.1,0,0,0,2.425-.3c.331-.178.259-.278.4-.6s.478-.52.773-.231a.818.818,0,0,1,.184.35,9.862,9.862,0,0,1,.172,2.867,1.262,1.262,0,0,0,.056.445,2.516,2.516,0,0,0,.253.412.949.949,0,0,1,.053.106A2.828,2.828,0,0,1,481.686,543.019Z" transform="translate(-359.208 -420.487)" fill="#514e7f"/>
    <path id="Path_281" data-name="Path 281" d="M481.686,555.341a1.238,1.238,0,0,1-.222.806,1.093,1.093,0,0,1-.467.278c-2.578.923-5.562-.228-8.134.681-.528.186-1.029.456-1.56.634a8.487,8.487,0,0,1-1.947.345c-.909.086-1.824.142-2.736.167a6.581,6.581,0,0,1-2.063-.181,2.478,2.478,0,0,1-1.582-1.254,1.2,1.2,0,0,1-.078-.893.961.961,0,0,1,.17-.278c.15.314.259.731.353.882a1.8,1.8,0,0,0,1.207.87,3,3,0,0,0,1.112-.142c2.336-.578,4.819-.587,7.064-1.463a16.325,16.325,0,0,1,2.314-.89,18.183,18.183,0,0,1,2.5-.2c1.318-.106,2.595-.5,3.893-.712A2.828,2.828,0,0,1,481.686,555.341Z" transform="translate(-359.208 -432.809)" fill="#464353"/>
    <path id="Path_282" data-name="Path 282" d="M613.324,522.221a4.687,4.687,0,0,1-1.424,2.536,16.592,16.592,0,0,0-1.994,2.18c-.667,1.021-.968,2.286-1.835,3.148a5.032,5.032,0,0,1-1.112.793,7.769,7.769,0,0,1-1.432.659,10.686,10.686,0,0,1-4.046.22,3.64,3.64,0,0,1-1.285-.247,3.863,3.863,0,0,1-.534-.328,2.551,2.551,0,0,1-.834-.834.835.835,0,0,1-.081-.606,1.425,1.425,0,0,1,.387-.59,9.186,9.186,0,0,1,.979-.881,5.86,5.86,0,0,0,1.274-1.112,3.6,3.6,0,0,0,.492-1.112,9.867,9.867,0,0,0,.359-2.127,6.745,6.745,0,0,1,.147-1.424c.206-.734.751-1.39.69-2.15a.536.536,0,0,1,.028-.325.453.453,0,0,1,.256-.158,4.534,4.534,0,0,1,1.329-.309,1.55,1.55,0,0,1,1.235.484c.189.228.314.556.592.645a.94.94,0,0,0,.423.017,3.542,3.542,0,0,0,1.947-.6,2.428,2.428,0,0,0,.807-1.771c0-.253-.114-.517.278-.556.295-.039.528.278.679.473a6.588,6.588,0,0,1,1.3,2.369.7.7,0,0,1,.247-.047,1.076,1.076,0,0,1,.887.453A1.766,1.766,0,0,1,613.324,522.221Z" transform="translate(-457.3 -406.66)" fill="#514e7f"/>
    <path id="Path_283" data-name="Path 283" d="M613.6,529.376a4.687,4.687,0,0,1-1.424,2.536,16.588,16.588,0,0,0-1.994,2.18c-.667,1.021-.968,2.286-1.835,3.148a5.035,5.035,0,0,1-1.112.793,7.767,7.767,0,0,1-1.432.659,10.685,10.685,0,0,1-4.046.22,3.64,3.64,0,0,1-1.285-.247,3.872,3.872,0,0,1-.534-.328,2.55,2.55,0,0,1-.834-.834,2.034,2.034,0,0,1,.834-.2c.6.033,1.04.6,1.616.776.82.247,1.638-.331,2.469-.528.542-.128,1.112-.095,1.649-.278a4.076,4.076,0,0,0,1.221-.74,6.213,6.213,0,0,0,1.3-1.257,8.078,8.078,0,0,0,.765-1.527,21.82,21.82,0,0,1,1.546-2.959,2.09,2.09,0,0,1,.314-.412,4.372,4.372,0,0,1,.425-.309,3.232,3.232,0,0,0,.982-1.791,3.13,3.13,0,0,1,.22-.6,1.076,1.076,0,0,1,.887.453A1.765,1.765,0,0,1,613.6,529.376Z" transform="translate(-457.573 -413.815)" fill="#464353"/>
    <path id="Path_284" data-name="Path 284" d="M438.724,204.162a5.9,5.9,0,0,1,1.669,1.947c.389.762,2.633,6.674,2.5,7.534.731-.737,3.615-.857,4.355-1.593.309-.309,1.974-1.849,2.225-2.208s2.108-1.112,2.311-1.491c.759-1.36-5.384-6.513-4.6-7.856a.35.35,0,0,0,.064-.211.345.345,0,0,0-.1-.164,9.212,9.212,0,0,0-1.777-1.215,2.818,2.818,0,0,1-1.354-1.613,5.84,5.84,0,0,0-1.571,1.062q-1.691,1.449-3.323,2.956c-.425.395-1.249.92-1.446,1.485C437.445,203.4,438.318,203.831,438.724,204.162Z" transform="translate(-341.013 -175.304)" fill="#a1616a"/>
    <path id="Path_285" data-name="Path 285" d="M457.209,214.13a18.1,18.1,0,0,0-2.631,2.152,5.236,5.236,0,0,0-1.669,2.681c-.078.414-.067.834-.131,1.254-.278,1.822-1.852,3.156-2.547,4.861a8.429,8.429,0,0,0-.442,1.627,19.227,19.227,0,0,0-.32,3.192c-.017,1.037,1,1.752,1.374,2.72a16.6,16.6,0,0,1,.662,2.956,35.026,35.026,0,0,0,1.669,5.478c1.371,3.788,5.815,14.258,7.186,18.048,4.2-1.054,15.387-3.476,19.108-5.7,1.24-.74-8.607-9.085-7.28-9.661a.5.5,0,0,0,.373-.7c-1.327-5.8-5.476-10.567-7.358-16.215a49.2,49.2,0,0,0-2.717-5.5c-.806-1.688-1.237-3.554-2.2-5.159a3.253,3.253,0,0,0-.7-.876,4.15,4.15,0,0,0-.776-.47C458.252,214.558,457.74,214.4,457.209,214.13Z" transform="translate(-349.553 -187.461)" fill="#ac7403"/>
    <circle id="Ellipse_39" data-name="Ellipse 39" cx="6.577" cy="6.577" r="6.577" transform="translate(91.357 15.045)" fill="#a1616a"/>
    <path id="Path_286" data-name="Path 286" d="M466.4,205.573a2.205,2.205,0,0,1,2.472-.356,1.2,1.2,0,0,1,.734,1.187l3.262.05a6.548,6.548,0,0,1,1.546.142,2.247,2.247,0,0,1,1.29.809c.039.053.083.117.15.125a.239.239,0,0,0,.15-.05,2.831,2.831,0,0,1,1.624-.278,8.774,8.774,0,0,1,4.775,2.1,1.543,1.543,0,0,1,.556.692c.114.37-.022.834.278,1.1,0,3.059,1.051,5.918,1.752,8.9a3.991,3.991,0,0,0,.987,1.418,5.721,5.721,0,0,1,1.054,1.574c.6,1.546-.225,3.365.353,4.917a8.426,8.426,0,0,0,1.112,1.766,4.567,4.567,0,0,1,.951,2.28c.025.373-.022.748,0,1.112a6.731,6.731,0,0,0,.278,1.477q.356,1.346.745,2.689c.423,1.446.973,3.006,2.269,3.776-3.129.531-6.427,1.051-9.408-.036a4.878,4.878,0,0,1-1.174-.587,6.761,6.761,0,0,1-2.061-3.32,15.677,15.677,0,0,1-1.149-4.285,4.917,4.917,0,0,0-.2-1.39,3.959,3.959,0,0,0-1.846-1.741,8.866,8.866,0,0,1-2.225-1.73,3.456,3.456,0,0,1-.9-2.6c.056-.459.236-.9.253-1.363a1.068,1.068,0,0,0-.631-1.112c-2.278-.69-3.365-3.387-3.871-5.712a18.338,18.338,0,0,1-.292-3.643l-.031-2.372a3.131,3.131,0,0,1-1.023-2.25,2.673,2.673,0,0,0-.014-.745,2.055,2.055,0,0,0-.523-.793,7.075,7.075,0,0,1-1.249-1.749Z" transform="translate(-361.775 -180.862)" fill="#464353"/>
    <path id="Path_287" data-name="Path 287" d="M440.021,229.055a18.215,18.215,0,0,1-.072,2.208c-.064.278-.175.556-.256.815a4.783,4.783,0,0,0,.3,3.1,17.239,17.239,0,0,0,1.582,2.739,4.451,4.451,0,0,1,.506.948,4.909,4.909,0,0,1,.195,1.082,33.6,33.6,0,0,0,.773,4.372c.311,1.246,3.849,11.9,4.672,12.884a1.048,1.048,0,0,0,.634.431,1.154,1.154,0,0,0,.539-.111l1.669-.64a1.09,1.09,0,0,0,.387-.211,1,1,0,0,0,.239-.656c.12-1.357-3.426-12.083-3.877-13.365-1.363-3.871-3.176-7.6-4.063-11.61-.247-1.112-.378-2.825-1.193-3.713-.337-.367-.223-.211-.626-.019a4.563,4.563,0,0,0-.59.309A1.93,1.93,0,0,0,440.021,229.055Z" transform="translate(-342.402 -196.825)" fill="#464353"/>
    <path id="Path_288" data-name="Path 288" d="M556.62,320.79" transform="translate(-426.906 -264.46)" fill="#464353"/>
    <path id="Path_289" data-name="Path 289" d="M458.4,230.992c.448,2.367.909,4.728,1.368,7.094l6.53-1.71a4.589,4.589,0,0,0-.556-1.947c-.6-1.493-.609-3.156-1.09-4.691-.364-1.168-1-2.241-1.34-3.418-.2-.684-.3-1.39-.492-2.083a15.122,15.122,0,0,0-.768-1.988,12.448,12.448,0,0,0-1.424-2.639,4.152,4.152,0,0,0-2.2,1.427,3.081,3.081,0,0,0-.406,1.39c-.114,1.466.417,2.939.242,4.4a12.931,12.931,0,0,0,.136,4.169Z" transform="translate(-355.713 -191.417)" fill="#fcb320"/>
    <path id="Path_290" data-name="Path 290" d="M478.791,337.095c.367,1.39-.164,2.853-.6,4.23a32.781,32.781,0,0,0-1.329,6.368,5.511,5.511,0,0,1-.328,1.61c-.206.464-.556.857-.8,1.3a6.522,6.522,0,0,0-.5,3.91c.095.876.236,1.749.412,2.611a6.6,6.6,0,0,1,.17,3.184c.517-.114.868.556.834,1.082a2.886,2.886,0,0,0,.05,1.566c.64.234.645,1.112.626,1.794a15.089,15.089,0,0,0,.445,3.5q1.452,6.98,3.081,13.921c2.35.729,5.095,1.488,7.336.478a1.471,1.471,0,0,0,.929-.934,1.63,1.63,0,0,0-.089-.717l-1.062-3.865a7.1,7.1,0,0,1-.381-2.859c.1-.715.414-1.485.064-2.116-.12-.217-.309-.387-.448-.592-.556-.815-.264-1.9-.22-2.892a2.291,2.291,0,0,0-.045-.662,3.3,3.3,0,0,0-.317-.726,11.1,11.1,0,0,1-1.224-5.523,1.366,1.366,0,0,0-.1-.72,2.333,2.333,0,0,1-.181-.295.807.807,0,0,1,.058-.531,4.869,4.869,0,0,1-.857-.834,1.2,1.2,0,0,0,.206-1.874.626.626,0,0,0,.3-1.076c-.136-.095-.317-.136-.414-.278-.15-.206-.028-.492.095-.712l.648-1.171c.484-.87.592-1.947,1.112-2.781a20.844,20.844,0,0,0,1.713-3.91l1.872-5.164,1.26,1.093a3.981,3.981,0,0,1,1.034,1.179,5.087,5.087,0,0,1,.337,1.413c.462,2.8,2.225,5.234,2.878,8a5.266,5.266,0,0,0,.6,1.785,3.888,3.888,0,0,1,.339.512,2.712,2.712,0,0,1,.142.848,3.957,3.957,0,0,0,1.669,2.837c.62.425,1.39.717,1.727,1.39a2.592,2.592,0,0,0,.278.592c.3.362.948.4,1.076.857.072.253-.061.556.081.779a.737.737,0,0,0,.309.231l1.81.9c2.025,1.012,3.059,3.337,4.552,5.031a10.846,10.846,0,0,1,1.363,1.8c.645,1.154.943,2.6,2.033,3.337a3.075,3.075,0,0,1,.79.587c.342.451.217,1.082.247,1.649s.464,1.243,1,1.071a3.957,3.957,0,0,0,0,2.1,10.568,10.568,0,0,0,6.413-2.6,2.53,2.53,0,0,0,1.043-1.752.629.629,0,0,0-.078-.348.993.993,0,0,0-.409-.309c-1.694-.918-2.2-3.045-3.059-4.772a41.363,41.363,0,0,0-2.781-4.252c-2.013-3.045-3.387-6.73-6.432-8.74a4.378,4.378,0,0,1-1.785-1.566c-.186-.409-.209-.876-.356-1.3a1.127,1.127,0,0,0-.951-.834,5.827,5.827,0,0,0,.217-2.019,2.548,2.548,0,0,0-.1-.87,4.233,4.233,0,0,0-.448-.862,8.27,8.27,0,0,1-1.146-4.449,7.3,7.3,0,0,0-.078-2.4c-.122-.387-.336-.74-.484-1.112a6.954,6.954,0,0,1-.348-2.091l-.167-2.672a13.14,13.14,0,0,0-.345-2.642c-.556-2.075-1.112-10.765-3.017-11.744s-5.178,5.709-7.322,5.84a9.535,9.535,0,0,0-2.781.537,13.549,13.549,0,0,0-3.788,2.5l-3.943,3.312A14.527,14.527,0,0,1,478.791,337.095Z" transform="translate(-368.102 -266.039)" fill="#464353"/>
    <path id="Path_291" data-name="Path 291" d="M415.808,164.865A4.958,4.958,0,0,1,419.634,163a8.912,8.912,0,0,1,4.23,1.062,5.226,5.226,0,0,0,1.235.506c.7.142,1.468-.047,2.1.278a2.512,2.512,0,0,1,.923,2.5,4.6,4.6,0,0,0,.25,2.781,6.431,6.431,0,0,1,.481.726,2.4,2.4,0,0,1-.039,1.546,10.025,10.025,0,0,1-.8-1.021.94.94,0,0,0-1.151-.3c-.359.242-.353.681-.373,1.076s-.12.868-.492,1a.8.8,0,0,1-.834-.325c-.637-.779-.381-2.022-1.012-2.806-.359-.445-.957-.662-1.288-1.129-.261-.367-.328-.834-.556-1.229s-.759-.684-1.112-.412a1.5,1.5,0,0,0-.3.4,1.71,1.71,0,0,1-2.03.612,3.4,3.4,0,0,0-.879-.381,1.087,1.087,0,0,0-1,.556,2.171,2.171,0,0,0-.278,1.162,2.679,2.679,0,0,1-.217,1.593,1.65,1.65,0,0,1-.445.423,1.385,1.385,0,0,1-1.541.159,1.157,1.157,0,0,1-.345-1.079,8.741,8.741,0,0,1,.328-1.14c.245-.862-.075-1.833.192-2.645A8.442,8.442,0,0,1,415.808,164.865Z" transform="translate(-324.045 -150.546)" fill="#464353"/>
    <path id="Path_292" data-name="Path 292" d="M432.766,209.506a1.013,1.013,0,0,0,.061.6.96.96,0,0,0,.328.314,6.746,6.746,0,0,0,3.1,1,.942.942,0,0,1,.428.111.753.753,0,0,1,.181.862,2.245,2.245,0,0,0-.2.918c.081.581.77.834,1.352.92a3.144,3.144,0,0,0,2.353-.459,3.634,3.634,0,0,0,.971-1.454c1.6-3.668,2.155-7.723,3.771-11.379a2.415,2.415,0,0,0,.242-.762.751.751,0,0,0-.3-.7c-.3-.186-.768-.081-.971-.373-.1-.147-.089-.348-.178-.5-.186-.331-.676-.278-1.009-.47-.261-.139-.442-.425-.734-.481a.923.923,0,0,0-.759.328,9.778,9.778,0,0,0-1.974,3.323,38.954,38.954,0,0,1-2.825,5.239,3.055,3.055,0,0,0-.884-1.733c-.5-.1-1.135.773-1.4,1.1A7,7,0,0,0,432.766,209.506Z" transform="translate(-337.48 -175.567)" fill="#fcb320"/>
    <path id="Path_293" data-name="Path 293" d="M461.1,200.32a1.332,1.332,0,0,0-1.032.517,2.942,2.942,0,0,0-.431,1.39,12.084,12.084,0,0,1-1.638,4.4" transform="translate(-355.712 -177.492)" opacity="0.1"/>
    <path id="Path_294" data-name="Path 294" d="M466.367,204.31a1.588,1.588,0,0,0-1.349.809,4.547,4.547,0,0,0-.339,1.374,7.539,7.539,0,0,1-1.349,2.889" transform="translate(-359.559 -180.372)" opacity="0.1"/>
    <path id="Path_295" data-name="Path 295" d="M308.038,365.96v-3.454a9.589,9.589,0,0,0-9.589-9.586h-136.4a9.589,9.589,0,0,0-9.589,9.586v6.368Z" transform="translate(-135.139 -287.655)" fill="#33323d"/>
    <path id="Path_296" data-name="Path 296" d="M323.366,283.086s-.389,24.155,3.893,32.1,6.118,42.523,6.118,42.523,44.9,4.644,76.18-5.562,97.855-14.38,97.855-14.38l-11.218-75.61s-55.421-3.554-86.948,11.482S323.366,283.086,323.366,283.086Z" transform="translate(-258.511 -221.87)" fill="#8dd070"/>
    <path id="Path_297" data-name="Path 297" d="M323.366,283.086s-.389,24.155,3.893,32.1,6.118,42.523,6.118,42.523,44.9,4.644,76.18-5.562,97.855-14.38,97.855-14.38l-11.218-75.61s-55.421-3.554-86.948,11.482S323.366,283.086,323.366,283.086Z" transform="translate(-258.511 -221.87)" opacity="0.1"/>
    <path id="Path_298" data-name="Path 298" d="M358.4,305.769s-1.4,19.931,2.119,26.3,3.688,34.8,3.688,34.8,40.4,1.874,69.145-7.909,89.137-16.129,89.137-16.129l-6.863-61.834s-49.973-.514-79.139,13.257S358.4,305.769,358.4,305.769Z" transform="translate(-283.612 -235.729)" fill="#8dd070"/>
    <ellipse id="Ellipse_40" data-name="Ellipse 40" cx="10.49" cy="22.498" rx="10.49" ry="22.498" transform="translate(136.461 68.553) rotate(-7.1)" opacity="0.1"/>
    <path id="Path_299" data-name="Path 299" d="M425.27,130.66s-53.841,13.626-79.231,37.612S267.2,203.614,267.2,203.614s7.041,23.107,13.554,29.358,18.866,38.6,18.866,38.6,44.153-9.361,70.794-28.682,88.731-43.724,88.731-43.724Z" transform="translate(-217.971 -127.203)" opacity="0.2"/>
    <path id="Path_300" data-name="Path 300" d="M264.29,191.182s7.038,23.109,13.546,29.361,18.866,38.6,18.866,38.6,44.158-9.358,70.8-28.68,88.728-43.716,88.728-43.716L422.357,118.23s-53.838,13.626-79.228,37.612S264.29,191.182,264.29,191.182Z" transform="translate(-215.87 -118.23)" fill="#8dd070"/>
    <path id="Path_301" data-name="Path 301" d="M264.29,191.182s7.038,23.109,13.546,29.361,18.866,38.6,18.866,38.6,44.158-9.358,70.8-28.68,88.728-43.716,88.728-43.716L422.357,118.23s-53.838,13.626-79.228,37.612S264.29,191.182,264.29,191.182Z" transform="translate(-215.87 -118.23)" opacity="0.1"/>
    <path id="Path_302" data-name="Path 302" d="M308,213.331s4.78,19.4,10.089,24.38,14.183,31.98,14.183,31.98,39.027-10.618,63.38-28.749,79.893-42.679,79.893-42.679l-25.5-56.764s-47.718,14.842-71.253,36.9S308,213.331,308,213.331Z" transform="translate(-247.425 -135.029)" fill="#8dd070"/>
    <ellipse id="Ellipse_41" data-name="Ellipse 41" cx="10.49" cy="22.498" rx="10.49" ry="22.498" transform="translate(118.822 57.962) rotate(-24.97)" opacity="0.1"/>
    <path id="Path_303" data-name="Path 303" d="M311.742,386.892v95.941a8.3,8.3,0,0,1-8.3,8.3H160.783a8.3,8.3,0,0,1-8.293-8.3V377.22c4.088,1.518,4.088,1.518,8.293,1.39H303.443A8.3,8.3,0,0,1,311.742,386.892Z" transform="translate(-135.161 -305.197)" opacity="0.1"/>
    <path id="Path_304" data-name="Path 304" d="M311.742,391.275v95.941a8.3,8.3,0,0,1-8.3,8.3H160.783a8.3,8.3,0,0,1-8.293-8.3V381.6c4.088,1.516,4.088,1.516,8.293,1.39H303.443A8.3,8.3,0,0,1,311.742,391.275Z" transform="translate(-135.161 -308.359)" fill="#504f60"/>
    <path id="Path_305" data-name="Path 305" d="M606.618,543.936v30.682H576.862a15.342,15.342,0,1,1,0-30.683Z" transform="translate(-430.444 -425.55)" opacity="0.1"/>
    <path id="Path_306" data-name="Path 306" d="M608.078,541v30.687H578.322a15.342,15.342,0,1,1,0-30.683Z" transform="translate(-431.497 -423.431)" fill="#33323d"/>
    <circle id="Ellipse_42" data-name="Ellipse 42" cx="5.982" cy="5.982" r="5.982" transform="translate(142.27 127.747)" opacity="0.1"/>
    <circle id="Ellipse_43" data-name="Ellipse 43" cx="5.982" cy="5.982" r="5.982" transform="translate(142.676 126.935)" fill="#00923f"/>
    <path id="Path_307" data-name="Path 307" d="M860.312,528.9c.236,2.561-1.7,5.047-1.137,7.556.122.537.353,1.043.437,1.585.234,1.491-.654,2.9-1.5,4.146l-7.286,10.69a6.636,6.636,0,0,1-1.04,1.285c-1.391,1.24-3.482,1.112-5.312,1.482a9.076,9.076,0,0,0-3.56,1.574.228.228,0,0,0-.033.311,3.059,3.059,0,0,0,2.647,1.243c.192.253,0,.623-.278.8-.392.278-.929.345-1.007,1.007a1.093,1.093,0,0,0,.133.667,2.072,2.072,0,0,0,1.274.887c2.522.77,5.248-.584,7.136-2.428s3.243-4.171,5.095-6.049c1.026-1.037,2.191-1.927,3.248-2.934a37.192,37.192,0,0,0,5.328-6.894,7.693,7.693,0,0,0,1.154-2.347c.2-.854.106-1.716.331-2.542a9.362,9.362,0,0,1,1.746-2.856,9.449,9.449,0,0,0,1.986-6.149,5.9,5.9,0,0,0-3.6-5.1,3.2,3.2,0,0,0-2.016-.122,4.791,4.791,0,0,0-2.052,1.632l-1.39,1.6a3.747,3.747,0,0,0-.806,1.224,1.282,1.282,0,0,0,.278,1.36" transform="translate(-632.082 -411.6)" fill="#a1616a"/>
    <path id="Path_308" data-name="Path 308" d="M860.312,528.9c.236,2.561-1.7,5.047-1.137,7.556.122.537.353,1.043.437,1.585.234,1.491-.654,2.9-1.5,4.146l-7.286,10.69a6.636,6.636,0,0,1-1.04,1.285c-1.391,1.24-3.482,1.112-5.312,1.482a9.076,9.076,0,0,0-3.56,1.574.228.228,0,0,0-.033.311,3.059,3.059,0,0,0,2.647,1.243c.192.253,0,.623-.278.8-.392.278-.929.345-1.007,1.007a1.093,1.093,0,0,0,.133.667,2.072,2.072,0,0,0,1.274.887c2.522.77,5.248-.584,7.136-2.428s3.243-4.171,5.095-6.049c1.026-1.037,2.191-1.927,3.248-2.934a37.192,37.192,0,0,0,5.328-6.894,7.693,7.693,0,0,0,1.154-2.347c.2-.854.106-1.716.331-2.542a9.362,9.362,0,0,1,1.746-2.856,9.449,9.449,0,0,0,1.986-6.149,5.9,5.9,0,0,0-3.6-5.1,3.2,3.2,0,0,0-2.016-.122,4.791,4.791,0,0,0-2.052,1.632l-1.39,1.6a3.747,3.747,0,0,0-.806,1.224,1.282,1.282,0,0,0,.278,1.36" transform="translate(-632.082 -411.6)" opacity="0.05"/>
    <path id="Path_309" data-name="Path 309" d="M914.2,769.461a8.434,8.434,0,0,1-5.423.8c-.3-.036-.651-.058-.834.172-.278.334.05.834.389,1.093a8.022,8.022,0,0,0,3.724,1.532,24.508,24.508,0,0,0,3.643.242,61.591,61.591,0,0,0,9.958-.364,1.408,1.408,0,0,0,.556-.161,1.018,1.018,0,0,0,.412-.626,2.482,2.482,0,0,0-.865-2.369,7.262,7.262,0,0,0-2.322-1.246l-2.892-1.126a7.432,7.432,0,0,0-2.5-.909C916.654,766.6,915.344,768.788,914.2,769.461Z" transform="translate(-680.451 -586.221)" fill="#3f3d56"/>
    <path id="Path_310" data-name="Path 310" d="M914.2,769.461a8.434,8.434,0,0,1-5.423.8c-.3-.036-.651-.058-.834.172-.278.334.05.834.389,1.093a8.022,8.022,0,0,0,3.724,1.532,24.508,24.508,0,0,0,3.643.242,61.591,61.591,0,0,0,9.958-.364,1.408,1.408,0,0,0,.556-.161,1.018,1.018,0,0,0,.412-.626,2.482,2.482,0,0,0-.865-2.369,7.262,7.262,0,0,0-2.322-1.246l-2.892-1.126a7.432,7.432,0,0,0-2.5-.909C916.654,766.6,915.344,768.788,914.2,769.461Z" transform="translate(-680.451 -586.221)" opacity="0.05"/>
    <path id="Path_311" data-name="Path 311" d="M932.3,596.485c-1.2,1.6-2.45,3.451-2.152,5.434a12.111,12.111,0,0,0,1.2,3,21.156,21.156,0,0,1,1.213,4.216c.45,2.1.9,4.2,1.179,6.329.314,2.406-1.162,9.366-1.3,11.788a2.491,2.491,0,0,1-.509,1.635c-.159.167-.37.3-.442.517a.885.885,0,0,0,.1.612,6.73,6.73,0,0,0,3.615,3.32,28.589,28.589,0,0,0,6.972,1.833,1.39,1.39,0,0,0,.656-.086,1.275,1.275,0,0,0,.506-.581c1.21-2.314.047-10.54.064-13.151.017-2.177.531-4.341.437-6.516-.078-1.746-.556-3.454-.715-5.195a30.66,30.66,0,0,1,.77-8.54c.4-2.164.8-4.327,1.318-6.463a12.406,12.406,0,0,1,1.391-3.751c.556-.9,1.338-1.649,1.985-2.5a11.3,11.3,0,0,0,2.225-8.27c-.039-.278-4.171,1.048-4.536,1.207a14.129,14.129,0,0,0-4.043,2.6,33.971,33.971,0,0,0-2.547,3.151q-1.777,2.166-3.51,4.363Q934.193,593.943,932.3,596.485Z" transform="translate(-696.524 -451.638)" fill="#464353"/>
    <path id="Path_312" data-name="Path 312" d="M932.3,596.171c-1.2,1.6-2.45,3.454-2.152,5.434a12.085,12.085,0,0,0,1.2,3,21.133,21.133,0,0,1,1.213,4.213c.45,2.1.9,4.2,1.179,6.329.314,2.408-1.162,9.366-1.3,11.788a2.5,2.5,0,0,1-.509,1.638c-.159.164-.37.3-.442.514a.881.881,0,0,0,.1.612,6.812,6.812,0,0,0,3.615,3.337,26.864,26.864,0,0,0,6.972,1.3,1.391,1.391,0,0,0,.656-.086,1.256,1.256,0,0,0,.506-.578c1.21-2.314.047-10.011.064-12.625.017-2.18.531-4.341.437-6.518-.078-1.746-.556-3.454-.715-5.192a30.67,30.67,0,0,1,.77-8.543c.4-2.161.8-4.324,1.318-6.463a12.4,12.4,0,0,1,1.391-3.751c.556-.9,1.338-1.649,1.985-2.5a11.29,11.29,0,0,0,2.225-8.27c-.039-.278-4.171,1.048-4.536,1.207a14.2,14.2,0,0,0-4.043,2.6,33.576,33.576,0,0,0-2.547,3.148q-1.777,2.166-3.51,4.366Q934.193,593.626,932.3,596.171Z" transform="translate(-696.524 -451.422)" opacity="0.05"/>
    <circle id="Ellipse_44" data-name="Ellipse 44" cx="6.749" cy="6.749" r="6.749" transform="translate(215.625 96.069)" fill="#a1616a"/>
    <path id="Path_313" data-name="Path 313" d="M894.976,483.6a8.741,8.741,0,0,0,5.6,3.91l-.509,1.849c-.879,3.176-1.866,6.535-4.319,8.738a4.062,4.062,0,0,0-.684-3.159,11.91,11.91,0,0,0-2.291-2.394l-3.885-3.365a1.171,1.171,0,0,1-.278-.328.988.988,0,0,1,0-.74c.495-1.541,1.908-2.5,3.059-3.543a10.592,10.592,0,0,0,1.538-1.791C893.986,481.667,894.467,482.779,894.976,483.6Z" transform="translate(-666.523 -381.061)" fill="#a1616a"/>
    <path id="Path_314" data-name="Path 314" d="M853.482,449.5l-.153-1.268c1.065.278,2.077-.629,2.759-1.566s1.313-2.041,2.35-2.433c1.26-.473,2.595.278,3.8.912a12.011,12.011,0,0,0,4.358,1.418,2.868,2.868,0,0,1,.72.117,2.506,2.506,0,0,1,1.271,2.155,8.426,8.426,0,0,0,.47,2.636c.278.6.8,1.051,1.112,1.646.834,1.6.028,3.779.9,5.345l-2.164-1.983c-.2-.181-.476-.37-.7-.217-.172.122-.186.387-.256.6a1.136,1.136,0,0,1-1.541.556,4.415,4.415,0,0,1-1.39-1.26,8.44,8.44,0,0,0-3.432-2.6,4.405,4.405,0,0,0-3.615.239c-1.009.57-1.749,1.9-2.987,1.947-1.7.064-2.4-3.1-3.187-4.344a1.53,1.53,0,0,0,.445-1.913C852.359,449.437,853.457,449.307,853.482,449.5Z" transform="translate(-639.999 -353.468)" fill="#464353"/>
    <path id="Path_315" data-name="Path 315" d="M551.977,317.519a13.127,13.127,0,0,0-1.5,1.574,3.15,3.15,0,0,0-.69,2.022,1.034,1.034,0,0,0,.195.592.5.5,0,0,0,.556.17.749.749,0,0,0,.278-.245,13.4,13.4,0,0,1,.934-1.012c.12-.12.278-.245.439-.2a.47.47,0,0,1,.189.125,1.28,1.28,0,0,1,.392.612,1.441,1.441,0,0,1-.431,1.185,3.035,3.035,0,0,0-.726,1.073.476.476,0,0,0,0,.345.518.518,0,0,0,.217.184,3.1,3.1,0,0,0,2.625.172c.556-.225,1.051-.612,1.624-.812a3.75,3.75,0,0,0,.717-.278,1.491,1.491,0,0,0,.637-.954,3.935,3.935,0,0,0,.042-1.171,13.462,13.462,0,0,0-.957-4.4.557.557,0,0,0-.161-.234.515.515,0,0,0-.278-.075,6.614,6.614,0,0,0-2.567-.175,1.813,1.813,0,0,0-.606.539C552.781,316.7,551.977,317.332,551.977,317.519Z" transform="translate(-421.974 -260.944)" fill="#a1616a"/>
    <path id="Path_316" data-name="Path 316" d="M530.93,251.943c0-.679-.834-2.316.492-2.425,0-.726-1.026-1.176-.834-1.947.061-.256.278-.464.3-.726.083-.742-1.257-1.146-1.034-1.858.083-.278.378-.439.442-.715.15-.642-1-.929-1.021-1.588,0-.222.125-.431.114-.654,0-.278-.242-.489-.375-.731-.348-.62-.178-1.58-.812-1.9.42.036.556-.587.384-.968s-.526-.712-.528-1.135a1.709,1.709,0,0,0,0-.462c-.117-.406-.781-.439-.893-.834a3.556,3.556,0,0,1-.014-.456c-.044-.314-.367-.514-.67-.6a2.734,2.734,0,0,1-.9-.32c-.195-.147-.42-.392-.628-.278-.078.047-.117.136-.175.2-.25.292-.729.164-1.043-.05a4.283,4.283,0,0,1-1.588-2.867c-.2-1.1-.192-2.244-.439-3.337a7.135,7.135,0,0,0-.3-1,5.271,5.271,0,0,1-.467-1c-.05-.64,1.274-.2,1.777-.139a7.914,7.914,0,0,1,1.443.278,15.44,15.44,0,0,1,1.477.648c2.008.887,4.433,1,6.046,2.486a5.068,5.068,0,0,0,1.669,1.354,7.545,7.545,0,0,1,.934.242c.765.359.884,1.374,1.3,2.108a4.125,4.125,0,0,1,.342.612,2.354,2.354,0,0,1,.111.779l.058,1.927a71.067,71.067,0,0,1-.156,9.675,7.931,7.931,0,0,0,.036,3.167c.083.278.2.539.278.82a5,5,0,0,1,.106,1l.045,1.249a.389.389,0,0,1-.061.278.4.4,0,0,1-.337.081c-1.738-.156-3.5-1.135-5.136-.542" transform="translate(-401.152 -195.997)" fill="#464353"/>
    <ellipse id="Ellipse_45" data-name="Ellipse 45" cx="20.568" cy="2.973" rx="20.568" ry="2.973" transform="translate(188.527 145.942)" fill="#504f60"/>
    <path id="Path_317" data-name="Path 317" d="M739.636,308.84c-.362-1.549-.587-2.909-.587-2.909a5.994,5.994,0,0,0-.673-2.951v-.423h0v-3.115a10.617,10.617,0,0,1,.787-1.632c.556-.979,0-4.566,0-4.566s-2.077-5.058-1.574-8.268-4.266-14.249-4.266-14.249a14.072,14.072,0,0,1,.448-3.154,2.407,2.407,0,0,0,.061-.662v-.056c-.072-2.116-1.746-6.082-1.746-6.082l.225-7.558a22.222,22.222,0,0,0-.673-10.442c-.609-2.088-1-3.76-1.246-5.05-.028-.145-.056-.278-.078-.42,3.585-.556,6.324-1,6.324-1s-2.08-8.7-3.484-10.225-2.528-6.31-2.528-6.31-.731-6.143.451-7.94a11.939,11.939,0,0,0,1.349-4.894s2.695-1.947,3.034-2.828a14.431,14.431,0,0,0,.9-3.86c0-1.032-.337-1.947-.225-2.5s-.787-2.611-.337-3.59a2.633,2.633,0,0,0,.178-.943.118.118,0,0,0,0-.028h0a13.216,13.216,0,0,0-.236-2.553,7.245,7.245,0,0,0-2.67-1.427l-.058-.234-.153-.612a2.987,2.987,0,0,0-.264-.156v-.222l-.025-.884.423-1.986c.834-3.454-3.779-3.968-3.779-3.968a2.433,2.433,0,0,0-1.307-1.146c-.926-.325-.153,5.195.278,5.562A21.749,21.749,0,0,1,730,188.4h0l.078.139a1.951,1.951,0,0,0-.211.222l.175,1.2.028.184a4.974,4.974,0,0,0-.737,1.254,2.706,2.706,0,0,1,.676,1.947,6.235,6.235,0,0,0,.278,2.392c-.05-.058-.642-.7-1.235-.542s-2.247.654-2.247.654-1.235.217-1.112.489-.834,1.468-.834,1.468l-3.32-3.148c-.033-.095-.07-.189-.1-.278a7.654,7.654,0,0,1-.278-1.39,7.6,7.6,0,0,0,1.062-.336,2.292,2.292,0,0,0,.918-.59,3.558,3.558,0,0,0,.537-1.432,21.058,21.058,0,0,1,1.232-2.748,8.932,8.932,0,0,0,.626-4.944,3.226,3.226,0,0,0-.509-1.446c-.542-.745-1.527-1.048-2.241-1.644s-1.176-1.5-2.011-1.947a3.987,3.987,0,0,0-2.519-.217,13.579,13.579,0,0,0-4.708,1.713,2.451,2.451,0,0,1-1.574.517,2.055,2.055,0,0,1-1.135-.834.271.271,0,0,1,.014-.044.279.279,0,0,1-.036-.044,5.864,5.864,0,0,0-.517,2.486,3.055,3.055,0,0,0,.017.4v.253h0a.633.633,0,0,1-.025.175,1.265,1.265,0,0,1-.311.448,3.007,3.007,0,0,0-.278.37.461.461,0,0,1,.044-.136,1.977,1.977,0,0,0-.345,1.048,1.071,1.071,0,0,0,.25.751,3.613,3.613,0,0,0,.542.434,6.33,6.33,0,0,0-.1,1.112,6.427,6.427,0,0,0,3.131,5.481c.039.092.075.186.111.278a7.917,7.917,0,0,1,.6,3.615,1.7,1.7,0,0,1-.039.261c-.014.086-.083.092-.12.139h0s-5.487.056-6.777-1.112-3.259,2.856-3.259,2.856-1.966.381-2.361,0-2.695-.053-2.695-.053a4.958,4.958,0,0,0-3.429-1.251,10.063,10.063,0,0,0-2.5-1.39h0l-.061-.022h0a2.8,2.8,0,0,0-1.237-.156,24.96,24.96,0,0,1-3.485-3.426c-.787-1.2-4.533-5.637-4.55-5.656v-.214l-.042-.645a2.311,2.311,0,0,1-.337.028c-.019-.064-.047-.139-.075-.225a12.432,12.432,0,0,0-.8-1.827s0-.815.236-1.021-.1-3.2-.1-3.2-2.43-5.681-4.608-1.441c0,0-4.116,2.745-.662,5.943,0,0,1.39.667,1.574,1.2.128.342.6,1.3.909,1.947l.142.278-.039.033.05.534.022.206c-.651.37-1.093.737-.984,1.012a6.081,6.081,0,0,1,.392,1.468s4.778,5.985,5.395,8.54c0,0,12.812,7.614,17.025,8.156l-.745,3.8a30.292,30.292,0,0,0-.167,3.1c.056.815-.506,4.513-.506,4.513s-.731,5.439-1.349,6.2-.506,4.024-.506,4.024a27.48,27.48,0,0,1-.834,4.622,11.808,11.808,0,0,0-.17,4.625s-2.133,4.894,2.978,1.577c0,0,2.5-.156,5.4-.256v.278c0,.373,0,.776-.019,1.2-.039,2.8-.056,6.674.072,9.589.225,5.167,1.8,15.392,1.8,15.392v5.147a7.007,7.007,0,0,0-.15,1.468,9.555,9.555,0,0,0,1.39,5.142l.395,3.426a13.366,13.366,0,0,1,.94,3.615,1.888,1.888,0,0,1-.039.325,2.19,2.19,0,0,0-.045.526,29.6,29.6,0,0,0,.884,5.284s.056,3.751.617,3.971c.481.186-.642,2.161-.976,2.728a.767.767,0,0,1-.019-.106l-.07.111a2.663,2.663,0,0,0-.175.951,1.363,1.363,0,0,0,.623,1.318c1.068.654,1.641,1.2.734,1.413a9.437,9.437,0,0,0-.99.209.428.428,0,0,0-.047-.125.6.6,0,0,0-.37.656,2.781,2.781,0,0,0,.331,1.262,13.776,13.776,0,0,0,1.521,2.781l.431-.047a2.1,2.1,0,0,1-.25.464,1.791,1.791,0,0,1-.634.556,1.964,1.964,0,0,1-.77.264,2.169,2.169,0,0,0-1.591.773,1.659,1.659,0,0,0,.195,2.581l4.018,1.39s6.913.9,6.546-.654-.59-2.909-.59-2.909a6.131,6.131,0,0,0-.556-2.75,3.567,3.567,0,0,0-.245-.406l.245-.025s.506-3.429,1.179-4.08c.156-.15.192-.278.156-.356.07-.186-.108-.295-.334-.359l-.05.136a3.278,3.278,0,0,0-.67-.075s-.225-1.794.506-2.447a.692.692,0,0,0,.142-.534,2.867,2.867,0,0,0-.078-.731.358.358,0,0,1-.025.044,26.345,26.345,0,0,0-1.613-4.219,5.158,5.158,0,0,1,.395-2.283c.451-.654-.058-8.866-.058-8.866a26.832,26.832,0,0,0-.336-5.818,6.53,6.53,0,0,1,.617-4.027v-.145l-.064-.626a.166.166,0,0,0,0,.039c-.114-1.051-.328-2.956-.487-3.835-.225-1.251.058-7.23.058-7.23l1.01-2.558,1.8,4.408,1.91,5.873a5.018,5.018,0,0,1,.968,2.5v.184a3.213,3.213,0,0,0-.022.392,3.493,3.493,0,0,0,.581,2.094s.506,2.781,1.293,3.479a3.122,3.122,0,0,1,.787,2.066,36.1,36.1,0,0,0,1.39,4.728,7.03,7.03,0,0,1,.395,2.734h0v.145s.133,1.44.128,2.647v.431a.119.119,0,0,0,0-.031,4.194,4.194,0,0,1-.117.979l-.017.056a.709.709,0,0,1,.019-.2,10.219,10.219,0,0,0-.278,2.5,6.481,6.481,0,0,0,1.071,4.171c1.518,1.741,2.472,1.524,2.472,1.524s-.729,2.175-1.63,2.611a.424.424,0,0,0-.095.061.938.938,0,0,0-.022-.128,1.059,1.059,0,0,0-.278.812,5.834,5.834,0,0,0,1.112,3.223,1.815,1.815,0,0,0,.759.445,1.208,1.208,0,0,1-.142.086,3.018,3.018,0,0,1-.309.147,1.621,1.621,0,0,1-.459.12,2.142,2.142,0,0,0-1.591.773,1.656,1.656,0,0,0,.195,2.578l4.018,1.39S740,310.389,739.636,308.84Z" transform="translate(-512.847 -159.78)" fill="url(#linear-gradient)"/>
    <path id="Path_318" data-name="Path 318" d="M798.861,643.685l-3.893-1.391a1.689,1.689,0,0,1-.189-2.581,2.08,2.08,0,0,1,1.541-.773,1.846,1.846,0,0,0,.742-.264,1.778,1.778,0,0,0,.617-.556,2.872,2.872,0,0,0,.442-1.5s4.271-1.251,5.439,0a3.165,3.165,0,0,1,.517.759,6.355,6.355,0,0,1,.556,2.75s.217,1.357.57,2.909S798.861,643.685,798.861,643.685Z" transform="translate(-598.465 -492.056)" fill="#2d293d"/>
    <path id="Path_319" data-name="Path 319" d="M867.3,636.771l-3.893-1.39a1.686,1.686,0,0,1-.189-2.578,2.055,2.055,0,0,1,1.538-.773,1.44,1.44,0,0,0,.445-.12,2.96,2.96,0,0,0,.3-.147,2.462,2.462,0,0,0,1.06-2.066s4.269-1.251,5.439,0a3.077,3.077,0,0,1,.409.556,6.179,6.179,0,0,1,.651,2.953s.217,1.36.556,2.909S867.3,636.771,867.3,636.771Z" transform="translate(-647.873 -487.06)" fill="#2d293d"/>
    <path id="Path_320" data-name="Path 320" d="M812.439,636.6a3.165,3.165,0,0,1,.517.759h0l-6.4.742a2.872,2.872,0,0,0,.442-1.5S811.271,635.353,812.439,636.6Z" transform="translate(-607.34 -492.047)" opacity="0.1"/>
    <path id="Path_321" data-name="Path 321" d="M878.908,630.272v1.2c-1,1.638-5.809,1.279-7.208.459a2.961,2.961,0,0,0,.3-.147,2.462,2.462,0,0,0,1.06-2.066s4.269-1.251,5.44,0a3.077,3.077,0,0,1,.409.556Z" transform="translate(-654.365 -487.075)" opacity="0.1"/>
    <path id="Path_322" data-name="Path 322" d="M815.96,449.53a10.9,10.9,0,0,0-.759,1.632v4.3c-1.09,1.794-6.744,1.2-7.508.217s-1.563-3.526-.7-3.968,1.577-2.611,1.577-2.611-.926.217-2.394-1.524-1.032-5.6-.759-6.524a19.274,19.274,0,0,0,0-4.024,8.086,8.086,0,0,0-.378-2.884,35.893,35.893,0,0,1-1.36-4.728,3.2,3.2,0,0,0-.762-2.066c-.762-.706-1.251-3.482-1.251-3.482a3.568,3.568,0,0,1-.542-2.339,4.751,4.751,0,0,0-.926-2.828l-1.849-5.876-1.741-4.4-.979,2.556s-.278,5.982-.053,7.23.556,4.569.556,4.569a6.706,6.706,0,0,0-.6,4.024,27.463,27.463,0,0,1,.311,5.823s.49,8.209.053,8.863a5.308,5.308,0,0,0-.381,2.286s2.225,4.783,1.524,5.437-.489,2.447-.489,2.447,1.521,0,.87.654-1.143,4.08-1.143,4.08l-6.577.77a13.673,13.673,0,0,1-1.471-2.781c-.87-2.022.161-1.794,1.037-2.013s.323-.759-.712-1.413-.434-2.122-.434-2.122,1.577-2.664,1.032-2.881-.6-3.971-.6-3.971-1.087-4.449-.815-5.656-.87-4.077-.87-4.077l-.381-3.426a9.427,9.427,0,0,1-1.2-6.474v-5.284s-1.524-10.223-1.741-15.39c-.139-3.309-.1-7.825-.056-10.643.028-1.58.056-2.628.056-2.628l23.493-2.447a19.635,19.635,0,0,0,.425,3.49c.242,1.29.617,2.962,1.207,5.05a22.948,22.948,0,0,1,.654,10.44l-.22,7.561s2.066,5.056,1.632,6.8a14.5,14.5,0,0,0-.439,3.159s4.622,11.04,4.132,14.249,1.521,8.268,1.521,8.268S816.505,448.551,815.96,449.53Z" transform="translate(-590.658 -311.499)" fill="#464353"/>
    <path id="Path_323" data-name="Path 323" d="M852.05,510.224l7.152-.954S855.151,513.405,852.05,510.224Z" transform="translate(-640.18 -400.525)" opacity="0.05"/>
    <path id="Path_324" data-name="Path 324" d="M870.664,484.14s.245,2.531-1.3,3.482C869.36,487.622,872.133,487.188,870.664,484.14Z" transform="translate(-652.676 -382.384)" opacity="0.1"/>
    <path id="Path_325" data-name="Path 325" d="M850.523,455.2s-5.979,4.922-8.154,4.513S850.523,455.2,850.523,455.2Z" transform="translate(-632.974 -361.492)" opacity="0.1"/>
    <path id="Path_326" data-name="Path 326" d="M808.02,521s-4.541,1.032-4.677,2.856S808.02,521,808.02,521Z" transform="translate(-605.015 -408.993)" opacity="0.1"/>
    <path id="Path_327" data-name="Path 327" d="M810.989,602.56s-6.416,1.2-4.594,2.011a31.146,31.146,0,0,0,4.814,1.468S813.28,606.147,810.989,602.56Z" transform="translate(-606.986 -467.872)" opacity="0.05"/>
    <g id="Group_405" data-name="Group 405" transform="translate(192.793 76.728)" opacity="0.05">
      <path id="Path_328" data-name="Path 328" d="M800.437,612.039a1.266,1.266,0,0,1-.587-.929l-.067.114s-.6,1.468.437,2.119c.117.075.231.15.334.222.192-.036.4-.064.6-.114C802.025,613.235,801.472,612.692,800.437,612.039Z" transform="translate(-795.117 -550.773)"/>
      <path id="Path_329" data-name="Path 329" d="M831.52,609.992c.178-.161.172-.578.064-1.112a3.126,3.126,0,0,0-.364,1.574A1.356,1.356,0,0,1,831.52,609.992Z" transform="translate(-817.935 -549.163)"/>
      <path id="Path_330" data-name="Path 330" d="M827.624,515.59a7.419,7.419,0,0,0-.434,2,8.077,8.077,0,0,1,.5-1.374Z" transform="translate(-815.026 -481.816)"/>
      <path id="Path_331" data-name="Path 331" d="M881.28,503.785a2.546,2.546,0,0,0,.058-.6c-.081.406-.136.781-.178,1.112C881.2,504.133,881.235,503.971,881.28,503.785Z" transform="translate(-853.987 -472.864)"/>
      <path id="Path_332" data-name="Path 332" d="M827.8,581.98a3.485,3.485,0,0,0,.161-1.21,4.108,4.108,0,0,0-.314,1.527A1.464,1.464,0,0,1,827.8,581.98Z" transform="translate(-815.358 -528.87)"/>
      <path id="Path_333" data-name="Path 333" d="M808.736,622a21.587,21.587,0,0,0-.748,3.337l-6.577.759a13.677,13.677,0,0,1-1.471-2.781,5.036,5.036,0,0,1-.186-.478c-.395.181-.556.59-.033,1.783a13.9,13.9,0,0,0,1.474,2.781l6.577-.762s.489-3.426,1.14-4.08C809.245,622.245,809.039,622.081,808.736,622Z" transform="translate(-794.956 -558.634)"/>
      <path id="Path_334" data-name="Path 334" d="M788.552,447.739s.053,3.751.6,3.968h0c.278-.62.459-1.21.214-1.307-.556-.217-.6-3.971-.6-3.971s-1.087-4.449-.815-5.656-.87-4.077-.87-4.077l-.381-3.426a9.427,9.427,0,0,1-1.2-6.474v-5.284s-1.524-10.223-1.741-15.39c-.139-3.309-.1-7.826-.056-10.643,0-.509.017-.959.025-1.34l-.186.019s-.031,1.046-.056,2.628c-.044,2.817-.086,7.333.056,10.64.217,5.167,1.738,15.392,1.738,15.392V428.1a9.433,9.433,0,0,0,1.2,6.471l.378,3.426s1.143,2.881.87,4.08S788.552,447.739,788.552,447.739Z" transform="translate(-783.448 -394.14)"/>
      <path id="Path_335" data-name="Path 335" d="M868.046,624.753A6.36,6.36,0,0,1,867,622.17c-.67.606.1,2.959.834,3.893.759.979,6.416,1.577,7.508-.22v-1.035C873.864,626.263,868.763,625.68,868.046,624.753Z" transform="translate(-843.582 -558.757)"/>
      <path id="Path_336" data-name="Path 336" d="M899.162,609.266a11,11,0,0,0-.762,1.632v.77a11.407,11.407,0,0,1,.556-1.09,3.337,3.337,0,0,0,.239-1.349S899.17,609.255,899.162,609.266Z" transform="translate(-866.433 -549.415)"/>
      <path id="Path_337" data-name="Path 337" d="M864.533,591.587a10.744,10.744,0,0,0,.537-1.293s-.926.217-2.394-1.524c-1.068-1.265-1.129-3.657-.976-5.22-.278.926-.709,4.786.759,6.527A3.874,3.874,0,0,0,864.533,591.587Z" transform="translate(-839.736 -530.877)"/>
      <path id="Path_338" data-name="Path 338" d="M837.485,491.424a28.983,28.983,0,0,1,.108,3.223,4.417,4.417,0,0,1,.111-.5,18.883,18.883,0,0,0,0-4.024,8.039,8.039,0,0,0-.381-2.884,35.115,35.115,0,0,1-1.346-4.733,3.2,3.2,0,0,0-.762-2.066c-.762-.706-1.251-3.482-1.251-3.482a3.578,3.578,0,0,1-.556-2.339,4.736,4.736,0,0,0-.923-2.828l-1.849-5.873-1.741-4.4-.982,2.558s0,.323-.033.834l.8-2.077,1.741,4.4,1.849,5.873a4.736,4.736,0,0,1,.923,2.828,3.579,3.579,0,0,0,.556,2.339s.489,2.781,1.251,3.482a3.183,3.183,0,0,1,.759,2.066,35.78,35.78,0,0,0,1.36,4.728A8.038,8.038,0,0,1,837.485,491.424Z" transform="translate(-815.524 -442.775)"/>
    </g>
    <path id="Path_339" data-name="Path 339" d="M864.966,195.982l-.409,1.986.025.884.017.651-2.269.234-.253-.47h0a21.075,21.075,0,0,0-1.76-2.848c-.42-.35-1.168-5.873-.278-5.545a2.372,2.372,0,0,1,1.263,1.143S865.769,192.528,864.966,195.982Z" transform="translate(-645.645 -170.662)" fill="#a1616a"/>
    <path id="Path_340" data-name="Path 340" d="M870.972,219.561l-2.269.234-.253-.47h0a2,2,0,0,1,2.5-.412Z" transform="translate(-652.019 -190.72)" opacity="0.1"/>
    <path id="Path_341" data-name="Path 341" d="M871.206,221.172l-2.992.692-.064-.445-.17-1.2a2.059,2.059,0,0,1,2.9-.395l.15.609Z" transform="translate(-651.68 -191.255)" fill="#fcb320"/>
    <path id="Path_342" data-name="Path 342" d="M686.564,185.281l-3.2,1.713-.278-.6c-.3-.637-.756-1.6-.882-1.947-.189-.528-1.521-1.2-1.521-1.2-3.337-3.2.64-5.943.64-5.943,2.108-4.241,4.45,1.441,4.45,1.441s.328,3,.1,3.2-.231,1.021-.231,1.021a12.558,12.558,0,0,1,.77,1.827C686.511,185.095,686.564,185.281,686.564,185.281Z" transform="translate(-515.509 -159.744)" fill="#a1616a"/>
    <path id="Path_343" data-name="Path 343" d="M696.263,208.749l-3.2,1.713-.278-.6c.451-.378,2.05-1.669,2.575-1.616a3.852,3.852,0,0,0,.756.019C696.211,208.563,696.263,208.749,696.263,208.749Z" transform="translate(-525.208 -183.212)" opacity="0.1"/>
    <path id="Path_344" data-name="Path 344" d="M696.813,210.283l-3.59,1.769-.072-.77-.05-.534s2.08-1.783,2.695-1.713a3.267,3.267,0,0,0,.937,0l.042.645Z" transform="translate(-525.432 -183.781)" fill="#fcb320"/>
    <path id="Path_345" data-name="Path 345" d="M813.569,225.218s-15.651,1.766-12.725.815a3.912,3.912,0,0,0,3.015-3.393,8.149,8.149,0,0,0-.581-3.615,15.761,15.761,0,0,0-1.39-2.828s11.958-6.58,9.569-.6a9.646,9.646,0,0,0-.679,2.834,8.007,8.007,0,0,0,.309,2.87A8.546,8.546,0,0,0,813.569,225.218Z" transform="translate(-602.951 -186.708)" fill="#a1616a"/>
    <path id="Path_346" data-name="Path 346" d="M815.1,215.569a9.644,9.644,0,0,0-.679,2.834c-1.126.948-2.361.884-3.949.884-1.218,0-2.57.295-3.543-.292a15.762,15.762,0,0,0-1.39-2.828S817.5,209.587,815.1,215.569Z" transform="translate(-606.604 -186.687)" opacity="0.1"/>
    <circle id="Ellipse_46" data-name="Ellipse 46" cx="6.471" cy="6.471" r="6.471" transform="translate(197.187 20.075)" fill="#a1616a"/>
    <path id="Path_347" data-name="Path 347" d="M813.569,244.771s-15.651,1.766-12.725.815a3.912,3.912,0,0,0,3.015-3.393,8.73,8.73,0,0,1,3.337-1.777,4.683,4.683,0,0,1,2.837-.047,4.032,4.032,0,0,1,1.032.478A8.546,8.546,0,0,0,813.569,244.771Z" transform="translate(-602.951 -206.261)" opacity="0.1"/>
    <path id="Path_348" data-name="Path 348" d="M871.646,223.624l-2.992.692-.064-.445a2.647,2.647,0,0,1,2.878-.984Z" transform="translate(-652.12 -193.707)" opacity="0.1"/>
    <path id="Path_349" data-name="Path 349" d="M696.943,211.956l-3.59,1.769-.072-.77a26.186,26.186,0,0,1,3.615-1.6Z" transform="translate(-525.562 -185.454)" opacity="0.1"/>
    <path id="Path_350" data-name="Path 350" d="M807.574,389.46c-6.065.968-14.686,2.2-16.054,1.785-1.137-.345-4.764-.309-7.92-.2.028-1.58.056-2.628.056-2.628l23.493-2.447A19.635,19.635,0,0,0,807.574,389.46Z" transform="translate(-590.765 -311.514)" opacity="0.1"/>
    <path id="Path_351" data-name="Path 351" d="M745.973,262.532s-19.959,3.426-22.1,2.781-13.14.053-13.14.053c-4.95,3.318-2.884-1.577-2.884-1.577a12.168,12.168,0,0,1,.164-4.622,28.234,28.234,0,0,0,.82-4.627s-.108-3.265.49-4.027,1.307-6.2,1.307-6.2.542-3.7.489-4.513.161-3.1.161-3.1l.709-3.807c-4.08-.542-16.48-8.156-16.48-8.156-.6-2.556-5.22-8.537-5.22-8.537a6.293,6.293,0,0,0-.381-1.468c-.325-.87,4.569-2.611,4.569-2.611s3.643,4.449,4.4,5.656a24.251,24.251,0,0,0,3.37,3.426,2.622,2.622,0,0,1,1.2.156l.064.019h0a9.692,9.692,0,0,1,2.433,1.39,4.728,4.728,0,0,1,3.318,1.251s2.225-.328,2.611.053,2.283,0,2.283,0,1.9-4.024,3.154-2.856,6.56,1.112,6.56,1.112a7.681,7.681,0,0,1,3.5-1.947,4.7,4.7,0,0,1,2.837-.047,3.6,3.6,0,0,1,1.112.556l3.229,3.154s.923-1.2.815-1.468,1.087-.489,1.087-.489,1.577-.489,2.175-.654,1.146.484,1.2.542a6.5,6.5,0,0,1-.278-2.392,2.825,2.825,0,0,0-.654-1.947c1.9-4.677,6.2-.762,6.2-.762s.489,2.556.056,3.535.434,3.045.325,3.59.22,1.468.22,2.5a15.29,15.29,0,0,1-.87,3.86c-.314.87-2.937,2.828-2.937,2.828a12.278,12.278,0,0,1-1.307,4.894c-1.143,1.794-.425,7.928-.425,7.928s1.087,4.786,2.447,6.31S745.973,262.532,745.973,262.532Z" transform="translate(-523.118 -186.01)" fill="#3f3d56"/>
    <path id="Path_352" data-name="Path 352" d="M779.87,256.093s-.6-1.794-1.143-1.947a12.579,12.579,0,0,1-1.577-.706l.35-.67s2.041.556,2.369,1.16A4.614,4.614,0,0,1,779.87,256.093Z" transform="translate(-586.109 -215.356)" opacity="0.1"/>
    <path id="Path_353" data-name="Path 353" d="M734.77,246.761c-.108.556-4.95,1.032-4.95,1.032l2.447-2.453h0l.061.022h0A9.7,9.7,0,0,1,734.77,246.761Z" transform="translate(-551.941 -209.992)" opacity="0.1"/>
    <circle id="Ellipse_47" data-name="Ellipse 47" cx="0.434" cy="0.434" r="0.434" transform="translate(168.391 28.871)" fill="#575988"/>
    <circle id="Ellipse_48" data-name="Ellipse 48" cx="0.434" cy="0.434" r="0.434" transform="translate(168.947 29.742)" fill="#575988"/>
    <circle id="Ellipse_49" data-name="Ellipse 49" cx="0.434" cy="0.434" r="0.434" transform="translate(169.492 30.546)" fill="#575988"/>
    <circle id="Ellipse_50" data-name="Ellipse 50" cx="0.434" cy="0.434" r="0.434" transform="translate(170.062 31.413)" fill="#575988"/>
    <circle id="Ellipse_51" data-name="Ellipse 51" cx="0.353" cy="0.353" r="0.353" transform="translate(221.406 31.447)" fill="#575988"/>
    <circle id="Ellipse_52" data-name="Ellipse 52" cx="0.353" cy="0.353" r="0.353" transform="translate(221.462 32.25)" fill="#575988"/>
    <circle id="Ellipse_53" data-name="Ellipse 53" cx="0.353" cy="0.353" r="0.353" transform="translate(221.509 33.051)" fill="#575988"/>
    <path id="Path_354" data-name="Path 354" d="M787,317.72c-.053-.064,12.208,15.417,21.724,6.471C808.732,324.193,793.7,326.232,787,317.72Z" transform="translate(-593.219 -262.243)" opacity="0.1"/>
    <path id="Path_355" data-name="Path 355" d="M761.7,346.66s7.336.2,8.1,2.311v2.2a1.407,1.407,0,0,1-1.365,0c-.74-.4-5.175-2.653-6.738-1.568Z" transform="translate(-574.955 -283.136)" opacity="0.1"/>
    <path id="Path_356" data-name="Path 356" d="M762.19,346.66s7.016.192,7.75,2.205v2.091a1.346,1.346,0,0,1-1.307,0c-.706-.378-4.947-2.528-6.443-1.493Z" transform="translate(-575.309 -283.136)" fill="#3f3d56"/>
    <path id="Path_357" data-name="Path 357" d="M776.1,289.38a23.608,23.608,0,0,0,2.845,4.88,19.15,19.15,0,0,0,4.449,4.3S776.222,290.387,776.1,289.38Z" transform="translate(-585.351 -241.785)" opacity="0.1"/>
    <path id="Path_358" data-name="Path 358" d="M767.47,258.73s1.224,5.284,4.377,7.077Z" transform="translate(-579.121 -219.658)" opacity="0.1"/>
    <path id="Path_359" data-name="Path 359" d="M760.436,260.646c-.031-.1-1.087,4.171,4.066,6.544C764.5,267.189,762.313,266.447,760.436,260.646Z" transform="translate(-573.964 -221.04)" opacity="0.1"/>
    <path id="Path_360" data-name="Path 360" d="M875.905,247.9a36.676,36.676,0,0,1,3.256,2.447S877.454,247.79,875.905,247.9Z" transform="translate(-657.4 -211.838)" opacity="0.1"/>
    <path id="Path_361" data-name="Path 361" d="M802.259,196.863a1.021,1.021,0,0,0,1.112,1.009,12.94,12.94,0,0,0,5.84-.556,2.225,2.225,0,0,0,.89-.59,3.659,3.659,0,0,0,.517-1.432,20.819,20.819,0,0,1,1.193-2.748,9.2,9.2,0,0,0,.642-4.936,3.336,3.336,0,0,0-.495-1.443c-.523-.748-1.477-1.051-2.169-1.646s-1.137-1.5-1.947-1.947a3.737,3.737,0,0,0-2.442-.217,12.817,12.817,0,0,0-4.555,1.71,2.324,2.324,0,0,1-1.524.517,2.038,2.038,0,0,1-1.112-.859,6.024,6.024,0,0,0-.464,2.823,1.211,1.211,0,0,1-.014.425,1.28,1.28,0,0,1-.3.448,1.646,1.646,0,0,0-.309,2.033c.209.247.531.384.734.637.364.453.242,1.112.234,1.691a.87.87,0,0,0,.145.573.834.834,0,0,0,.8.192,2.172,2.172,0,0,1,.851-.081,1.427,1.427,0,0,1,.74.556A10.453,10.453,0,0,1,802.259,196.863Z" transform="translate(-600.35 -164.452)" fill="#2d293d"/>
    <g id="Group_406" data-name="Group 406" transform="translate(196.527 19.216)" opacity="0.1">
      <path id="Path_362" data-name="Path 362" d="M810.332,210.271a2.225,2.225,0,0,1-.89.59,13.124,13.124,0,0,1-5.84.556,1.024,1.024,0,0,1-1.115-1.012,10.145,10.145,0,0,0-1.649-3.827,1.43,1.43,0,0,0-.74-.57,2.28,2.28,0,0,0-.851.081.834.834,0,0,1-.8-.189.87.87,0,0,1-.145-.573c0-.584.131-1.237-.234-1.691-.2-.253-.526-.389-.734-.64a1.268,1.268,0,0,1-.125-1.3,1.483,1.483,0,0,0-.092,1.733c.209.247.531.384.734.637.364.456.242,1.112.234,1.691a.865.865,0,0,0,.142.573.834.834,0,0,0,.8.192,2.172,2.172,0,0,1,.851-.081,1.426,1.426,0,0,1,.74.556,10.163,10.163,0,0,1,1.649,3.829,1.391,1.391,0,0,0,.481.882,1.349,1.349,0,0,0,.612.133,12.9,12.9,0,0,0,5.84-.556,2.2,2.2,0,0,0,.89-.59,1.7,1.7,0,0,0,.278-.523A.137.137,0,0,1,810.332,210.271Z" transform="translate(-796.877 -197.704)"/>
      <path id="Path_363" data-name="Path 363" d="M799.953,190.467a.951.951,0,0,0,.2-.328,1.212,1.212,0,0,0,0-.425,6.032,6.032,0,0,1,.3-2.342l-.036-.042a5.979,5.979,0,0,0-.464,2.82,2.014,2.014,0,0,1,0,.317Z" transform="translate(-799.084 -187.33)"/>
    </g>
    <path id="Path_364" data-name="Path 364" d="M812.08,248.512s8.084,1.073,8.81-.142" transform="translate(-611.325 -212.179)" opacity="0.1"/>
    <path id="Path_365" data-name="Path 365" d="M868.59,236.85s4.494,0,5.481,1.691" transform="translate(-652.12 -203.863)" opacity="0.1"/>
    <path id="Path_366" data-name="Path 366" d="M943.573,766.9a7.128,7.128,0,0,1-4.853,1.813c-.456,0-1.087.086-1.09.542a.764.764,0,0,0,.134.373,4.463,4.463,0,0,0,2.5,1.966,8.845,8.845,0,0,0,3.028.192l2.962-.153c.556-.031,1.112-.058,1.669-.128s1.162-.183,1.744-.278a22.805,22.805,0,0,1,4.313-.2,1.306,1.306,0,0,0,1.062-.278c.228-.278.111-.809.025-1.226-.178-.859,0-1.76-.164-2.622a4.6,4.6,0,0,0-3.023-3.22c-1.335-.506-3.7-1.087-4.961-.242C945.589,764.325,944.774,765.807,943.573,766.9Z" transform="translate(-701.961 -583.702)" fill="#3f3d56"/>
    <path id="Path_367" data-name="Path 367" d="M954.142,578.712c.261,1.243,1.466,2.194,1.5,3.462a5.408,5.408,0,0,1-1.218,2.742,18.29,18.29,0,0,0-1.243,2.814,43,43,0,0,1-3.649,7.258c-.7,1.112-1.474,2.3-1.315,3.593a5.382,5.382,0,0,0,.631,1.719l2.086,4.144A12,12,0,0,1,952,607.06c.181.787.2,1.6.3,2.4.328,2.542,1.521,5.1.815,7.564-.061.211-.278.467-.448.32a7.925,7.925,0,0,1,1.19,4.043,5.636,5.636,0,0,0,.019,2.275,2.489,2.489,0,0,1,.325.9,5.719,5.719,0,0,1-.12.615,1.356,1.356,0,0,0,1.04,1.263c.559.186,1.168.172,1.733.342a10.631,10.631,0,0,1,2.781,1.908,5.921,5.921,0,0,0,3.2,1.043.807.807,0,0,0,.473-.095.765.765,0,0,0,.261-.573,3.182,3.182,0,0,0-1.146-2.764,1.251,1.251,0,0,1-.426-.445,1.075,1.075,0,0,1-.039-.5,37.485,37.485,0,0,0-.122-6.841,10.39,10.39,0,0,1-.109-2.177,8.888,8.888,0,0,0,.175-1.81,9.615,9.615,0,0,0-.556-1.735,12.5,12.5,0,0,1-.278-3.229A28.314,28.314,0,0,0,960.16,604a4.2,4.2,0,0,0-.865-2.008c-.434-.453-1.135-.887-.971-1.491a1.769,1.769,0,0,1,.4-.592,2.378,2.378,0,0,0,.495-1.813.815.815,0,0,0,.937-.439,14.663,14.663,0,0,0,7.336-8.343,2.751,2.751,0,0,1,.328-.745,3.357,3.357,0,0,1,1.343-.87,10.2,10.2,0,0,0,3.529-3.6,6.359,6.359,0,0,0,1.549-4.491l.086-3.268a1.765,1.765,0,0,0-.061-.64,1.6,1.6,0,0,0-.353-.517,6.282,6.282,0,0,0-3.465-1.869c-.89-.159-1.8-.128-2.7-.2-1.746-.145-3.471-.687-5.217-.556a8.349,8.349,0,0,0-6.482,4.536C955.594,577.95,955.116,578.7,954.142,578.712Z" transform="translate(-709.588 -446.199)" fill="#464353"/>
    <path id="Path_368" data-name="Path 368" d="M906.907,499.608a3.651,3.651,0,0,1-.2,1.488,1.04,1.04,0,0,1-1.221.626c.142-.32-.234-.684-.584-.645a1.093,1.093,0,0,0-.77.662,2.462,2.462,0,0,0-.223,1.51,6.126,6.126,0,0,1,.384,1.9c-.078.534-.47,1.065-.261,1.56a2.528,2.528,0,0,0,.5.6,1.7,1.7,0,0,1-.181,2.336l5.261.106a3.715,3.715,0,0,0,.654,2.558,16.129,16.129,0,0,0,12.025,7.85,1.046,1.046,0,0,0-.253,1.6,1.486,1.486,0,0,0,1.691.1,12.022,12.022,0,0,0,1.446-1.084,4.449,4.449,0,0,1,2.973-.8c.659.064,1.3.278,1.961.311,1.947.1,3.615-1.3,5.49-1.872,1.365-.42,2.914-.42,4.06-1.274a1.618,1.618,0,0,0,.756-1.566,2.618,2.618,0,0,0-.556-.92,15.9,15.9,0,0,1-1.521-2.85,17.051,17.051,0,0,0-3.8-5.095,34,34,0,0,0-3.771-2.859,6.431,6.431,0,0,0-1.018-.615,11.413,11.413,0,0,1-1.391-.556,7.411,7.411,0,0,1-1.449-1.63c-1.043-1.218-2.645-1.777-3.929-2.734a9.32,9.32,0,0,0-2.653-1.8c-.5-.153-1.032-.164-1.532-.314-1.137-.345-1.966-1.354-3.081-1.763a12.366,12.366,0,0,0-2.781-.353,6.51,6.51,0,0,1-2.906-1.107,3.451,3.451,0,0,0-.926-.539c-1.41-.428-1.524,2.2-1.669,3.106A29.961,29.961,0,0,0,906.907,499.608Z" transform="translate(-677.592 -388.34)" fill="#fcb320"/>
    <path id="Path_369" data-name="Path 369" d="M869.127,538.874c.236,2.564-1.7,5.047-1.135,7.558.12.534.35,1.043.434,1.585.236,1.488-.654,2.9-1.5,4.144l-7.286,10.693a6.724,6.724,0,0,1-1.04,1.285c-1.39,1.238-3.482,1.112-5.312,1.479a9.178,9.178,0,0,0-3.56,1.574.231.231,0,0,0-.044.32,3.059,3.059,0,0,0,2.645,1.243c.192.25,0,.623-.264.8-.389.278-.929.342-1.007,1.007a1.112,1.112,0,0,0,.133.667,2.077,2.077,0,0,0,1.274.884c2.522.773,5.248-.584,7.136-2.428s3.242-4.171,5.095-6.046c1.026-1.04,2.191-1.927,3.248-2.934a37.158,37.158,0,0,0,5.328-6.894,7.631,7.631,0,0,0,1.154-2.347c.2-.854.106-1.719.331-2.544a9.349,9.349,0,0,1,1.746-2.853,9.436,9.436,0,0,0,1.986-6.151,5.9,5.9,0,0,0-3.6-5.1,3.234,3.234,0,0,0-2.016-.122,4.776,4.776,0,0,0-2.052,1.635l-1.391,1.6a3.723,3.723,0,0,0-.781,1.226,1.282,1.282,0,0,0,.278,1.363" transform="translate(-638.438 -418.803)" fill="#a1616a"/>
    <path id="Path_370" data-name="Path 370" d="M920.77,511.938a3.985,3.985,0,0,0-2.686.834,3.823,3.823,0,0,0-.678,1.062,10.578,10.578,0,0,0-1.343,4.227,19.331,19.331,0,0,0,.487,3.532,13.512,13.512,0,0,1-.3,2.967,20.608,20.608,0,0,0,3.832-1.474,12.829,12.829,0,0,1,2.244-1.165c1.143-.381,3.059.278,4.146.806.058-.762-.514-2.091-.453-2.856a3.188,3.188,0,0,1,.17-.945,5.737,5.737,0,0,1,.576-.915,3.743,3.743,0,0,0-.336-4.385,6.108,6.108,0,0,0-3.916-1.669,16.937,16.937,0,0,0-2.734-.095" transform="translate(-686.388 -402.384)" fill="#fcb320"/>
  </g>
</svg>
