<svg xmlns="http://www.w3.org/2000/svg" width="303.21" height="151.77" viewBox="0 0 303.21 151.77">
  <g id="Group_396" data-name="Group 396" transform="translate(0.29)">
    <rect id="Rectangle_147" data-name="Rectangle 147" width="134.834" height="67.417" transform="translate(156.368 10.033)" fill="#e6e6e6"/>
    <path id="Path_169" data-name="Path 169" d="M541.9,616.482l3.193-.92a41.829,41.829,0,0,0,1.448-4.487l-1.5-.055,1.635-.471c.473-1.887.667-3.166.667-3.166a40.091,40.091,0,0,0-11.354,5.693l-.6,4.222-.576-3.246a16.927,16.927,0,0,0-1.5,1.509c-4.7,5.4-6.739,11.309-4.564,13.2s7.745-.951,12.44-6.35a22.28,22.28,0,0,0,3.487-5.828Z" transform="translate(-401.038 -477.891)" fill="#e6e6e6"/>
    <path id="Path_170" data-name="Path 170" d="M176.126,553.021l-1.82-7.179a93.231,93.231,0,0,0-9.891-3.548l-.23,3.337-.932-3.676c-4.168-1.19-7-1.714-7-1.714s3.83,14.565,11.864,25.7l9.361,1.644-7.272,1.049a37.716,37.716,0,0,0,3.253,3.447c11.687,10.848,24.7,15.825,29.074,11.116s-1.561-17.319-13.248-28.167a49.657,49.657,0,0,0-12.73-8.186Z" transform="translate(-156.25 -433.665)" fill="#e6e6e6"/>
    <path id="Path_171" data-name="Path 171" d="M238.718,513.9l2.153-7.087a93.228,93.228,0,0,0-6.633-8.15l-1.921,2.737,1.1-3.628c-2.953-3.173-5.109-5.088-5.109-5.088s-4.25,14.448-3.129,28.133l7.163,6.246-6.767-2.862a37.723,37.723,0,0,0,1,4.633c4.4,15.327,12.967,26.316,19.142,24.545s7.616-15.633,3.219-30.96a49.657,49.657,0,0,0-6.666-13.587Z" transform="translate(-201.53 -402.342)" fill="#e6e6e6"/>
    <path id="Path_172" data-name="Path 172" d="M194.275,412.315l.752,3.383,5.262-.376-.376-3.758Z" transform="translate(-127.965 -271.089)" fill="#a1616a"/>
    <path id="Path_173" data-name="Path 173" d="M144.13,412.315l-.752,3.383-5.262-.376.376-3.758Z" transform="translate(-90.975 -271.089)" fill="#a1616a"/>
    <circle id="Ellipse_31" data-name="Ellipse 31" cx="7.141" cy="7.141" r="7.141" transform="translate(44.511 17.197)" fill="#a1616a"/>
    <path id="Path_174" data-name="Path 174" d="M134.49,76.812l-1.879,8.645,9.4,3.007-.376-10.9Z" transform="translate(-87.348 -50.595)" fill="#a1616a"/>
    <path id="Path_175" data-name="Path 175" d="M285.419,325.3l-4.729-3.58s-.909-1.306-1.285-.178-3.758,5.262-3.758,5.262l2.631,30.819L298.2,358s-7.784-35.927-8.778-34.688S285.795,324.547,285.419,325.3Z" transform="translate(-234.895 -289.31)" fill="#d0cde1"/>
    <path id="Path_176" data-name="Path 176" d="M313.982,320.774s-1.5,1.5-.752,2.631.188,3.218.94,3.394-.752,12.955,1.5,16.337,1.128,12.027,1.128,13.53,2.255,10.524,2.255,10.524,7.517.752,7.517-1.128-2.631-15.034-2.631-15.034l2.255-23.3a3.309,3.309,0,0,0-2.631-3.007c-2.631-.752-7.893-2.631-7.893-2.631Z" transform="translate(-259.512 -289.107)" fill="#2f2e41"/>
    <path id="Path_177" data-name="Path 177" d="M326.108,389.866h-1.879s-9.772.752-9.02-3.383,8.269-1.128,8.269-1.128l2.255,1.128Z" transform="translate(-260.926 -330.951)" fill="#a1616a"/>
    <path id="Path_178" data-name="Path 178" d="M267.208,318.922s-3.087,1.947-3.463,2.7-9.02,4.886-9.02,7.893,2.631,6.389,2.631,6.389l3.383,33.074s5.638,1.879,6.013.376,1.879-34.578,1.128-36.081S267.128,322,267.128,322Z" transform="translate(-221.114 -287.887)" fill="#2f2e41"/>
    <path id="Path_179" data-name="Path 179" d="M261.708,478.79l-.376,2.255s.376,7.517,3.383,7.141,1.128-7.893,1.128-7.893l-.376-1.5Z" transform="translate(-225.466 -393.189)" fill="#a1616a"/>
    <path id="Path_180" data-name="Path 180" d="M275.647,422.631s.376,33.826,2.255,44.725,2.631,29.692,2.631,29.692a49.309,49.309,0,0,1,5.638,1.128c.752.376,2.631-.752,2.631-.752l.376-55.625,7.141,25.182s1.128,30.443,3.383,31.2,9.02-.752,9.02-.752-2.631-28.94-3.383-30.068-2.631-34.2-5.638-40.215l-1.128-4.134S277.15,423.758,275.647,422.631Z" transform="translate(-234.895 -356.198)" fill="#2f2e41"/>
    <path id="Path_181" data-name="Path 181" d="M348.786,643.8s-1.879-1.5-1.879-.376-1.879,8.081.376,8.081,17.289,1.315,16.913-1.691-9.42-7.808-9.42-7.808a24.254,24.254,0,0,0-3.735,1.419C350.665,643.8,348.786,643.8,348.786,643.8Z" transform="translate(-281.348 -500.698)" fill="#2f2e41"/>
    <path id="Path_182" data-name="Path 182" d="M278.93,643.8s1.879-1.5,1.879-.376,1.879,8.081-.376,8.081-17.289,1.315-16.913-1.691,9.42-7.808,9.42-7.808a24.254,24.254,0,0,1,3.735,1.419C277.051,643.8,278.93,643.8,278.93,643.8Z" transform="translate(-226.903 -500.698)" fill="#2f2e41"/>
    <path id="Path_183" data-name="Path 183" d="M343.918,340.044l2.631.376,5.262,15.034s1.5,7.517-.752,8.644-6.511.907-6.511.907l-.63-8.424,1.879.376-1.879-3.758Z" transform="translate(-279.864 -301.8)" fill="#2f2e41"/>
    <path id="Path_184" data-name="Path 184" d="M253.607,345.55l-1.879,1.5s-1.879,19.168-1.5,21.047,2.631,24.806,2.631,24.806l6.389-1.5-4.51-45.477Z" transform="translate(-218.117 -305.426)" fill="#2f2e41"/>
    <path id="Path_185" data-name="Path 185" d="M282.432,269.462s-2.079-2.637,0-3.956v.659s4.455-4.945,7.128-3.626l2.376-.659v.659l1.485-.659-.3.989H295.2l-.891.659s6.831-.33,2.673,4.616c0,0,1.977,2.965.1,4.615,0,0-1.582-3.625-3.661-2.636a3.311,3.311,0,0,1-3.564-.33s-4.158-.33-3.564,1.648.3,2.637.3,2.637-1.485.989-1.188,1.648a10.25,10.25,0,0,1,.3,2.637s-1.485-2.308-2.079-1.978S279.759,273.418,282.432,269.462Z" transform="translate(-238.681 -250.314)" fill="#2f2e41"/>
    <path id="Path_186" data-name="Path 186" d="M332.306,89.651l-15.8.393L314.376,71.2h17.93Z" transform="translate(-207.074 -46.898)" fill="#2f2e41"/>
    <path id="Path_187" data-name="Path 187" d="M449.657,424.082l-5.768,40s-5,14.229-5.384,21.151l-1.538,10,6.922,1.538,7.307-28.073,10-25.382-1.154,29.227-2.307,23.843,6.922,1.154,4.23-30.381,4.615-22.3s3.461-19.228-1.923-21.151Z" transform="translate(-341.153 -356.901)" fill="#2f2e41"/>
    <path id="Path_188" data-name="Path 188" d="M441.568,626.075l-.77,9.36s8.238,4.762,5.594,5.686-6.261-.265-7-.474c-.781-.222-2.24-.575-3.344-.836a2.453,2.453,0,0,1-1.9-2.209l0-.034c-.067-1.152,2.532-11.161,2.532-11.161Z" transform="translate(-339.295 -490.203)" fill="#2f2e41"/>
    <path id="Path_189" data-name="Path 189" d="M504.295,626.761l.649,8.95s9.38,3.485,6.962,4.9-6.2.937-6.962.872c-1.413-.119-4.93-.238-4.93-.238s-.65.563-.935-.555.381-11.1.381-11.1Z" transform="translate(-382.018 -490.655)" fill="#2f2e41"/>
    <circle id="Ellipse_32" data-name="Ellipse 32" cx="7.307" cy="7.307" r="7.307" transform="translate(109.273 20.264)" fill="#a1616a"/>
    <path id="Path_190" data-name="Path 190" d="M326.2,93.171l-1.538,8.461,6.538,3.077,1.538-10.768Z" transform="translate(-213.846 -61.37)" fill="#a1616a"/>
    <path id="Path_191" data-name="Path 191" d="M483.161,433.15l8.076,5.768s3.461,8.845,6.153,7.307-3.077-9.23-3.077-9.23l-6.538-6.538Z" transform="translate(-371.581 -361.353)" fill="#a1616a"/>
    <path id="Path_192" data-name="Path 192" d="M542.429,430.458l.769,4.615s-1.923,9.614-4.23,7.691.769-8.076.769-8.076l-.385-3.846Z" transform="translate(-407.774 -361.353)" fill="#a1616a"/>
    <path id="Path_193" data-name="Path 193" d="M474.8,337.817l-.769-3.077-4.615-2.307-1.538,1.923-5,1.538,5.769,30.765s19.613,1.154,20-1.923S484.8,353.2,484.8,353.2s1.154-4.23.769-6.538l-1.538-9.23-6.153-1.923-1.405-1.7-1.287,2.085Z" transform="translate(-358.222 -296.787)" fill="#d0cde1"/>
    <path id="Path_194" data-name="Path 194" d="M457.528,343.343l-1.154-.769s-2.307.385-3.077,3.461,0,16.921,1.923,19.613,7.307,10.768,7.307,10.768l7.307-3.461-7.691-8.845-1.923-11.152Z" transform="translate(-351.716 -303.466)" fill="#d0cde1"/>
    <path id="Path_195" data-name="Path 195" d="M515.836,347.85l3.077-.769a5.208,5.208,0,0,1,2.692,3.461c.769,2.692,5,16.152,4.615,17.306s3.461,8.845,3.461,8.845l-5.384.385L521.22,369l-3.077-8.076Z" transform="translate(-393.103 -306.435)" fill="#d0cde1"/>
    <path id="Path_196" data-name="Path 196" d="M460.69,295.692a5.226,5.226,0,0,0,2.309-4.5c.051-1.757-.375-3.5-.409-5.254a4.062,4.062,0,0,1,.091-1.071,4.121,4.121,0,0,1,.589-1.22,11.388,11.388,0,0,1,9.156-5.264,4.066,4.066,0,0,1,1.549.285c.379.152.5.133.576.6a3.877,3.877,0,0,1,2.661.085,9,9,0,0,1,2.327,1.386,10.5,10.5,0,0,1,1.177,1.019c1.939,2.009,2.385,5.1,1.824,7.839-.183.889.694,1.747,1.419,2.294a5.268,5.268,0,0,1,1.918,1.883,8.16,8.16,0,0,1,.223,2.592,4.433,4.433,0,0,0,2.828,3.725,1.365,1.365,0,0,1-1.316.463,3.24,3.24,0,0,1-1.372-.653,8.159,8.159,0,0,1-3.042-4.513,13.236,13.236,0,0,0-.123,2.959,8.266,8.266,0,0,0,.6,3.232,4.733,4.733,0,0,0,2.179,2.4,2.57,2.57,0,0,1-2.805-.559,5.862,5.862,0,0,1-1.614-2.69,13.405,13.405,0,0,1-.646-5.088,7.264,7.264,0,0,0-.912,4.953,7.572,7.572,0,0,0,2.568,4.458,14.751,14.751,0,0,1-6.752-1.7,3.822,3.822,0,0,1-1.385-1.066,4.428,4.428,0,0,1-.324-3.328c.149-.894-.968-2.186-.329-2.828a1.061,1.061,0,0,1,.711-.306,6.293,6.293,0,0,0,4.793-2.825,7.275,7.275,0,0,0,1.211-3.731,6.789,6.789,0,1,0-13.273,2.015,13.622,13.622,0,0,1,.494,2.3,18.081,18.081,0,0,0,.551,2.676,6.957,6.957,0,0,0,2.821,4.284,4.4,4.4,0,0,1-1.678.355,10.305,10.305,0,0,1-5.629-.673A4.981,4.981,0,0,1,460.69,295.692Z" transform="translate(-356.774 -261.182)" fill="#2f2e41"/>
    <path id="Path_197" data-name="Path 197" d="M472.876,293.172c5.467-2.191,10.857-2.659,16.107,0v-4.417a2.877,2.877,0,0,0-2.877-2.877H475.149a2.273,2.273,0,0,0-2.273,2.273Z" transform="translate(-364.806 -266.121)" fill="#2f2e41"/>
    <ellipse id="Ellipse_33" data-name="Ellipse 33" cx="0.806" cy="1.289" rx="0.806" ry="1.289" transform="translate(108.966 27.207)" fill="#a1616a"/>
    <rect id="Rectangle_148" data-name="Rectangle 148" width="178" height="1" transform="translate(-0.29 150.77)" fill="#3f3d56"/>
    <path id="Path_198" data-name="Path 198" d="M782.227,296.095H646.71V228H782.227Zm-134.834-.683H781.544V228.678H647.393Z" transform="translate(-479.307 -227.995)" fill="#3f3d56"/>
    <path id="Path_199" data-name="Path 199" d="M822.82,379.647a5.5,5.5,0,1,1-1.61-3.9A5.508,5.508,0,0,1,822.82,379.647Z" transform="translate(-588.051 -324.255)" fill="#00923f"/>
    <path id="Path_200" data-name="Path 200" d="M822.82,379.647a5.5,5.5,0,1,1-1.61-3.9A5.508,5.508,0,0,1,822.82,379.647Z" transform="translate(-588.392 -324.255)" opacity="0.3"/>
    <path id="Path_201" data-name="Path 201" d="M812.185,282.531a12.763,12.763,0,0,1-1.089,5.232,13.029,13.029,0,0,1-1.13,2.031,16.812,16.812,0,0,1-3.222,3.481c-.212.177-.444.362-.754.6-.389.29-.823.594-1.321.922a27.574,27.574,0,0,0-2.536,1.853,5.625,5.625,0,0,0-1.232,1.331,9.558,9.558,0,0,0-.631,4.222v.341h-9.2v-1.6c0-1.249.031-2.3.089-3.215a22.986,22.986,0,0,1,.259-2.475,6.141,6.141,0,0,1,.642-2.065,18.613,18.613,0,0,1,4.451-4.185c.1-.075.2-.154.311-.232s.194-.14.293-.215a14.17,14.17,0,0,0,2.273-2.014,7.274,7.274,0,0,0,.553-.737l.044-.068a5.9,5.9,0,0,0,.758-3.113,5.454,5.454,0,0,0-.055-.823,4.351,4.351,0,0,0-1.386-2.772,4.957,4.957,0,0,0-3.109-1.3c-.147-.014-.283-.017-.423-.017a6.6,6.6,0,0,0-1.614.191,4.865,4.865,0,0,0-2.539,1.57,6.6,6.6,0,0,0-.888,1.355,19.791,19.791,0,0,0-1.529,5.85l-.034.358-8.663-2.307V280.92c.041-.154.085-.307.133-.457a17.235,17.235,0,0,1,2.6-5.335,13.54,13.54,0,0,1,1.683-1.9c.147-.147.307-.29.468-.43a15.556,15.556,0,0,1,3.444-2.266l.109-.051a17.333,17.333,0,0,1,7.519-1.6c.27,0,.587,0,.9.02a17.175,17.175,0,0,1,7.4,1.887,15.087,15.087,0,0,1,2.877,1.939,12.293,12.293,0,0,1,4.441,8.082,14.4,14.4,0,0,1,.1,1.72Z" transform="translate(-567.432 -254.925)" fill="#00923f"/>
    <path id="Path_202" data-name="Path 202" d="M812.185,282.531a12.763,12.763,0,0,1-1.089,5.232,13.029,13.029,0,0,1-1.13,2.031,16.812,16.812,0,0,1-3.222,3.481c-.212.177-.444.362-.754.6-.389.29-.823.594-1.321.922a27.574,27.574,0,0,0-2.536,1.853,5.625,5.625,0,0,0-1.232,1.331,9.558,9.558,0,0,0-.631,4.222v.341h-9.2v-1.6c0-1.249.031-2.3.089-3.215a22.986,22.986,0,0,1,.259-2.475,6.141,6.141,0,0,1,.642-2.065,18.613,18.613,0,0,1,4.451-4.185c.1-.075.2-.154.311-.232s.194-.14.293-.215a14.17,14.17,0,0,0,2.273-2.014,7.274,7.274,0,0,0,.553-.737l.044-.068a5.9,5.9,0,0,0,.758-3.113,5.454,5.454,0,0,0-.055-.823,4.351,4.351,0,0,0-1.386-2.772,4.957,4.957,0,0,0-3.109-1.3c-.147-.014-.283-.017-.423-.017a6.6,6.6,0,0,0-1.614.191,4.865,4.865,0,0,0-2.539,1.57,6.6,6.6,0,0,0-.888,1.355,19.791,19.791,0,0,0-1.529,5.85l-.034.358-8.663-2.307V280.92c.041-.154.085-.307.133-.457a17.235,17.235,0,0,1,2.6-5.335,13.54,13.54,0,0,1,1.683-1.9c.147-.147.307-.29.468-.43a15.556,15.556,0,0,1,3.444-2.266l.109-.051a17.333,17.333,0,0,1,7.519-1.6c.27,0,.587,0,.9.02a17.175,17.175,0,0,1,7.4,1.887,15.087,15.087,0,0,1,2.877,1.939,12.293,12.293,0,0,1,4.441,8.082,14.4,14.4,0,0,1,.1,1.72Z" transform="translate(-567.432 -254.925)" opacity="0.3"/>
    <path id="Path_203" data-name="Path 203" d="M811.82,379.647a5.5,5.5,0,1,1-1.61-3.9A5.508,5.508,0,0,1,811.82,379.647Z" transform="translate(-580.805 -324.255)" fill="#fcb320"/>
    <path id="Path_204" data-name="Path 204" d="M799.762,282.531a12.762,12.762,0,0,1-1.089,5.232,13.023,13.023,0,0,1-1.13,2.031,16.812,16.812,0,0,1-3.222,3.481c-.212.177-.444.362-.754.6-.389.29-.823.594-1.321.922a27.575,27.575,0,0,0-2.536,1.853,5.625,5.625,0,0,0-1.232,1.331,9.559,9.559,0,0,0-.631,4.222v.341h-9.2v-1.6c0-1.249.031-2.3.089-3.215a23,23,0,0,1,.259-2.475,6.143,6.143,0,0,1,.642-2.065,18.615,18.615,0,0,1,4.451-4.185c.1-.075.2-.154.311-.232s.194-.14.293-.215a14.17,14.17,0,0,0,2.273-2.014,7.283,7.283,0,0,0,.553-.737l.044-.068a5.9,5.9,0,0,0,.758-3.113,5.454,5.454,0,0,0-.055-.823,4.351,4.351,0,0,0-1.386-2.772,4.957,4.957,0,0,0-3.109-1.3c-.147-.014-.283-.017-.423-.017a6.606,6.606,0,0,0-1.615.191,4.864,4.864,0,0,0-2.539,1.57,6.6,6.6,0,0,0-.888,1.355,13.561,13.561,0,0,0-1.188,4.826l-.034.358-9.741-1.389.048-.338a24.441,24.441,0,0,1,.823-3.833,17.235,17.235,0,0,1,2.6-5.335,13.542,13.542,0,0,1,1.683-1.9c.147-.147.307-.29.468-.43a15.556,15.556,0,0,1,3.444-2.266l.109-.051a17.333,17.333,0,0,1,7.519-1.6c.27,0,.587,0,.9.02a17.176,17.176,0,0,1,7.4,1.887,15.088,15.088,0,0,1,2.877,1.939,12.292,12.292,0,0,1,4.441,8.082A14.418,14.418,0,0,1,799.762,282.531Z" transform="translate(-558.764 -254.925)" fill="#fcb320"/>
  </g>
</svg>
