<svg id="Group_408" data-name="Group 408" xmlns="http://www.w3.org/2000/svg" width="333.272" height="203.162" viewBox="0 0 333.272 203.162">
  <path id="Path_371" data-name="Path 371" d="M167.519,551.542l-.572-.129a130.18,130.18,0,0,1,253.869-.346l-.571.13A128.844,128.844,0,0,0,293.921,450.531C233.84,450.531,180.68,493.012,167.519,551.542Z" transform="translate(-127.245 -348.38)" fill="#3f3d56"/>
  <path id="Path_372" data-name="Path 372" d="M214.269,775.355a5.9,5.9,0,0,0,2.2,2.972,5.079,5.079,0,0,0-1.8-6.647A5.9,5.9,0,0,0,214.269,775.355Z" transform="translate(-160.591 -575.81)" fill="#3f3d56"/>
  <path id="Path_373" data-name="Path 373" d="M208.908,779.4a5.9,5.9,0,0,1,1.529,3.365,5.079,5.079,0,0,1-4.934-4.8A5.9,5.9,0,0,1,208.908,779.4Z" transform="translate(-154.5 -580.253)" fill="#6c63ff"/>
  <path id="Path_374" data-name="Path 374" d="M343.269,775.355a5.9,5.9,0,0,0,2.2,2.972,5.079,5.079,0,0,0-1.8-6.647A5.9,5.9,0,0,0,343.269,775.355Z" transform="translate(-251.779 -575.81)" fill="#3f3d56"/>
  <path id="Path_375" data-name="Path 375" d="M337.908,779.4a5.9,5.9,0,0,1,1.529,3.365,5.079,5.079,0,0,1-4.934-4.8A5.9,5.9,0,0,1,337.908,779.4Z" transform="translate(-245.688 -580.253)" fill="#6c63ff"/>
  <path id="Path_376" data-name="Path 376" d="M323.273,98.251l-5.987-4.79,33.525-29.933H435.82V89.87l-55.076,37.117Z" transform="translate(-224.285 -44.908)" fill="#3f3d56"/>
  <path id="Path_377" data-name="Path 377" d="M604.485,80.32V64.127H593.2v3.966l-4.212-4.564L561.448,93.462l-10.776,7.184L533.964,222.717l25.2,25.2h58.56V94.659Z" transform="translate(-377.451 -44.908)" fill="#ccc"/>
  <rect id="Rectangle_165" data-name="Rectangle 165" width="90.996" height="154.453" transform="translate(93.002 48.554)" fill="#f2f2f2"/>
  <rect id="Rectangle_166" data-name="Rectangle 166" width="16.762" height="37.715" transform="translate(128.322 165.292)" fill="#ccc"/>
  <path id="Path_378" data-name="Path 378" d="M359.191,586.24v-5.987h-7.184v5.987h7.184Z" transform="translate(-248.828 -410.172)" fill="#3f3d56"/>
  <path id="Path_379" data-name="Path 379" d="M358.592,617.016h-6.585V623h7.184v-5.987Z" transform="translate(-248.828 -436.159)" fill="#3f3d56"/>
  <rect id="Rectangle_167" data-name="Rectangle 167" width="7.184" height="5.987" transform="translate(115.152 170.081)" fill="#3f3d56"/>
  <rect id="Rectangle_168" data-name="Rectangle 168" width="7.184" height="5.987" transform="translate(115.152 180.857)" fill="#3f3d56"/>
  <path id="Path_380" data-name="Path 380" d="M526.667,586.24v-5.987h-7.184v5.987h7.184Z" transform="translate(-367.214 -410.172)" fill="#3f3d56"/>
  <path id="Path_381" data-name="Path 381" d="M526.068,617.016h-6.585V623h7.184v-5.987Z" transform="translate(-367.214 -436.159)" fill="#3f3d56"/>
  <rect id="Rectangle_169" data-name="Rectangle 169" width="7.184" height="5.987" transform="translate(164.242 170.081)" fill="#3f3d56"/>
  <rect id="Rectangle_170" data-name="Rectangle 170" width="7.184" height="5.987" transform="translate(164.242 180.857)" fill="#3f3d56"/>
  <path id="Path_382" data-name="Path 382" d="M698.227,177.762v-5.986h-7.184v5.986h7.184Z" transform="translate(-488.488 -121.426)" fill="#3f3d56"/>
  <path id="Path_383" data-name="Path 383" d="M697.628,208.539h-6.585v5.986h7.184v-5.986Z" transform="translate(-488.488 -147.413)" fill="#3f3d56"/>
  <rect id="Rectangle_171" data-name="Rectangle 171" width="7.184" height="5.987" transform="translate(214.529 50.35)" fill="#3f3d56"/>
  <rect id="Rectangle_172" data-name="Rectangle 172" width="7.184" height="5.987" transform="translate(214.529 61.126)" fill="#3f3d56"/>
  <path id="Path_384" data-name="Path 384" d="M698.227,292.136v-5.987h-7.184v5.987h7.184Z" transform="translate(-488.488 -202.274)" fill="#3f3d56"/>
  <path id="Path_385" data-name="Path 385" d="M697.628,322.912h-6.585V328.9h7.184v-5.987Z" transform="translate(-488.488 -228.261)" fill="#3f3d56"/>
  <rect id="Rectangle_173" data-name="Rectangle 173" width="7.184" height="5.987" transform="translate(214.529 83.875)" fill="#3f3d56"/>
  <rect id="Rectangle_174" data-name="Rectangle 174" width="7.184" height="5.987" transform="translate(214.529 94.651)" fill="#3f3d56"/>
  <path id="Path_386" data-name="Path 386" d="M698.227,406.51v-5.987h-7.184v5.987h7.184Z" transform="translate(-488.488 -283.123)" fill="#3f3d56"/>
  <path id="Path_387" data-name="Path 387" d="M697.628,437.286h-6.585v5.987h7.184v-5.987Z" transform="translate(-488.488 -309.111)" fill="#3f3d56"/>
  <rect id="Rectangle_175" data-name="Rectangle 175" width="7.184" height="5.987" transform="translate(214.529 117.4)" fill="#3f3d56"/>
  <rect id="Rectangle_176" data-name="Rectangle 176" width="7.184" height="5.987" transform="translate(214.529 128.175)" fill="#3f3d56"/>
  <path id="Path_388" data-name="Path 388" d="M698.227,520.884V514.9h-7.184v5.987h7.184Z" transform="translate(-488.488 -363.973)" fill="#3f3d56"/>
  <path id="Path_389" data-name="Path 389" d="M697.628,551.66h-6.585v5.987h7.184V551.66Z" transform="translate(-488.488 -389.96)" fill="#3f3d56"/>
  <rect id="Rectangle_177" data-name="Rectangle 177" width="7.184" height="5.987" transform="translate(214.529 150.924)" fill="#3f3d56"/>
  <rect id="Rectangle_178" data-name="Rectangle 178" width="7.184" height="5.987" transform="translate(214.529 161.7)" fill="#3f3d56"/>
  <rect id="Rectangle_179" data-name="Rectangle 179" width="69.444" height="14.368" transform="translate(103.179 56.337)" fill="#3f3d56"/>
  <rect id="Rectangle_180" data-name="Rectangle 180" width="69.444" height="14.368" transform="translate(103.179 85.072)" fill="#3f3d56"/>
  <rect id="Rectangle_181" data-name="Rectangle 181" width="69.444" height="14.368" transform="translate(103.179 113.808)" fill="#3f3d56"/>
  <rect id="Rectangle_182" data-name="Rectangle 182" width="69.444" height="14.368" transform="translate(103.179 142.543)" fill="#3f3d56"/>
  <rect id="Rectangle_183" data-name="Rectangle 183" width="333.272" height="0.586" transform="translate(0 202.405)" fill="#3f3d56"/>
  <rect id="Rectangle_184" data-name="Rectangle 184" width="1.722" height="68.019" transform="translate(55.811 134.72)" fill="#3f3d56"/>
  <path id="Path_390" data-name="Path 390" d="M200.857,488.961c.11,23.784-16.624,43.143-16.624,43.143s-16.911-19.2-17.021-42.988,16.624-43.143,16.624-43.143S200.748,465.176,200.857,488.961Z" transform="translate(-127.433 -345.572)" fill="#00923f"/>
  <path id="Path_391" data-name="Path 391" d="M200.857,488.961c.11,23.784-16.624,43.143-16.624,43.143s-16.911-19.2-17.021-42.988,16.624-43.143,16.624-43.143S200.748,465.176,200.857,488.961Z" transform="translate(-127.433 -345.572)" fill="#00923f" opacity="0.1"/>
  <rect id="Rectangle_185" data-name="Rectangle 185" width="1.722" height="68.019" transform="translate(33.425 134.72)" fill="#3f3d56"/>
  <path id="Path_392" data-name="Path 392" d="M124.485,488.961c.11,23.784-16.624,43.143-16.624,43.143S90.95,512.9,90.84,489.116s16.624-43.143,16.624-43.143S124.375,465.176,124.485,488.961Z" transform="translate(-73.446 -345.572)" fill="#fcb320"/>
  <path id="Path_393" data-name="Path 393" d="M917.716,239.556c-13.564.063-24.605.263-24.605.263s13.124-17.384,24.556-10.943a156.107,156.107,0,0,0,24.565,10.717S931.28,239.493,917.716,239.556Z" transform="translate(-640.559 -191.098)" fill="#f2f2f2"/>
  <path id="Path_394" data-name="Path 394" d="M146.716,353.556c-13.564.063-24.605.263-24.605.263s13.124-17.384,24.556-10.943a156.107,156.107,0,0,0,24.565,10.717S160.28,353.493,146.716,353.556Z" transform="translate(-95.551 -271.683)" fill="#f2f2f2"/>
  <path id="Path_395" data-name="Path 395" d="M314.716,115.556c-13.564.063-24.605.263-24.605.263s13.124-17.384,24.556-10.943a156.108,156.108,0,0,0,24.565,10.717S328.28,115.493,314.716,115.556Z" transform="translate(-214.308 -103.444)" fill="#f2f2f2"/>
  <rect id="Rectangle_186" data-name="Rectangle 186" width="1.722" height="68.019" transform="translate(303.384 134.72)" fill="#3f3d56"/>
  <path id="Path_396" data-name="Path 396" d="M1045.485,488.961c.11,23.784-16.624,43.143-16.624,43.143s-16.911-19.2-17.021-42.988,16.624-43.143,16.624-43.143S1045.375,465.176,1045.485,488.961Z" transform="translate(-724.487 -345.572)" fill="#00923f"/>
  <path id="Path_397" data-name="Path 397" d="M802.989,537.513h17.379v-4.195h9.588v4.195h17.978V556.09H829.956v23.371h-9.588V556.09H802.989L794,545.9Z" transform="translate(-561.266 -376.994)" fill="#3f3d56"/>
</svg>
