<svg id="Group_404" data-name="Group 404" xmlns="http://www.w3.org/2000/svg" width="220.162" height="301.69" viewBox="0 0 220.162 301.69">
  <path id="Path_268" data-name="Path 268" d="M243.221,612.641l-3.775-14.889a193.344,193.344,0,0,0-20.512-7.359l-.477,6.92-1.933-7.623c-8.644-2.468-14.525-3.556-14.525-3.556s7.943,30.206,24.6,53.3l19.413,3.41-15.082,2.175a78.236,78.236,0,0,0,6.746,7.149c24.237,22.5,51.232,32.819,60.3,23.054S294.741,639.3,270.5,616.807c-7.514-6.974-16.952-12.571-26.4-16.976Z" transform="translate(-202 -377.215)" fill="#e6e6e6"/>
  <path id="Path_269" data-name="Path 269" d="M345.061,550.86l4.465-14.7a193.34,193.34,0,0,0-13.755-16.9l-3.985,5.677,2.286-7.525c-6.124-6.581-10.6-10.552-10.6-10.552s-8.814,29.964-6.488,58.345l14.856,12.954-14.035-5.934a78.228,78.228,0,0,0,2.08,9.607c9.119,31.786,26.893,54.576,39.7,50.9s15.795-32.42,6.676-64.206c-2.827-9.854-8.014-19.524-13.825-28.178Z" transform="translate(-267.937 -331.602)" fill="#e6e6e6"/>
  <path id="Path_272" data-name="Path 272" d="M528.033,114.62V374.554a20.509,20.509,0,0,1-20.5,20.505H406.514A20.512,20.512,0,0,1,386,374.551V114.62a20.511,20.511,0,0,1,20.514-20.505h12.254a9.752,9.752,0,0,0,9.021,13.425H485.38A9.752,9.752,0,0,0,494.4,94.114h13.126a20.509,20.509,0,0,1,20.505,20.5Z" transform="translate(-307.871 -94.114)" fill="#001a0b"/>
  <path id="Path_273" data-name="Path 273" d="M505.98,333.905a10.139,10.139,0,0,1,5.075-8.786,10.145,10.145,0,1,0,0,17.57A10.138,10.138,0,0,1,505.98,333.905Z" transform="translate(-371.068 -226.248)" fill="#fff"/>
  <path id="Path_274" data-name="Path 274" d="M536.016,333.905a10.139,10.139,0,0,1,5.075-8.786,10.145,10.145,0,1,0,0,17.57A10.138,10.138,0,0,1,536.016,333.905Z" transform="translate(-388.35 -226.248)" fill="#fff"/>
  <circle id="Ellipse_36" data-name="Ellipse 36" cx="10.145" cy="10.145" r="10.145" transform="translate(149.985 97.512)" fill="#00923f"/>
  <rect id="Rectangle_162" data-name="Rectangle 162" width="90.683" height="0.849" transform="translate(103.85 174.052)" fill="#fff"/>
  <circle id="Ellipse_37" data-name="Ellipse 37" cx="2.864" cy="2.864" r="2.864" transform="translate(103.85 163.021)" fill="#fcb320"/>
  <rect id="Rectangle_163" data-name="Rectangle 163" width="90.683" height="0.849" transform="translate(103.85 202.688)" fill="#fff"/>
  <circle id="Ellipse_38" data-name="Ellipse 38" cx="2.864" cy="2.864" r="2.864" transform="translate(103.85 191.658)" fill="#fcb320"/>
  <path id="Path_275" data-name="Path 275" d="M536.048,336.4H476.922a2.126,2.126,0,0,1-2.123-2.123V275.155a2.126,2.126,0,0,1,2.123-2.123h59.126a2.126,2.126,0,0,1,2.123,2.123v59.126A2.126,2.126,0,0,1,536.048,336.4Zm-59.126-62.523a1.275,1.275,0,0,0-1.274,1.274v59.126a1.275,1.275,0,0,0,1.274,1.274h59.126a1.275,1.275,0,0,0,1.274-1.274V275.155a1.275,1.275,0,0,0-1.274-1.274Z" transform="translate(-358.964 -197.061)" fill="#fff"/>
  <rect id="Rectangle_164" data-name="Rectangle 164" width="31.978" height="13.364" rx="4" transform="translate(162.555 221.727)" fill="#fcb320"/>
</svg>
