<svg xmlns="http://www.w3.org/2000/svg" width="263.841" height="233.174" viewBox="0 0 263.841 233.174"><g transform="translate(-58.808)"><circle cx="7.731" cy="7.731" r="7.731" transform="translate(264.582 77.771)" fill="#fcb320" opacity="0.4"/><circle cx="11.021" cy="11.021" r="11.021" transform="translate(98.288 28.658)" fill="#fcb320" opacity="0.4"/><circle cx="7.731" cy="7.731" r="7.731" transform="translate(81.181 37.211)" fill="#00923f" opacity="0.4"/><path d="M921.43,579.467c-6.109,6.688-6.331,16.43-6.331,16.43s9.682-1.1,15.791-7.789,6.331-16.43,6.331-16.43S927.539,572.779,921.43,579.467Z" transform="translate(-642.642 -407.51)" fill="#3f3d56"/><path d="M919.031,567.352c-1.849,8.867-9.619,14.748-9.619,14.748s-4.773-8.5-2.925-17.363,9.619-14.748,9.619-14.748S920.879,558.485,919.031,567.352Z" transform="translate(-636.791 -393.471)" fill="#00923f"/><path d="M382.243,233.581V339.287l-35.235,29.108H166.746V257.582l52.6-24Z" transform="translate(-107.938 -151.198)" fill="#3f3d56"/><path d="M382.243,233.581V234l-12.649,8.467-22.586,15.111H166.746l52.6-24Z" transform="translate(-107.938 -151.198)" opacity="0.1"/><path d="M713.078,233.581V339.287l-35.235,29.108.255-111.068,22.331-14.855,12.445-8.89Z" transform="translate(-438.773 -151.198)" opacity="0.1"/><path d="M441.594,266.41H331.8l8.171-4.6h105.2Z" transform="translate(-214.78 -169.473)" fill="#2f2e41"/><path d="M1016.354,738.332s2.128,8.9.193,9.288-11.416.262-13.738.649-7.159-.262-7.159-2,5.031-2.9,5.031-2.9,7.159-3.87,7.353-4.063S1016.354,738.332,1016.354,738.332Z" transform="translate(-694.782 -515.386)" fill="#2f2e41"/><path d="M1029.528,587.882s-.58,6.579-.58,7.159.58,9.675,0,10.062.387,3.1.387,4.063,3.1,17.028,2.322,23.219,1.161,5.611.58,6.192-.58.581-.58,1.741-6.192,2.128-6.192,2.128l-6.772-42.762,3.483-12.771Z" transform="translate(-709.697 -417.373)" fill="#575a89"/><path d="M1029.528,587.882s-.58,6.579-.58,7.159.58,9.675,0,10.062.387,3.1.387,4.063,3.1,17.028,2.322,23.219,1.161,5.611.58,6.192-.58.581-.58,1.741-6.192,2.128-6.192,2.128l-6.772-42.762,3.483-12.771Z" transform="translate(-709.697 -417.373)" opacity="0.1"/><path d="M1008.319,744.2s1.935,6.966,0,7.353-11.416-.443-13.738-.056-7.159.443-7.159-1.3,5.031-2.9,5.031-2.9,7.159-3.87,7.353-4.063S1008.319,744.2,1008.319,744.2Z" transform="translate(-689.455 -518.542)" fill="#2f2e41"/><path d="M1019.208,567.713s2.322,5.611-.387,8.514a39.336,39.336,0,0,0-5.8,9.094c0,.387,5.418,38.892,4.644,41.408s-.581,4.063-.387,4.45-1.935,2.515-4.257,2.515-5.8-1.741-6.192-3.289.581-14.9.387-17.414a29.158,29.158,0,0,0-1.548-6.966c-.387-.774-2.516-1.548-2.9-3.87s-3.483-31.927-2.515-32.894S1019.208,567.713,1019.208,567.713Z" transform="translate(-697.636 -404.943)" fill="#575a89"/><circle cx="6.579" cy="6.579" r="6.579" transform="translate(300.288 105.108)" fill="#a0616a"/><path d="M1007.837,430.555s-1.354,7.159-.387,7.933-7.353,1.935-7.353,1.935-.967-9.481-1.161-10.449S1007.837,430.555,1007.837,430.555Z" transform="translate(-696.907 -315.579)" fill="#a0616a"/><path d="M992.18,449.022s2.322-6.772,11.8-4.837c0,0,1.741.581,1.161,1.161s-1.161.581-.387,1.161,1.741,0,1.161.58,5.224,4.063,4.837,10.642,1.354,15.867,0,17.414.967,8.32.581,9.675,2.322,3.1,1.161,3.676-22.058,4.063-22.639,0-.193-1.161-.774-2.128a7.429,7.429,0,0,1-.387-4.837c.387-2.128,1.354-7.353.967-9.288s0-18.189,1.161-20.123A10.041,10.041,0,0,0,992.18,449.022Z" transform="translate(-690.151 -324.758)" fill="#464353"/><path d="M1002.647,591.69s2.9,11.029-.774,11.029S998.39,591.3,998.39,591.3Z" transform="translate(-696.555 -420.214)" fill="#a0616a"/><path d="M1004.428,406.142c0,.561.813.917,2.072,1h0a10.542,10.542,0,0,0,1.6-.031c.8-.074,1.138.683,1.275,1.681.224,1.647-.089,3.955.273,4.317.5.5,4.139,0,5.277-1.134a1.051,1.051,0,0,0,.335-.608,3.234,3.234,0,0,1,.971-1.805c.671-.733,1.627-1.546,2.705-2.839,1.935-2.322,0-2.515-.581-4.257s-1.548-2.322-1.548-3.483-4.45-2.128-8.127-1.935-2.9,4.837-2.9,4.837-.219.561-.48,1.285a20.191,20.191,0,0,0-.859,2.79,1.408,1.408,0,0,0-.015.182Z" transform="translate(-700.464 -294.455)" fill="#2f2e41"/><path d="M1001.467,466.763s6.579-.387,7.159,9.288.387,18.769.387,18.962-2.709,18.575-5.224,18.575-4.45-.387-5.031-1.354,1.548-14.9,1.548-14.9.967-14.706-.581-19.349S997.984,467.344,1001.467,466.763Z" transform="translate(-696.729 -339.597)" opacity="0.1"/><path d="M998.724,464.02s6.579-.387,7.159,9.288.387,18.769.387,18.962-2.709,18.576-5.224,18.576-4.45-.387-5.031-1.354,1.548-14.9,1.548-14.9.967-14.706-.581-19.349S995.241,464.6,998.724,464.02Z" transform="translate(-694.953 -337.822)" fill="#fcb320"/><path d="M684.624,184.714s-2.867-8.123-4.938-5.575,3.186,6.849,3.186,6.849Z" transform="translate(-489.945 -153.098)" fill="#a0616a"/><path d="M702.85,173.273l-1.725.639s-.824,3.661-.505,4.3.478.159,0,1.434-1.911,4.619-2.071,5.1-9.238-3.026-9.238-4.778a16.215,16.215,0,0,1-2.867,2.708s10.513,7.646,11.946,8.6,2.23.478,3.5-.637,6.69-10.353,6.69-10.353Z" transform="translate(-494.632 -149.621)" fill="#575a89"/><path d="M689.747,331.72s.159,1.752.478,1.911,2.708,4.141,0,4.938-4.3.478-4.938.8-11.787.956-11.946-.8,5.416-2.071,5.416-2.071,5.1-3.345,5.893-5.1S689.747,331.72,689.747,331.72Z" transform="translate(-486.148 -251.522)" fill="#2f2e41"/><path d="M791.4,342.628s3.823,6.531,2.867,7.327-10.263,3.7-11.628,3.823c-1.752.159-3.026-1.274-1.593-2.071s4.46-4.141,4.46-5.256v-2.867Z" transform="translate(-555.469 -259.245)" fill="#2f2e41"/><path d="M744.753,221.6s3.345,4.141-1.911,10.831l-8.76,11.15s5.416,8.6,5.575,13.061,1.274,3.5,1.593,5.416,1.752.956.637,2.389-5.256,2.708-6.531,1.593a3.949,3.949,0,0,1-1.274-3.186c0-.637-2.23-4.3-2.389-5.416s-6.053-10.194-6.053-10.194-1.911-5.416.319-8.442a32,32,0,0,0,3.7-7.319s-6.571,7.956-11.19,9.867c0,0-1.752.319-1.434,1.115s0,1.274-.478,2.071-3.823,10.035-4.938,12.424-.637,3.823-1.911,4.619-7.008.159-7.008-.637a16.235,16.235,0,0,1,1.274-3.982c.478-1.115,4.3-14.017,3.982-16.247s.159-5.256,2.548-6.531S725,222.552,725.639,222.552,744.753,221.6,744.753,221.6Z" transform="translate(-505.156 -180.901)" fill="#2f2e41"/><circle cx="6.69" cy="6.69" r="6.69" transform="translate(200.891 2.308)" fill="#a0616a"/><path d="M734.573,133.531s2.071,3.663,4.619,4.141-6.69,7.8-6.69,7.8-2.23-7.008-4.141-7.327S734.573,133.531,734.573,133.531Z" transform="translate(-521.576 -123.896)" fill="#a0616a"/><path d="M727.992,154.508c0,2.071,6.212,7.964,6.212,7.964l5.893,4.938s.159,1.752.8,1.911,1.433.159.8,1.115-2.23,3.026-.8,3.345a11.714,11.714,0,0,0,1.3.124c.382.022.831.043,1.336.062,1.179.041,2.654.068,4.251.057q.681,0,1.386-.016c6.022-.119,13-.812,12.429-3.095-.956-3.823-.319-5.1-2.389-7.168s-5.416-9.238-5.416-9.238-6.69-11.309-12.265-11.309l-1.158-.3a2.652,2.652,0,0,0-2.894,1.112,29.336,29.336,0,0,1-3.912,5.086c-1.593,1.274-1.841.36-1.841.36S727.992,152.437,727.992,154.508Z" transform="translate(-521.526 -129.9)" fill="#575a89"/><path d="M763.249,244.628s-4.619,7.168-1.752,8.442,4.46-7.486,4.46-7.486Z" transform="translate(-542.606 -195.81)" fill="#a0616a"/><path d="M722.346,114.455c-.257-.032-.338-.356-.381-.612a3.437,3.437,0,0,0-2.618-2.883,3.707,3.707,0,0,0-1.56.126,5.918,5.918,0,0,0-2,.985,3.3,3.3,0,0,1-1,.628c-.251.074-1.317.548-1.566.628-.548.176-1,.749-1.565.636-.539-.109-.744-.76-.831-1.3a6.85,6.85,0,0,1,1.216-4.122A4.372,4.372,0,0,1,714.384,107a16.842,16.842,0,0,1,3.251-.646,10.513,10.513,0,0,1,4.455.191,4.253,4.253,0,0,1,2.991,3.06c.055.307.066.622.134.926a13.777,13.777,0,0,0,.944,2.073,3.992,3.992,0,0,1-.122,3.236c-.4.8-1.088,1.566-.939,2.446l-1.229-.969a.893.893,0,0,1-.41-1.045l.179-1.539a1.354,1.354,0,0,0-.08-.832C723.012,112.95,722.774,114.509,722.346,114.455Z" transform="translate(-510.392 -106.213)" fill="#2f2e41"/><path d="M766.829,172.248l-1.5,6.239c1.513.054,3.515.083,5.637.041.535-1.606,1.047-3.28,1.438-4.847,1.434-5.734-.956-14.495-2.23-18.636a8,8,0,0,0-4.46-5.256,14.526,14.526,0,0,0-3.664,1.911C759.98,153.134,766.829,172.248,766.829,172.248Z" transform="translate(-543.32 -134.42)" opacity="0.1"/><path d="M768.487,177.793l-1.563,6.5c.382.022.831.043,1.336.062,1.179.041,2.654.068,4.251.057.575-1.706,1.131-3.506,1.55-5.181,1.433-5.734-.956-14.495-2.23-18.636s-4.062.4-4.062.4,1.115-2.708-.956-1.274S768.487,177.793,768.487,177.793Z" transform="translate(-546.252 -140.284)" opacity="0.1"/><path d="M763.908,148.886a8,8,0,0,1,4.46,5.256c1.274,4.141,3.663,12.9,2.23,18.636a107.375,107.375,0,0,1-4.46,12.9s-3.026-2.23-4.141-1.752l3.026-12.583s-6.849-19.114-4.778-20.547A14.525,14.525,0,0,1,763.908,148.886Z" transform="translate(-542.151 -133.835)" fill="#575a89"/><path d="M419.374,100.66,375.306,8.828,301.62,44.188l27.1,56.472Z" transform="translate(-195.242 -5.714)" fill="#f2f2f2"/><rect width="43.41" height="2.694" transform="translate(126.014 57.942) rotate(-25.635)" fill="#3f3d56"/><rect width="43.41" height="2.694" transform="translate(136.376 79.535) rotate(-25.635)" fill="#3f3d56"/><rect width="10.778" height="10.778" transform="translate(172.915 31.118) rotate(-25.635)" fill="#3f3d56"/><rect width="10.778" height="10.778" transform="translate(183.277 52.711) rotate(-25.635)" fill="#3f3d56"/><path d="M501.118,55.924l-4,11.386-5.395-1.9-.738,2.1,7.488,2.631,4.747-13.483Z" transform="translate(-317.818 -36.2)" fill="#57b894"/><path d="M530.5,117.146l-4,11.386-5.394-1.9-.738,2.1,7.487,2.631,4.747-13.483Z" transform="translate(-336.836 -75.829)" fill="#57b894"/></g></svg>