<svg id="whatsapp-symbol" xmlns="http://www.w3.org/2000/svg" xmlns:xlink="http://www.w3.org/1999/xlink" width="23.553" height="23.658" viewBox="0 0 23.553 23.658">
  <defs>
    <linearGradient id="linear-gradient" x1="0.5" y1="1" x2="0.5" gradientUnits="objectBoundingBox">
      <stop offset="0" stop-color="#20b038"/>
      <stop offset="1" stop-color="#60d66a"/>
    </linearGradient>
  </defs>
  <path id="Path_564" data-name="Path 564" d="M20.121,3.438A11.728,11.728,0,0,0,1.664,17.584L0,23.658l6.217-1.63a11.719,11.719,0,0,0,5.6,1.427h.005a11.728,11.728,0,0,0,8.3-20.017Zm-8.3,18.037h0a9.735,9.735,0,0,1-4.961-1.358L6.5,19.906l-3.689.967.985-3.6-.232-.369a9.748,9.748,0,1,1,8.257,4.566Z" fill="#e0e0e0"/>
  <path id="Path_565" data-name="Path 565" d="M27.875,43.659l1.588-5.8a11.192,11.192,0,1,1,9.7,5.6h0A11.188,11.188,0,0,1,33.808,42.1l-5.933,1.556Z" transform="translate(-27.337 -20.675)" fill="url(#linear-gradient)"/>
  <rect id="Rectangle_314" data-name="Rectangle 314" width="13.171" height="12.341" transform="translate(5.233 5.627)" fill="none" opacity="0.08"/>
  <path id="Path_566" data-name="Path 566" d="M310.282,323.535c-.217-.482-.445-.492-.652-.5-.169-.007-.362-.007-.555-.007a1.064,1.064,0,0,0-.772.362,3.247,3.247,0,0,0-1.014,2.416,5.635,5.635,0,0,0,1.183,3,11.89,11.89,0,0,0,4.948,4.372c2.447.965,2.945.773,3.476.725a2.925,2.925,0,0,0,1.955-1.377,2.42,2.42,0,0,0,.169-1.377c-.072-.121-.266-.193-.555-.338s-1.714-.846-1.979-.942-.459-.145-.652.145-.748.942-.917,1.135-.338.218-.628.073a7.925,7.925,0,0,1-2.329-1.438,8.727,8.727,0,0,1-1.611-2.006c-.169-.29-.018-.447.127-.591.13-.13.29-.338.435-.507a1.985,1.985,0,0,0,.289-.483.533.533,0,0,0-.024-.507C311.1,325.54,310.54,324.108,310.282,323.535Z" transform="translate(-301.354 -316.789)" fill="#fff" fill-rule="evenodd"/>
  <path id="Path_567" data-name="Path 567" d="M26.89,3.513A11.594,11.594,0,0,0,8.645,17.5L7,23.5l6.145-1.611a11.585,11.585,0,0,0,5.54,1.411h0a11.593,11.593,0,0,0,8.2-19.787Zm-8.2,17.83h0A9.623,9.623,0,0,1,13.782,20l-.352-.209-3.647.956.974-3.554-.229-.364a9.636,9.636,0,1,1,8.162,4.514Z" transform="translate(-6.865 -0.112)" fill="#fff"/>
</svg>
