<svg id="portfolio" xmlns="http://www.w3.org/2000/svg" width="55.488" height="50.377" viewBox="0 0 55.488 50.377">
  <g id="Group_28" data-name="Group 28">
    <g id="Group_27" data-name="Group 27">
      <rect id="Rectangle_81" data-name="Rectangle 81" width="13.142" height="8.031" transform="translate(21.173 32.855)" fill="#00923f"/>
      <path id="Path_74" data-name="Path 74" d="M36.505,279.172v3.87a1.168,1.168,0,0,1-1.022,1.241H20.005a1.168,1.168,0,0,1-1.022-1.241v-3.87H3.432A6.2,6.2,0,0,1,0,277.42v10.222c0,1.825,1.606,3.943,3.432,3.943H52.057c1.825,0,3.432-2.117,3.432-3.943V277.42a6.2,6.2,0,0,1-3.432,1.752Z" transform="translate(0 -241.207)" fill="#00923f"/>
      <path id="Path_75" data-name="Path 75" d="M52.057,91.429H3.432A3.165,3.165,0,0,0,0,94.422V113.04c0,1.825,1.606,3.943,3.432,3.943H18.983v-4.235c0-.584.438-.876,1.022-.876H35.483c.584,0,1.022.292,1.022.876v4.235H52.057c1.825,0,3.432-2.117,3.432-3.943V94.422A3.165,3.165,0,0,0,52.057,91.429Z" transform="translate(0 -81.207)" fill="#00923f"/>
      <path id="Path_76" data-name="Path 76" d="M112.634,23.689a2.4,2.4,0,0,1,2.7-2.482h13.58a2.4,2.4,0,0,1,2.7,2.482v3.359h2.92V23.689a5.313,5.313,0,0,0-5.622-5.4h-13.58a5.313,5.313,0,0,0-5.622,5.4v3.359h2.92Z" transform="translate(-94.382 -18.286)" fill="#00923f"/>
    </g>
  </g>
</svg>
