<svg xmlns="http://www.w3.org/2000/svg" width="45.611" height="59.879" viewBox="0 0 45.611 59.879">
  <g id="place" transform="translate(-61)">
    <g id="Group_31" data-name="Group 31" transform="translate(61)">
      <g id="Group_30" data-name="Group 30" transform="translate(0)">
        <path id="Path_126" data-name="Path 126" d="M101.348,56.371H87.314c15.553-20.735,19.3-24.041,19.3-33.565a22.806,22.806,0,0,0-45.611,0c0,9.509,3.712,12.786,19.3,33.565H66.263a1.754,1.754,0,0,0,0,3.509h35.086a1.754,1.754,0,0,0,0-3.509ZM68.017,22.806a15.789,15.789,0,1,1,31.577,0,15.789,15.789,0,1,1-31.577,0Z" transform="translate(-61)" fill="#00923f"/>
      </g>
    </g>
    <text id="_" data-name="%" transform="translate(75.619 29.632)" fill="#00923f" font-size="20" font-family="Rubik-Bold, Rubik" font-weight="700"><tspan x="0" y="0">%</tspan></text>
  </g>
</svg>
