<svg id="company" xmlns="http://www.w3.org/2000/svg" width="52.172" height="52.172" viewBox="0 0 52.172 52.172">
  <path id="Path_141" data-name="Path 141" d="M95,95h5.095v3.465H95Z" transform="translate(-85.32 -85.32)" fill="#00923f"/>
  <path id="Path_142" data-name="Path 142" d="M239,223h5.095v3.465H239Z" transform="translate(-214.646 -200.277)" fill="#00923f"/>
  <path id="Path_143" data-name="Path 143" d="M95,223h5.095v3.465H95Z" transform="translate(-85.32 -200.277)" fill="#00923f"/>
  <path id="Path_144" data-name="Path 144" d="M239,95h5.095v3.465H239Z" transform="translate(-214.646 -85.32)" fill="#00923f"/>
  <path id="Path_145" data-name="Path 145" d="M162.363,367A3.366,3.366,0,0,0,159,370.363v11.413h6.725V370.363A3.366,3.366,0,0,0,162.363,367Z" transform="translate(-142.798 -329.603)" fill="#00923f"/>
  <path id="Path_146" data-name="Path 146" d="M50.643,43.918a1.529,1.529,0,0,0,1.528-1.528V30.977a4.892,4.892,0,0,0-9.782,0V42.39a1.529,1.529,0,0,0,1.528,1.528h1.834v5.2H39.027V1.528A1.529,1.529,0,0,0,37.5,0H1.528A1.529,1.529,0,0,0,0,1.528V50.643a1.529,1.529,0,0,0,1.528,1.528H6.623V45.65a1.528,1.528,0,0,1,3.057,0v6.521h3.465V40.759a6.42,6.42,0,1,1,12.839,0V52.172h3.465V45.65a1.528,1.528,0,0,1,3.057,0v6.521H50.643a1.528,1.528,0,0,0,0-3.057H48.809v-5.2Zm-32.811-16.2A1.529,1.529,0,0,1,16.3,29.245H8.152a1.529,1.529,0,0,1-1.528-1.528V21.195a1.529,1.529,0,0,1,1.528-1.528H16.3a1.529,1.529,0,0,1,1.528,1.528Zm0-13.043A1.529,1.529,0,0,1,16.3,16.2H8.152a1.529,1.529,0,0,1-1.528-1.528V8.152A1.529,1.529,0,0,1,8.152,6.623H16.3a1.529,1.529,0,0,1,1.528,1.528ZM32.506,27.716a1.529,1.529,0,0,1-1.528,1.528H22.825A1.529,1.529,0,0,1,21.3,27.716V21.195a1.529,1.529,0,0,1,1.528-1.528h8.152a1.529,1.529,0,0,1,1.528,1.528Zm0-13.043A1.529,1.529,0,0,1,30.977,16.2H22.825A1.529,1.529,0,0,1,21.3,14.673V8.152a1.529,1.529,0,0,1,1.528-1.528h8.152a1.529,1.529,0,0,1,1.528,1.528Z" fill="#00923f"/>
</svg>
