<svg id="real-estate" xmlns="http://www.w3.org/2000/svg" width="55.053" height="55.053" viewBox="0 0 55.053 55.053">
  <path id="Path_69" data-name="Path 69" d="M176.185,44.292V0H154.318V44.292h4.591V31.025h12.685V44.292Zm-8.7-40.69h4.229V6.828h-4.229Zm0,6.872h4.229V13.7h-4.229Zm0,7.037h4.229v3.226h-4.229Zm-4.461,10.1h-4.229V24.384h4.229Zm0-6.872h-4.229V17.512h4.229Zm0-7.037h-4.229V10.475h4.229Zm0-6.872h-4.229V3.6h4.229Zm4.461,20.782V24.384h4.229V27.61Z" transform="translate(-137.725)" fill="#00923f"/>
  <path id="Path_70" data-name="Path 70" d="M227.015,318.535h6.233v10.041h-6.233Z" transform="translate(-202.605 -284.284)" fill="#00923f"/>
  <path id="Path_71" data-name="Path 71" d="M396.269,91.171h-4.51V87.945h4.51V84.3h-4.51V81.076h4.51V77.432h-4.51V74.206h4.51V72.212l-8.587-4.7v37.032h8.587Z" transform="translate(-345.996 -60.256)" fill="#00923f"/>
  <path id="Path_72" data-name="Path 72" d="M53.044,186.453H44.457v3.641h4.51v3.226h-4.51v3.644h4.51v3.226h-4.51v3.644h4.51v3.226h-4.51V210.7h8.587Z" transform="translate(-39.677 -166.404)" fill="#00923f"/>
  <path id="Path_73" data-name="Path 73" d="M0,441.917H55.053v7.536H0Z" transform="translate(0 -394.4)" fill="#00923f"/>
</svg>
