<svg id="Group_26" data-name="Group 26" xmlns="http://www.w3.org/2000/svg" width="49.998" height="50" viewBox="0 0 49.998 50">
  <g id="Group_25" data-name="Group 25" transform="translate(0 0)">
    <path id="Path_67" data-name="Path 67" d="M49.326,21.375l-4.167-3.787L26.409.542a2.084,2.084,0,0,0-2.8,0L4.856,17.588.689,21.375a2.083,2.083,0,1,0,2.8,3.081l.681-.619V47.916A2.083,2.083,0,0,0,6.258,50H16.674V33.333a8.333,8.333,0,1,1,16.666,0V50H43.757a2.083,2.083,0,0,0,2.083-2.083V23.837l.681.619a2.083,2.083,0,1,0,2.8-3.081Z" transform="translate(-0.008 0)" fill="#fff"/>
    <path id="Path_68" data-name="Path 68" d="M217.818,298.666a4.484,4.484,0,0,0-4.48,4.48v17.92h8.96v-17.92A4.484,4.484,0,0,0,217.818,298.666Z" transform="translate(-192.819 -271.066)" fill="#fff"/>
  </g>
</svg>
