<svg xmlns="http://www.w3.org/2000/svg" width="68.226" height="55" viewBox="0 0 68.226 55">
  <g id="nigeria" transform="translate(-0.352 -0.229)">
    <path id="NG-AB" d="M279.209,491.55l.057.073.455-.084.255.025.193.126.031.138h0l.007.411-.052.269,0,.069.089.1,1.327.081.117.175.021.206.066.1.3.219.126.02h0l.1.121-.056.35.014.356.129.436.069.158.161.188.072.24-.057.114-.322-.072h0l-.253-.246-.239-.079-.26-.2-.055-.2-.112-.138-.32-.086-.228.013-.026.086.05.331-.173.48.03.042.21-.015-.066.23-.069.085-.573-.015-.1.092-.007.071.1.183-.114.547,0,.226.062.235-.11.272-.237.183.009.073-.044.06.021.138.056.063,0,.11-.063.153.169.317.012.174h0l-.222-.169-.277-.133-.17.04-.309-.115-.263.011-.1.06-.295.055-.17-.025-.137-.133-.056-.1.015-.1.129-.349.322-.408.225-.395,0-.262-.062-.162-.051,0h0l.291-.965.2-.365.171-.158.111-.286.084-.085.04-.189-.034-.325.026-.193-.142-.23.116-.073-.036-.8-.044-.127-.1-.137-.5-.168-.189-.159h0l.12-.209.128-.122Z" transform="translate(-252.205 -446.494)" fill="#fff"/>
    <path id="NG-AD" d="M554.244,185.874l-.012.172-.077.166-.1.148-.1.078-.167.273-.128.461-.251.231-.045.1-.057.284.068.34.073.1v.16l-.152.156-.025.434-.091.157.012.325-.073.183-.193.242-.024.284-.152.1-.136.246-.553.109-.394.554.014.092.145.153,0,.06-.108.258-.174.131,0,.167.065.151.253.125.1.15-.2.291-.012.212-.051.122.025.1-.1.138.031.073-.021.133.04.059-.07.207-.1.154-.091-.012-.16.124-.755.077-.259.2-.153.027-.354.319-.354.187.008.126.223.025.046.04.008.7-.069.065-.078.415.079.195-.109.38.028.124-.265.452-.249.217v.094l.067.093-.077.193.12.369-.106.174-.1.036-.157-.022-.138.051-.054.1-.015.257-.092.07-.093.174-.205.018-.32.26-.078.011-.554-.154-.062.062-.023.161-.111.109-.076.287-.167.22-.219.013-.106.084-.233-.026-.174.114-.18.031-.068.077-.064.381.136.492.055.544-.006.1-.073.053-.229.425.058.236.021.351-.389.6-.329.291-.166.284-.045.188-.105.138-.039.325-.1.147.065.578.061.17-.276.139-.185.025-.259.3h0l-.115-.083,0-.147-.183-.435-.036-.333-.07-.163.055-.517-.1-.19-.2-.245-.407-.362-.236-.3-.143-.105-.134-.04-.154.036-.267.378-.256.187-.255-.231-.274-.443-.237-.634.077-.149.39-.45.358-.3.479-.516.813-1.085.576-.492.041-.2-.036-.544.564-1.078.094-.341-.024-.17-.19-.362-.39-.138-.25-.277-.032-.362.043-.2-.5-.925-.2-.122-.438-.1-.138-.181-.513-.959h0l.584-.086.317-.135.885-.533.542-.377.1-.219-.049-.349.064-.964h0l.6.091.254-.018.43-.124.164-.1.16-.179.351-.523.584-.665.236-.082.593-.046.556-.209.23-.247.077-.251.313-.013.221-.107.209-.349.2-.2.236-.138.8.074.27.1.243.146.268.293.229.108.224.1h.414l.107-.115.139-.731.255-.535.115-.343.083-.386.026-.755.291-.04.058.07.353.107.364-.027.529-.164h0Z" transform="translate(-491.439 -168.747)" fill="#fff"/>
    <path id="NG-AK" d="M297.7,528.036h0l0,0h0Zm.713-.066.091.047.087-.018.083-.013.031.026-.337.071-.046-.056Zm3.8-.712.083.2-.072.077-.1.021-.021-.117.053-.009.033-.085Zm-4.857-1.043-.011-.174-.169-.316.063-.154,0-.11-.056-.063-.021-.138.044-.061-.008-.073.237-.183.111-.272-.062-.234,0-.227.114-.547-.1-.183.007-.071.1-.092.574.015.069-.085.066-.23-.21.015-.03-.042.173-.48-.05-.331.027-.086.228-.013.32.086.112.138.055.2.259.2.239.079.253.246h0l-.08.009-.108.231.062.169.079.029.073.183.449-.053.467.252.038.2-.057.575.154.483.321.462.3.264.355.408.346.265.056.1h0l-.041.2.074.041,0,.236-.047.042-.039-.063-.007.055.112.11-.056.17-.07.018.009.1-.1.108.023.016-.1.224-.493-.059-.541-.007-1.009.052-1.135.158-.049-.043-.171.034-.088-.045-.083.034-.09-.008,0,0,.047.076.025.04-.313.124-.092-.16-.11-.061-.081-.018-.09-.1.036-.086-.008-.011-.05.047-.047-.036h0l-.057-.11,0-.06.048-.03-.055-.429.09-.4-.059-.217Z" transform="translate(-269.634 -474.158)" fill="#fcb320"/>
    <path id="NG-AN" d="M246.2,444.909l.041.038.008.341.361-.012.23.133.193.008.351.16.034.074-.118.325-.071.1-.159.107-.174.234.023.09-.058.078-.041.221.037.051.363.109.134.17.126.343.123.174-.028.09-.077.027.039.129-.047.153.068.07.178-.106.057.012.056.243.125.059-.033.2.177.357.017.142.072.092.225.132.156-.09.1.008.105.07,0,.051.078.016h0l-.414.218-.128.122-.12.209h0l-.5.134-.507-.118-.594.109-.168.1-.088.334-.223.434-.252.025-.425-.181-.153.075-.283.361-.2.078h0l-.226-.02-.1-.121h0l.1-.11.181-.367.032-.249.167-.442.235-.429.036-.566.121-.344-.116-.355-.139-.687.008-.129-.106-.106-.2-.9h0l-.007-.027h0l.157-.073.338.062.135-.084.173-.236.006-.257.117-.388.211-.218.145-.081Z" transform="translate(-221.77 -404.256)" fill="#fff"/>
    <path id="NG-BA" d="M384.576,87.519l.729.583.107.276.073.667-.018.17.3.439.02.635.031.254.089.255.019.365.786,1.97-.022.463-.1.256-.093.639.154.144.286.035h0l-.075.023-.255.354-.569.309-.242.349-.189.165-.14.072-.368.083-.136.128-.13.191-.091.465-.246.7-.34.478-.019.13.7.282.107.161.082.673.083.108.678.247.2.465-.045.813.038.269-.078.166-.367.059-.187.087-.123.18.031.153.4.413.236.133.862.668.116.357.057.583.243.5.159.2-.012.089-.055.015h0l-.376,0-.607-.1-1,.457-.551-.073-.432.25h0l-.6-.323-.582-.381-1.043-.446-.872-.464-.242-.048-.716-.372-.285.168-.028.136.3.382.025.164-.047.157-.448.122-.272.491-.414.133-.946.056-.515-.139-.452-.025-.142-.05-.147-.126-.155-.383-.085-.109-.074-.067L376.18,104l-.057-.08.008-.159.224-.421.022-.11-.024-.56-.091-.295-.17-.181-.1-.02-1.033.206,0-1.166-.073-.452-.246-.392-.262-.083-.3-.008-.144.046h0l-.238-.255-.263-.165-.025-.069.221-.4.05-.373h0l.093-.053.244-.385.125-.363-.008-.188-.073-.157-.364-.408-.042-.187-.038-.649.042-.33.151-.43.1-.041.254.015.192-.048.258-.3.25-.387.446-.393.063-.1.234-.148.159-.028.107.1.107.008.52-.2h0l.094-.018.565.1.7.227.316-.138.217.069.168.346.295.02.725-.045.336-.086.107.028.251.462.051.2-.078.739.076.193.127.128.537.112.527-.131.147.016.175.128.232.058.175-.054-.1-.323,0-.17.144-.18.238-.128.381-.093.136-.073.174-.131.1-.256-.1-.138-.836-.053-.539-.12-.6-.073-.282-.174-.5-.7-.1-.235-.044-.242-.362.089-.111-.1-.052-.164.236-.471-.049-.407-.137-.416-.171-.047-.259.025-.2.1-.246,0-.127-.059.046-.4.3-.428.58-.043.515-.286,1.03-.351.587-.236.112-.089,0-.212-.054-.177.632-1.939.428-.184.328-.052.093.077.078.154.011.131Z" transform="translate(-339.056 -79.068)" fill="#fff"/>
    <path id="NG-BE" d="M299.942,360.9l.86.234.8.118.82.334.463.266.495.093.1-.013.313.264.5.21.107-.1.008-.128-.443-1.1-.008-.237.1-.269.117-.133.372-.207.13-.026.244-.017.252.041.95.35.646.146.46.039.373-.021v-.066l1.111.841h0l-.357.562.179.054.576-.248.7-.089.771.045.7.167.484.462.418.532.788.713-.013.061.11.128-.024.1.053.168-.056.3-.224.555.027.558-.087.135-.291.183-.324.306-.312.58-.2,1.083.057.069-.031.1,0,.825-.179.771h0l-.068.028-.2-.069-.073.134.009.188-.266.164-.169.021-.262-.041h0l-.061-.146-.46-.625-.521-.54-.14-.068-.291-.021-.9.211-.413-.041-.114-.084.062-.449-.053-.154-.814-.507-.512-.159-.2-.007-.218.056-.2.063-.143.113.073.424-.3.181-.295.078-.362-.013-.194-.063-.181.042-.128.165-.222.185-.282.046h0l-.16-.214-.079-.4-.166-.122-.1.218-.321.035-.167.271-.181.088-.278-.024-.325.038-.118.775-.093.193-.133.056-.168-.07-.378-.347-.061-.145.016-.086h0l.215-.6-.085-.529-.134-.2-.143-.108-.265-.033-.208.2-.2.069-.275-.143-.337-.26-.272-.316-.258-.613.012-.05h0l.039-.047.079.055.317.31.077-.009.127.1h.166l.032-.416.09-.136.607-.294.311-.293.183-.549.04-.37.044-.122.116-.114.034-.17-.139-.044-.312.03-.12-.1-.117-.521-.054-.641v-.65l-.069-.174-.254-.246-.177-.3-.051-.553Z" transform="translate(-271.369 -327.119)" fill="#fff"/>
    <path id="NG-BO" d="M565.158,11.079l.066.532-.078.283.329.59-.019.237-.043.046.026-.2-.1.125-.021.181.224.24.232.057-.061.063.026.051.073.018.42.709.267.29.1.021.162.09.154.113.365.071.025.081h-.055l-.053.1-.019-.1-.062.055-.07,0,.136.151.025.166.365-.109.218-.246.233-.19.151-.063-.1.166.014.042.061-.018.054.22-.031.021-.063-.13-.08.045-.054.116-.19.054.063.177-.112.106-.175.351.039.073.129-.042-.007.23-.055.108.08,0-.032.128-.108.145.038.054.148-.041.027.052-.248.131.186.047-.014.084.113,0-.071.08-.124.031.011.04.117-.022.011.057-.045.041-.022-.035-.1.022.023.071.07-.011-.08.157.142.02.021.126-.054.07.024.118.091.021.05.114-.023.108.184.052.032.138.057.049.152-.089.043.019.067.18.115.067.029.1.2.073,0,.1.063.094-.035.112.067.06.1.052.133-.047.188.024-.025.1.078.006.037-.065.17-.007.138-.076.232-.008.016.115.1.008-.011.086-.118.03.021.05-.036.06.089.026.212.246.322-.05.1,0,.041.076.162-.082.276.082.33-.033.064.029.08.011.152.032.074.113.12.032.032.082-.063,0,.008.105.2.1.066.129-.068.131.282.073.072.141-.051.043.106.051.073.011.011-.046.091-.008.048-.048.125.236-.129.122-.03.17-.07.082.064.188-.162.109-.006.148.207.356-.114.164.022.127-.219.261V22.2l.027.357-.066.116-.265.2-.006.052.119.162.189.106.2.205.041.2-.058.441-.119.088-.6.242-.365.085-.16.291-.762.3-.309.195-.182.25-.42.183-.219,0-.256-.223-.237-.041-.1-.078-.1.015-.057.072-.055.219-.2.222-.073.252-.068.1-.138.09.023.14-.061.02-.1.158-.219.192-.114.274-.305.152-.228.051-.073.071-.018.164h0l-.529.164-.364.027-.353-.107-.058-.07-.291.041-.026.754-.083.386-.115.343-.255.535-.139.731-.107.115h-.414l-.224-.1-.229-.108-.268-.293-.243-.146-.27-.1-.8-.074-.236.138-.2.2-.209.349-.221.107-.313.013-.077.251-.23.247-.556.209-.592.046-.236.082-.584.665-.351.523-.16.179-.164.1-.43.124-.254.018-.6-.091h0l-.368-.207-.171-.151-.295-.581-.533-.22-.172-.171-.229-.331-.076-.267.488-.712.058-.284-.127-.311h0l.286-.065.321-.427-.026-.79.057-.261.162-.267.251-.181,1.056-.284.576-.344.2-.29.023-.277-.072-.391,0-.28.085-.269.272-.316.311-.556.428-.417.093-.2-.079-.314-.295-.353-.463.02-.06-.034-.014-.183.445-.861-.159-.7.012-.33.239-1.534,0-.545-.162-.361.052-.207.665-.594.223-.29.173-.4-.045-.352-.452-.362-.137-.171-.116-.363.14-.755.008-.4h0l.137-.011.413.083,0-.112.056-.039.007-.07.018-.161.139-.125.107.023.127-.069-.032-.109.069-.1-.022-.03-.084-.018.038-.106.073-.125.075-.168.06-.057.215.033.13-.082.09.008.057.07.09-.1.022-.136.126-.022.138-.027.027-.043-.032-.038.092-.11.2-.045.058-.117.129-.073.015-.074.055-.07.038-.07,0-.081.1-.041.041-.1-.076-.029.054-.057.116.059-.027-.148.1.011.006.044.08.027.1-.013.176-.157.1-.035.03.036.187-.009.131-.125.1.046,0-.1.1-.034.1.008-.084.11.138.074.087-.123.127.1-.019-.123.139-.048-.029.2.087.011.042-.091.108-.024.087.131.09-.238.156-.079,0-.041-.052-.018.018-.067.112.019.06-.075-.06-.016-.038-.1.158-.151-.006-.055.14-.063,0-.088.1-.1.117-.023.037-.1Z" transform="translate(-504.283 -9.828)" fill="#fff"/>
    <path id="NG-BY" d="M175.822,535.042l-.02-.058-.064.009-.373-.245-.113-.413-.13-.176-.187,0-.616.239-.1-.024-.033-.183.04-.138-.312-.136-.047-.078.007-.409.179-.252.072-.193,0-.12-.122.015-.079-.074.125-.418.423-.739.261.016.052-.047.071-.234.145-.074-.022-.171.149-.1.089-.139,0-.183-.059-.145-.072-.055-.181-.078-.277.046-.1-.026.073.233-.113.08-.479.206-.329-.041-.258.046-.189.386-.2.049-.074-.057-.138-.008-.034.089.024.218-.267.147-.153.053-.284-.023-.116.187-.218.058-.178-.063-.093-.156-.2-.121-.071.047-.139.289-.311.154-.247-.04-.7.386-.089-.035-.219.038-.094-.1-.253-.151-.287-.067-.273-.156-.2-.2-.053.068-.068-.054-.135.05-.034-.047-.154.079.222.434.18.547-.032.074.089.143.033.175.382.638.018.136.089.052v.016l0,.1.706.978.112.058,0,.071.261.127-.025.039.1.071.011.061.241.15.018-.037.029.032-.021.023,0,.032.246.2.045,0-.013-.073-.042-.02.149-.043-.072.066.031.068-.024.025.007.048.219.16.478.222.018-.188-.074-.048-.052-.118.032.011.027.084.074.021-.011-.066.039,0,0,.066.049.016.024.073-.058.111.025.041-.032.122.038.027.488.124.018-.21.061-.055.036.362.786-.066-.06-.226.1-.287.061-.1-.027-.129-.18-.108.045,0,.112.025.09.149.057-.106-.052-.074.008-.2-.079-.127.029-.07.016.1.065.052,0,.036.07.19-.009.292.256-.233-.055-.059.009-.183.18-.056.047-.059.065.152.011.122-.045.1.057.124,0,.152.126.024.1.142.045,0-.018.031.021.041.2-.045.018.032-.058.061.144.074.8-.086,0-.045-.038-.048-.007-.073-.009-.032.063-.081.057-.055-.049.192.021.037.191.166.09-.092.333-.036-.047-.233-.008-.036-.036-.107-.108-.071-.018-.093,0-.018.027-.1-.05-.212-.039-.052.033-.034.072.085.118.4.036-.055-.061-.493.16-.319.024-.172Zm-7.375-1.828Zm5.605,3.53-.774.093-.264-.009-.021-.066.128-.237.014,0,.042,0,.013-.122.187-.206.011-.029.041-.084.042-.018-.056-.073-.017-.122.052-.033.1-.018.085.126-.047.125.073.153-.021.148.154.041.061.087Z" transform="translate(-152.301 -481.73)" fill="#fcb320"/>
    <path id="NG-CR" d="M324.523,438.855l.282-.046.222-.185.128-.165.181-.042.194.063.362.013.295-.078.3-.181-.073-.424.143-.113.2-.063.218-.056.2.007.511.159.814.507.053.154-.062.449.114.084.413.041.9-.211.291.021.14.068.521.54.46.625.061.146h0l-.2.786-.485-.208-.073.173,0,.186-.055.069-.1.089-.264.458-.3.089-.154.112-.113.111-.089.235-.093.091-.821.732-.359.257-.105.031-.154.217-.159.082-.122.139.038.081.128.1-.1.139.038.078-.042.09-.138.176-.054-.055,0,.141.48.531.029.166-.226.381-.06.226-.105.128.02.366-.171.554.014.618-.239.4-.178.073-.008.079-.126.1-.115.311-.118.1.091.1-.085.033-.092.117,0,.054-.1.036.008.166-.186.071-.1.118,0,.09.113.107.032.144-.228.138-.1-.023-.064-.068-.1.077-.06.143-.071.05-.015.138.063.007.057-.165.024.236-.034.053-.04-.063-.057.013.055.136-.139.025.006.072-.168.027-.138-.057.048-.167.1-.011-.12-.152-.075.115-.109.045-.195-.043-.061-.108.073-.066.02-.015-.029-.086-.128.039-.106-.059-.224.205h0l-.056-.1-.346-.265-.356-.409-.3-.264-.321-.463-.154-.483.057-.575-.037-.2-.467-.253-.449.053-.074-.183-.078-.029-.062-.169.108-.231.08-.009h0l.322.072.057-.114-.072-.24-.161-.188-.069-.158-.129-.436-.014-.356.056-.35-.1-.122h0l.036-.225.22-.293-.034-.251.138-.119.032-.127.186-.216.008-.228-.107-.17.018-.092.214-.1.247-.017.253.424.126-.2.2-.073.207-.161.026-.123.177-.027.205.119.079-.086.064-.217.009-.244.075-.138.652-.79,0-.132-.175-.245v-.151l.155-.154.206-.035.078-.16-.023-.1-.13-.094-.039-.141-.049-.035.009-.183-.121-.105-.047-.161-.254-.176-.187-.247Z" transform="translate(-292.285 -397.617)" fill="#fff"/>
    <path id="NG-DE" d="M155.032,462.422l-.139-.687.008-.129-.106-.106-.2-.9-.177.192-.386-.036-.351.076-.771.482-.692.292-.38.427-.06,0-.243-.371-.1-.04-.157-.029-.168.149-.084.191-.014.223.038.071.138.076.051.454.191.338.185.228.177.138.21.076.027.165-.066.305-.146.18-.154.156-.29.191-.216.289-.262.187-.17.057-.493.1-.2-.053.066-.17-.151-.152.192-.38-.044-.078-.368-.221-.188-.267-.44-.247-.3-.118-.154-.126-.482.174-.174.224-.167-.038-.214-.187-.13-.027-.3.063-.281-.068-.093.029-.059.028-.006.1.084.148-.049.1-.386.3-.156.007,0-.233-.062-.24.066-.276-.014-.135-.156-.157-.511-.264-.65,1.577.234.422.131.083.055-.151.123-.118.731-.4.119-.021.174-.121.106-.051.034.048,0,.016-.188.089-.1.151-.007.024-.078-.05-.212.092-.3.236-.032.071-.186-.042-.1.077-.074.3.025.145.248.424.3.3.105-.05.284-.126.28.039.07-.3.108-.2,0-.036.038-.028h0l.036.011-.022.013-.023.179-.105.214.094.2.18.059.154-.025.149-.3.151.009.018-.024h0l.282.145.105.063.018.045-.112-.032.025.073.009.124-.125-.033.091-.063-.031-.126-.105-.068-.295-.027-.057.013.008.154-.052.106-.22.186.094-.149-.169.014-.2-.052-.418-.063-.185.018-.011.079-.153.1-.119.157.261.373.286.246.569.248.479.027,0-.061-.112-.131-.089-.273-.024-.042.007-.07.044-.011-.018.077.094.207.078-.057h.034l-.007.021-.089.1.025.047.25.105.054-.02.155-.452.079-.138.09-.058-.06-.031.3.011.045.014.1-.043.043-.106.07-.036.105.016.089.086.057-.062.008.022-.011.071-.084,0-.13-.089-.1.158-.149.074-.17-.011.021.081-.09-.092-.124.034-.052.284.025.124.055.1.042.068.316.1-.028.075-.146-.105-.061.034,0,.066-.007.021-.046.012.03-.138-.029-.011-.041-.032-.042-.043-.042.045-.07.047-.034.05-.074.011-.105.054.086.043.193-.009-.28.09-.038.059-.094-.152-.057,0-.026,0-.238.014-.11.059-.007-.037-.065-.007-.039-.029-.063.021-.078-.04,0,.23.18.719-.023.156.2.213.193-.083.25-.016-.084-.127-.008-.105.014-.023.047-.224.027,0-.014.057.014.039-.049.253.083.052-.009.144-.075.029.2.2.273.156.287.067.253.151.094.1.219-.038.089.035.7-.386.247.04.311-.154.139-.289.071-.047.2.121.093.156.178.063.218-.058.116-.187.284.023.153-.053.267-.147-.024-.218.034-.089.138.008.074.057.2-.049.189-.386.258-.046.329.041.479-.206.113-.08-.073-.233-.054-.1.02-.041.332-.17.018-.5.066-.139.193-.134.084-.165.077-.3-.1-.333.022-.033.1-.11.181-.367.032-.248.166-.442.235-.429.036-.566.12-.344Z" transform="translate(-131.347 -418.469)" fill="#fff"/>
    <path id="NG-EB" d="M302.812,444.3l-.016.086.061.145.378.347.168.07.133-.056.093-.193.118-.775.325-.038.278.024.181-.088.167-.271.321-.035.1-.218.166.122.079.4.16.214h0l.046.272.187.247.254.176.047.161.121.105-.009.183.049.035.039.141.13.094.023.1-.078.16-.206.035-.155.154v.151l.175.245,0,.132-.652.79-.075.138-.009.244-.064.217-.079.086-.205-.119-.177.027-.026.123-.207.161-.2.073-.126.2-.253-.424-.247.017-.214.1-.018.092.107.17-.008.228-.186.216-.032.127-.138.119.034.251-.22.293-.036.225h0l-.126-.02-.3-.219-.066-.1-.021-.206-.117-.175-1.327-.081-.089-.1,0-.069.052-.269-.007-.411h0l.342-.1.187.16.073.008.2.236.069.007.061-.136-.075-.275-.014-.249.251-.257.075-.163-.093-.625-.058-.24-.1-.1,0-.116.258-.576v-.548l-.061-.108-.036-.31-.139-.462.608.052Z" transform="translate(-273.17 -402.798)" fill="#fcb320"/>
    <path id="NG-ED" d="M149.456,395.489l.073.06.165-.035.066.034.026.064-.036.084.043.061.205-.024.025.075-.09.174-.022.182.026.1.1.073.2.05.56-.276.147.2.061-.007.119.133.052-.006.185.21.213-.018.07-.048.241.014.1.189.007.115.08.057.045.164.07.053-.023.048.062.154.353-.079.04.036.138-.093.176-.039.165.133.052.2.137.1.074.189.014.321-.029.181-.153.371.006.392-.18.454-.2.334.121.2-.088.52.084.245.133.189.1.568h0l.007.027h0l-.177.191-.385-.036-.351.076-.771.481-.692.292-.38.427-.061,0-.243-.371-.1-.039-.156-.03-.169.15-.084.19-.014.223.038.071.138.076.051.454.191.337.185.228.177.138.21.076.026.164-.065.305-.146.18-.153.156-.29.191-.217.289-.261.187-.17.057-.494.1-.2-.054.066-.17-.151-.152.191-.38-.044-.078-.367-.221-.188-.267-.441-.247-.3-.118-.154-.126-.482.174-.174.224-.167-.038-.214-.187-.13-.027-.3.063-.28-.068-.093.029-.06.028-.006.1.084.148-.049.1-.385.3-.156.007,0-.233-.062-.24.067-.276-.014-.135-.156-.157-.511-.263h0l.037-.109-.116-.213-.125-.1-.147-.009-.155-.277-.183-.128-.066-.006-.041-.086.024-.056-.026.041.075-.066.09-.342.055-.057.278-.082.079-.352.164-.161.079-.185.033-.162-.054-.137-.132-.215-.116-.06V400.9l.076-.092-.009-.209.046-.09.165-.153.042-.1.163-.075.074-.214.09-.065.008-.184.042-.073.207-.1.2.038.215-.036.158.034.625.01.31-.036.154.032.164.2-.189.213.2.514.07,0,.355-.3.126.011.112.139.076.033.252-.1.142-.319.089-.467.024-.024.112.048v-.154l.083-.049-.014-.076-.111-.121.057-.437.117-.156.143-.069.035-.08-.03-.079.3-.649-.014-.131.044-.1.166-.172.2-.1.135-.333-.041-.026-.073-.234.082-.272-.189-.077-.038-.079.017-.131.133-.162.147.013.084-.057Z" transform="translate(-129.919 -359.219)" fill="#fcb320"/>
    <path id="NG-EK" d="M139.866,364.917l.039-.016.057.157.1.046.422-.118.089.035.138.194.089.046.219-.022.217.058.184-.055.122.052.1-.2-.027-.059.077-.209.387-.126.543-.008h0l-.1.04,0,.4.052.042.234-.134.346-.06.218.025.053.066-.026.129-.126.06-.216.284-.008.147.124.353.124.09.121,0,.174.159.642.225h0l-.143.226-.077.028-.141-.118-.175.037-.08.194-.205.137-.226.234-.106.2-.161.763-.16.369-.287.417-.521.329-.214-.056-.1-.252.015-.081-.1-.3-.134-.209-.146-.049-.657.029-.733-.041-.429.137h0l-.078-.16-.079-.357-.268-.576-.065-.45.112-.376-.076-.265L139,366.2l.179-.4.153-.141.205-.089.187-.154Z" transform="translate(-125.91 -331.099)" fill="#fff"/>
    <path id="NG-EN" d="M262.672,426.023l.257-.472.086.024.017.215.07,0,.125.189.065.032.117-.031.468-.508.563-.364.582-.7.23-.086.2-.2.312-.072.23.071.1.153h0l-.012.05.258.613.272.316.337.26.275.143.2-.069.208-.2.265.033.143.108.134.2.085.529-.215.6h0l-.169.034-.608-.052.139.462.036.31.061.108v.548l-.258.576,0,.116.1.1.058.24.093.625-.075.163-.251.257.014.249.075.275-.061.136-.069-.007-.2-.236-.073-.008-.187-.16-.342.1h0l-.031-.138-.193-.126-.255-.025-.455.084-.057-.073h0l-.078-.016,0-.051-.105-.07-.1-.008-.156.09-.225-.132-.072-.092-.017-.142-.177-.357.033-.2-.125-.059-.056-.243-.057-.012-.178.106-.068-.07.047-.153-.039-.129.077-.027.028-.09-.123-.174-.126-.343-.134-.17-.363-.109-.037-.051.04-.221.058-.078-.023-.09.174-.234.159-.107.071-.1.118-.325-.034-.074-.351-.16-.193-.008-.23-.133-.361.012-.008-.341Z" transform="translate(-238.307 -385.087)" fill="#fff"/>
    <path id="NG-FC" d="M256.084,284.775l.576-.059.3.03.143.08.106-.08.17-.286.1-.051.1.041.138.293.089.029.111-.074h0l-.007.23-.04.058-.1.007-.05.057-.2.614-.008.529.048.206-.052.659-.186.5-.143.749-.074.034-.1.32-.1.154-.356.435-.656.343-.436.1-.274.113-1.048.165h0l-.132.043-.7-.014h0l-.172.02-.134-.044-.184-.463.043-.129-.071-2.846.034-1.287.032-.036.252-.031,1.039-.044.166.059.866.763.089-.023Z" transform="translate(-229.326 -258.182)" fill="#fff"/>
    <path id="NG-GO" d="M490.063,161.274l.086-.083.393-.142.381.016.281.1.205.122.8.59.447.6.322.337-.094.145.149-.1.347.318.063.459-.113,1.116.073.608.028.048h.639l.127.311-.058.284-.488.712.076.267.229.331.172.171.533.22.295.581.17.151.368.207h0l-.064.964.049.349-.1.219-.542.377-.885.533-.317.135-.584.086h0l-.6.044-1.174,0-.556.057-.336-.067h0l.055-.015.012-.089-.159-.2-.243-.5-.057-.583-.116-.357-.862-.668-.235-.133-.4-.413-.031-.153.123-.18.187-.087.367-.059.078-.166-.038-.269.045-.813-.2-.465-.678-.247-.083-.108-.082-.673-.107-.161-.7-.282.019-.13.34-.478.246-.7.091-.465.13-.191.136-.128.368-.083.14-.072.189-.165.242-.349.569-.309.255-.354Z" transform="translate(-442.392 -146.152)" fill="#fcb320"/>
    <path id="NG-IM" d="M248.891,497.489l.189.159.5.168.1.137.044.127.036.8-.116.073.142.23-.026.193.034.325-.041.189-.084.085-.111.286-.171.158-.2.365-.291.965h0l-.242.089-.426-.106-.2,0-.391.1-.442-.1-.633.013-.2-.039-.2-.155-.162-.32-.173-.122-.024-.129.1-.26.049-.436-.042-.156-.2-.073-.326.063-.142-.041.259-1.233h0l.2-.078.283-.361.153-.075.425.181.252-.025.223-.434.088-.334.168-.1.594-.109.507.118Z" transform="translate(-222.462 -451.884)" fill="#fff"/>
    <path id="NG-JI" d="M346.492,57.851l.169.111.565.069.3-.17.2-.376.5-.244.3-.059.266-.129.6-.185.208.118.2.45.065.41.138.238.106-.068.552-.175.47.209.191-.057.174.083.208.32.166,1.086.082.273h0l-1.042.653-.011-.131-.078-.154-.093-.077-.328.052-.428.184-.632,1.939.054.177,0,.212-.112.089-.587.236-1.03.351-.515.286-.58.043-.3.428-.046.4.127.059.246,0,.2-.1.259-.025.17.047.138.416.049.407-.236.471.052.164.111.1.362-.089.044.242.1.235.5.7.282.174.6.073.539.12.836.053.1.138-.1.256-.174.131-.136.073-.381.093-.238.128-.144.18,0,.17.1.323-.175.054-.232-.058-.175-.128-.147-.016-.527.131-.537-.112-.127-.128-.076-.193.078-.739-.051-.2-.252-.462-.107-.028-.336.086-.725.045-.295-.02-.168-.346-.217-.069-.316.138-.7-.227-.565-.1-.094.018h0l-.008-.211.1-.35.671-.648-.084-.108-.2-.05-.267-.249-.139-.259-.047-.188-.1-.093-.477.014L343.3,64.3l.047-.2.316-.442.018-.193.1-.173-.018-.232-.215-.676-.118.05-.138.165-.219.134-.171.017-.129-.024v-.242l-.054-.136-.3.024-.179.112v-.1l-.155-.068.05-.162.111-.131.008-.528-.075-.277-.087-.076-.174-.053-.512-.053-.078-.04-.1-.131.054-.189-.1-.29-.359-.2-.106-.13-.042-.558-.733-.19-.355.033-.376.182-.163.127-.058.245-.176.34-.1-.106-.009-.185-.331-.592h0l-.117-.247-.078-.066-.465-.011-.269-.088-.056-.068-.007-.363.071-.32,0-.253.043-.028.979-.13.506.093.868-.073.11.116.133.441.064.089.251.157.187.049.247-.142.06.147.14.066.347-.052.394-.164.3-.243.1-.248.055-.071.188-.083v-.081h0l.12-.037.948.041.85.134.494-.071.571.073.945.042Z" transform="translate(-306.322 -51.305)" fill="#fcb320"/>
    <path id="NG-KD" d="M222.185,151.645l.291,0,.23-.063.394-.361.452-.268h.155l.384-.117.115.018.106.077.03.118-.2.379.05.242.1.111.332.172.353.116.331.389.144.052.262,0,.231.056.507.417.338.6.036.365-.1.23-.1.462.113.57-.019.163-.068.1-.334.09-.052.074.057.2.1.1.661.091.187.259.151.1.283.06.1-.027h0l-.05.373-.221.4.025.069.263.165.238.255h0l-.035.027-.02.273-.052.135-.124.147-.206.069-.179.132-.2.468-.021.255.128.266.071.332-.225.186-.032.1.017.186-.066.736.05.2-.04.1-.18.146-.038.29-.166.121.02.446-.1.132.009.109.307.5.242.29.161.114.094.2.011.321-.157.371h0l-.1.054-.25.528-.312.509-.077.068-.152.04-.233-.012-.057-.179-.5-.557-.359-.023-.141-.118-.125-.021-.122.092-.084.179-.392.447-.221.151-.108.02-.126-.09-.038-.123,0-.914-.1-.152-.4-.23-.03-.306-.276-.251-.1-.037-.1.033-.155.2-.089.239-.218.2h-.1l-.165-.1-.126.024-.23-.169-.088-.013-.141.057-.066-.074-.057-.177-.071-.01-.126.1h0l-.111.074-.089-.029-.138-.293-.1-.04-.1.051-.17.286-.106.08-.143-.08-.3-.03-.576.059h0l-.116-.04-.232.057.13-.389-.319-.262.008-.219.053-.088.231-.122.074-.082.057-.263.291-.3-.055-.177-.283-.153.078-.284-.341-.128-.106-.073-.016-.086.027-.06.083-.04.3-.039.059-.142-.009-.291-.087-.365-.015-.477-.031-.1-.129-.063-1.212.008-.628-.235-.161-.156-.1-.187.086-.117.2-.128.153-.158.08-.139.4-.245.1-.169.029-.186-.3-.165-.455-.156.127-.39,0-.242-.186-.358-.152-.041-.212.063-.131-.013-.026-.424-.045-.181-.057-.048-.446-.047-.111.113.063.225-.06.092-.374-.053-.719.269-.1-.251-.1-.094-.274.012-.2.057-.232.141-.527.424-.507.66-.133.084-.135-.057-.115-.332-.287-.188-.021-.129.031-.218.173-.17-.023-.359.07-.188-.013-.139-.136-.224.038-.451.286-.507h0l.158-.011.121-.072.269-.392.5-.444.531-.089.748.054.444-.058.219-.142.286-.292.142-.3.06-.334.161-.321.08-.107.259-.167.22-.224.1,0h0l.415.083.183-.017.128.085.074.164-.022.1-.272.253-.037.124.6.182.4.4.165.022.253-.143.13-.18-.171-.316-.011-.192.325-.1.184.01.261.1.132-.008.055-.051V152.1l.113-.28.288-.244.131-.026.639.216.193.163.091.149.148.073.529-.211.079-.193Z" transform="translate(-192.716 -136.92)" fill="#fcb320"/>
    <path id="NG-KE" d="M55.273,41.831l.624-.013.175.07.436-.149.072.029.155.2.3.171.1.1.9.294.278.195.288.064.171-.041.059-.053.235-.348.109-.029.1.083.038.118-.153.37.008.226-.134.281-.04.349.175.2.17.4-.017.313-.122.571,0,.192.158.52-.023.755-.06.147-.1,0-.3-.192-.252,0-.372.111-.121.139-.1.356-.013.936.074,1.229-.2.922-.246.53-.109.449.24.344.072.048.262.027.161-.127.226-.283,1.13-.513.159-.011.178.081.192-.068.073.165.089.007.153-.091h0l.081-.045h.171l.387.212.6-.138.077-.219.1-.058.074-.014.086.06.2.029.34-.061.1.054.159.311.27.01.344.227.515-.072.357.047.235-.056.115-.076.457.058.41.167.133.2v.233L65.5,52.4v.113l.507.255.182.284.13.714.02.516h0l-.128-.1-.174-.034-.322.26-.121.207-.37.039-1.14.479L63.08,55.2l-.154-.118-.034-.379.035-.453-.045-.168-.353-.233-.076-.119-.092-.613-.159-.151-.268-.067-.343,0-.929.15-.741.172-.417.153-.457.244-.129.195.015.145.082.119.342.189.509.206.5.05.1.189.161,0,.073.07.105.618-.024.1-.205.137-.059.138.046.137.258.154.11.128-.007.195-.1.14-.358.091-.492.249-.471-.049-.146.04-.085.071,0,.9-.042.129.118.267.17.186.175.285.071.23-.026.144-.167.2-.249.148-.318.024-.7.235-.047.551-.053.045-.407-.043-.134-.093,0-.215.1-.309.027-.371-.276-.251-.105-.227.017-.6.138-.307.173-.188.139-.1.369-.136.435-.417.229-1.009.019-.381-.048-.07-.272-.1-.149.009-.791-.537-.494-.159-.277.007-.424.08-.583-.034-1.146.076-.175-.027-.329-.134-1.04-.573-.272-.034-.084.049h-.122l-1.143-.968L51.99,51.3l.2-.444.461-.394-.077-.307-.228-.171-.054-.459.3-.362-.222-.825.037-.492.12-.405-.088-1.493,1.019-.879.728-.57.9-1.377.2-.907Z" transform="translate(-46.404 -37.6)" fill="#fff"/>
    <path id="NG-KN" d="M314.533,82.854l.331.592.009.185.1.105.176-.34.058-.245.163-.127.376-.182.355-.033.733.19.042.558.106.13.359.2.1.29-.054.189.1.131.078.04.512.053.174.053.087.076.075.277-.008.528-.111.131-.05.162.155.068v.1l.179-.112.3-.024.054.136v.242l.129.024.171-.017.219-.134.138-.165.118-.05.215.676.018.232-.1.173-.018.193-.316.442-.047.2.019.185.477-.014.1.093.047.188.139.259.267.249.2.05.084.108-.671.648-.1.35.008.211h0l-.52.2-.107-.008-.107-.1-.159.028-.234.148-.063.1-.446.393-.25.387-.258.3-.192.048-.254-.015-.1.04-.151.43-.042.33.038.649.042.187.364.408.073.157.008.188-.125.363-.244.385-.093.053h0l-.1.027-.283-.06-.151-.1-.186-.259-.661-.091-.1-.1-.057-.2.052-.074.334-.09.068-.1.019-.163-.113-.57.1-.462.1-.23-.036-.365-.338-.6-.507-.417-.231-.056-.262,0-.144-.052-.331-.389-.353-.116-.333-.172-.1-.111-.05-.242.2-.379-.03-.118-.106-.077-.115-.018-.384.117h-.155l-.452.268-.394.361-.23.063-.291,0h0l-.339-.252-.1-.213-.073-.34.143-.252.007-.208.171-.154.353-.1.231-.16.255-.007.089-.055-.3-.735.063-.382-.2-.431.081-.6-.066-1.16.025-.272.205-.215.4-.223.72-.224.347-.182.073-.08.106-.414.2-.434.121-.049Z" transform="translate(-282.323 -74.801)" fill="#fff"/>
    <path id="NG-KO" d="M171.137,323.919l.207.054.261.149.332.306.261.407.24.777.349.217.255.253.515.685.256.239.154.024L174,327l.058-.272.117-.238.018-.025.093.083.043-.008.006-.28.336-.164.105-.306h0l.7.014.132-.043h0l-.057.249-.146.251v.081l.077.159.206.251.051.581-.11.444,0,.442-.152.157-.08.2-.016.352.065.053.4-.278.872-.383,1.168-.317.666-.066.337.064.725.054h0l-.03.268.051.553.177.3.254.246.069.174v.65l.054.641.117.521.12.1.312-.03.139.044-.034.171-.116.114-.044.122-.04.37-.183.549-.311.293-.607.294-.09.136-.032.416h-.166l-.127-.1-.077.009-.317-.31-.079-.055-.039.047h0l-.1-.153-.23-.071-.312.072-.2.2-.23.086-.582.7-.563.364-.468.508-.117.031-.065-.032-.125-.189-.07,0-.017-.215-.086-.024-.257.472h0l-.126.176-.145.081-.211.218-.117.388-.006.257-.173.236-.135.084-.338-.062-.157.073h0l-.1-.568-.133-.189-.084-.245.088-.52-.121-.2.2-.334.18-.454-.006-.392.153-.371.029-.181-.014-.321-.074-.189-.137-.1-.052-.2-.165-.133-.176.039-.138.093-.04-.036-.353.079-.062-.154.023-.048-.07-.053-.045-.164-.08-.057-.007-.115-.1-.189-.241-.014-.07.048-.213.018-.185-.21-.052.006-.119-.133-.061.007-.147-.2-.56.276-.2-.05-.1-.073-.026-.1.022-.182.09-.174-.025-.075-.205.024-.043-.061.036-.084-.026-.064-.066-.034-.165.035-.073-.06h0l-.022-.073-.446-.393-.192-.254.067-.39-.236-.041-.435.083h0l-.642-.225-.174-.159-.121,0-.124-.09-.124-.353.008-.147.216-.284.126-.06.026-.129-.053-.066-.218-.025-.346.06-.234.134-.052-.042,0-.4.1-.04h0l.071-.136-.077-.227-.448-.243-.012-.056-.228-.17-.007-.063-.227-.231-.181-.349.016-.093.2-.229.216-.368.349-.38.339-.216.167.247.2.166.663.284.173.008.26.1.349-.02.2.065.369-.011.593.143.285-.047.148-.354.06-.611.218-.734Z" transform="translate(-150.641 -294.223)" fill="#fff"/>
    <path id="NG-KT" d="M266.592,34.74l.863.127.489.13.337.183.275.235.257.069.932.908.31-.083.275.036.285.146.216.165.174.2.1.23.279.129.5.12,1.141.369h0v.081l-.188.083-.055.071-.1.248-.3.243-.394.164-.347.052-.14-.066-.06-.147-.247.142L271,38.524l-.251-.157-.064-.089-.133-.441-.11-.116-.868.073-.506-.093-.979.13-.043.028,0,.253-.071.32.007.363.056.068.269.088.465.011.078.066.117.247h0l-.436.034-.121.049-.2.434-.106.414-.073.08-.347.182-.72.224-.4.223-.205.215-.025.272.066,1.16-.081.6.2.431-.063.382.3.735-.089.055-.255.007-.231.16-.353.1-.171.154-.007.208-.143.251.073.34.1.213.339.252h0l-.093.1-.079.193-.529.211-.148-.073-.091-.149-.193-.163-.639-.216-.131.026-.288.244-.113.28v.131l-.055.051-.132.008-.261-.1-.184-.01-.325.1.011.192.171.316-.13.18-.253.143-.165-.022-.4-.4-.6-.182.037-.124.272-.253.022-.1-.074-.164-.128-.085-.183.017-.415-.083h0l0-.219.118-.575-.085-.348-.18-.179-.015-.1.042-.354.147-.39.061-.377.141-.079.623-.012.121.082.46-.374.052-.3.315.076.178-.153-.047-.184-.109-.135-.252-.216-.238-.109-.119-.114.171-.342.1-.486-.09-.233.012-.158-.065-.287-.235-.49.038-.336-.123-.3-.037-.447-.094-.487.007-.57-.093-.581.136-1.019h0l.458-.148.5-.5.819.073.337-.07,2.2-1.333.121-.031Z" transform="translate(-236.651 -31.223)" fill="#fff"/>
    <path id="NG-KW" d="M9.553,235.208l.507-.087,1.066-.033.341.088,1.317,1.494.187.292.528.61.216.149.16-.017.1.045.025.277-.069.438.006.507.083.347.122.037.713-.074.079.07.041.153-.018.323.033.132.062.1.3.227.286.037.1.052.085.2.07.513.178.124h.188l.863-.335.227-.015.6.284.134.1.6.681.212.065.373-.109.426.076.351.152.06-.025,1.109.689.489.346.088.14.138.067.173.057.463.03.319-.086.708-.029.778.161h0l-.232.316-.218.734-.06.611-.148.354-.285.047-.593-.143-.369.011-.2-.065-.349.02-.26-.1-.173-.008-.663-.284-.2-.166-.167-.247-.339.216-.349.381-.216.368-.2.229-.016.093.181.349.227.231.007.063.228.171.012.056.448.243.077.227-.071.136h0l-.543.008-.387.126-.077.209.027.059-.1.2-.122-.052-.184.055-.217-.058-.219.022-.089-.046-.138-.194-.089-.035-.422.118-.1-.046-.057-.157-.039.016h0l-.037-.051-.157.075-.329.012-.139-.3-.205-.055-.446.16-.25-.036.008.083-.017-.08-.034.008-.334.152-.245.029-.779-.021h0l-.046-.062-.137-.007-.067-.089-.179-.453-.037-.261-.073-.062,0-.075-.326-.212-.278-.4-.115-.324-.008-.2-.074-.261-.186-.248-.283-.67-.156-.18-.124-.5-.076-.149.1-.424.2-.146.033-.151.054-.056.3-.2.22-.3-.015-.122-.123-.073-.267.17-.208.008-.361-.1-.1.012-.226-.145-.537-.164-.306-.228-.159-.192-.051-.234-.384-.232-.192.008-.36.2-.159.349,0,.25-.042.1-.416.323-.625.275-.545.311-.235.183-.106.024-.284.208-.659.307-.088.014-.05-.071-.042.01-.086-.106-.065-.018-.242.025-.653.521-.156.062-.368.324-.018.093-.141.074-.384.068-.3,0-.3.262h0l.053-.168-.056-.128v-.333l-.067-.085.023-.136.052-.131-.037-.255-.091-.169.07-.132.135-.086-.038-.315.065-.022.032-.162-.019-.058,0-.083.065-.154.041-.147-.039-.072-.025-.073-.033-.073.012-.11.024-.163.015-.065.506.017.067-.015.1-.111.334-.053.062.077.117.042.14-.009.466-.163.024-.166.184-.365.016-.352.18-.177-.032-.548-.121-.378.029-.134.109-.177.233-.13.077-.172.244-.341.08-.292.1-.056.2.024.2-.163.009-.115-.126-.241-.03-.182.035-.126.1-.115.636-.254.319.023.107-.028.19-.194.011-.122.222-.244L9.211,236l.024-.468.08-.1.2-.081Z" transform="translate(-3.361 -213.479)" fill="#fff"/>
    <path id="NG-LA" d="M2.759,450.578l.118.038.321-.041.183.084.326-.23v-.152l.039-.01.334.05,1.291-.018.1-.1.073-.372.2-.155.008-.221.128-.236.174.024.321.135.113.075.076.135.43-.045-.048-.137.15-.1,3.54.037.1.02.051.085-.257.271-.022.089.069.117,0,.138.206.1.3-.2.325-.039.1.139.011.089-.105.1-.264.123-.053.1.021.066.087.07.261.073.106.123.055.013.105-.055.5.061.033.118-.034.222h0l-.9-.108-.206-.063L10,450.817l-.809-.043-.933.089-1.423.015-.054.029-.018.124-.05-.009.023.032-.511-.077H5.654l-2.035.069-.894.1-.034-.293Z" transform="translate(-2.12 -407.832)" fill="#fcb320"/>
    <path id="NG-NA" d="M268.709,284.552l.126-.1.071.01.057.177.066.074.141-.057.088.013.23.169.126-.024.165.1h.1l.218-.2.089-.239.155-.2.1-.033.1.037.276.251.03.306.4.23.1.152,0,.914.038.123.126.09.108-.02.221-.151.392-.447.084-.179.122-.092.125.021.141.118.359.023.5.557.057.179.233.012.152-.04.077-.068.312-.509.25-.528.1-.054h0l.159.155.228.01.2.08.059.422.182.321.2.092.5.053h.349l.261-.127.1.053.189.208-.074.276-.254.378-.2.186-.133.019-.138.1-.146.269-.146.128-.03.212.06.162.2.229.03.117-.028.51.136.195.485.255.345.122.771-.014.919-.263.976.408.237.2.138.252h0l-.243.347-.258.077-.425-.089-.031-.039-.143.022-.094-.1-.163-.085h-.175l-.121.081-.125.2-.069.269.161.128.191.236.033.271-.051.061.094.252-.01.112-1.058.679-.114.131h0l-1.111-.841v.066l-.373.021-.46-.039-.646-.146-.95-.35-.252-.041-.244.017-.13.026-.372.207-.117.133-.1.269.008.237.443,1.1-.009.128-.107.1-.5-.21-.313-.264-.1.013-.495-.093-.463-.266-.82-.334-.8-.118-.86-.234h0l-.725-.054-.337-.064-.666.066-1.168.317-.872.383-.4.278-.065-.053.016-.352.08-.2.152-.157,0-.442.11-.444-.051-.581-.206-.251-.077-.159v-.081l.146-.251.057-.249h0l1.048-.165.274-.113.436-.1.656-.343.356-.435.1-.154.1-.32.074-.034.143-.749.186-.5.052-.659-.048-.206.008-.529.2-.614.05-.057.1-.007.04-.058Z" transform="translate(-240.28 -258.098)" fill="#fff"/>
    <path id="NG-NI" d="M57.791,161.471l.084-.049.272.034,1.04.573.329.134.175.027,1.146-.076.583.034.424-.08.277-.007.494.159.791.537.149-.009.272.1.048.07-.019.381-.229,1.009-.435.417-.369.136-.139.1-.173.188-.138.307-.017.6.105.227.276.251-.027.371-.1.309,0,.215.134.093.407.043.053-.045.047-.551.7-.235.318-.024.249-.148.167-.2.026-.144-.071-.23-.175-.285-.17-.186-.118-.267.042-.129,0-.9.085-.071.146-.04.471.049.492-.249.358-.091.1-.14.007-.195-.11-.128-.258-.154-.046-.137.059-.138.205-.137.024-.1-.105-.618-.073-.07-.161,0-.1-.189-.5-.05-.509-.206-.342-.189-.082-.119-.015-.145.129-.195.457-.244.417-.153.741-.172.929-.15.343,0,.268.067.159.151.092.613.076.119.353.233.045.168-.035.453.034.379.154.118,1.005-.065,1.14-.479.37-.039.121-.207.322-.26.174.034.128.1h0l.313.414.358.625.15.385-.007.079h0l-.286.507-.038.451.136.224.013.139-.07.188.023.359-.173.17-.031.218.021.129.287.188.115.332.135.057.133-.084.507-.66.527-.424.232-.141.2-.057.274-.012.1.094.1.251.719-.269.374.053.06-.092-.063-.225.111-.113.446.047.057.048.045.181.026.424.131.013.212-.063.152.041.187.358,0,.242-.127.39.455.156.3.165-.029.186-.1.169-.4.245-.08.139-.153.158-.2.128-.086.117.1.187.161.156.628.235,1.212-.008.129.063.031.1.015.477.087.365.009.291-.059.142-.3.039-.083.04-.027.06.016.086.106.073.341.128-.078.284.283.153.055.177-.291.3-.057.263-.074.082-.231.122-.053.088-.008.219.319.262-.13.389.232-.057.116.04h0l-.815,1.162-.089.023L77,172.669l-.166-.059-1.039.044-.252.031-.032.036-.034,1.287.071,2.846-.043.129.184.462.134.044.172-.02h0l-.105.306-.336.164-.006.28-.043.008-.093-.083-.018.024-.117.238-.058.272-.031.033-.154-.024-.256-.239-.515-.685-.255-.253-.349-.217-.24-.777-.261-.407-.332-.306-.261-.149-.207-.054h0l-.778-.161-.708.029-.319.086-.463-.03-.173-.057-.138-.067-.088-.14-.489-.346-1.109-.69-.06.025-.351-.152-.426-.076-.373.109-.212-.065-.6-.681-.134-.1-.6-.284-.227.015-.863.335h-.188l-.178-.124-.07-.513-.085-.2-.1-.052-.286-.037-.3-.227-.062-.1-.033-.132.018-.323-.04-.153-.079-.07-.713.074-.122-.037-.083-.347-.006-.507.069-.438-.025-.277-.1-.045-.16.017-.216-.149-.528-.61-.187-.292-1.317-1.494-.341-.088-1.066.033-.507.087h0l.046-.284L57.4,167l-.2-.19-.165-.333.29-.657-.013-.159.084-.107.243-.125.573.3.094-.294.024-.282.266-.606-.062-.584-.253-.179-.28-.527.114-.433.012-.192-.116-.476-.2-.077.04-.184-.026-.184.048-.184Z" transform="translate(-51.35 -145.465)" fill="#fff"/>
    <path id="NG-OG" d="M.409,371.313l.562-.4.329-.02.179.088.117.169.039.135.014.61.053.222.123.2.079.012.089-.524.054-.118.044-.042H2.22l.083.057.051.165-.015.291-.164.563-.039-.023-.048.054.049.345.2.236.287.233.1.286.3.425.284.222.22.106.381.026.164-.046.262-.374.107-.4.153-.139.245.027L5,374.11l.15.106.1-.024.106-.1.233-.057.584.021.11.178.031.533.039.067.281.115.06.1-.009.209.1.254.039.27-.374.378-.031.106.035.026.574-.024.254-.055.286.012.3-.117.142-.129.555-.083h0l.258-.1.132-.1.089.037.049.079.056.4h.186l.363-.186.319.056.28.67.288-.185.1,0,.108.065.2-.087.392-.024.029.012-.028.1h0l-.071.518-.1.307-.221.2-.194.091-.342.309-.281.463,0,.321.189.186.453.076.172-.012.134-.1.155-.214.166-.048.061.073,0,.421.08.336-.068.17-.23.062-.073.107-.105.064-.226.01-.124.126.092.04.263-.024.311.164.02.1-.077.162L11,380.509h0l-.471-.211-.413-.088h0l.034-.222-.033-.118-.5-.061-.105.055-.055-.013-.106-.123-.261-.073L9,379.585l-.021-.066.053-.1L9.3,379.3l.105-.1-.011-.089-.1-.139-.325.039-.3.2-.206-.1,0-.138-.069-.117.022-.089.257-.271-.051-.085-.1-.02-3.54-.037-.15.1.048.137-.43.045-.076-.135-.113-.075-.321-.135-.174-.024-.128.236-.008.221-.2.155-.073.372-.1.1-1.291.018-.334-.05-.039.01v.152l-.326.23-.183-.084-.321.04-.118-.038h0l.04-.309.106-.111.059-.145-.126-.352.122-.2.2-.17.019-.258-.02-.09-.2-.026-.073-.037-.039-.081-.016-.171.113-.179-.032-.1.045-.326-.021-.092-.122-.013L.642,376.9l.014-.269.132-.152.288-.168-.232-.21-.045-.09.176-.207.056-.181-.062-.439-.144-.156-.011-.913.223-.008.077-.045,0-.068-.04-.33-.252-.192L.8,373.31l-.092-.143-.028-.4.024-.844-.028-.09L.6,371.8l-.091-.243-.159-.2Z" transform="translate(0 -336.837)" fill="#fff"/>
    <path id="NG-ON" d="M113.209,383.352l.435-.083.236.04-.067.39.192.254.446.393.022.073h0l-.231.329-.085.057-.147-.013-.133.162-.017.13.038.079.19.077-.083.272.073.235.04.026-.135.333-.2.1-.166.172-.044.1.014.131-.3.649.03.078-.035.08-.142.069-.117.157-.058.436.111.121.015.077-.083.048v.154l-.112-.048-.024.024-.089.467-.142.319-.252.1-.076-.034-.112-.139-.126-.011-.355.3-.07,0-.2-.514.189-.212-.164-.2-.154-.032-.31.037-.625-.01-.158-.034-.215.036-.2-.037-.207.1-.043.073-.008.185-.089.064-.074.214-.163.075-.042.1-.166.152-.046.09.008.209-.075.093v.268l.116.06.131.215.055.137-.034.162-.078.185-.164.161-.08.352-.277.081-.055.058-.09.341-.075.066.026-.041-.024.057.041.086.066,0,.183.128.155.277.147.009.125.1.117.213-.037.109h0l-.65,1.577h0l-.458-.56-.864-.87-1.4-1.127-.254-.156h0l.377.026.078-.163-.02-.1-.311-.164-.263.024-.092-.04.124-.127.226-.009.1-.064.073-.107.23-.062.068-.171-.079-.336v-.421l-.06-.073-.167.048-.155.214-.134.1-.172.012-.452-.076-.189-.185,0-.321.281-.463.342-.309.194-.09.221-.2.1-.306.07-.519h0l.251-.134.2-.468.4-.324.219,0,.236.117.274.209.17,0,.06-.119-.022-.154.039-.2-.043-.375.147-.616.079-.054.552-.15-.058-.226h0l.429-.137.733.041.657-.029.146.05.134.208.1.3-.015.081.1.253.215.056.521-.33.286-.417.161-.369.16-.763.106-.2.226-.234.205-.137.08-.194.175-.036.141.117.077-.028Z" transform="translate(-94.53 -348.125)" fill="#fff"/>
    <path id="NG-OS" d="M87.625,364.045l.779.021.245-.029.334-.152.034-.008.017.08-.008-.083.25.036.446-.16.205.055.139.3.329-.012.157-.075.037.051h0l-.143.5-.187.154-.205.089-.153.141-.179.4-.011.132.076.265-.112.376.065.45.268.576.079.357.078.16h0l.058.227-.552.149-.079.055-.147.616.043.375-.038.2.022.154-.06.119-.17,0-.274-.209-.236-.117h-.219l-.4.325-.2.467-.252.135h0l.028-.1-.029-.012-.392.024-.2.087-.108-.065-.1,0-.288.185-.28-.67-.319-.056-.363.187h-.186l-.056-.4-.049-.079-.089-.037-.132.1-.258.1h0l.22-.927.041-.5.157-.821-.082-.046-.287-.46-.293-.219-.025-.088-.013-.083.108-.1.073-.166.082-.873.057-.026.405.126.219-.071.073-.093.012-.217.1-.054.265-.313.284.173.338.524.2-.088.061-.135.193-.109.092-.131.026.037.172-.142.216-.072.024.036.093-.126.029-.121Z" transform="translate(-76.269 -330.282)" fill="#fff"/>
    <path id="NG-OY" d="M1.378,299.34l.3-.262.3,0,.384-.068.141-.074.018-.093.368-.324.156-.062.653-.521.242-.025.065.018.086.106.042-.01.05.071.088-.014.659-.307.284-.208.106-.024.235-.183.545-.311.625-.275.416-.323.042-.1,0-.25.159-.349.36-.2.192-.008.384.232.051.234.159.192.306.228.537.164.226.145.1-.012.361.1.208-.008.267-.17.123.073.015.122-.22.3-.3.2-.054.056-.033.151-.2.146-.1.424.076.149.124.5.156.18.283.67.186.248.074.261.008.2.115.324.278.4.326.212,0,.075.073.062.037.261.179.453.067.089.137.007.046.062h0l.05.3-.029.121-.093.126-.024-.036-.216.072-.172.142-.026-.037-.092.131-.193.109-.061.135-.2.088-.338-.524-.284-.173-.265.313-.1.054-.012.217-.073.093-.219.071-.405-.126-.057.026-.082.873-.073.166-.108.1.013.083.025.088.293.219.287.46.082.046-.157.821-.041.5-.22.927h0l-.555.083-.142.129-.3.117-.286-.012-.254.055-.574.024-.035-.026L7,307.907l.374-.378-.039-.27-.1-.254.009-.209-.06-.1-.281-.115-.039-.067-.031-.533-.11-.178-.584-.021-.233.057-.106.1-.1.025-.15-.106-.165-.409-.245-.027-.153.139-.107.4-.262.374-.164.046-.381-.026-.22-.106-.284-.222-.3-.425-.1-.286-.287-.233-.2-.236L2.64,304.5l.048-.054.039.023.164-.563.015-.291-.051-.165-.083-.057H2.643l-.044.042-.054.118-.089.524-.079-.012-.123-.2-.053-.222-.014-.61-.039-.135-.117-.169-.179-.088-.329.02-.562.4h0l.1-.2.069-.405.125-.391-.028-.105.035-.254.106-.213.034-.272-.23-.288-.11-.376.008-.19.1-.176L1.128,300l.045-.066.118-.028.129-.271-.041-.041.069-.091v-.1Z" transform="translate(-0.553 -268.419)" fill="#fcb320"/>
    <path id="NG-PL" d="M365.569,223.055l.144-.046.3.008.262.083.246.392.073.452,0,1.166,1.033-.206.1.02.17.181.091.295.024.56-.022.11-.224.421-.008.159.057.08.369.134.074.067.085.109.155.383.147.126.142.05.452.025.515.139.946-.056.414-.133.272-.491.448-.122.047-.157-.025-.164-.3-.382.028-.136.285-.168.716.372.242.048.872.464,1.043.446.582.381.6.323h0l.147.371.02.2-.048.384.072.561.217.364.1.567-.052.125.028.212h.041l.02.522-.168.29-1.147.552-.179-.01-.9.2-.235.136-.194.395-.446.539-.67.354-.723.721-.229.112-.415.1-.387.051-.363-.024h0l-.138-.252-.237-.195-.976-.408-.919.263-.771.014-.345-.122-.485-.255-.136-.195.028-.51-.03-.117-.2-.229-.06-.162.03-.212.146-.128.146-.269.138-.1.133-.019.2-.187.254-.378.074-.276-.189-.208-.1-.053-.261.127h-.349l-.5-.053-.2-.092-.182-.321-.059-.422-.2-.08-.228-.01-.159-.155h0l.157-.371-.011-.321-.094-.2-.161-.114-.242-.29-.307-.5-.009-.109.1-.132-.02-.446.166-.121.038-.29.18-.146.04-.1-.05-.2.066-.736-.017-.186.032-.1.225-.186-.071-.332-.128-.266.021-.255.2-.468.179-.132.206-.069.124-.147.052-.135.02-.273Z" transform="translate(-330.627 -202.481)" fill="#fff"/>
    <path id="NG-RI" d="M234.931,517.358l-.138.131,0,.073-.058-.023.021-.134.136-.077Zm-.3-.173-.162-.092-.052.014-.052.014-.02-.065.081-.074-.029-.063.029-.061-.007-.1-.054-.076-.086-.016-.021.015-.067-.16-.025-.016.013-.043-.081-.081-.025.034-.09.014-.018.077.054.1.047.1.039.192-.045-.022-.042.059.1.328-.013.12.11.381-.023.021.073.043.194-.04.038-.042.012-.055.165.046,0-.21.063-.147Zm-.358-.966.039.043.205.008.018-.086-.039-.029-.159.028Zm.12-.232.034.106.049.018-.027-.179Zm.678.917-.136-.269-.094-.066-.154-.076-.025-.011-.079.061.061.008.123.107.013.02-.022.043.049.088.011.181.121.113.086.016.063-.133-.019-.081Zm.558.577-.2-.247-.123.154.074.074.076-.023.036.086h.072l.021.058.11-.047.1.1.175-.14-.058-.052Zm-1.875-.623-.105.05-.026.124.107.038.136.1.1.215-.027-.316-.034-.014.025-.14Zm1.708.241-.223-.153-.146-.221,0-.025-.045-.16-.045.041-.038-.034.04-.063,0-.14-.011-.007-.054.174-.212-.066-.05-.009-.083-.1-.007-.143-.034-.027-.007-.043-.024-.016-.014-.061.047-.074-.092-.115-.076.05-.032.084.061.145-.194.073-.039.034-.088.036-.049,0-.094.073-.043.058-.008-.142-.055.07-.021.048.094.155.052.231-.123.042-.05.02-.13-.152-.067-.179-.137-.227-.141-.048.053-.146-.064-.209.092-.076.033-.045-.05-.063-.17-.023-.171-.1-.026.15-.084.054-.031-.073-.12-.013-.032-.032-.06.018-.073,0-.058-.082-.018-.013-.052.039.018.093-.013.031.043.029.12.12-.011.144.092.437.3.312,0,.111-.171.138-.009.055.171.618.052.313.227.234-.027.031-.682.065-.211-.071-.008-.255-.023-.239.013-.043,0-.016-.043-.255-.018-.071.183-.346-.018-.252-.063.014-.064.009-.373-.245-.113-.413-.13-.176-.187,0-.616.239-.1-.024-.033-.183.04-.138-.312-.136-.047-.078.007-.409.179-.251.072-.193,0-.12-.122.015-.079-.073.125-.418.423-.739.261.016.052-.047.071-.235.145-.074-.022-.171.149-.1.089-.139,0-.183-.059-.145-.072-.055-.181-.078-.277.046-.1-.026-.054-.1.02-.041.332-.17.018-.5.066-.139.193-.134.084-.165.077-.3-.1-.333.022-.033.1.121.226.02-.259,1.232.142.042.327-.063.2.073.041.156-.049.435-.1.26.025.129.173.122.162.321.2.155.2.039.633-.013.443.106.391-.1.2,0,.425.106.242-.089.052,0,.062.162.006.262-.226.395-.321.408-.129.349-.015.1.057.1.137.133.17.025.295-.056.1-.06.263-.011.309.115.17-.04.277.132.221.169.184.329.059.217-.09.4.055.429-.048.03,0,.06.057.11-.115.073-.079-.068-.016-.092-.115-.025-.052-.024-.025.043-.131.111-.055-.023-.025-.034-.036,0-.067.037-.141-.222-.12.09-.088-.034-.151-.047-.061-.1-.063.018-.07-.081-.058.048-.018.074-.084.031.032.1.025.1.023.057.073.057.073-.023.054.008.081-.029-.016.165-.167.016-.136.05-.07-.113-.009-.031-.1-.11-.014-.089.01-.021Zm2.027.406-.065-.037-.04,0-.083-.034,0,0-.038-.034-.04.043-.03-.012.033-.051-.083-.14-.085.05-.1-.085-.034-.032-.016-.048h-.131l-.024.026-.116.082-.125,0-.043,0-.041-.022-.059-.059-.05-.029-.008-.076-.117.032-.1,0,0-.04-.118-.032-.086-.043-.126-.008-.045.023-.022.055,0,.074h.162l.008.008.11.1.022.063.034.129.079.029.015-.038.032.026.1,0,.006.021-.173.07-.04.014-.065.226.515.073.394-.087.559-.013-.018-.115Zm-4.585-1.7.074-.016.087-.074.008-.106.121.085.151.059-.09.11.04.174.025.03,0,.055-.057.089.021.06.1.029.119.127.2.411-.088.057-.04.079.014.086.3.174.057.273.083.124-.011.131.045.152.139.106-.105.131-.09.034-.081-.047-.057.039-.6-.131-.076-.239.05-.058-.057,0-.128-.366-.076-.179.009-.194.154-.147-.016-.127-.17-.156-.159-.108-.072-.382-.027-.055,0-.171-.073-.1.117-.07.083.059h.063Z" transform="translate(-209.077 -463.551)" fill="#fff"/>
    <path id="NG-SO" d="M99.029.229l1.213.535,1.934.683.377.221.437-.14.344,0,.8.388,1.5,1.466.563.982h0l-.285.245-.669.377-.9-.121-.179-.062-.16-.193-.214-.064-.468-.018-.056.516-.069.178-.047.021L102.9,5.1h-.263l-.457.147-.2.171-.01.066.073.484.007.795-.127.094-.381.154-.944.074-.574.089-.549.808-.177.176-.289.18.006.271.135.437.061.4-.07.285-.232.16-.576.05-.121-.027-.452.06-.249-.029-.421.031-.879-.157-.087.057-.088.425.009,1.715-.062,1.3h0l-.153.091-.089-.007-.073-.165-.192.068-.178-.081-.159.011-1.13.513-.226.283-.161.127-.262-.027-.072-.048-.24-.344.109-.449.246-.53.2-.922-.074-1.229.013-.936.1-.356.121-.139.372-.111.252,0,.3.192.1,0,.06-.147.023-.755-.158-.52,0-.192.122-.571.017-.313-.17-.4-.175-.2.04-.349.134-.281L94.662,5.3l.153-.37-.038-.118-.1-.083-.109.029-.235.348-.059.053L94.1,5.2l-.288-.064-.278-.195-.9-.294-.1-.1-.3-.171-.155-.2-.072-.029-.436.149-.175-.07-.624.013h0l.008-1.549.39,0,1.56-1.373L95.1.835l.227.2.538.045.608-.068.457.053.5-.015.495-.59" transform="translate(-81.903 0)" fill="#fcb320"/>
    <path id="NG-TA" d="M407.48,269.792l.432-.25.551.073,1-.457.607.1.376,0h0l.336.067.556-.057,1.174,0,.6-.044h0l.513.959.138.181.438.1.2.121.5.925-.043.2.032.362.251.277.39.138.19.362.024.17-.094.341-.564,1.078.036.544-.041.2-.576.492-.813,1.085-.479.516-.358.3-.39.45-.077.149.237.634.274.443.255.231.256-.187.267-.378.154-.036.134.04.143.105.236.3.407.362.2.245.1.19-.055.517.07.163.036.333.183.435,0,.147.115.083h0l-.465.516-.1.183-.084.275.036.558.087.313.125.2-.017.121-.092.069-.381-.033-.064.043-.194.006-.017.154-.162.071-.145.182-.18.04-.1.4-.2.061-.129.256.006.047.089,0,.043.041.008.167.083.01.018.084-.093.041-.058.108.089.143-.008.1-.181.1-.021.3-.138.136-.054.18-.17.073-.167-.078-.057.051-.117.014-.043.06.043.083-.017.163-.041.047-.353.064-.04.021-.019.129-.129-.017-.285-.191-.212.1-.063-.066-.284-.062-.134-.115-.055,0-.115.133-.191-.008.023-.822-.191-.2-.211-.01-.222.2-.268-.045-.175-.08-.135-.318-.111-.206-.115-.076-.11-.007-.123-.2-.011-.069.156-.451-.251-.173-.14-.019-.057.07-.159-.2-.1-.008-.141-.152-.073-.007-.034-.143-.118-.059-.038.043-.138-.034-.174-.149.049-.182-.038-.2-.155-.123-.072.448.008.272-.131.567-.083.094-.157.054-.032.082-.06.01-.089-.091-1.478.143-.249-.29.058-.165-.08-.194-.018-.111.007-.076-.084-.03-.772.7-.06.105-.23.162-.106.173-.435.436-.126-.068-.207-.009-.151-.021-.075-.057-.085.2.028.074-.072.091-.036.17.034.191-.026.1-.057.035-.1.266-.127.506-.047.037-.064-.032-.124.035-.1-.124-.041.043h0l.179-.771,0-.825.031-.1-.057-.069.2-1.083.312-.58.324-.306.291-.183.087-.135-.027-.558.224-.555.056-.3-.053-.168.024-.1-.11-.128.013-.061-.788-.713-.418-.532-.484-.462-.7-.167-.771-.045-.7.089-.576.248-.179-.054.357-.562h0l.114-.131,1.058-.679.01-.112-.094-.252.051-.061-.033-.271-.191-.236-.161-.128.069-.269.125-.2.121-.081h.175l.163.085.094.1.143-.022.031.039.425.089.258-.077.243-.347h0l.363.024.387-.051.415-.1.229-.112.723-.721.67-.354.446-.539.194-.395.235-.136.9-.2.179.01,1.147-.552.168-.29-.02-.522h-.04l-.028-.212.052-.125-.1-.567-.217-.364-.072-.561.048-.384-.02-.2Z" transform="translate(-362.387 -244.566)" fill="#fff"/>
    <path id="NG-YO" d="M442.8,32.449l1.173.018.9.113,1.014.394,1.1.24.257.142.574.487.45.283.149.013.028-.077.094-.026.155.061.058-.049-.052-.111.14.015.16.089.156-.04.078.067.059.1.1-.058.268.057.07.047.088.011h.093l-.008.4-.14.755.116.363.137.171.452.362.045.352-.173.4-.223.29-.665.594-.052.207.162.361,0,.545-.239,1.534-.012.33.159.7-.445.861.014.183.06.034.462-.02.295.353.079.314-.093.2-.428.417-.311.556-.272.316-.085.269,0,.28.072.391-.023.277-.2.29-.576.344-1.056.284-.251.181-.162.267-.057.261.026.79-.321.427-.286.065h-.639l-.028-.048-.073-.608.113-1.116-.063-.459-.347-.318-.149.1.094-.145-.322-.337-.447-.6-.8-.59-.205-.122-.281-.1-.381-.016L442,44.7l-.086.083h0l-.286-.035-.154-.144.093-.639.1-.256.022-.463-.786-1.97-.019-.365-.09-.255-.031-.254-.02-.635-.3-.439.018-.17-.073-.667-.107-.276-.729-.583h0l-.082-.273-.166-1.086-.208-.32-.174-.083-.191.057-.47-.209-.552.175-.105.068-.138-.238-.065-.41-.2-.45-.208-.118-.6.185-.266.129-.3.059-.5.244-.2.376-.3.17-.565-.069-.169-.111h0l.7-.706.306-.433.384-.331.489-.551.375-.239.852-.382L438.716,33l1.182-.443,1.844-.1Z" transform="translate(-394.276 -29.185)" fill="#fff"/>
    <path id="NG-ZA" d="M156.734,44.68l.513.614.479-.01.315-.057h0l-.136,1.019.093.581-.007.57.094.487.037.447.123.3-.038.336.235.49.065.287-.012.158.089.233-.1.486-.171.342.119.114.238.109.252.216.109.135.047.184-.178.153-.315-.076-.052.3-.46.374-.121-.082-.623.012-.141.079-.061.377-.147.39-.042.354.015.1.18.179.085.348-.118.575,0,.219h0l-.1,0-.22.224-.259.167-.08.107-.161.321-.06.334-.142.3-.286.292-.219.142-.444.058-.748-.054-.531.089-.5.444-.269.392-.121.072-.158.011h0l.007-.079-.15-.385-.358-.625-.313-.414h0l-.02-.516-.13-.714-.182-.284-.507-.255v-.113l.193-.611V53.7l-.133-.2-.41-.167-.457-.058-.115.076L150,53.4l-.357-.047-.515.072-.344-.227-.27-.01-.159-.311-.1-.054-.34.061-.2-.029-.086-.06-.074.014-.1.058-.077.219-.6.138-.387-.212h-.171l-.081.045h0l.062-1.3-.009-1.715.088-.425.087-.057.879.157.421-.031.249.029.452-.06.121.027.576-.05.232-.16.07-.285-.061-.4-.135-.437-.006-.271.289-.18.177-.176.549-.808.574-.089.944-.074.381-.154.127-.094-.007-.795-.073-.484.01-.066.2-.171.457-.147h.263l.254.136.047-.021.069-.178.056-.516.468.018.214.064.16.193.179.062.9.121.669-.377.285-.245h0Z" transform="translate(-132.494 -39.738)" fill="#fff"/>
  </g>
</svg>
