<svg xmlns="http://www.w3.org/2000/svg" width="55.876" height="66.452" viewBox="0 0 55.876 66.452">
  <g id="person" transform="translate(-38.197 -0.001)">
    <path id="Path_127" data-name="Path 127" d="M97.074,39.7a3.346,3.346,0,0,0-1.181,3.634,7.39,7.39,0,0,1-6.814,9.379,3.342,3.342,0,0,0-3.091,2.245c-.068.2-.144.382-.227.568-.14-.024-.28-.044-.421-.061.141.018.282.039.421.062h0a10.325,10.325,0,0,1,8.611,10.182v5.435a1.107,1.107,0,0,1-1.107,1.107H52.842a1.107,1.107,0,0,1-1.107-1.107V65.712a10.325,10.325,0,0,1,8.611-10.182h0c.138-.024.28-.044.421-.062-.141.017-.281.037-.421.061-.083-.186-.159-.372-.227-.568a3.342,3.342,0,0,0-3.091-2.245,7.39,7.39,0,0,1-6.814-9.379A3.344,3.344,0,0,0,49.032,39.7a7.391,7.391,0,0,1,0-11.592,3.344,3.344,0,0,0,1.181-3.634A7.39,7.39,0,0,1,57.027,15.1a3.342,3.342,0,0,0,3.091-2.245A7.391,7.391,0,0,1,71.143,9.272a3.341,3.341,0,0,0,3.821,0,7.39,7.39,0,0,1,11.025,3.583A3.342,3.342,0,0,0,89.08,15.1a7.39,7.39,0,0,1,6.814,9.379,3.344,3.344,0,0,0,1.181,3.634A7.391,7.391,0,0,1,97.074,39.7Z" transform="translate(-6.918 -6.91)" fill="#00923f"/>
    <path id="Path_128" data-name="Path 128" d="M59.348,36A13.706,13.706,0,0,0,67.814,48.67l-.021.051v.945a5.727,5.727,0,0,1-5.735,5.723,10.27,10.27,0,0,0-1.712.143c-.083-.186-.159-.374-.227-.569a3.342,3.342,0,0,0-3.091-2.245,7.39,7.39,0,0,1-6.814-9.379A3.344,3.344,0,0,0,49.032,39.7a7.391,7.391,0,0,1,0-11.592,3.344,3.344,0,0,0,1.181-3.634A7.39,7.39,0,0,1,57.027,15.1a3.342,3.342,0,0,0,3.091-2.245A7.391,7.391,0,0,1,71.143,9.272a3.341,3.341,0,0,0,3.821,0,7.39,7.39,0,0,1,11.025,3.583A3.342,3.342,0,0,0,89.08,15.1a7.39,7.39,0,0,1,6.814,9.379,3.344,3.344,0,0,0,1.181,3.634,7.391,7.391,0,0,1,0,11.592,3.346,3.346,0,0,0-1.181,3.634,7.39,7.39,0,0,1-6.814,9.379,3.342,3.342,0,0,0-3.091,2.245c-.068.2-.144.383-.227.569a10.27,10.27,0,0,0-1.712-.143,5.727,5.727,0,0,1-5.735-5.723v-.945l-.021-.051A13.706,13.706,0,0,0,86.758,36V30.343a9.969,9.969,0,0,0-9.969-9.969H72.939a1.107,1.107,0,0,0-1.036.717A17.687,17.687,0,0,1,60.138,31.821a1.11,1.11,0,0,0-.79,1.061V36Z" transform="translate(-6.918 -6.91)" fill="#00923f"/>
    <path id="Path_129" data-name="Path 129" d="M168.422,107.221v5.662a13.7,13.7,0,1,1-27.41,0v-3.121a1.11,1.11,0,0,1,.79-1.061,17.666,17.666,0,0,0,11.765-10.731,1.107,1.107,0,0,1,1.036-.717h3.852A9.967,9.967,0,0,1,168.422,107.221Z" transform="translate(-88.582 -83.79)" fill="#00923f"/>
    <path id="Path_130" data-name="Path 130" d="M128.65,357.321v5.435a1.107,1.107,0,0,1-1.107,1.107H87.119a1.107,1.107,0,0,1-1.107-1.107v-5.435a10.328,10.328,0,0,1,7.477-9.926c2.523-.722,3.3-.034,5.224-.911l.035.075,7.9,6.12a1.109,1.109,0,0,0,1.357,0l7.9-6.12.035-.075c1.934.88,2.692.186,5.224.911A10.328,10.328,0,0,1,128.65,357.321Z" transform="translate(-41.196 -298.518)" fill="#00923f"/>
    <path id="Path_131" data-name="Path 131" d="M148.212,350.835c.14-.024.28-.044.421-.061-.141.018-.282.039-.421.062Z" transform="translate(-94.785 -302.214)" fill="#00923f"/>
    <path id="Path_132" data-name="Path 132" d="M329.193,350.835h0c-.138-.024-.28-.044-.421-.062C328.913,350.791,329.053,350.811,329.193,350.835Z" transform="translate(-250.349 -302.214)" fill="#00923f"/>
    <path id="Path_133" data-name="Path 133" d="M211.716,303.978a13.743,13.743,0,0,1-10.834,0,8.579,8.579,0,0,0,.156-2.273l.021-.051a13.733,13.733,0,0,0,10.479,0l.021.051A8.577,8.577,0,0,0,211.716,303.978Z" transform="translate(-140.164 -259.894)" fill="#00923f"/>
    <path id="Path_134" data-name="Path 134" d="M148.212,350.835c.14-.024.28-.044.421-.061-.141.018-.282.039-.421.062Z" transform="translate(-94.785 -302.214)" fill="#00923f"/>
    <path id="Path_135" data-name="Path 135" d="M329.193,350.835h0c-.138-.024-.28-.044-.421-.062C328.913,350.791,329.053,350.811,329.193,350.835Z" transform="translate(-250.349 -302.214)" fill="#00923f"/>
    <path id="Path_136" data-name="Path 136" d="M101.031,348.326a.881.881,0,0,1-.521,1.578,10.321,10.321,0,0,0-10.345,10.323v3.635H87.119a1.108,1.108,0,0,1-1.107-1.107v-5.435A10.323,10.323,0,0,1,96.335,347a5.729,5.729,0,0,0,2.378-.514l.035.075Z" transform="translate(-41.196 -298.518)" fill="#00923f"/>
    <path id="Path_137" data-name="Path 137" d="M283.382,348.326a.881.881,0,0,0,.521,1.578,10.321,10.321,0,0,1,10.345,10.323v3.635h3.046a1.108,1.108,0,0,0,1.107-1.107v-5.435A10.323,10.323,0,0,0,288.078,347a5.729,5.729,0,0,1-2.378-.514l-.035.075Z" transform="translate(-210.947 -298.518)" fill="#00923f"/>
    <path id="Path_138" data-name="Path 138" d="M79.363,8.031a2.844,2.844,0,0,1,1.35,5.253q-.107.068-.211.141a3.341,3.341,0,0,1-3.821,0,7.391,7.391,0,0,0-11.025,3.583,3.342,3.342,0,0,1-3.091,2.245,7.39,7.39,0,0,0-6.814,9.379,3.344,3.344,0,0,1-1.181,3.634,7.391,7.391,0,0,0,0,11.592,3.344,3.344,0,0,1,1.181,3.634,2.84,2.84,0,0,1-5.413.268,7.052,7.052,0,0,1-.124-4.421,3.344,3.344,0,0,0-1.181-3.634,7.391,7.391,0,0,1,0-11.592,3.344,3.344,0,0,0,1.181-3.634A7.39,7.39,0,0,1,57.027,15.1a3.342,3.342,0,0,0,3.091-2.245A7.391,7.391,0,0,1,71.143,9.273a3.341,3.341,0,0,0,3.821,0A7.062,7.062,0,0,1,79.363,8.031Z" transform="translate(-6.918 -6.911)" fill="#00923f"/>
    <path id="Path_139" data-name="Path 139" d="M151.571,190.7a2.151,2.151,0,0,1-1.941,3.82,13.706,13.706,0,0,1-8.618-12.729v-3.127a1.1,1.1,0,0,1,.787-1.054q.406-.124.835-.273a1.79,1.79,0,0,1,2.392,1.686A13.61,13.61,0,0,0,151.571,190.7Z" transform="translate(-88.582 -152.695)" fill="#00923f"/>
    <path id="Path_140" data-name="Path 140" d="M90.826,33.677a2.222,2.222,0,0,0-.79,2.432,8.486,8.486,0,0,1-3.605,9.5,1.108,1.108,0,0,1-1.2-1.861,6.261,6.261,0,0,0,2.686-7,4.475,4.475,0,0,1,1.571-4.836,6.277,6.277,0,0,0,0-9.828,4.475,4.475,0,0,1-1.571-4.836A6.278,6.278,0,0,0,82.138,9.3a4.476,4.476,0,0,1-4.114-2.989,6.277,6.277,0,0,0-9.347-3.037,4.476,4.476,0,0,1-5.085,0,6.278,6.278,0,0,0-9.347,3.037A4.475,4.475,0,0,1,50.132,9.3a6.277,6.277,0,0,0-5.777,7.951,4.476,4.476,0,0,1-1.571,4.836,6.278,6.278,0,0,0,0,9.828,4.476,4.476,0,0,1,1.571,4.836A6.278,6.278,0,0,0,50.132,44.7a4.476,4.476,0,0,1,4.007,2.718c.586-.051,1-.045,1-.045a4.617,4.617,0,0,0,4.627-4.616v-.292a14.831,14.831,0,0,1-8.444-13.372,1.107,1.107,0,1,1,2.215,0,12.6,12.6,0,0,0,25.195,0v-5.66a8.87,8.87,0,0,0-8.86-8.86H66.022C63.36,21.621,56.9,26.068,49.4,26.809a1.107,1.107,0,1,1-.218-2.2c7.608-.752,13.954-5.706,15.543-13.516a1.108,1.108,0,0,1,2.171.442c-.057.279-.121.553-.188.827h3.164A11.087,11.087,0,0,1,80.948,23.432c0,.025,0,5.752,0,5.776A14.828,14.828,0,0,1,61.959,43.3a6.784,6.784,0,0,1-2.539,4.782l6.715,5.2,3.949-3.058a1.108,1.108,0,0,1,1.356,1.752l-4.2,3.25V65.345a1.107,1.107,0,0,1-2.215,0V55.229l-7.733-5.987a6.868,6.868,0,0,1-2.154.346A9.21,9.21,0,0,0,45.924,58.8v6.542a1.107,1.107,0,1,1-2.215,0V58.8A11.431,11.431,0,0,1,51.86,47.849a2.22,2.22,0,0,0-1.775-.934,8.491,8.491,0,0,1-7.85-10.805,2.223,2.223,0,0,0-.79-2.432,8.491,8.491,0,0,1,0-13.356,2.223,2.223,0,0,0,.79-2.432,8.49,8.49,0,0,1,7.85-10.805,2.223,2.223,0,0,0,2.069-1.5,8.49,8.49,0,0,1,12.7-4.127,2.223,2.223,0,0,0,2.558,0,8.491,8.491,0,0,1,12.7,4.127,2.223,2.223,0,0,0,2.069,1.5,8.49,8.49,0,0,1,7.85,10.805,2.222,2.222,0,0,0,.79,2.432A8.491,8.491,0,0,1,90.826,33.677Zm-13.7,13.7a4.6,4.6,0,0,1-3.958-2.222A1.107,1.107,0,1,0,71.281,46.3a6.8,6.8,0,0,0,5.85,3.285A9.211,9.211,0,0,1,86.346,58.8v6.542a1.107,1.107,0,1,0,2.215,0V58.8A11.424,11.424,0,0,0,77.131,47.372Z" transform="translate(0 0)" fill="#00923f"/>
  </g>
</svg>
