<svg id="Group_564" data-name="Group 564" xmlns="http://www.w3.org/2000/svg" width="587.956" height="363.397" viewBox="0 0 587.956 363.397">
  <path id="Path_564" data-name="Path 564" d="M51.623,547.844c3.717,6.893,11.606,9.853,11.606,9.853s1.862-8.217-1.855-15.111-11.606-9.853-11.606-9.853S47.906,540.951,51.623,547.844Z" transform="translate(-39.171 -308.245)" fill="#3f3d56"/>
  <path id="Path_565" data-name="Path 565" d="M44.654,554.993c6.711,4.037,9.3,12.057,9.3,12.057s-8.3,1.474-15.007-2.564-9.3-12.057-9.3-12.057S37.943,550.955,44.654,554.993Z" transform="translate(-29.647 -317.662)" fill="#fcb320"/>
  <path id="Path_566" data-name="Path 566" d="M602.746,222.434c0,55.117-32.766,74.362-73.186,74.362s-73.186-19.245-73.186-74.362S529.56,97.2,529.56,97.2,602.746,167.317,602.746,222.434Z" transform="translate(-236.426 -97.199)" fill="#f2f2f2"/>
  <path id="Path_567" data-name="Path 567" d="M535.891,191.166l.75-46.129,31.194-57.067L536.758,137.8l.337-20.741,21.5-41.288-21.409,35.8h0l.606-37.3L560.811,41.4l-22.926,27L538.264,0l-2.379,90.552.2-3.735L512.674,50.99l23.031,43-2.181,41.662-.065-1.106-26.983-37.7,26.9,41.608-.273,5.211-.049.078.023.428-5.533,105.7h7.392l.887-54.6,26.835-41.506Z" transform="translate(-245.422)" fill="#3f3d56"/>
  <path id="Path_568" data-name="Path 568" d="M999.746,222.434c0,55.117-32.766,74.362-73.186,74.362s-73.186-19.245-73.186-74.362S926.56,97.2,926.56,97.2,999.746,167.317,999.746,222.434Z" transform="translate(-428.799 -97.199)" fill="#f2f2f2"/>
  <path id="Path_569" data-name="Path 569" d="M932.891,191.166l.749-46.129,31.194-57.067L933.758,137.8l.337-20.741,21.5-41.288-21.41,35.8h0l.606-37.3L957.811,41.4l-22.926,27L935.264,0l-2.379,90.552.2-3.735L909.674,50.99l23.031,43-2.181,41.662-.065-1.106-26.983-37.7,26.9,41.608-.273,5.211-.049.078.023.428-5.533,105.7h7.392l.887-54.6,26.835-41.506Z" transform="translate(-437.796)" fill="#3f3d56"/>
  <circle id="Ellipse_72" data-name="Ellipse 72" cx="27.996" cy="27.996" r="27.996" transform="translate(28.298 113.476)" fill="#e5fff1"/>
  <path id="Path_570" data-name="Path 570" d="M36.44,339.287l-4.11-6.85,38.356-32.877h98.631v9.589L133.7,347.507l-41.1,8.22Z" transform="translate(-15.666 -145.158)" fill="#3f3d56"/>
  <path id="Path_571" data-name="Path 571" d="M272.582,316.844V295.411H259.669v6.758L255.6,297.55l-32.877,32.877-5.48,5.48L210.4,363.3l12.329,30.137h63.015V331.8Z" transform="translate(-101.952 -143.147)" fill="#ccc"/>
  <rect id="Rectangle_314" data-name="Rectangle 314" width="104.111" height="63.014" transform="translate(16.664 187.28)" fill="#f2f2f2"/>
  <rect id="Rectangle_315" data-name="Rectangle 315" width="21.918" height="19.178" transform="translate(84.473 207.143)" fill="#3f3d56"/>
  <rect id="Rectangle_316" data-name="Rectangle 316" width="19.178" height="43.836" transform="translate(56.39 206.459)" fill="#ccc"/>
  <path id="Path_572" data-name="Path 572" d="M59.153,407.4v-6.849H50.934V407.4h8.219Z" transform="translate(-24.681 -194.096)" fill="#3f3d56"/>
  <path id="Path_573" data-name="Path 573" d="M58.468,424.474H50.934v6.85h8.219v-6.85Z" transform="translate(-24.681 -205.687)" fill="#3f3d56"/>
  <rect id="Rectangle_317" data-name="Rectangle 317" width="8.219" height="6.849" transform="translate(39.952 206.459)" fill="#3f3d56"/>
  <rect id="Rectangle_318" data-name="Rectangle 318" width="8.219" height="6.849" transform="translate(39.952 218.787)" fill="#3f3d56"/>
  <path id="Path_574" data-name="Path 574" d="M283.732,408.733v-6.849h-8.22v6.849h8.22Z" transform="translate(-133.504 -194.74)" fill="#3f3d56"/>
  <path id="Path_575" data-name="Path 575" d="M283.047,425.8h-7.535v6.85h8.22V425.8Z" transform="translate(-133.504 -206.331)" fill="#3f3d56"/>
  <rect id="Rectangle_319" data-name="Rectangle 319" width="8.219" height="6.849" transform="translate(155.707 207.143)" fill="#3f3d56"/>
  <rect id="Rectangle_320" data-name="Rectangle 320" width="8.219" height="6.849" transform="translate(155.707 219.472)" fill="#3f3d56"/>
  <path id="Path_576" data-name="Path 576" d="M419.949,339.214l-4.11-6.849L454.2,299.488h98.631v9.589L517.21,347.434l-41.1,8.219Z" transform="translate(-201.502 -145.122)" fill="#3f3d56"/>
  <path id="Path_577" data-name="Path 577" d="M656.092,316.771V295.338H643.178V302.1l-4.065-4.619-32.877,32.877-5.48,5.479-6.85,27.4,12.329,30.137H669.25V331.724Z" transform="translate(-287.789 -143.111)" fill="#ccc"/>
  <rect id="Rectangle_321" data-name="Rectangle 321" width="104.111" height="63.014" transform="translate(214.337 187.243)" fill="#f2f2f2"/>
  <rect id="Rectangle_322" data-name="Rectangle 322" width="21.918" height="19.178" transform="translate(282.146 207.106)" fill="#3f3d56"/>
  <rect id="Rectangle_323" data-name="Rectangle 323" width="19.178" height="43.836" transform="translate(254.063 206.421)" fill="#ccc"/>
  <path id="Path_578" data-name="Path 578" d="M442.663,407.331v-6.849h-8.22v6.849h8.22Z" transform="translate(-210.517 -194.061)" fill="#3f3d56"/>
  <path id="Path_579" data-name="Path 579" d="M441.978,424.4h-7.535v6.85h8.22V424.4Z" transform="translate(-210.517 -205.651)" fill="#3f3d56"/>
  <rect id="Rectangle_324" data-name="Rectangle 324" width="8.219" height="6.849" transform="translate(237.625 206.421)" fill="#3f3d56"/>
  <rect id="Rectangle_325" data-name="Rectangle 325" width="8.219" height="6.849" transform="translate(237.625 218.75)" fill="#3f3d56"/>
  <path id="Path_580" data-name="Path 580" d="M667.241,408.66v-6.849h-8.219v6.849h8.219Z" transform="translate(-319.341 -194.705)" fill="#3f3d56"/>
  <path id="Path_581" data-name="Path 581" d="M666.556,425.73h-7.534v6.85h8.219v-6.85Z" transform="translate(-319.341 -206.295)" fill="#3f3d56"/>
  <rect id="Rectangle_326" data-name="Rectangle 326" width="8.219" height="6.849" transform="translate(353.379 207.106)" fill="#3f3d56"/>
  <rect id="Rectangle_327" data-name="Rectangle 327" width="8.219" height="6.849" transform="translate(353.379 219.435)" fill="#3f3d56"/>
  <path id="Path_582" data-name="Path 582" d="M791.949,339.214l-4.11-6.849L826.2,299.488h98.631v9.589L889.21,347.434l-41.1,8.219Z" transform="translate(-381.762 -145.122)" fill="#3f3d56"/>
  <path id="Path_583" data-name="Path 583" d="M1028.092,316.771V295.338h-12.914V302.1l-4.065-4.619-32.877,32.877-5.479,5.479-6.85,27.4,12.329,30.137h63.014V331.724Z" transform="translate(-468.048 -143.111)" fill="#ccc"/>
  <rect id="Rectangle_328" data-name="Rectangle 328" width="104.111" height="63.014" transform="translate(406.077 187.243)" fill="#f2f2f2"/>
  <rect id="Rectangle_329" data-name="Rectangle 329" width="21.918" height="19.178" transform="translate(473.886 207.106)" fill="#3f3d56"/>
  <rect id="Rectangle_330" data-name="Rectangle 330" width="19.178" height="43.836" transform="translate(445.804 206.421)" fill="#ccc"/>
  <path id="Path_584" data-name="Path 584" d="M814.663,407.331v-6.849h-8.22v6.849h8.22Z" transform="translate(-390.777 -194.061)" fill="#3f3d56"/>
  <path id="Path_585" data-name="Path 585" d="M813.978,424.4h-7.535v6.85h8.22V424.4Z" transform="translate(-390.777 -205.651)" fill="#3f3d56"/>
  <rect id="Rectangle_331" data-name="Rectangle 331" width="8.219" height="6.849" transform="translate(429.365 206.421)" fill="#3f3d56"/>
  <rect id="Rectangle_332" data-name="Rectangle 332" width="8.219" height="6.849" transform="translate(429.365 218.75)" fill="#3f3d56"/>
  <path id="Path_586" data-name="Path 586" d="M1039.241,408.66v-6.849h-8.219v6.849h8.219Z" transform="translate(-499.601 -194.705)" fill="#3f3d56"/>
  <path id="Path_587" data-name="Path 587" d="M1038.556,425.73h-7.534v6.85h8.219v-6.85Z" transform="translate(-499.601 -206.295)" fill="#3f3d56"/>
  <rect id="Rectangle_333" data-name="Rectangle 333" width="8.219" height="6.849" transform="translate(545.12 207.106)" fill="#3f3d56"/>
  <rect id="Rectangle_334" data-name="Rectangle 334" width="8.219" height="6.849" transform="translate(545.12 219.435)" fill="#3f3d56"/>
  <rect id="Rectangle_335" data-name="Rectangle 335" width="1.031" height="40.719" transform="translate(391.255 209.573)" fill="#3f3d56"/>
  <path id="Path_588" data-name="Path 588" d="M790.252,489.67c.066,14.238-9.952,25.827-9.952,25.827s-10.124-11.5-10.19-25.735,9.952-25.827,9.952-25.827S790.186,475.432,790.252,489.67Z" transform="translate(-388.452 -274.908)" fill="#fcb320"/>
  <rect id="Rectangle_336" data-name="Rectangle 336" width="1.031" height="40.719" transform="translate(203.638 208.542)" fill="#3f3d56"/>
  <path id="Path_589" data-name="Path 589" d="M426.252,487.67c.066,14.238-9.952,25.827-9.952,25.827s-10.124-11.5-10.19-25.735,9.952-25.827,9.952-25.827S426.186,473.432,426.252,487.67Z" transform="translate(-212.069 -273.939)" fill="#fcb320"/>
  <path id="Path_590" data-name="Path 590" d="M426.252,487.67c.066,14.238-9.952,25.827-9.952,25.827s-10.124-11.5-10.19-25.735,9.952-25.827,9.952-25.827S426.186,473.432,426.252,487.67Z" transform="translate(-212.069 -273.939)" opacity="0.1"/>
  <rect id="Rectangle_337" data-name="Rectangle 337" width="1.031" height="40.719" transform="translate(190.237 208.542)" fill="#3f3d56"/>
  <path id="Path_591" data-name="Path 591" d="M400.252,487.67c.066,14.238-9.952,25.827-9.952,25.827s-10.124-11.5-10.19-25.735,9.952-25.827,9.952-25.827S400.186,473.432,400.252,487.67Z" transform="translate(-199.47 -273.939)" fill="#00923f"/>
  <rect id="Rectangle_338" data-name="Rectangle 338" width="586.046" height="1.031" transform="translate(1.91 249.264)" fill="#3f3d56"/>
  <path id="Path_592" data-name="Path 592" d="M290.053,520.311s.528.605-.377,1.776-.174,3.711,1.545,3.776,2.552.785,2.138,1.733-.912,3.2.959,2.859,2.463.4,2.132.975.835-1.139.835-1.139,1.043,1.554,2.323.466,1.789-10.948-.821-11.115A66.515,66.515,0,0,0,290.053,520.311Z" transform="translate(-155.46 -301.891)" fill="#2f2e41"/>
  <path id="Path_593" data-name="Path 593" d="M286.8,514.176l.594,4.163h2.677l-.892-4.758Z" transform="translate(-138.973 -248.865)" fill="#a0616a"/>
  <path id="Path_594" data-name="Path 594" d="M316.289,615.107s3.568,3.271,2.676,3.568-4.163,3.866-4.758,4.163c-.532.266-6.245,2.082-5.353,0a7.82,7.82,0,0,1,2.974-3.271l.595-3.568Z" transform="translate(-164.896 -348.161)" fill="#f2f2f2"/>
  <path id="Path_595" data-name="Path 595" d="M316.289,615.107s3.568,3.271,2.676,3.568-4.163,3.866-4.758,4.163c-.532.266-6.245,2.082-5.353,0a7.82,7.82,0,0,1,2.974-3.271l.595-3.568Z" transform="translate(-164.896 -348.161)" opacity="0.1"/>
  <path id="Path_596" data-name="Path 596" d="M293.72,508.119l.595,4.163h2.676l-.892-4.758Z" transform="translate(-142.327 -245.93)" fill="#a0616a"/>
  <path id="Path_597" data-name="Path 597" d="M301.671,564.83l3.9-12.887s-6.542-5.947-2.082-7.732,5.65,7.137,5.65,7.137l-1.487,15.463H301.7Z" transform="translate(-161.461 -313.693)" fill="#a0616a"/>
  <path id="Path_598" data-name="Path 598" d="M313.086,566.069s-7.686,9.857-6.519,11.322,3.248,10.386,3.248,10.386-.3,3.568.892,3.568,4.163-.595,4.163-1.487-2.676-12.192-2.676-12.192l7.732-10.11Z" transform="translate(-163.775 -324.398)" fill="#4a8131"/>
  <path id="Path_599" data-name="Path 599" d="M316.669,563.309l7.732-4.163s5.353,2.676,3.866,5.055-8.326,8.624-8.326,8.624,2.082,10.11,1.784,10.408-3.568,1.487-4.46,1.189-5.65-11.895-4.461-12.489,5.055-6.839,5.055-6.839Z" transform="translate(-166.764 -321.044)" fill="#4a8131"/>
  <path id="Path_600" data-name="Path 600" d="M273.925,787.116s5.353,3.271,5.947,3.271,8.624,2.082,5.055,3.568-17.247-.595-16.95-1.487,0-6.245.595-6.245S273.925,787.116,273.925,787.116Z" transform="translate(-145.132 -431.079)" fill="#2f2e41"/>
  <path id="Path_601" data-name="Path 601" d="M285.463,786.193s5.353,3.271,5.947,3.271,8.624,2.082,5.055,3.568-17.247-.595-16.95-1.487,0-6.245.595-6.245S285.463,786.193,285.463,786.193Z" transform="translate(-150.723 -430.631)" fill="#2f2e41"/>
  <path id="Path_602" data-name="Path 602" d="M273.788,666.723s1.408,8.068,2.894,11.34-.3,18.734-1.189,21.113-9.516,30.629-6.839,30.926a67.807,67.807,0,0,0,8.029,0l8.624-27.06-1.487-36.279Z" transform="translate(-145.213 -373.172)" fill="#575a88"/>
  <path id="Path_603" data-name="Path 603" d="M273.788,666.723s1.408,8.068,2.894,11.34-.3,18.734-1.189,21.113-9.516,30.629-6.839,30.926a67.807,67.807,0,0,0,8.029,0l8.624-27.06-1.487-36.279Z" transform="translate(-145.213 -373.172)" opacity="0.1"/>
  <path id="Path_604" data-name="Path 604" d="M279.563,660.77s1.189,8.029,3.866,9.813,1.784,3.568,1.784,3.568l-1.189,15.76s-11.6,28.547-8.029,32.116,6.839,2.081,8.326,1.784,4.163-6.542,2.676-8.326,2.974-12.489,4.163-14.274,0-4.163,1.487-4.758,4.758-4.461,4.758-7.137,4.163-31.223,1.487-33.008-19.831,3.682-19.831,3.682Z" transform="translate(-148.689 -367.953)" fill="#575a88"/>
  <circle id="Ellipse_73" data-name="Ellipse 73" cx="6.542" cy="6.542" r="6.542" transform="translate(118.682 238.102)" fill="#a0616a"/>
  <circle id="Ellipse_74" data-name="Ellipse 74" cx="5.353" cy="5.353" r="5.353" transform="translate(134.74 215.502)" fill="#a0616a"/>
  <path id="Path_605" data-name="Path 605" d="M276.18,571.838s3.568,6.542,5.353,6.542-7.137,6.839-7.137,6.839-2.974-8.624-3.568-8.921S276.18,571.838,276.18,571.838Z" transform="translate(-146.495 -327.194)" fill="#a0616a"/>
  <path id="Path_606" data-name="Path 606" d="M274.578,581.7s-7.732,2.676-7.434,3.568-2.082,2.974-2.082,3.866-.595,8.921,2.974,15.463,9.218,11.3,6.542,14.274-6.839,8.029-2.379,8.029,11.6-6.542,18.139-4.163,5.055-6.542,5.055-6.542.892-6.839-.892-8.921-8.029-16.95-8.029-18.734-5.947-8.624-7.434-8.624S274.578,581.7,274.578,581.7Z" transform="translate(-143.704 -331.108)" fill="#8985a8"/>
  <path id="Path_607" data-name="Path 607" d="M301.443,532.03" transform="translate(-161.351 -307.904)" fill="none" stroke="#2f2e41" stroke-miterlimit="10" stroke-width="1"/>
  <path id="Path_608" data-name="Path 608" d="M304.328,528.955a50.79,50.79,0,0,1,2.549,5.424c.127.82,4.291-5.424,4.291-5.424l-4.758-3.271Z" transform="translate(-162.749 -304.829)" fill="#ffb8b8"/>
  <path id="Path_609" data-name="Path 609" d="M305.438,533.921l5.055-5.353,5.947,2.676s5.547,12.192,5.9,13.084-8.869,5.055-9.761,5.055-7.137-9.218-7.137-9.218S303.951,535.705,305.438,533.921Z" transform="translate(-162.966 -306.227)" fill="#f2f2f2"/>
  <path id="Path_610" data-name="Path 610" d="M271.8,455.6v5.353h3.569l-1.174-5.353Z" transform="translate(-131.704 -220.769)" fill="#a0616a"/>
  <path id="Path_611" data-name="Path 611" d="M303.324,560.588A2.218,2.218,0,0,0,301.229,562c-.232.629-.154,1.289.951,1.566,2.379.595,2.676,0,2.676,0s4.13-.595,3.254-1.784-3.254-1.189-3.254-1.189Z" transform="translate(-161.196 -321.742)" fill="#a0616a"/>
  <path id="Path_612" data-name="Path 612" d="M323.212,610.492s3.568,3.271,2.676,3.568-4.163,3.866-4.758,4.163c-.532.266-6.245,2.082-5.353,0a7.821,7.821,0,0,1,2.974-3.271l.595-3.568Z" transform="translate(-168.251 -345.925)" fill="#f2f2f2"/>
  <path id="Path_613" data-name="Path 613" d="M260.686,560.24c.409-.24.893-.539.9-1.013a.9.9,0,0,0-.588-.787,2.632,2.632,0,0,0-1.028-.139,1.342,1.342,0,0,0-.4.039c-.339.1-.534.448-.8.682a3.344,3.344,0,0,1-1.419.568,9.289,9.289,0,0,0-2.379.986,1.117,1.117,0,0,0-.376.31,1.519,1.519,0,0,0-.151.77,7.705,7.705,0,0,1-1.124,2.792,3.056,3.056,0,0,0-.218,2.893,9.863,9.863,0,0,1,.588.835c.376.783-.093,1.747.178,2.571a2.249,2.249,0,0,0,.569.854,4.524,4.524,0,0,0,1.874,1.134c.676.208,1.514.347,1.779,1a5.326,5.326,0,0,0,.251.87,1.378,1.378,0,0,0,.977.49,4.18,4.18,0,0,0,1.266.092,1.571,1.571,0,0,0,1.092-.584,3.193,3.193,0,0,1,.442-.652c.431-.36,1.085-.076,1.638-.171a1.2,1.2,0,0,0,.939-.881,1.667,1.667,0,0,1,.19-.673c.343-.44,1.247-.129,1.474-.639.147-.331-.161-.681-.459-.887a13.061,13.061,0,0,1-1.465-.994,1.705,1.705,0,0,1-.622-1.571c.2-.862,1.33-1.337,1.368-2.222a1.592,1.592,0,0,0-.751-1.254,11.58,11.58,0,0,1-1.246-.872c-.267-.258-.468-.582-.758-.814a3.554,3.554,0,0,0-1.909-.538c-.358-.037-1.786-.2-1.73-.748C258.84,561.235,260.323,560.453,260.686,560.24Z" transform="translate(-137.793 -320.632)" fill="#2f2e41"/>
  <path id="Path_614" data-name="Path 614" d="M302.362,538.376s-3.271,1.19-3.271,2.676-1.487,6.245,0,6.245a18.191,18.191,0,0,0,4.46-1.141Z" transform="translate(-159.891 -310.979)" fill="#f2f2f2"/>
  <path id="Path_615" data-name="Path 615" d="M302.214,557.83s8.624-2.974,8.921-2.974,4.46-2.379,4.163-3.271l-1.189-7.434s-4.758-9.813-1.487-9.813,5.055,7.732,5.055,7.732,7.137,13.382,3.271,16.355-19.924,8.326-20.816,7.434S302.214,557.83,302.214,557.83Z" transform="translate(-160.635 -309.022)" fill="#a0616a"/>
  <path id="Path_616" data-name="Path 616" d="M316.831,539.323l2.007,1.934-2.6,2.526s-3.568-1.487-3.271-.595,2.082,3.568,3.271,3.568,7.38-3.866,7.407-5.055-3.839-5.353-4.731-5.65S316.831,539.323,316.831,539.323Z" transform="translate(-166.926 -309.845)" fill="#a0616a"/>
  <path id="Path_617" data-name="Path 617" d="M313.16,534.9s4.369,3.857,4.964,3.857,1.676-5.795,1.676-5.795-3.525-2.3-4.831-1.671S313.16,534.9,313.16,534.9Z" transform="translate(-167.028 -307.493)" fill="#f2f2f2"/>
  <path id="Path_618" data-name="Path 618" d="M283.559,582.924s0-4.163,8.921-4.163h3.866l-1.784,9.813-5.947,1.784Z" transform="translate(-152.685 -330.549)" fill="#8985a8"/>
  <path id="Path_619" data-name="Path 619" d="M306.225,516.3a23.1,23.1,0,0,1-2.616-.161,7.3,7.3,0,0,0-2.49-3.546,9.42,9.42,0,0,0-2.5-1.373c-1.981-.842-5.28-.317-5.473.641-3.9,1.863-2.914,5.135-2.914,5.135.606,1.281,1.965.713,3.118.133a2.278,2.278,0,0,0,1.986,1.754c1.9.072,2.827.869,2.368,1.92s-1.011,3.547,1.063,3.167,2.729.446,2.362,1.081.925-1.262.925-1.262,1.155,1.721,2.574.516a1.076,1.076,0,0,0,.3-.506,2.132,2.132,0,0,0,1.478.259c1.7-.76.644-2.545.644-2.545s2.268-.348,1.537-.29-1.193-.89.043-2.6S307.371,516.341,306.225,516.3Z" transform="translate(-155.864 -297.617)" fill="#2f2e41"/>
  <rect id="Rectangle_339" data-name="Rectangle 339" width="0.892" height="2.676" transform="matrix(0.949, 0.316, -0.316, 0.949, 138.011, 217.065)" fill="#fcb320"/>
</svg>
