<svg
  xmlns="http://www.w3.org/2000/svg"
  width="24"
  height="16"
  viewBox="0 0 24 16"
>
  <defs>
    <style>
      .nex {
      fill: #fff;
      }
    </style>
  </defs>
  <path
    class="nex"
    d="M15.305.306A1.089,1.089,0,0,0,15.3,1.84l5.068,5.075H1.075a1.083,1.083,0,0,0,0,2.167H20.357l-5.068,5.075a1.1,1.1,0,0,0,.008,1.533,1.08,1.08,0,0,0,1.526-.008l6.869-6.916h0a1.216,1.216,0,0,0,.225-.342A1.034,1.034,0,0,0,24,8.006a1.086,1.086,0,0,0-.308-.758L16.823.331A1.062,1.062,0,0,0,15.305.306Z"
  />
</svg>
