<svg
  xmlns="http://www.w3.org/2000/svg"
  width="24.009"
  height="16.003"
  viewBox="0 0 24.009 16.003"
>
  <defs>
    <style>
      .pre {
      fill: #fff;
      }
    </style>
  </defs>
  <path
    class="pre"
    d="M8.687.306A1.089,1.089,0,0,1,8.692,1.84L3.624,6.915H22.917a1.083,1.083,0,0,1,0,2.167H3.635L8.7,14.157a1.1,1.1,0,0,1-.008,1.533,1.08,1.08,0,0,1-1.526-.008L.3,8.766h0a1.216,1.216,0,0,1-.225-.342,1.034,1.034,0,0,1-.083-.418A1.086,1.086,0,0,1,.3,7.248L7.169.331A1.062,1.062,0,0,1,8.687.306Z"
    transform="translate(0.008 0.001)"
  />
</svg>
