<svg xmlns="http://www.w3.org/2000/svg" width="73.163" height="51.214" viewBox="0 0 73.163 51.214">
  <path id="Icon_awesome-users" data-name="Icon awesome-users" d="M10.974,24.2a7.316,7.316,0,1,0-7.316-7.316A7.323,7.323,0,0,0,10.974,24.2Zm51.214,0a7.316,7.316,0,1,0-7.316-7.316A7.323,7.323,0,0,0,62.188,24.2Zm3.658,3.658H58.53a7.3,7.3,0,0,0-5.156,2.126A16.721,16.721,0,0,1,61.96,42.489H69.5a3.654,3.654,0,0,0,3.658-3.658V35.173A7.323,7.323,0,0,0,65.846,27.857Zm-29.265,0a12.8,12.8,0,1,0-12.8-12.8A12.8,12.8,0,0,0,36.581,27.857Zm8.78,3.658h-.949a17.677,17.677,0,0,1-15.661,0H27.8A13.173,13.173,0,0,0,14.633,44.684v3.292a5.489,5.489,0,0,0,5.487,5.487H53.043a5.489,5.489,0,0,0,5.487-5.487V44.684A13.173,13.173,0,0,0,45.361,31.515ZM19.788,29.983a7.3,7.3,0,0,0-5.156-2.126H7.316A7.323,7.323,0,0,0,0,35.173v3.658a3.654,3.654,0,0,0,3.658,3.658h7.533A16.764,16.764,0,0,1,19.788,29.983Z" transform="translate(0 -2.25)" fill="#fff"/>
</svg>
