<svg xmlns="http://www.w3.org/2000/svg" xmlns:xlink="http://www.w3.org/1999/xlink" width="273.498" height="76.119" viewBox="0 0 273.498 76.119">
  <defs>
    <clipPath id="clip-path">
      <path id="Path_764" data-name="Path 764" d="M867.825,536.613s9.486,4.013,18.814,1.289a28.115,28.115,0,1,0-46.352-.213C844.092,535.583,853.939,531.6,867.825,536.613Z" transform="translate(-835.42 -493.76)"/>
    </clipPath>
  </defs>
  <g id="Group_598" data-name="Group 598" transform="translate(-272.502 -3668)">
    <g id="Layer_2" transform="translate(-403.25 3330.248)">
      <g id="Group_585" data-name="Group 585" transform="translate(675.752 337.752)">
        <path id="Path_731" data-name="Path 731" d="M747.683,1425.6l-1.48,2.882,2.338-1.173.383.763-3.585,1.8-.394-.784,1.419-2.79-2.252,1.13-.383-.763,3.585-1.8Z" transform="translate(-740.768 -1377.498)" fill="#fff"/>
        <path id="Path_732" data-name="Path 732" d="M717.278,1321.52l-.566.453.538,1.633.724.027.3.919-4.292-.212-.335-1.016,3.325-2.723Zm-2.649,2.045,1.835.054-.392-1.188Z" transform="translate(-711.999 -1277.78)" fill="#fff"/>
        <path id="Path_733" data-name="Path 733" d="M690.05,1263.636l-3.2.64.23,1.15-.737.148-.628-3.137.737-.148.229,1.144,3.2-.64Z" transform="translate(-685.286 -1222.01)" fill="#fff"/>
        <path id="Path_734" data-name="Path 734" d="M684.7,1209.009l-3.988.417-.089-.849,3.989-.417Z" transform="translate(-680.408 -1170.239)" fill="#fff"/>
        <path id="Path_735" data-name="Path 735" d="M677.793,1094.963a2.1,2.1,0,1,1,2.108-2.065A2.015,2.015,0,0,1,677.793,1094.963Zm.054-3.312a1.221,1.221,0,1,0,1.3,1.235A1.213,1.213,0,0,0,677.847,1091.651Z" transform="translate(-675.752 -1057.966)" fill="#fff"/>
        <path id="Path_736" data-name="Path 736" d="M685.144,977.071l-2.883,1.479,2.583.41-.134.843-3.961-.628.137-.867,2.779-1.44-2.488-.394.134-.843,3.961.628Z" transform="translate(-680.532 -947.84)" fill="#fff"/>
        <path id="Path_737" data-name="Path 737" d="M714.569,885.254l-.724.038-.514,1.641.573.444-.29.924-3.365-2.674.32-1.021,4.289-.275Zm-3.345.117,1.46,1.113.374-1.193Z" transform="translate(-708.747 -860.517)" fill="#fff"/>
        <path id="Path_738" data-name="Path 738" d="M742.415,813.456l-3.645-1.672.359-.782,2.962,1.359.707-1.541.683.313Z" transform="translate(-736.024 -790.21)" fill="#fff"/>
        <path id="Path_739" data-name="Path 739" d="M814.214,665.553l-.279-.766a1.762,1.762,0,0,0,1.178-.732c.272-.389.227-.692.034-.826-.572-.4-1.493,1.773-2.731.91a1.338,1.338,0,0,1-.131-1.946,2.229,2.229,0,0,1,1.353-.962l.251.754a1.723,1.723,0,0,0-1.027.705c-.206.3-.2.553,0,.691.518.361,1.485-1.771,2.713-.915.6.42.752,1.17.137,2.053A2.316,2.316,0,0,1,814.214,665.553Z" transform="translate(-806.004 -647.137)" fill="#fff"/>
        <path id="Path_740" data-name="Path 740" d="M878.552,581.858a2.1,2.1,0,1,1,2.948-.122A2.015,2.015,0,0,1,878.552,581.858Zm2.257-2.424a1.221,1.221,0,1,0,.136,1.786A1.212,1.212,0,0,0,880.809,579.433Z" transform="translate(-869.059 -567.732)" fill="#fff"/>
        <path id="Path_741" data-name="Path 741" d="M965.595,502.263a2.036,2.036,0,0,1,.382-2.956,1.822,1.822,0,0,1,1.918-.275l-.349.739a1.085,1.085,0,0,0-1.1.128,1.318,1.318,0,0,0,1.641,2.06,1.085,1.085,0,0,0,.37-1.04l.795-.18a1.837,1.837,0,0,1-.693,1.812A2.04,2.04,0,0,1,965.595,502.263Z" transform="translate(-952.516 -491.856)" fill="#fff"/>
        <path id="Path_742" data-name="Path 742" d="M1041.973,464.268l-2.163-3.377.719-.461,2.163,3.377Z" transform="translate(-1023.949 -455.085)" fill="#fff"/>
        <path id="Path_743" data-name="Path 743" d="M1112.215,422.552l-.531-.493-1.536.773.08.72-.864.435-.424-4.277.956-.481,3.184,2.886Zm-2.413-2.319.218,1.822,1.117-.562Z" transform="translate(-1090.067 -415.68)" fill="#fff"/>
        <path id="Path_744" data-name="Path 744" d="M1188.358,391.727l-1.338-3.78.81-.287,1.087,3.072,1.6-.566.251.708Z" transform="translate(-1164.746 -385.486)" fill="#fff"/>
        <path id="Path_745" data-name="Path 745" d="M1324.109,346.043l-.25-1.671-1.873.279.249,1.671-.844.126-.591-3.966.844-.126.232,1.558,1.873-.279-.232-1.558.85-.127.591,3.966Z" transform="translate(-1292.697 -341.767)" fill="#fff"/>
        <path id="Path_746" data-name="Path 746" d="M1436.493,339.793a2.1,2.1,0,1,1,2.065,2.108A2.015,2.015,0,0,1,1436.493,339.793Zm3.313.054a1.221,1.221,0,1,0-1.236,1.3A1.213,1.213,0,0,0,1439.805,339.846Z" transform="translate(-1403.349 -337.752)" fill="#fff"/>
        <path id="Path_747" data-name="Path 747" d="M1557.215,345.045l.375-2.375.855.135-.372,2.352a.941.941,0,1,0,1.858.294l.372-2.352.861.136-.375,2.375a1.815,1.815,0,0,1-3.575-.565Z" transform="translate(-1518.786 -342.456)" fill="#fff"/>
        <path id="Path_748" data-name="Path 748" d="M1655.7,373.4l.643-.5a1.764,1.764,0,0,0,1.06.9c.455.139.729,0,.8-.222.2-.667-2.147-.875-1.707-2.318a1.338,1.338,0,0,1,1.811-.724,2.232,2.232,0,0,1,1.332.991l-.64.471a1.725,1.725,0,0,0-.988-.76c-.345-.105-.586-.015-.656.215-.185.6,2.143.867,1.706,2.3-.214.7-.881,1.077-1.911.762A2.316,2.316,0,0,1,1655.7,373.4Z" transform="translate(-1613.006 -369.012)" fill="#fff"/>
        <path id="Path_749" data-name="Path 749" d="M1743.47,399.826,1745,396.12l.789.326-1.531,3.706Z" transform="translate(-1696.953 -393.577)" fill="#fff"/>
        <path id="Path_750" data-name="Path 750" d="M1787.568,422.085l-.426-3.212-1.252,2.3-.75-.409,1.921-3.521.771.42.425,3.1,1.206-2.211.749.409-1.92,3.521Z" transform="translate(-1736.807 -413.777)" fill="#fff"/>
        <path id="Path_751" data-name="Path 751" d="M1892.512,493.134a2.035,2.035,0,0,1,2.959-.362,1.873,1.873,0,0,1,.777,1.712l-.793-.118a1.152,1.152,0,0,0-.441-.99,1.318,1.318,0,0,0-1.59,2.1,1.334,1.334,0,0,0,.861.268l.291-.383-.843-.639.45-.594,1.524,1.154-.929,1.227a2.217,2.217,0,0,1-1.81-.428A2.038,2.038,0,0,1,1892.512,493.134Z" transform="translate(-1839.081 -485.565)" fill="#fff"/>
        <path id="Path_752" data-name="Path 752" d="M1992.25,588.464l3.006-2.654,1.241,1.406a1.291,1.291,0,1,1-1.934,1.707l-.677-.766-1.073.947Zm3.593-.036a.543.543,0,0,0,.012-.8l-.6-.676-.807.712.6.676A.542.542,0,0,0,1995.843,588.427Z" transform="translate(-1934.894 -575.003)" fill="#fff"/>
        <path id="Path_753" data-name="Path 753" d="M2053.754,670.058l.743-1.449-.348-.519-1.183.795-.476-.709,3.328-2.237,1.047,1.557a1.254,1.254,0,0,1-.319,1.844,1.16,1.16,0,0,1-1.481-.07l-.761,1.605Zm2.307-1.449a.541.541,0,0,0,.112-.792l-.5-.749-.9.6.5.748A.543.543,0,0,0,2056.062,668.609Z" transform="translate(-1992.51 -651.642)" fill="#fff"/>
        <path id="Path_754" data-name="Path 754" d="M2117.845,768.128a2.1,2.1,0,1,1-.966,2.788A2.014,2.014,0,0,1,2117.845,768.128Zm1.43,2.988a1.221,1.221,0,1,0-1.712-.527A1.212,1.212,0,0,0,2119.275,771.116Z" transform="translate(-2053.875 -749.165)" fill="#fff"/>
        <path id="Path_755" data-name="Path 755" d="M2161.189,878.719a2.035,2.035,0,0,1,2.6,1.45,1.872,1.872,0,0,1-.38,1.842l-.572-.562a1.151,1.151,0,0,0,.227-1.06,1.318,1.318,0,0,0-2.521.76,1.334,1.334,0,0,0,.539.723l.46-.139-.306-1.013.714-.215.552,1.831-1.473.444a2.217,2.217,0,0,1-1.21-1.412A2.038,2.038,0,0,1,2161.189,878.719Z" transform="translate(-2095.065 -855.056)" fill="#fff"/>
        <path id="Path_756" data-name="Path 756" d="M2179.592,989.134l1.29-.993-.094-.618-1.409.214-.128-.844,3.965-.6.283,1.855a1.254,1.254,0,0,1-1.074,1.532,1.161,1.161,0,0,1-1.31-.695l-1.373,1.128Zm2.705-.327a.541.541,0,0,0,.439-.669l-.136-.891-1.07.163.136.891A.544.544,0,0,0,2182.3,988.807Z" transform="translate(-2113.747 -958.035)" fill="#fff"/>
        <path id="Path_757" data-name="Path 757" d="M2191.9,1087.962l.676-.264-.028-1.719-.684-.241-.016-.968,4.035,1.48.017,1.07-3.984,1.61Zm3.138-1.164-1.735-.6.021,1.25Z" transform="translate(-2125.798 -1052.225)" fill="#fff"/>
        <path id="Path_758" data-name="Path 758" d="M2178.631,1198.372l2.863.408-2.7-1.527.053-.369,3.022-.711-2.863-.408.12-.845,3.97.566-.168,1.184-2.619.611,2.345,1.318-.17,1.19-3.97-.566Z" transform="translate(-2113.04 -1157.576)" fill="#fff"/>
        <path id="Path_759" data-name="Path 759" d="M2142.327,1320.325l2.749.9-2.4-1.973.116-.354,3.1-.175-2.749-.9.265-.812,3.812,1.247-.372,1.137-2.686.146,2.08,1.705-.374,1.143-3.812-1.247Z" transform="translate(-2078.177 -1274.347)" fill="#fff"/>
        <path id="Path_760" data-name="Path 760" d="M2103.523,1433.93l3.584,1.8-1.272,2.536-.672-.337.89-1.774-.752-.377-.871,1.736-.672-.337.871-1.736-.817-.41-.89,1.774-.671-.337Z" transform="translate(-2040.102 -1386.173)" fill="#fff"/>
      </g>
      <g id="Group_593" data-name="Group 593" transform="translate(682.709 344.549)">
        <g id="Group_592" data-name="Group 592" transform="translate(0 0)">
          <path id="Path_761" data-name="Path 761" d="M867.825,536.613s9.486,4.013,18.814,1.289a28.115,28.115,0,1,0-46.352-.213C844.092,535.583,853.939,531.6,867.825,536.613Z" transform="translate(-835.42 -493.76)" fill="#cfefef"/>
          <g id="Group_586" data-name="Group 586" transform="translate(14.181 10.829)">
            <path id="Path_762" data-name="Path 762" d="M1163.471,742.31a2.561,2.561,0,1,1-2.561,2.561,2.561,2.561,0,0,1,2.561-2.561" transform="translate(-1160.91 -742.31)" fill="#ff0"/>
          </g>
          <g id="Group_591" data-name="Group 591">
            <g id="Group_587" data-name="Group 587" clip-path="url(#clip-path)">
              <path id="Path_763" data-name="Path 763" d="M834.177,1240.2c-.368-.664-2.972-.519-6.292-.027a.079.079,0,0,1-.049-.009,1.229,1.229,0,0,0-1.705.272.076.076,0,0,1-.044.023c-1.168.2-2.386.426-3.6.666a.078.078,0,0,1-.072-.023l-.07-.074a3.349,3.349,0,0,0-4.121-1.051c-.525.136-1.942,2.063-2.974,0s-6.556.424-6.974.606-1.888-1.639-3.467-2-2.792,1.032-3.885-.122c-1.025-1.082-5.484,1.129-6.053,1.418-.034.017-.191.126-.181.162h0c.011.04.039-.014,0,0a2.764,2.764,0,0,1-3.173-.462c-1.766-1.961-7.867-.116-8.225-.005a.078.078,0,0,0-.029.017c-.37.338-8.563,7.921,3.1,5.648a64.282,64.282,0,0,1,11.066-1.146h.007l5.1.447c-1.5.991,5.347.665,5.818.966,2.605,1.665,26.5,3.664,28.265-.7C838.279,1240.708,835.288,1242.2,834.177,1240.2Z" transform="translate(-782.533 -1205.731)" fill="#009245" opacity="0.57"/>
            </g>
            <g id="Group_588" data-name="Group 588" clip-path="url(#clip-path)">
              <path id="Path_765" data-name="Path 765" d="M1415.4,1173.259v8.724a21.693,21.693,0,0,1-10.459-1.055,25.617,25.617,0,0,0-9.207-1.907l.8-5.762,5.827-.959Z" transform="translate(-1371.319 -1142.738)" fill="#fff"/>
              <path id="Path_766" data-name="Path 766" d="M1400.651,1063.58l-4.921,4.853v6.6c.572.038,1.785.127,2.663.247v-5.84h3.853v6.722q1.246.323,2.5.773l.015.006.015.006c.013.005.5.208,1.323.456l.081-8.738Z" transform="translate(-1371.319 -1038.755)" fill="#fdd179"/>
              <path id="Path_767" data-name="Path 767" d="M1633.93,1171.682a5.361,5.361,0,0,1-.257-1.648,4.771,4.771,0,0,1,4.552-4.963,4.614,4.614,0,0,1,4.334,3.447v-6.568h-9.319v9.535c.209.063.44.13.69.2" transform="translate(-1598.481 -1132.839)" fill="#fcb320"/>
              <path id="Path_768" data-name="Path 768" d="M1337.71,1047.717h2.528l4.931-4.659-1.19-1.138Z" transform="translate(-1315.827 -1018.038)" fill="#555557"/>
              <path id="Path_769" data-name="Path 769" d="M1481.6,1041.92l6.529,6.64h12.457l-7.893-6.64Z" transform="translate(-1453.448 -1018.038)" fill="#333"/>
              <path id="Path_770" data-name="Path 770" d="M1679.451,1282.82a1.051,1.051,0,1,1-1.051,1.051,1.051,1.051,0,0,1,1.051-1.051" transform="translate(-1641.674 -1248.443)" fill="#009245"/>
              <path id="Path_771" data-name="Path 771" d="M1762.714,1283.286a1.051,1.051,0,0,0-1.745,0,1.446,1.446,0,0,0-.41,1.058h.343a1.051,1.051,0,0,0,1.878,0h.307a1.225,1.225,0,0,0-.374-1.057" transform="translate(-1720.254 -1248.443)" fill="#009245"/>
              <path id="Path_772" data-name="Path 772" d="M1727.8,1326.23a.84.84,0,1,1-.841.84.84.84,0,0,1,.841-.84" transform="translate(-1688.118 -1289.962)" fill="#009245"/>
              <path id="Path_773" data-name="Path 773" d="M1665.845,1331.712v-.789a1.468,1.468,0,0,1,.372-.977l.105-.119a1.259,1.259,0,0,1,0-.767,1.469,1.469,0,0,1-1.829-.341,1.468,1.468,0,0,0-.558,1.152v1.477c.569.134,1.21.262,1.905.363" transform="translate(-1627.844 -1292.344)" fill="#009245"/>
              <path id="Path_774" data-name="Path 774" d="M1719.705,1364.967h.126v-1a1.044,1.044,0,0,0-.266-.7,1.259,1.259,0,0,1-1.99,0,1.045,1.045,0,0,0-.266.7v.846a19.279,19.279,0,0,0,2.4.154" transform="translate(-1678.889 -1325.388)" fill="#009245"/>
              <path id="Path_775" data-name="Path 775" d="M1773.775,1329.838l.105.118a1.468,1.468,0,0,1,.372.977v.99a16.2,16.2,0,0,0,1.905-.17v-1.871a1.467,1.467,0,0,0-.558-1.152,1.469,1.469,0,0,1-1.829.341,1.262,1.262,0,0,1,0,.766" transform="translate(-1732.889 -1292.353)" fill="#009245"/>
            </g>
            <g id="Group_589" data-name="Group 589" clip-path="url(#clip-path)">
              <path id="Path_777" data-name="Path 777" d="M857.67,1359.75s5.8-2.49,19.834-.191,29.335,3.459,33.155.554,0,10.944,0,10.944l-48.743-3.74Z" transform="translate(-856.701 -1320.907)" fill="#009245"/>
            </g>
            <g id="Group_590" data-name="Group 590" clip-path="url(#clip-path)">
              <path id="Path_779" data-name="Path 779" d="M907.56,1418.713a33.011,33.011,0,0,1,9.537-1.769c5.828-.3,35.547,5.018,41.359,2s-6.874,6.235-6.874,6.235H913.221l-5.408-6.235" transform="translate(-904.417 -1376.712)" fill="#043d1e"/>
            </g>
          </g>
        </g>
      </g>
      <g id="Group_595" data-name="Group 595" transform="translate(687.69 394.227)">
        <g id="Group_594" data-name="Group 594" transform="translate(0 0)">
          <path id="Path_781" data-name="Path 781" d="M957.926,1649.907l-5.639-7.713v7.713H949.77V1638.08h2.589l5.479,7.429v-7.429h2.518v11.827Z" transform="translate(-949.77 -1637.903)" fill="#fff"/>
          <path id="Path_782" data-name="Path 782" d="M1227.74,1644.358l1.383-1.969a5.2,5.2,0,0,0,3.759,1.614c1.4,0,2.057-.621,2.057-1.312,0-2.057-6.809-.621-6.809-5.071,0-1.969,1.7-3.6,4.486-3.6a6.579,6.579,0,0,1,4.61,1.649l-1.4,1.88a5.081,5.081,0,0,0-3.44-1.294c-1.064,0-1.667.461-1.667,1.17,0,1.862,6.791.6,6.791,5.018,0,2.163-1.561,3.795-4.734,3.795A6.83,6.83,0,0,1,1227.74,1644.358Z" transform="translate(-1215.63 -1634.02)" fill="#fff"/>
          <path id="Path_783" data-name="Path 783" d="M1498.763,1649.907v-4.983h-5.585v4.983h-2.518V1638.08h2.518v4.646h5.585v-4.646h2.536v11.827Z" transform="translate(-1467.095 -1637.903)" fill="#fff"/>
          <path id="Path_784" data-name="Path 784" d="M1788.17,1649.907V1638.08h5.532a3.807,3.807,0,1,1,0,7.607h-3.014v4.22Zm6.933-8.015a1.6,1.6,0,0,0-1.755-1.6h-2.66v3.174h2.66A1.6,1.6,0,0,0,1795.1,1641.893Z" transform="translate(-1751.644 -1637.903)" fill="#fff"/>
        </g>
      </g>
      <g id="Group_596" data-name="Group 596" transform="translate(687.434 410.018)">
        <path id="Path_785" data-name="Path 785" d="M943.88,2000.767l.7-3.2h1.457a.772.772,0,0,1,.848.753.859.859,0,0,1-.733.843.662.662,0,0,1,.46.647.973.973,0,0,1-1.1.954Zm2.171-1a.379.379,0,0,0-.417-.383h-.887l-.2.891h.93A.52.52,0,0,0,946.051,1999.765Zm.235-1.351a.366.366,0,0,0-.393-.35h-.853l-.182.824h.915A.453.453,0,0,0,946.286,1998.414Z" transform="translate(-943.88 -1997.522)" fill="#fcb320"/>
        <path id="Path_786" data-name="Path 786" d="M1017.03,2017.885a1.354,1.354,0,0,1,1.323-1.395.967.967,0,0,1,1.026,1.021,1.672,1.672,0,0,1-.048.359h-1.788a.367.367,0,0,0,0,.077c0,.268.23.561.7.561a1.023,1.023,0,0,0,.618-.2l.163.354a1.491,1.491,0,0,1-.819.254A1.034,1.034,0,0,1,1017.03,2017.885Zm1.893-.374c0-.015.005-.048.005-.062a.542.542,0,0,0-.609-.546.751.751,0,0,0-.724.608h1.327Z" transform="translate(-1013.843 -2015.618)" fill="#fcb320"/>
        <path id="Path_787" data-name="Path 787" d="M1079.367,2005.825a1.11,1.11,0,0,1,.014-.148l.292-1.318h-.383l.1-.436h.383l.139-.633h.5l-.139.633h.469l-.1.436h-.469l-.264,1.193a.548.548,0,0,0-.01.086c0,.129.077.211.23.211a.363.363,0,0,0,.192-.062l.029.4a.618.618,0,0,1-.365.105C1079.616,2006.295,1079.367,2006.146,1079.367,2005.825Z" transform="translate(-1073.391 -2002.993)" fill="#fcb320"/>
        <path id="Path_788" data-name="Path 788" d="M1115.264,2016.878l.072-.331h.5l-.513,2.315h-.5l.072-.307a.921.921,0,0,1-.728.364.861.861,0,0,1-.887-.958,1.355,1.355,0,0,1,1.217-1.471A.885.885,0,0,1,1115.264,2016.878Zm-1.457.982a.563.563,0,0,0,.57.613.792.792,0,0,0,.609-.331l.2-.9a.7.7,0,0,0-.609-.312A.855.855,0,0,0,1113.807,2017.861Z" transform="translate(-1105.9 -2015.618)" fill="#fcb320"/>
        <path id="Path_789" data-name="Path 789" d="M1206.134,2000.767l.307-1.4h-1.663l-.307,1.4h-.561l.7-3.2h.561l-.287,1.3h1.663l.287-1.3h.561l-.7,3.2Z" transform="translate(-1192.581 -1997.522)" fill="#fcb320"/>
        <path id="Path_790" data-name="Path 790" d="M1285.2,2017.875a1.353,1.353,0,0,1,1.318-1.385,1,1,0,0,1,1.107,1.04,1.357,1.357,0,0,1-1.318,1.39A1.006,1.006,0,0,1,1285.2,2017.875Zm1.9-.321a.566.566,0,0,0-.6-.618.86.86,0,0,0-.776.92.565.565,0,0,0,.6.618A.863.863,0,0,0,1287.1,2017.554Z" transform="translate(-1270.33 -2015.618)" fill="#fcb320"/>
        <path id="Path_791" data-name="Path 791" d="M1350.211,2017.81l-.321,1.448a.8.8,0,0,0-.024.148c0,.235.187.331.432.331a.939.939,0,0,0,.618-.316l.354-1.61h.5l-.513,2.315h-.5l.072-.316a1.168,1.168,0,0,1-.791.374c-.431,0-.709-.221-.709-.585a1.4,1.4,0,0,1,.024-.192l.355-1.6Z" transform="translate(-1331.666 -2016.88)" fill="#fcb320"/>
        <path id="Path_792" data-name="Path 792" d="M1406.64,2018.5l.3-.345a1.092,1.092,0,0,0,.791.359c.264,0,.422-.144.422-.312,0-.364-1.2-.292-1.2-.963,0-.4.331-.753.92-.753a1.3,1.3,0,0,1,.944.374l-.273.335a.887.887,0,0,0-.685-.312c-.254,0-.4.12-.4.273,0,.34,1.194.278,1.194.968,0,.427-.35.791-.963.791A1.378,1.378,0,0,1,1406.64,2018.5Z" transform="translate(-1386.479 -2015.618)" fill="#fcb320"/>
        <path id="Path_793" data-name="Path 793" d="M1462.63,2017.885a1.354,1.354,0,0,1,1.323-1.395.967.967,0,0,1,1.026,1.021,1.663,1.663,0,0,1-.048.359h-1.787a.358.358,0,0,0,0,.077c0,.268.23.561.7.561a1.022,1.022,0,0,0,.618-.2l.163.354a1.493,1.493,0,0,1-.82.254A1.035,1.035,0,0,1,1462.63,2017.885Zm1.893-.374c0-.015.005-.048.005-.062a.542.542,0,0,0-.609-.546.751.751,0,0,0-.724.608h1.327Z" transform="translate(-1440.03 -2015.618)" fill="#fcb320"/>
        <path id="Path_794" data-name="Path 794" d="M1517.927,2057.977l-.187-.2a.932.932,0,0,0,.441-.4h-.043a.256.256,0,0,1-.259-.273.373.373,0,0,1,.369-.355.315.315,0,0,1,.321.34A1.112,1.112,0,0,1,1517.927,2057.977Z" transform="translate(-1492.739 -2054.124)" fill="#fcb320"/>
        <path id="Path_795" data-name="Path 795" d="M1576.92,2000.767l.7-3.2h1.457a.772.772,0,0,1,.848.753.859.859,0,0,1-.733.843.662.662,0,0,1,.46.647.973.973,0,0,1-1.1.954Zm2.171-1a.379.379,0,0,0-.417-.383h-.887l-.2.891h.93A.52.52,0,0,0,1579.091,1999.765Zm.235-1.351a.366.366,0,0,0-.393-.35h-.853l-.182.824h.916A.453.453,0,0,0,1579.326,1998.414Z" transform="translate(-1549.34 -1997.522)" fill="#fcb320"/>
        <path id="Path_796" data-name="Path 796" d="M1650.07,2017.885a1.354,1.354,0,0,1,1.323-1.395.967.967,0,0,1,1.026,1.021,1.663,1.663,0,0,1-.048.359h-1.787a.358.358,0,0,0,0,.077c0,.268.23.561.7.561a1.022,1.022,0,0,0,.618-.2l.163.354a1.492,1.492,0,0,1-.82.254A1.034,1.034,0,0,1,1650.07,2017.885Zm1.893-.374c0-.015.005-.048.005-.062a.542.542,0,0,0-.609-.546.751.751,0,0,0-.724.608h1.327Z" transform="translate(-1619.303 -2015.618)" fill="#fcb320"/>
        <path id="Path_797" data-name="Path 797" d="M1712.407,2005.825a1.153,1.153,0,0,1,.014-.148l.292-1.318h-.383l.1-.436h.383l.139-.633h.5l-.139.633h.47l-.1.436h-.469l-.264,1.193a.52.52,0,0,0-.01.086c0,.129.077.211.23.211a.362.362,0,0,0,.192-.062l.029.4a.618.618,0,0,1-.364.105C1712.656,2006.295,1712.407,2006.146,1712.407,2005.825Z" transform="translate(-1678.851 -2002.993)" fill="#fcb320"/>
        <path id="Path_798" data-name="Path 798" d="M1748.3,2016.878l.072-.331h.5l-.513,2.315h-.5l.072-.307a.922.922,0,0,1-.729.364.861.861,0,0,1-.886-.958,1.355,1.355,0,0,1,1.217-1.471A.886.886,0,0,1,1748.3,2016.878Zm-1.457.982a.563.563,0,0,0,.571.613.791.791,0,0,0,.608-.331l.2-.9a.694.694,0,0,0-.609-.312A.855.855,0,0,0,1746.847,2017.861Z" transform="translate(-1711.36 -2015.618)" fill="#fcb320"/>
        <path id="Path_799" data-name="Path 799" d="M1836.07,2000.767l.7-3.2h.561l-.594,2.7h1.409l-.11.494Z" transform="translate(-1797.2 -1997.522)" fill="#fcb320"/>
        <path id="Path_800" data-name="Path 800" d="M1892.28,2000.24l.513-2.315h.5l-.512,2.315Zm.575-2.866a.359.359,0,0,1,.355-.354.271.271,0,0,1,.282.268.359.359,0,0,1-.354.355A.275.275,0,0,1,1892.855,1997.375Z" transform="translate(-1850.961 -1996.996)" fill="#fcb320"/>
        <path id="Path_801" data-name="Path 801" d="M1921.65,1999.714l.412-1.879h-.383l.1-.436h.379l.029-.134c.105-.436.326-.8.825-.8a.789.789,0,0,1,.584.216l-.259.3a.35.35,0,0,0-.273-.105c-.211,0-.316.129-.374.388l-.029.129h.475l-.1.436h-.47l-.412,1.879Z" transform="translate(-1879.051 -1996.47)" fill="#fcb320"/>
        <path id="Path_802" data-name="Path 802" d="M1954.87,2017.885a1.354,1.354,0,0,1,1.323-1.395.967.967,0,0,1,1.025,1.021,1.681,1.681,0,0,1-.048.359h-1.788a.377.377,0,0,0,0,.077c0,.268.23.561.7.561a1.022,1.022,0,0,0,.618-.2l.163.354a1.492,1.492,0,0,1-.82.254A1.034,1.034,0,0,1,1954.87,2017.885Zm1.893-.374c0-.015,0-.048,0-.062a.542.542,0,0,0-.609-.546.751.751,0,0,0-.724.608h1.327Z" transform="translate(-1910.824 -2015.618)" fill="#fcb320"/>
      </g>
    </g>
    <g id="Group_597" data-name="Group 597" transform="translate(-7 3)">
      <text id="NATIONAL_SOCIAL" data-name="NATIONAL SOCIAL" transform="translate(457 3699)" fill="#fff" font-size="20" font-family="Avenir-Heavy, Avenir" font-weight="800"><tspan x="-90.55" y="0">NATIONAL SOCIAL</tspan></text>
      <text id="HOUSING_PROGRAMME" data-name="HOUSING PROGRAMME" transform="translate(459 3722)" fill="#fff" font-size="16" font-family="Avenir-Heavy, Avenir" font-weight="800"><tspan x="-93.48" y="0">HOUSING PROGRAMME</tspan></text>
    </g>
  </g>
</svg>
