<svg xmlns="http://www.w3.org/2000/svg" xmlns:xlink="http://www.w3.org/1999/xlink" width="207.542" height="225.348" viewBox="0 0 207.542 225.348">
  <defs>
    <clipPath id="clip-path">
      <path id="Path_836" data-name="Path 836" d="M931.354,620.624s28.084,11.882,55.7,3.817a83.235,83.235,0,1,0-137.225-.631C861.095,617.576,890.244,605.792,931.354,620.624Z" transform="translate(-835.42 -493.76)"/>
    </clipPath>
  </defs>
  <g id="Layer_2" transform="translate(-675.752 -337.752)">
    <g id="Group_599" data-name="Group 599" transform="translate(675.752 337.752)">
      <path id="Path_803" data-name="Path 803" d="M755.434,1427.04l-4.383,8.531,6.921-3.472,1.134,2.26-10.612,5.323-1.165-2.323,4.2-8.26-6.666,3.344-1.134-2.26,10.612-5.323Z" transform="translate(-734.962 -1284.645)" fill="#00923f"/>
      <path id="Path_804" data-name="Path 804" d="M724.391,1323.323l-1.677,1.34,1.593,4.834,2.144.08.9,2.721-12.707-.628-.992-3.009,9.842-8.061Zm-7.843,6.053,5.431.159-1.159-3.516Z" transform="translate(-708.762 -1193.833)" fill="#00923f"/>
      <path id="Path_805" data-name="Path 805" d="M698.538,1266.275l-9.459,1.9.682,3.4-2.181.437-1.86-9.285,2.181-.437.678,3.386,9.459-1.9Z" transform="translate(-684.434 -1143.044)" fill="#00923f"/>
      <path id="Path_806" data-name="Path 806" d="M692.691,1210.674l-11.808,1.236-.263-2.514,11.808-1.236Z" transform="translate(-679.992 -1095.895)" fill="#00923f"/>
      <path id="Path_807" data-name="Path 807" d="M681.792,1103.179a6.2,6.2,0,1,1,6.241-6.112A5.966,5.966,0,0,1,681.792,1103.179Zm.16-9.806a3.615,3.615,0,1,0,3.838,3.658A3.59,3.59,0,0,0,681.952,1093.372Z" transform="translate(-675.752 -993.648)" fill="#00923f"/>
      <path id="Path_808" data-name="Path 808" d="M693.757,979.9l-8.533,4.378,7.647,1.212-.4,2.5-11.725-1.859.406-2.567,8.226-4.264-7.366-1.167.4-2.5,11.726,1.859Z" transform="translate(-680.105 -893.357)" fill="#00923f"/>
      <path id="Path_809" data-name="Path 809" d="M723.037,887.064l-2.142.112-1.522,4.857,1.7,1.314-.858,2.734-9.961-7.915.948-3.023,12.7-.814Zm-9.9.347,4.321,3.294,1.107-3.533Z" transform="translate(-705.801 -813.833)" fill="#00923f"/>
      <path id="Path_810" data-name="Path 810" d="M749.56,818.623l-10.79-4.95,1.061-2.314,8.768,4.023,2.093-4.562,2.022.927Z" transform="translate(-730.642 -749.804)" fill="#00923f"/>
      <path id="Path_811" data-name="Path 811" d="M818.677,674.029l-.825-2.269a5.219,5.219,0,0,0,3.488-2.168c.8-1.153.671-2.049.1-2.447-1.694-1.181-4.421,5.25-8.086,2.693-1.62-1.131-1.985-3.468-.387-5.76a6.6,6.6,0,0,1,4.006-2.848l.743,2.233a5.1,5.1,0,0,0-3.041,2.088c-.611.876-.578,1.637.006,2.044,1.532,1.069,4.4-5.244,8.032-2.709,1.781,1.242,2.227,3.464.405,6.078A6.856,6.856,0,0,1,818.677,674.029Z" transform="translate(-794.372 -619.508)" fill="#00923f"/>
      <path id="Path_812" data-name="Path 812" d="M879.9,589.014a6.2,6.2,0,1,1,8.728-.361A5.965,5.965,0,0,1,879.9,589.014Zm6.682-7.178a3.615,3.615,0,1,0,.4,5.288A3.588,3.588,0,0,0,886.58,581.836Z" transform="translate(-851.796 -547.194)" fill="#00923f"/>
      <path id="Path_813" data-name="Path 813" d="M966.519,508.9a6.027,6.027,0,0,1,1.131-8.751,5.394,5.394,0,0,1,5.678-.813l-1.033,2.189a3.211,3.211,0,0,0-3.248.379,3.9,3.9,0,0,0,4.857,6.1,3.212,3.212,0,0,0,1.1-3.08l2.353-.531a5.438,5.438,0,0,1-2.052,5.366A6.038,6.038,0,0,1,966.519,508.9Z" transform="translate(-927.8 -478.094)" fill="#00923f"/>
      <path id="Path_814" data-name="Path 814" d="M1046.213,471.792l-6.4-10,2.128-1.363,6.4,10Z" transform="translate(-992.854 -444.607)" fill="#00923f"/>
      <path id="Path_815" data-name="Path 815" d="M1118.635,429.066l-1.572-1.46-4.547,2.289.237,2.132-2.559,1.289-1.255-12.661,2.83-1.425,9.426,8.545Zm-7.144-6.864.645,5.4,3.306-1.665Z" transform="translate(-1053.068 -408.721)" fill="#00923f"/>
      <path id="Path_816" data-name="Path 816" d="M1190.982,399.7l-3.962-11.192,2.4-.849,3.219,9.094,4.732-1.675.743,2.1Z" transform="translate(-1121.077 -381.223)" fill="#00923f"/>
      <path id="Path_817" data-name="Path 817" d="M1330.595,354.068l-.738-4.946-5.545.827.738,4.946-2.5.373-1.75-11.742,2.5-.373.688,4.612,5.545-.827-.687-4.612,2.518-.375,1.75,11.742Z" transform="translate(-1237.602 -341.409)" fill="#00923f"/>
      <path id="Path_818" data-name="Path 818" d="M1436.494,343.792a6.2,6.2,0,1,1,6.112,6.241A5.966,5.966,0,0,1,1436.494,343.792Zm9.806.159a3.615,3.615,0,1,0-3.658,3.838A3.59,3.59,0,0,0,1446.3,343.951Z" transform="translate(-1338.373 -337.752)" fill="#00923f"/>
      <path id="Path_819" data-name="Path 819" d="M1557.271,349.7l1.112-7.032,2.532.4-1.1,6.962a2.785,2.785,0,1,0,5.5.871l1.1-6.962,2.549.4-1.112,7.032c-.459,2.9-2.5,4.633-6.067,4.068S1556.812,352.6,1557.271,349.7Z" transform="translate(-1443.5 -342.036)" fill="#00923f"/>
      <path id="Path_820" data-name="Path 820" d="M1655.7,379.21l1.9-1.485a5.22,5.22,0,0,0,3.137,2.651c1.345.41,2.156.006,2.359-.658.6-1.975-6.356-2.59-5.053-6.863.577-1.89,2.688-2.957,5.362-2.142a6.607,6.607,0,0,1,3.944,2.933l-1.9,1.394a5.1,5.1,0,0,0-2.924-2.251c-1.021-.312-1.736-.045-1.944.636-.546,1.788,6.345,2.567,5.052,6.806-.633,2.077-2.609,3.187-5.657,2.257A6.858,6.858,0,0,1,1655.7,379.21Z" transform="translate(-1529.307 -366.22)" fill="#00923f"/>
      <path id="Path_821" data-name="Path 821" d="M1743.47,407.092,1748,396.12l2.336.965-4.532,10.972Z" transform="translate(-1605.756 -388.592)" fill="#00923f"/>
      <path id="Path_822" data-name="Path 822" d="M1792.328,431.584l-1.261-9.508-3.708,6.8-2.218-1.21,5.685-10.423,2.282,1.245,1.258,9.181,3.571-6.547,2.218,1.21-5.685,10.423Z" transform="translate(-1642.052 -406.988)" fill="#00923f"/>
      <path id="Path_823" data-name="Path 823" d="M1893.375,494.774a6.025,6.025,0,0,1,8.759-1.071,5.543,5.543,0,0,1,2.3,5.069l-2.347-.35a3.413,3.413,0,0,0-1.307-2.932,3.9,3.9,0,0,0-4.707,6.216,3.949,3.949,0,0,0,2.549.792l.86-1.135-2.5-1.891,1.332-1.759,4.513,3.417-2.751,3.632a6.564,6.564,0,0,1-5.359-1.268A6.034,6.034,0,0,1,1893.375,494.774Z" transform="translate(-1735.192 -472.364)" fill="#00923f"/>
      <path id="Path_824" data-name="Path 824" d="M1992.25,593.666l8.9-7.856,3.675,4.163a3.822,3.822,0,1,1-5.725,5.053l-2-2.269-3.175,2.8Zm10.636-.107a1.607,1.607,0,0,0,.035-2.381l-1.767-2-2.389,2.109,1.767,2A1.6,1.6,0,0,0,2002.886,593.559Z" transform="translate(-1822.449 -553.816)" fill="#00923f"/>
      <path id="Path_825" data-name="Path 825" d="M2056.232,678.132l2.2-4.289-1.032-1.536-3.5,2.353-1.41-2.1,9.854-6.622,3.1,4.61a3.712,3.712,0,0,1-.943,5.458,3.434,3.434,0,0,1-4.384-.206l-2.253,4.753Zm6.831-4.29a1.6,1.6,0,0,0,.333-2.346l-1.489-2.216-2.66,1.786,1.489,2.216A1.608,1.608,0,0,0,2063.063,673.843Z" transform="translate(-1874.919 -623.61)" fill="#00923f"/>
      <path id="Path_826" data-name="Path 826" d="M2120.186,768.563a6.2,6.2,0,1,1-2.858,8.255A5.965,5.965,0,0,1,2120.186,768.563Zm4.233,8.847a3.616,3.616,0,1,0-5.068-1.562A3.59,3.59,0,0,0,2124.419,777.409Z" transform="translate(-1930.805 -712.425)" fill="#00923f"/>
      <path id="Path_827" data-name="Path 827" d="M2164.075,878.912a6.026,6.026,0,0,1,7.709,4.294,5.54,5.54,0,0,1-1.126,5.452l-1.692-1.665a3.412,3.412,0,0,0,.671-3.139,3.9,3.9,0,0,0-7.464,2.251,3.947,3.947,0,0,0,1.594,2.141l1.363-.411-.9-3,2.113-.637,1.634,5.42-4.362,1.316a6.567,6.567,0,0,1-3.584-4.18A6.035,6.035,0,0,1,2164.075,878.912Z" transform="translate(-1968.316 -808.859)" fill="#00923f"/>
      <path id="Path_828" data-name="Path 828" d="M2180.26,994.71l3.819-2.939-.279-1.83-4.17.635-.38-2.5,11.737-1.786.836,5.491a3.711,3.711,0,0,1-3.18,4.535,3.435,3.435,0,0,1-3.878-2.056L2180.7,997.6Zm8.008-.967a1.6,1.6,0,0,0,1.3-1.98l-.4-2.639-3.168.482.4,2.639A1.609,1.609,0,0,0,2188.268,993.742Z" transform="translate(-1985.33 -902.642)" fill="#00923f"/>
      <path id="Path_829" data-name="Path 829" d="M2192,1094.22l2-.78-.083-5.089-2.024-.714-.046-2.866,11.945,4.381.052,3.168-11.8,4.767Zm9.291-3.445-5.137-1.768.061,3.7Z" transform="translate(-1996.305 -988.42)" fill="#00923f"/>
      <path id="Path_830" data-name="Path 830" d="M2178.869,1205.14l8.475,1.209-8-4.521.156-1.093,8.947-2.1-8.475-1.209.356-2.5,11.753,1.676-.5,3.507-7.754,1.807,6.94,3.9-.5,3.524-11.753-1.675Z" transform="translate(-1984.685 -1084.363)" fill="#00923f"/>
      <path id="Path_831" data-name="Path 831" d="M2142.852,1326.823l8.137,2.662-7.1-5.843.343-1.049,9.178-.519-8.137-2.662.785-2.4,11.284,3.691-1.1,3.366-7.952.433,6.157,5.048-1.107,3.383-11.284-3.691Z" transform="translate(-1952.936 -1190.706)" fill="#00923f"/>
      <path id="Path_832" data-name="Path 832" d="M2106.018,1433.93l10.612,5.324-3.767,7.509-1.989-1,2.634-5.251-2.228-1.117-2.578,5.139-1.989-1,2.578-5.139-2.418-1.214-2.634,5.251-1.989-1Z" transform="translate(-1918.261 -1292.546)" fill="#00923f"/>
    </g>
    <g id="Group_607" data-name="Group 607" transform="translate(696.346 357.874)">
      <g id="Group_606" data-name="Group 606">
        <path id="Path_833" data-name="Path 833" d="M931.354,620.624s28.084,11.882,55.7,3.817a83.235,83.235,0,1,0-137.225-.631C861.095,617.576,890.244,605.792,931.354,620.624Z" transform="translate(-835.42 -493.76)" fill="#cfefef"/>
        <g id="Group_600" data-name="Group 600" transform="translate(41.982 32.058)">
          <path id="Path_834" data-name="Path 834" d="M1168.491,742.31a7.581,7.581,0,1,1-7.581,7.581,7.582,7.582,0,0,1,7.581-7.581" transform="translate(-1160.91 -742.31)" fill="#ff0"/>
        </g>
        <g id="Group_605" data-name="Group 605">
          <g id="Group_601" data-name="Group 601" clip-path="url(#clip-path)">
            <path id="Path_835" data-name="Path 835" d="M940.146,1244.192c-1.09-1.964-8.8-1.535-18.627-.08a.23.23,0,0,1-.146-.027c-2.523-1.392-3.971-.347-5.048.806a.224.224,0,0,1-.129.07c-3.459.587-7.064,1.26-10.652,1.969a.23.23,0,0,1-.213-.067c-.068-.071-.137-.144-.206-.219-5.768-6.232-10.647-3.513-12.2-3.111s-5.75,6.108-8.805,0-19.408,1.256-20.646,1.8-5.59-4.852-10.263-5.931-8.266,3.056-11.5-.36c-3.034-3.2-16.235,3.343-17.92,4.2-.1.05-.566.374-.535.481h0c.034.117.116-.041,0,0-2.928,1.047-6.688,1.637-9.394-1.368-5.228-5.807-23.289-.343-24.351-.016a.224.224,0,0,0-.086.05c-1.1,1-25.351,23.451,9.176,16.721a190.25,190.25,0,0,1,32.762-3.393h.021l15.11,1.322c-4.445,2.934,15.831,1.969,17.224,2.859,7.713,4.93,78.46,10.847,83.677-2.062C952.292,1245.7,943.437,1250.128,940.146,1244.192Z" transform="translate(-787.256 -1142.15)" fill="#009245" opacity="0.57"/>
          </g>
          <g id="Group_602" data-name="Group 602" clip-path="url(#clip-path)">
            <path id="Path_837" data-name="Path 837" d="M1453.954,1175.14v25.827s-16.32,2.807-30.965-3.124a75.834,75.834,0,0,0-27.259-5.645l2.369-17.059,17.251-2.839Z" transform="translate(-1323.462 -1084.782)" fill="#fff"/>
            <path id="Path_838" data-name="Path 838" d="M1410.3,1063.58l-14.568,14.368V1097.5c1.692.113,5.283.377,7.883.73v-17.29h11.406v19.9q3.688.956,7.4,2.288l.045.017.045.019c.037.015,1.483.614,3.917,1.349l.239-25.868Z" transform="translate(-1323.462 -990.085)" fill="#fdd179"/>
            <path id="Path_839" data-name="Path 839" d="M1635.284,1190.761a15.861,15.861,0,0,1-.761-4.878c0-8.115,6.032-14.693,13.474-14.693,6.005,0,11.092,4.285,12.832,10.2V1161.95h-27.59v28.229c.618.188,1.3.384,2.044.583" transform="translate(-1530.338 -1075.767)" fill="#fcb320"/>
            <path id="Path_840" data-name="Path 840" d="M1337.71,1059.082h7.483l14.6-13.793-3.522-3.369Z" transform="translate(-1272.925 -971.219)" fill="#555557"/>
            <path id="Path_841" data-name="Path 841" d="M1481.6,1041.92l19.33,19.656h36.879l-23.366-19.656Z" transform="translate(-1398.256 -971.219)" fill="#333"/>
            <path id="Path_842" data-name="Path 842" d="M1681.511,1282.82a3.11,3.11,0,1,1-3.111,3.111,3.11,3.11,0,0,1,3.111-3.111" transform="translate(-1569.673 -1181.047)" fill="#009245"/>
            <path id="Path_843" data-name="Path 843" d="M1766.938,1284.2a3.11,3.11,0,0,0-5.166,0,4.281,4.281,0,0,0-1.212,3.13h1.015a3.111,3.111,0,0,0,5.559,0h.909a3.625,3.625,0,0,0-1.105-3.128" transform="translate(-1641.236 -1181.047)" fill="#009245"/>
            <path id="Path_844" data-name="Path 844" d="M1729.448,1326.23a2.488,2.488,0,1,1-2.488,2.488,2.488,2.488,0,0,1,2.488-2.488" transform="translate(-1611.97 -1218.858)" fill="#009245"/>
            <path id="Path_845" data-name="Path 845" d="M1669.58,1337.578v-2.336a4.344,4.344,0,0,1,1.1-2.892l.312-.351a3.738,3.738,0,0,1,.014-2.27,4.348,4.348,0,0,1-5.416-1.01,4.347,4.347,0,0,0-1.652,3.412v4.371c1.684.4,3.583.776,5.64,1.076" transform="translate(-1557.078 -1221.027)" fill="#009245"/>
            <path id="Path_846" data-name="Path 846" d="M1724.4,1368.294c.125,0,.25,0,.374,0v-2.955a3.091,3.091,0,0,0-.787-2.065,3.728,3.728,0,0,1-5.892,0,3.1,3.1,0,0,0-.787,2.065v2.5a56.994,56.994,0,0,0,7.091.455" transform="translate(-1603.564 -1251.121)" fill="#009245"/>
            <path id="Path_847" data-name="Path 847" d="M1773.784,1332.009l.312.351a4.344,4.344,0,0,1,1.1,2.892v2.932a48.04,48.04,0,0,0,5.64-.5v-5.538a4.345,4.345,0,0,0-1.652-3.411,4.349,4.349,0,0,1-5.416,1.01,3.734,3.734,0,0,1,.014,2.269" transform="translate(-1652.742 -1221.036)" fill="#009245"/>
          </g>
          <g id="Group_603" data-name="Group 603" clip-path="url(#clip-path)">
            <path id="Path_849" data-name="Path 849" d="M857.67,1362.035s17.183-7.37,58.718-.565,86.844,10.241,98.156,1.641,0,32.4,0,32.4l-144.3-11.073Z" transform="translate(-854.8 -1247.04)" fill="#009245"/>
          </g>
          <g id="Group_604" data-name="Group 604" clip-path="url(#clip-path)">
            <path id="Path_851" data-name="Path 851" d="M907.56,1422.206s10.979-4.339,28.234-5.237,105.237,14.856,122.444,5.932-20.349,18.458-20.349,18.458H924.32l-16.01-18.458" transform="translate(-898.255 -1297.862)" fill="#043d1e"/>
          </g>
        </g>
      </g>
    </g>
    <g id="Group_609" data-name="Group 609" transform="translate(711.095 504.944)">
      <g id="Group_608" data-name="Group 608" transform="translate(0 0)">
        <path id="Path_853" data-name="Path 853" d="M973.916,1673.094l-16.693-22.834v22.834H949.77V1638.08h7.664l16.22,21.995V1638.08h7.454v35.014Z" transform="translate(-949.77 -1637.556)" fill="#333"/>
        <path id="Path_854" data-name="Path 854" d="M1227.74,1664.624l4.1-5.827a15.385,15.385,0,0,0,11.128,4.777c4.147,0,6.089-1.838,6.089-3.885,0-6.089-20.158-1.838-20.158-15.013,0-5.827,5.039-10.656,13.281-10.656,5.564,0,10.184,1.679,13.649,4.882l-4.147,5.564a15.039,15.039,0,0,0-10.184-3.832c-3.15,0-4.935,1.365-4.935,3.464,0,5.511,20.105,1.785,20.105,14.856,0,6.4-4.62,11.234-14.016,11.234C1235.876,1670.188,1231.047,1667.931,1227.74,1664.624Z" transform="translate(-1191.888 -1634.02)" fill="#333"/>
        <path id="Path_855" data-name="Path 855" d="M1514.649,1673.094v-14.751h-16.535v14.751h-7.454V1638.08h7.454v13.753h16.535V1638.08h7.507v35.014Z" transform="translate(-1420.896 -1637.556)" fill="#333"/>
        <path id="Path_856" data-name="Path 856" d="M1788.17,1673.094V1638.08h16.378c7.611,0,11.759,5.145,11.759,11.286,0,6.089-4.2,11.234-11.759,11.234h-8.924v12.494Zm20.525-23.727c0-2.939-2.257-4.724-5.2-4.724h-7.874v9.4h7.874C1806.438,1654.039,1808.695,1652.255,1808.695,1649.367Z" transform="translate(-1680.034 -1637.556)" fill="#333"/>
      </g>
    </g>
    <g id="Group_610" data-name="Group 610" transform="translate(710.335 551.693)">
      <path id="Path_857" data-name="Path 857" d="M943.88,2007.033l2.086-9.463h4.313a2.285,2.285,0,0,1,2.511,2.227,2.542,2.542,0,0,1-2.171,2.5,1.959,1.959,0,0,1,1.362,1.915c0,1.362-.951,2.823-3.263,2.823Zm6.427-2.965a1.124,1.124,0,0,0-1.234-1.135h-2.625l-.582,2.639h2.752A1.538,1.538,0,0,0,950.307,2004.068Zm.7-4a1.084,1.084,0,0,0-1.163-1.036h-2.525l-.539,2.44h2.71A1.34,1.34,0,0,0,951,2000.067Z" transform="translate(-943.88 -1997.428)" fill="#fcb320"/>
      <path id="Path_858" data-name="Path 858" d="M1017.03,2020.619a4.009,4.009,0,0,1,3.916-4.129,2.863,2.863,0,0,1,3.036,3.022,4.957,4.957,0,0,1-.142,1.064h-5.292a1.079,1.079,0,0,0-.014.227c0,.794.681,1.66,2.071,1.66a3.028,3.028,0,0,0,1.83-.582l.482,1.05a4.42,4.42,0,0,1-2.426.752C1018.378,2023.683,1017.03,2022.491,1017.03,2020.619Zm5.6-1.107c0-.042.014-.142.014-.184a1.6,1.6,0,0,0-1.8-1.617,2.224,2.224,0,0,0-2.142,1.8h3.93Z" transform="translate(-1007.595 -2013.908)" fill="#fcb320"/>
      <path id="Path_859" data-name="Path 859" d="M1079.517,2010.8a3.375,3.375,0,0,1,.043-.44l.865-3.9h-1.135l.3-1.291h1.135l.411-1.873h1.49l-.411,1.873h1.39l-.3,1.291h-1.39l-.78,3.533a1.568,1.568,0,0,0-.028.255c0,.383.227.624.681.624a1.077,1.077,0,0,0,.568-.184l.085,1.192a1.831,1.831,0,0,1-1.078.312C1080.255,2012.186,1079.517,2011.746,1079.517,2010.8Z" transform="translate(-1061.825 -2002.41)" fill="#fcb320"/>
      <path id="Path_860" data-name="Path 860" d="M1119.154,2017.639l.213-.979h1.49l-1.518,6.853h-1.49l.213-.908a2.728,2.728,0,0,1-2.156,1.078,2.55,2.55,0,0,1-2.625-2.837c0-2.128,1.334-4.356,3.6-4.356A2.622,2.622,0,0,1,1119.154,2017.639Zm-4.313,2.908a1.668,1.668,0,0,0,1.688,1.816,2.344,2.344,0,0,0,1.8-.979l.582-2.653a2.054,2.054,0,0,0-1.8-.922A2.531,2.531,0,0,0,1114.841,2020.548Z" transform="translate(-1091.431 -2013.908)" fill="#fcb320"/>
      <path id="Path_861" data-name="Path 861" d="M1210.493,2007.033l.908-4.143h-4.923l-.908,4.143h-1.66l2.086-9.463h1.66l-.851,3.859h4.923l.851-3.859h1.661l-2.086,9.463Z" transform="translate(-1170.371 -1997.428)" fill="#fcb320"/>
      <path id="Path_862" data-name="Path 862" d="M1285.2,2020.59a4.006,4.006,0,0,1,3.9-4.1,2.969,2.969,0,0,1,3.277,3.079,4.019,4.019,0,0,1-3.9,4.114A2.979,2.979,0,0,1,1285.2,2020.59Zm5.633-.951a1.674,1.674,0,0,0-1.788-1.83,2.547,2.547,0,0,0-2.3,2.724,1.674,1.674,0,0,0,1.788,1.83A2.556,2.556,0,0,0,1290.833,2019.64Z" transform="translate(-1241.177 -2013.908)" fill="#fcb320"/>
      <path id="Path_863" data-name="Path 863" d="M1351.94,2017.81l-.951,4.285a2.371,2.371,0,0,0-.071.44c0,.7.553.979,1.277.979a2.774,2.774,0,0,0,1.83-.936l1.05-4.767h1.49l-1.518,6.853h-1.49l.213-.936a3.459,3.459,0,0,1-2.341,1.107c-1.277,0-2.1-.653-2.1-1.731a4.122,4.122,0,0,1,.071-.568l1.05-4.724Z" transform="translate(-1297.035 -2015.058)" fill="#fcb320"/>
      <path id="Path_864" data-name="Path 864" d="M1406.64,2022.449l.88-1.021a3.231,3.231,0,0,0,2.341,1.064c.78,0,1.249-.426,1.249-.922,0-1.078-3.547-.865-3.547-2.852,0-1.178.979-2.228,2.724-2.228a3.86,3.86,0,0,1,2.795,1.107l-.809.993a2.625,2.625,0,0,0-2.029-.922c-.752,0-1.192.355-1.192.809,0,1.007,3.533.823,3.533,2.866,0,1.263-1.036,2.341-2.852,2.341A4.08,4.08,0,0,1,1406.64,2022.449Z" transform="translate(-1346.953 -2013.908)" fill="#fcb320"/>
      <path id="Path_865" data-name="Path 865" d="M1462.63,2020.619a4.009,4.009,0,0,1,3.916-4.129,2.863,2.863,0,0,1,3.036,3.022,4.957,4.957,0,0,1-.142,1.064h-5.292a1.079,1.079,0,0,0-.014.227c0,.794.681,1.66,2.071,1.66a3.028,3.028,0,0,0,1.83-.582l.482,1.05a4.42,4.42,0,0,1-2.426.752C1463.978,2023.683,1462.63,2022.491,1462.63,2020.619Zm5.6-1.107c0-.042.014-.142.014-.184a1.6,1.6,0,0,0-1.8-1.617,2.224,2.224,0,0,0-2.142,1.8h3.93Z" transform="translate(-1395.722 -2013.908)" fill="#fcb320"/>
      <path id="Path_866" data-name="Path 866" d="M1518.293,2060.382l-.553-.582a2.752,2.752,0,0,0,1.305-1.192h-.128a.757.757,0,0,1-.766-.809,1.1,1.1,0,0,1,1.093-1.05.931.931,0,0,1,.951,1.007A3.3,3.3,0,0,1,1518.293,2060.382Z" transform="translate(-1443.724 -2048.975)" fill="#fcb320"/>
      <path id="Path_867" data-name="Path 867" d="M1576.92,2007.033l2.086-9.463h4.313a2.285,2.285,0,0,1,2.511,2.227,2.542,2.542,0,0,1-2.171,2.5,1.96,1.96,0,0,1,1.362,1.915c0,1.362-.951,2.823-3.263,2.823Zm6.427-2.965a1.124,1.124,0,0,0-1.234-1.135h-2.625l-.582,2.639h2.752A1.538,1.538,0,0,0,1583.347,2004.068Zm.7-4a1.084,1.084,0,0,0-1.163-1.036h-2.525l-.539,2.44h2.71A1.34,1.34,0,0,0,1584.042,2000.067Z" transform="translate(-1495.271 -1997.428)" fill="#fcb320"/>
      <path id="Path_868" data-name="Path 868" d="M1650.07,2020.619a4.009,4.009,0,0,1,3.916-4.129,2.863,2.863,0,0,1,3.036,3.022,4.957,4.957,0,0,1-.142,1.064h-5.292a1.079,1.079,0,0,0-.014.227c0,.794.681,1.66,2.071,1.66a3.028,3.028,0,0,0,1.83-.582l.482,1.05a4.42,4.42,0,0,1-2.426.752C1651.418,2023.683,1650.07,2022.491,1650.07,2020.619Zm5.6-1.107c0-.042.014-.142.014-.184a1.6,1.6,0,0,0-1.8-1.617,2.224,2.224,0,0,0-2.142,1.8h3.93Z" transform="translate(-1558.986 -2013.908)" fill="#fcb320"/>
      <path id="Path_869" data-name="Path 869" d="M1712.557,2010.8a3.375,3.375,0,0,1,.043-.44l.865-3.9h-1.135l.3-1.291h1.135l.411-1.873h1.49l-.411,1.873h1.39l-.3,1.291h-1.391l-.78,3.533a1.568,1.568,0,0,0-.028.255c0,.383.227.624.681.624a1.076,1.076,0,0,0,.568-.184l.085,1.192a1.831,1.831,0,0,1-1.078.312C1713.295,2012.186,1712.557,2011.746,1712.557,2010.8Z" transform="translate(-1613.216 -2002.41)" fill="#fcb320"/>
      <path id="Path_870" data-name="Path 870" d="M1752.194,2017.639l.213-.979h1.49l-1.518,6.853h-1.49l.213-.908a2.728,2.728,0,0,1-2.157,1.078,2.55,2.55,0,0,1-2.625-2.837c0-2.128,1.334-4.356,3.6-4.356A2.623,2.623,0,0,1,1752.194,2017.639Zm-4.313,2.908a1.668,1.668,0,0,0,1.688,1.816,2.344,2.344,0,0,0,1.8-.979l.582-2.653a2.054,2.054,0,0,0-1.8-.922A2.531,2.531,0,0,0,1747.881,2020.548Z" transform="translate(-1642.822 -2013.908)" fill="#fcb320"/>
      <path id="Path_871" data-name="Path 871" d="M1836.07,2007.033l2.086-9.463h1.66l-1.759,8h4.171l-.326,1.461Z" transform="translate(-1720.996 -1997.428)" fill="#fcb320"/>
      <path id="Path_872" data-name="Path 872" d="M1892.28,2006.554l1.518-6.853h1.49l-1.518,6.853Zm1.7-8.484a1.063,1.063,0,0,1,1.05-1.05.8.8,0,0,1,.837.795,1.063,1.063,0,0,1-1.05,1.05A.812.812,0,0,1,1893.983,1998.07Z" transform="translate(-1769.956 -1996.949)" fill="#fcb320"/>
      <path id="Path_873" data-name="Path 873" d="M1921.65,2006.075l1.22-5.562h-1.135l.3-1.291h1.121l.085-.4c.312-1.291.965-2.355,2.44-2.355a2.334,2.334,0,0,1,1.731.638l-.766.894a1.036,1.036,0,0,0-.809-.312c-.624,0-.936.383-1.107,1.149l-.085.383h1.4l-.3,1.291h-1.39l-1.22,5.562Z" transform="translate(-1795.538 -1996.47)" fill="#fcb320"/>
      <path id="Path_874" data-name="Path 874" d="M1954.87,2020.619a4.009,4.009,0,0,1,3.916-4.129,2.863,2.863,0,0,1,3.036,3.022,4.957,4.957,0,0,1-.142,1.064h-5.292a1.07,1.07,0,0,0-.014.227c0,.794.681,1.66,2.071,1.66a3.028,3.028,0,0,0,1.83-.582l.482,1.05a4.42,4.42,0,0,1-2.426.752C1956.218,2023.683,1954.87,2022.491,1954.87,2020.619Zm5.6-1.107c0-.042.014-.142.014-.184a1.6,1.6,0,0,0-1.8-1.617,2.224,2.224,0,0,0-2.142,1.8h3.93Z" transform="translate(-1824.473 -2013.908)" fill="#fcb320"/>
    </g>
  </g>
</svg>
