<svg xmlns="http://www.w3.org/2000/svg" xmlns:xlink="http://www.w3.org/1999/xlink" width="596.904" height="481.118" viewBox="0 0 596.904 481.118">
  <defs>
    <clipPath id="clip-path">
      <path id="Path_685" data-name="Path 685" d="M931.221,620.449s28.045,11.865,55.62,3.811a83.12,83.12,0,1,0-137.036-.63C861.059,617.406,890.168,605.637,931.221,620.449Z" transform="translate(-835.42 -493.76)"/>
    </clipPath>
  </defs>
  <g id="Group_581" data-name="Group 581" transform="translate(-1089.297 -1285.491)">
    <g id="Group_127" data-name="Group 127" transform="translate(-39 8.242)">
      <g id="nigeria" transform="translate(1129 1277.706)">
        <path id="NG-AB" d="M288.418,491.635l.481.617,3.869-.713,2.17.216,1.642,1.073.264,1.169h0l.056,3.492-.44,2.291.04.585.753.825,11.285.689.993,1.49.176,1.754.561.833,2.571,1.866,1.073.168h0l.865,1.033-.473,2.98.12,3.027,1.1,3.708.585,1.346,1.369,1.6.609,2.042-.481.969-2.74-.609h0L312.712,522l-2.035-.673-2.211-1.714-.464-1.69-.953-1.177-2.723-.729-1.938.112-.224.729.425,2.811-1.474,4.085.256.361,1.786-.128-.561,1.954-.585.721-4.87-.128-.881.785-.056.6.857,1.554-.969,4.654-.024,1.922.529,1.994-.937,2.315-2.019,1.554.072.617-.377.513.176,1.178.473.537.016.937-.537,1.3,1.434,2.7.1,1.482h0l-1.89-1.434-2.355-1.129-1.442.344-2.627-.977-2.235.1-.889.513-2.507.464-1.442-.216-1.161-1.129-.472-.881.128-.881,1.1-2.964,2.739-3.468,1.914-3.356-.04-2.227-.529-1.378-.433-.04h0l2.475-8.21,1.682-3.1,1.458-1.345.945-2.435.713-.721.344-1.61-.288-2.763.224-1.642-1.209-1.954.985-.617-.3-6.784-.376-1.081-.833-1.161-4.277-1.426-1.61-1.354h0l1.017-1.778,1.09-1.041Z" transform="translate(-55.61 -98.017)" fill="#58bb8c" stroke="rgba(237,237,237,0.24)" stroke-width="1"/>
        <path id="NG-AD" d="M654.429,186.884l-.1,1.466-.657,1.41-.817,1.257-.881.665L650.552,194l-1.089,3.917-2.13,1.962-.384.881-.489,2.411.577,2.891.617.849v1.362l-1.289,1.33-.209,3.692-.777,1.338.1,2.763-.625,1.554-1.642,2.058-.208,2.419-1.29.833-1.154,2.09-4.7.929-3.348,4.71.12.785,1.233,1.3.032.513-.921,2.195L631.5,237.9l-.024,1.418.553,1.282,2.154,1.065.809,1.274-1.73,2.475-.1,1.8-.432,1.033.216.889-.865,1.178.264.625-.176,1.129.344.5-.592,1.762-.817,1.314-.777-.1-1.362,1.057-6.416.657-2.2,1.73-1.3.232-3.012,2.715-3.012,1.586.072,1.073,1.9.216.393.337.072,5.991-.585.553-.665,3.532.673,1.658-.929,3.228.24,1.057-2.251,3.845-2.115,1.842-.008.8.569.793-.657,1.642,1.017,3.14-.905,1.482-.873.3-1.338-.184-1.169.432-.456.881-.128,2.187-.785.593L604.3,300.4l-1.746.152-2.723,2.211-.665.1-4.71-1.314-.528.529-.192,1.37-.945.929-.649,2.443-1.418,1.874-1.866.112-.9.713-1.978-.224-1.482.969-1.53.264-.576.657-.545,3.236L583,318.6l.465,4.622-.048.833-.617.448-1.947,3.612.5,2.01.176,2.988-3.308,5.086-2.8,2.475-1.409,2.411-.385,1.6-.9,1.177-.328,2.763-.889,1.25.553,4.918.521,1.442-2.347,1.185-1.57.216-2.2,2.515h0l-.977-.7.04-1.25-1.554-3.7-.3-2.835-.593-1.386.465-4.4-.833-1.618-1.722-2.083-3.46-3.076-2-2.523-1.218-.9-1.137-.344-1.313.3-2.267,3.212-2.179,1.594-2.171-1.962-2.331-3.764-2.018-5.391.657-1.266,3.316-3.829,3.043-2.579,4.069-4.389,6.912-9.227,4.9-4.181.352-1.666-.3-4.63,4.8-9.163.8-2.9-.209-1.45-1.618-3.076L564.3,279.8l-2.131-2.355-.272-3.076.368-1.738-4.213-7.865-1.666-1.033-3.724-.865-1.17-1.538-4.365-8.154h0l4.966-.729,2.7-1.145,7.529-4.533,4.606-3.2.881-1.866-.417-2.964.545-8.194h0l5.078.777,2.163-.152,3.66-1.057,1.394-.857,1.362-1.522,2.988-4.445,4.966-5.655,2.011-.7,5.038-.393,4.726-1.778,1.954-2.1.657-2.13,2.659-.112,1.882-.913,1.778-2.964,1.682-1.73,2.01-1.177,6.824.633,2.3.825,2.067,1.241,2.275,2.491,1.946.921,1.906.817,3.516-.008.913-.977,1.185-6.215,2.171-4.549.977-2.916.7-3.284.224-6.416,2.475-.344.5.593,3,.913,3.092-.232,4.5-1.394h0Z" transform="translate(-107.939 -37.152)" fill="#58bb8c" stroke="rgba(237,237,237,0.24)" stroke-width="1"/>
        <path id="NG-AK" d="M301.767,572.732v.008h0l-.016-.016h0Zm6.063-.561.777.4.737-.152.7-.112.264.224-2.867.6-.393-.472Zm32.287-6.055.705,1.674-.609.657-.857.176-.176-.993.448-.08.28-.721Zm-41.3-8.867-.1-1.481-1.434-2.691.537-1.306-.016-.937-.472-.537-.176-1.177.376-.521-.072-.617,2.018-1.554.945-2.315-.529-1.994.016-1.93.969-4.654-.857-1.554.056-.6.881-.785,4.878.128.585-.721.561-1.955-1.786.128-.256-.36,1.474-4.085L306,522.919l.232-.729,1.938-.112,2.723.729.953,1.177.464,1.69,2.2,1.714,2.034.673,2.155,2.09h0l-.681.08-.921,1.962.529,1.434.673.248.625,1.554,3.821-.448,3.973,2.147.32,1.682-.489,4.886,1.306,4.109,2.731,3.932,2.555,2.243,3.02,3.468L339.1,559.7l.473.809h0l-.344,1.73.633.352.024,2-.4.36-.329-.536-.056.465.953.937-.48,1.442-.593.152.08.825-.825.921.192.136-.841,1.906-4.189-.5-4.6-.056-8.578.441-9.652,1.345-.417-.369-1.458.288-.745-.384-.7.288-.761-.072-.016.024.4.649.216.344-2.659,1.057-.785-1.362-.937-.521-.689-.152-.769-.849.3-.729-.072-.1-.425.4-.4-.3h0l-.489-.937.032-.512.408-.256-.464-3.644.769-3.421-.5-1.842Z" transform="translate(-59.428 -104.096)" fill="#58bb8c" stroke="rgba(237,237,237,0.24)" stroke-width="1"/>
        <path id="NG-AN" d="M259.051,444.909l.352.321.072,2.9,3.068-.1,1.954,1.129,1.642.064,2.988,1.362.288.633-1,2.763-.6.865-1.354.913-1.482,1.986.192.769-.5.665-.344,1.882.313.433,3.084.929,1.138,1.442,1.073,2.915,1.049,1.482-.24.769-.657.232.328,1.1-.4,1.3.577.593,1.514-.905.489.1.473,2.067,1.065.5-.28,1.722,1.506,3.036.144,1.209.609.785,1.914,1.121,1.33-.769.865.072.9.592-.032.433.665.136h0l-3.524,1.85-1.089,1.041-1.017,1.778h0l-4.261,1.137-4.309-1-5.054.929-1.426.833-.745,2.844-1.9,3.692-2.147.216-3.612-1.538-1.3.641-2.4,3.068-1.674.665h0l-1.922-.168-.889-1.025h0l.809-.937,1.538-3.124.272-2.115,1.418-3.756,2-3.644.3-4.814L251.851,476l-.985-3.02-1.185-5.839.064-1.1-.905-.9-1.706-7.665h0l-.056-.232h0l1.338-.617,2.875.529,1.145-.713,1.474-2.01.048-2.186.993-3.3,1.794-1.85,1.234-.689Z" transform="translate(-48.942 -88.736)" fill="#58bb8c" stroke="rgba(237,237,237,0.24)" stroke-width="1"/>
        <path id="NG-BA" d="M468.35,87.519l6.2,4.958.913,2.347.617,5.671-.152,1.45,2.531,3.732.168,5.4.265,2.163.761,2.171.16,3.1,6.688,16.748-.184,3.941-.841,2.179-.793,5.431,1.306,1.226,2.435.3h0l-.641.192-2.171,3.012-4.838,2.627-2.059,2.964-1.61,1.4-1.193.609-3.132.7-1.153,1.089-1.105,1.626-.777,3.957-2.09,5.951-2.892,4.061-.16,1.105,5.911,2.395.913,1.37.7,5.727.7.921,5.767,2.1,1.666,3.957-.384,6.912.32,2.291-.665,1.41-3.124.5-1.594.737-1.049,1.53.264,1.3,3.436,3.508,2,1.129,7.329,5.679.985,3.036.489,4.958,2.066,4.229,1.354,1.7-.1.761-.464.128h0l-3.2-.024-5.158-.873-8.482,3.885-4.686-.625-3.676,2.123h0l-5.094-2.747-4.95-3.236-8.867-3.8L439.6,224.66l-2.058-.409-6.088-3.164-2.427,1.426-.24,1.153,2.539,3.252.216,1.394-.4,1.338-3.812,1.041-2.315,4.173-3.516,1.129-8.042.473-4.381-1.185-3.845-.216-1.209-.424-1.25-1.073-1.322-3.26-.721-.929-.633-.569-3.14-1.137-.481-.681.072-1.354,1.906-3.58.184-.937-.208-4.758-.777-2.507-1.442-1.538-.849-.168-8.787,1.754.032-9.916-.625-3.845-2.091-3.332-2.227-.7-2.547-.064-1.225.392h0l-2.027-2.171-2.235-1.4-.216-.585,1.882-3.364.424-3.172h0l.793-.449,2.074-3.276,1.065-3.084-.064-1.6-.617-1.338-3.092-3.468-.361-1.594-.32-5.519.361-2.8,1.281-3.66.817-.344,2.163.128,1.634-.408,2.195-2.571,2.123-3.292,3.8-3.34.537-.881,1.986-1.258,1.354-.24.913.857.913.072,4.421-1.738h0l.8-.152,4.806.881,5.951,1.93,2.684-1.169,1.842.585,1.426,2.939,2.507.168,6.167-.384,2.859-.729.913.24,2.139,3.925.433,1.722-.665,6.288.649,1.642,1.081,1.089,4.565.953,4.486-1.113,1.249.136,1.49,1.089,1.97.5,1.49-.457-.889-2.747.032-1.442,1.225-1.53,2.027-1.089,3.236-.793,1.154-.625,1.482-1.113.881-2.179-.833-1.169-7.1-.449-4.582-1.017-5.118-.617-2.395-1.482-4.245-5.943-.841-2-.377-2.059-3.076.753-.945-.889-.44-1.394,2.01-4-.417-3.46-1.169-3.54-1.45-.4-2.2.216-1.7.825-2.09.032-1.081-.5.392-3.412,2.579-3.636,4.934-.368,4.382-2.435,8.762-2.988,4.99-2.01.953-.753-.024-1.8-.457-1.506,5.375-16.492,3.636-1.562,2.787-.441.793.657.665,1.314.1,1.113Z" transform="translate(-74.604 -17.603)" fill="#58bb8c" stroke="rgba(237,237,237,0.24)" stroke-width="1"/>
        <path id="NG-BE" d="M307.526,366.252l7.313,1.986,6.816,1,6.976,2.844,3.941,2.259,4.205.793.857-.112,2.659,2.243,4.269,1.786.913-.881.072-1.089-3.765-9.323-.064-2.019.817-2.291.993-1.129,3.164-1.762,1.105-.224,2.074-.144,2.146.352,8.082,2.979,5.495,1.242,3.909.328,3.172-.176.008-.561,9.443,7.153h0l-3.035,4.782,1.522.457,4.9-2.106,5.983-.761,6.552.385,5.991,1.418,4.117,3.925,3.556,4.526,6.7,6.063-.112.521.937,1.089-.208.833.449,1.426-.473,2.587-1.906,4.718.233,4.742-.737,1.145-2.475,1.554-2.755,2.6-2.651,4.934-1.69,9.211.489.585-.264.865-.024,7.016-1.522,6.56h0l-.577.24-1.7-.585-.625,1.137.08,1.6-2.259,1.394-1.434.176-2.227-.352h0l-.521-1.241-3.909-5.311-4.429-4.589-1.194-.577-2.475-.176-7.665,1.794-3.508-.353-.969-.713.529-3.821-.448-1.314-6.92-4.309-4.349-1.354-1.69-.056-1.85.473-1.69.537-1.218.961.617,3.6-2.515,1.538-2.507.665-3.076-.112-1.65-.537-1.538.36-1.089,1.4-1.89,1.57-2.395.392h0l-1.362-1.818-.673-3.412-1.41-1.041-.817,1.85-2.731.3-1.417,2.307-1.538.745-2.363-.2-2.763.32-1,6.592-.793,1.642-1.13.473-1.426-.593-3.212-2.948-.521-1.233.136-.729h0l1.826-5.142-.721-4.5-1.137-1.714L314.35,423l-2.251-.28-1.77,1.69-1.682.584-2.339-1.217-2.867-2.211-2.315-2.683-2.195-5.214.1-.425h0l.328-.4.673.465,2.7,2.635.657-.08,1.081.841h1.41l.272-3.54.769-1.153,5.158-2.5,2.643-2.491,1.554-4.67.336-3.147.377-1.034.985-.969.288-1.45-1.185-.376-2.651.256-1.017-.841-.993-4.429-.457-5.455-.008-5.527-.584-1.482-2.163-2.09-1.506-2.579-.432-4.7Z" transform="translate(-59.78 -71.874)" fill="#58bb8c" stroke="rgba(237,237,237,0.24)" stroke-width="1"/>
        <path id="NG-BO" d="M640.839,11.079,641.4,15.6l-.665,2.4,2.795,5.014-.16,2.018-.369.392.225-1.738-.833,1.065-.176,1.538,1.906,2.042,1.97.489-.521.537.224.433.625.152,3.572,6.031,2.267,2.467.841.176,1.378.769,1.306.961,3.1.6.208.689-.464-.008-.449.881-.16-.833-.529.465-.593-.032,1.153,1.282.216,1.41,3.108-.929,1.85-2.091L665.2,40.17l1.282-.537-.865,1.41.12.36.52-.152.456,1.874-.264.176-.537-1.105-.681.384-.457.985-1.618.457.536,1.506-.953.905-1.49,2.988.328.617,1.1-.36-.056,1.954-.465.921.681.032-.272,1.089-.921,1.233.32.457,1.258-.344.232.441-2.106,1.113,1.578.4-.12.713.961.04-.6.681-1.057.264.1.336.993-.184.1.481-.385.352-.184-.3-.809.184.192.6.593-.1-.681,1.338,1.209.168.176,1.073-.457.593.208,1,.777.176.425.969-.192.921,1.562.441.273,1.169.489.416,1.29-.761.368.16.569,1.53.977.569.249.865,1.73.617-.024.881.537.8-.3.953.569.513.889.441,1.129-.4,1.6.208-.216.833.665.048.313-.553,1.45-.056,1.177-.649,1.97-.064.136.977.857.072-.1.729-1,.256.176.425-.3.513.761.224,1.8,2.091,2.74-.424.825-.04.345.649,1.377-.7,2.347.7,2.8-.28.545.248.681.1,1.29.272.633.961,1.018.272.272.7-.536.016.063.9,1.738.809.561,1.1-.577,1.113,2.4.617.608,1.2-.432.368.9.433.625.1.1-.392.777-.064.408-.408,1.065,2.01-1.1,1.033-.256,1.442-.593.7.545,1.6-1.378.929-.048,1.258,1.762,3.028-.969,1.394.184,1.081-1.858,2.219.008,1.2.232,3.036-.561.985-2.25,1.722-.048.441,1.009,1.378,1.61.905,1.73,1.746.353,1.73-.5,3.749-1.009.745-5.094,2.059-3.108.721-1.361,2.475-6.48,2.539-2.627,1.658-1.546,2.123-3.572,1.554-1.858.032-2.178-1.9-2.018-.352-.857-.665-.857.128-.489.609-.464,1.858-1.666,1.89-.625,2.147-.576.841-1.17.769.192,1.193-.52.168-.865,1.346-1.858,1.634-.969,2.331-2.595,1.29-1.938.433-.617.6-.152,1.394h0l-4.5,1.394-3.091.232-3-.913-.5-.593-2.475.344-.224,6.416-.705,3.284-.977,2.916-2.17,4.549-1.186,6.215-.913.977-3.516.008-1.906-.817-1.946-.921-2.275-2.491-2.067-1.242-2.3-.825-6.824-.633-2.01,1.177-1.682,1.73-1.778,2.964-1.882.913-2.659.112-.657,2.131-1.955,2.1-4.726,1.778-5.038.392-2.011.7-4.966,5.655-2.987,4.445-1.362,1.522-1.394.857L578,196.406l-2.163.152-5.078-.777h0l-3.132-1.762-1.45-1.282-2.507-4.942-4.534-1.874-1.466-1.458-1.946-2.811-.649-2.267,4.149-6.055.5-2.419-1.081-2.643h0l2.435-.553,2.731-3.628-.224-6.72.489-2.219,1.378-2.267,2.13-1.538,8.979-2.419L581.447,146l1.674-2.467.192-2.355-.608-3.324-.032-2.379.721-2.291,2.315-2.683,2.643-4.726,3.636-3.548.793-1.69-.673-2.667-2.507-3-3.933.168-.512-.288-.12-1.554,3.781-7.321-1.354-5.959.1-2.8L589.6,84.063l.04-4.638-1.378-3.068L588.7,74.6l5.654-5.054,1.9-2.467L597.73,63.7l-.384-3L593.5,57.631l-1.161-1.458-.985-3.084,1.193-6.424.064-3.372h0l1.161-.1,3.509.7.024-.953.473-.328.056-.593.152-1.37,1.185-1.065.913.192,1.081-.585-.272-.929.585-.865-.185-.256L600.582,37l.32-.905.617-1.065.641-1.426.512-.481,1.826.28,1.105-.7.769.072.489.593.769-.889.184-1.153,1.074-.184,1.177-.232.233-.368-.273-.32.785-.937,1.69-.384.5-.993,1.1-.625.128-.633.464-.593.32-.593-.016-.689.881-.344.344-.817-.649-.248.457-.489.985.5-.232-1.258.881.1.048.376.681.232.881-.112,1.5-1.338.817-.3.256.3,1.586-.08,1.113-1.065.817.392.04-.865.865-.288.817.072-.713.937,1.177.633.737-1.049,1.081.833-.16-1.049,1.186-.408-.249,1.666.737.1.36-.777.921-.2.737,1.113.769-2.026,1.33-.673.016-.352-.44-.152.152-.569.953.16.513-.641-.513-.136-.321-.817,1.346-1.282-.048-.465,1.193-.537-.04-.745.841-.849.993-.192.313-.849Z" transform="translate(-110.761 -2.388)" fill="#58bb8c" stroke="rgba(237,237,237,0.24)" stroke-width="1"/>
        <path id="NG-BY" d="M234.654,569.582l-.168-.5-.545.08-3.172-2.083-.961-3.508-1.105-1.5-1.594-.016-5.238,2.034-.833-.208-.281-1.554.337-1.17-2.651-1.153-.4-.665.056-3.476,1.522-2.139.609-1.642.024-1.017-1.033.128-.673-.625,1.065-3.556,3.6-6.28,2.219.136.441-.4.6-1.994,1.233-.633-.184-1.45,1.265-.857.761-1.185-.024-1.554-.5-1.234-.609-.464-1.538-.665-2.355.393-.833-.225.617,1.979-.961.681-4.069,1.754-2.8-.353-2.195.393-1.61,3.284-1.69.417-.633-.481-1.177-.064-.288.761.208,1.85-2.267,1.25-1.3.449-2.411-.192-.985,1.594-1.85.5-1.514-.537-.793-1.33-1.69-1.025-.6.4-1.185,2.459L191.85,545.7l-2.1-.336-5.991,3.284-.753-.3-1.858.32-.8-.881-2.155-1.281-2.443-.569-2.323-1.329-1.682-1.682-.448.576-.577-.457-1.145.425-.288-.4-1.306.673,1.89,3.692,1.53,4.654-.272.633.761,1.217.28,1.49,3.252,5.423.152,1.153.753.441.008.136.04.881,6.007,8.314.953.5-.016.6,2.219,1.082-.216.328.841.6.1.521,2.051,1.273.152-.312.248.272-.176.192.016.272,2.09,1.73.385-.016-.112-.617-.36-.168,1.266-.368-.609.561.264.576-.208.217.056.408,1.858,1.362,4.061,1.89.152-1.6-.633-.409-.44-1,.272.1.232.713.633.176-.1-.561.328.024-.016.561.417.136.208.617-.5.945.208.344-.272,1.042.32.232,4.149,1.058.152-1.786.521-.464.3,3.075,6.68-.56-.513-1.922.825-2.443.521-.881-.232-1.1-1.53-.921.384-.04.953.216.769,1.266.481-.906-.441-.633.072-1.714-.673-1.081.248-.593.136.825.553.44.024.3.593,1.618-.08,2.483,2.179-1.978-.465-.5.08-1.554,1.53-.48.4-.5.553,1.289.1,1.033-.384.825.481,1.058.04,1.29,1.073.208.865,1.209.384-.04-.152.264.176.344,1.738-.385.152.272-.5.521,1.225.633,6.776-.729.016-.385-.32-.408-.056-.617-.08-.272.537-.689.481-.465-.416,1.634.176.312,1.626,1.41.769-.785,2.827-.3-.4-1.978-.072-.3-.3-.905-.921-.6-.152-.793.016-.152.232-.849-.424-1.8-.328-.44.28-.288.609.721,1,3.364.3-.465-.521-4.189,1.362-2.715.208-1.466Zm-62.715-15.547h0l.008.008Zm47.665,30.02-6.584.793-2.243-.08-.176-.561,1.089-2.018.12-.016.36.032.112-1.041,1.586-1.754.1-.248.344-.713.36-.152-.473-.617-.144-1.042.441-.28.825-.152.721,1.073-.4,1.065.625,1.3-.176,1.257,1.305.352.521.737Z" transform="translate(-33.716 -105.76)" fill="#58bb8c" stroke="rgba(237,237,237,0.24)" stroke-width="1"/>
        <path id="NG-CR" d="M343.217,448.432l2.395-.393,1.89-1.57,1.089-1.4,1.538-.36,1.65.537,3.076.112,2.507-.665,2.515-1.538-.616-3.6,1.217-.961,1.69-.537,1.85-.472,1.69.056,4.349,1.354,6.92,4.309.448,1.313-.529,3.821.969.713,3.508.352,7.665-1.794,2.475.176,1.193.577,4.429,4.59,3.909,5.31.521,1.242h0l-1.738,6.68-4.125-1.77-.625,1.474-.016,1.586-.464.585-.865.753-2.243,3.893-2.587.753-1.305.953-.961.945-.761,2-.793.777-6.984,6.224-3.052,2.186-.9.265-1.314,1.842-1.353.7-1.041,1.186.32.689,1.089.833-.841,1.185.32.665-.36.769-1.177,1.5-.457-.465.04,1.2,4.085,4.517.248,1.409-1.923,3.244-.512,1.922-.9,1.089.168,3.116-1.45,4.71.12,5.254-2.034,3.364-1.514.617-.064.673-1.073.833-.977,2.643-1,.833.777.817-.721.28-.785.993.04.457-.809.3.072,1.41-1.578.6-.817,1-.016.769.961.913.272,1.226-1.938,1.169-.873-.192-.545-.576-.825.657-.513,1.217-.6.424-.128,1.177.537.056.481-1.4.208,2.01-.289.449-.344-.537-.481.112.465,1.153-1.186.216.048.609-1.426.232-1.177-.481.409-1.417.857-.1-1.017-1.289-.641.977-.929.384-1.658-.368-.521-.921.617-.561.168-.128-.248-.729-1.089.328-.905-.5-1.906,1.746h0l-.473-.809-2.939-2.251-3.028-3.476-2.547-2.243L332.781,531l-1.306-4.109.489-4.886-.312-1.682-3.973-2.147-3.821.448-.633-1.554-.665-.248-.529-1.434.921-1.962.681-.08h0l2.739.609.481-.969-.609-2.042-1.37-1.6L324.29,508l-1.1-3.708-.12-3.028.473-2.979-.865-1.033h0l.3-1.914,1.874-2.491-.288-2.131,1.169-1.009.272-1.081,1.586-1.834.064-1.938-.913-1.442.152-.785,1.818-.865,2.1-.144,2.154,3.6,1.073-1.666,1.73-.617,1.762-1.37.224-1.049,1.506-.232,1.746,1.009.673-.729.545-1.842.08-2.074.641-1.177,5.542-6.72.016-1.122-1.49-2.082-.008-1.281,1.322-1.306,1.754-.3.665-1.362-.192-.841-1.105-.8-.328-1.2-.417-.3.08-1.554-1.025-.9-.4-1.37-2.163-1.5-1.594-2.1Z" transform="translate(-64.378 -87.277)" fill="#58bb8c" stroke="rgba(237,237,237,0.24)" stroke-width="1"/>
        <path id="NG-DE" d="M231.045,476.105l-1.185-5.839.064-1.1-.905-.905-1.706-7.665-1.506,1.634-3.284-.3-2.988.649-6.56,4.1-5.887,2.483-3.228,3.628-.513.04-2.067-3.156-.809-.336-1.338-.248-1.426,1.266L197,471.98l-.12,1.9.32.6,1.169.649.432,3.861,1.626,2.875,1.57,1.938,1.506,1.169,1.786.649.232,1.4-.561,2.595-1.242,1.53-1.306,1.33-2.467,1.626-1.834,2.459-2.227,1.594-1.45.481-4.189.833-1.706-.449.561-1.442-1.282-1.29,1.634-3.228-.376-.665-3.132-1.882-1.6-2.267-3.741-2.1-2.539-1-1.314-1.073-4.1,1.482-1.482,1.906-1.418-.32-1.818-1.586-1.105-.232-2.539.537-2.387-.577-.793.248-.5.24-.048.825.713,1.257-.417.849-3.284,2.579-1.33.056-.04-1.978-.529-2.042.561-2.347-.12-1.145-1.33-1.338-4.349-2.243L144.9,493.655l1.986,3.588,1.113.7.465-1.281,1.049-1,6.215-3.38,1.009-.176,1.482-1.025.905-.433.288.408-.016.136-1.6.761-.809,1.281-.056.208-.665-.425-1.8.785-2.547,2.01-.272.6-1.586-.361-.841.657-.633,2.515.208,1.233,2.107,3.6,2.547,2.515.9-.425,2.411-1.073,2.379.328.593-2.531.921-1.722-.016-.3.32-.24v.008l.3.1-.184.112-.192,1.522-.9,1.818.8,1.706,1.53.5,1.306-.216,1.265-2.547,1.281.08.152-.2v.008l2.395,1.233.9.537.152.385-.953-.272.216.617.08,1.057-1.065-.28.777-.537-.264-1.073-.9-.577-2.507-.232-.48.112.072,1.306-.441.9-1.874,1.578.8-1.265-1.434.12-1.682-.441-3.556-.537-1.57.152-.1.673-1.3.865-1.009,1.338,2.219,3.172,2.435,2.09,4.838,2.107,4.077.232.016-.521-.953-1.113-.761-2.323-.208-.36.056-.593.376-.1-.152.657.8,1.762.665-.481h.288l-.056.176-.761.865.208.4,2.122.9.457-.168,1.322-3.844.673-1.169.769-.5-.513-.264,2.563.1.384.12.841-.369.368-.9.593-.3.9.136.761.729.489-.529.072.184-.1.6-.713.032-1.105-.753-.809,1.345-1.266.633-1.45-.1.176.689-.769-.785-1.057.289-.44,2.419.216,1.057.464.865.36.577,2.691.873-.24.641-1.242-.9-.521.288-.024.561-.056.176-.392.1.256-1.177-.248-.1-.344-.272-.36-.368-.36.384-.593.4-.288.425-.633.1-.9.457.729.368,1.642-.08-2.379.769-.32.5-.8-1.29-.481.04-.224-.016-2.026.12-.937.5-.056-.312-.553-.056-.328-.248-.537.176-.665-.344.04,1.954,1.53,6.111-.192,1.33,1.666,1.81,1.642-.705,2.123-.136-.713-1.081-.072-.9.12-.192.4-1.906.232-.024-.12.481.12.328-.417,2.155.7.441-.08,1.225-.641.248,1.682,1.682,2.323,1.33,2.443.569,2.155,1.282.8.881,1.858-.32.753.3,5.991-3.284,2.1.336,2.643-1.314L191.069,528l.6-.4,1.69,1.025.793,1.329,1.514.537,1.85-.5.985-1.594,2.411.192,1.3-.449,2.267-1.249-.208-1.85.288-.761,1.177.064.633.48,1.69-.417,1.61-3.284,2.195-.392,2.8.352,4.069-1.754.961-.681-.617-1.978-.457-.833.168-.353,2.819-1.449.152-4.245.561-1.185,1.642-1.137.713-1.4.657-2.547-.873-2.835.184-.281.809-.937,1.538-3.124.272-2.107,1.41-3.756,2-3.644.3-4.814,1.017-2.924-.945-3Z" transform="translate(-29.122 -91.859)" fill="#58bb8c" stroke="rgba(237,237,237,0.24)" stroke-width="1"/>
        <path id="NG-EB" d="M316.021,451.821l-.136.729.52,1.234,3.212,2.947,1.426.593,1.129-.473.793-1.642,1-6.592,2.763-.321,2.363.2,1.538-.745,1.417-2.307,2.731-.3.817-1.85,1.41,1.041.673,3.412,1.362,1.818h0l.393,2.315,1.594,2.1,2.163,1.5.4,1.37,1.025.9-.08,1.554.417.3.328,1.2,1.105.8.192.841-.665,1.362-1.754.3-1.322,1.305.008,1.281,1.49,2.083-.016,1.121-5.543,6.72-.641,1.177-.08,2.074-.545,1.842-.673.729-1.746-1.009-1.506.232-.225,1.049-1.762,1.37-1.73.617-1.073,1.666-2.155-3.6-2.1.144-1.818.865-.152.785.913,1.442-.064,1.938-1.586,1.834-.272,1.082-1.169,1.009.288,2.13-1.874,2.491-.3,1.914h0l-1.073-.168-2.571-1.866-.561-.833-.176-1.754-.993-1.49-11.286-.689-.753-.825-.04-.585.44-2.291-.056-3.492h0l2.908-.809,1.594,1.362.617.072,1.69,2.01.585.056.52-1.153-.641-2.339-.12-2.115,2.139-2.187.641-1.386-.793-5.318-.5-2.042-.865-.857.016-.985,2.195-4.894.008-4.661-.521-.921-.3-2.635-1.185-3.925,5.166.44Z" transform="translate(-60.202 -88.416)" fill="#58bb8c" stroke="rgba(237,237,237,0.24)" stroke-width="1"/>
        <path id="NG-ED" d="M195.41,395.489l.617.513,1.4-.3.561.288.224.545-.3.713.368.521,1.746-.2.216.641-.769,1.482-.184,1.546.224.841.865.625,1.706.425,4.758-2.347,1.25,1.682.521-.056,1.009,1.129.441-.048,1.57,1.786,1.81-.152.593-.408,2.05.12.849,1.61.056.977.681.489.385,1.394.593.449-.192.408.529,1.306,3-.673.344.3,1.169-.793,1.5-.328,1.4,1.129.441,1.7,1.161.865.633,1.61.12,2.731-.248,1.538-1.3,3.156.048,3.332-1.53,3.861L224,432.741l1.025,1.722-.745,4.421.713,2.083,1.129,1.61.825,4.83h0l.056.232h0l-1.506,1.626-3.276-.3-2.988.649-6.56,4.093-5.887,2.483-3.228,3.628-.521.032-2.067-3.156-.809-.328-1.33-.256-1.434,1.273L196.684,459l-.12,1.9.32.6,1.169.649.432,3.861,1.626,2.867,1.57,1.938,1.506,1.169,1.786.649.224,1.394-.553,2.595-1.241,1.53-1.3,1.33-2.467,1.626-1.842,2.459-2.219,1.594-1.45.481-4.2.833-1.706-.457.561-1.442-1.281-1.29,1.626-3.228-.376-.665-3.124-1.882-1.6-2.267-3.749-2.1-2.531-1-1.313-1.073-4.1,1.482-1.482,1.906-1.418-.32-1.818-1.586-1.105-.232-2.539.537-2.379-.577-.793.249-.513.24-.048.825.713,1.257-.417.849-3.276,2.587-1.33.056-.04-1.978-.529-2.043.569-2.347-.12-1.145-1.33-1.338-4.349-2.235h0l.313-.929-.985-1.81-1.065-.833-1.25-.072-1.322-2.355-1.554-1.09-.561-.048-.352-.729.2-.472-.224.352.641-.561.769-2.908.464-.488,2.363-.7.673-3,1.394-1.37.673-1.57.28-1.378-.457-1.162-1.121-1.826-.985-.512v-2.275l.649-.785-.08-1.778.392-.769,1.4-1.3.36-.825,1.386-.641.633-1.818.769-.553.072-1.562.36-.625,1.762-.809,1.706.32,1.826-.3,1.346.289,5.318.088,2.635-.3,1.313.272,1.394,1.666-1.61,1.81,1.682,4.373.593-.024,3.02-2.531,1.073.1L176.98,437l.649.28,2.147-.817,1.209-2.715.761-3.973.2-.2.953.408.008-1.306.7-.416-.12-.649-.945-1.025.489-3.717.993-1.33,1.217-.585.3-.681-.256-.673,2.587-5.519-.12-1.113.376-.833,1.41-1.466,1.722-.841L192.407,407l-.344-.224-.617-1.987.7-2.315-1.61-.657-.32-.673.144-1.113,1.129-1.378,1.25.112.713-.481Z" transform="translate(-28.81 -78.9)" fill="#58bb8c" stroke="rgba(237,237,237,0.24)" stroke-width="1"/>
        <path id="NG-EK" d="M146.729,366.627l.328-.136.489,1.337.825.393,3.588-1,.761.3,1.177,1.65.761.393,1.866-.184,1.842.5,1.562-.465,1.033.441.833-1.73-.232-.5.657-1.778,3.292-1.073,4.614-.072h0l-.873.336-.024,3.428.44.361,1.986-1.137,2.94-.513,1.85.216.449.561-.224,1.1-1.073.512-1.834,2.411-.064,1.25,1.057,3,1.057.769,1.025.024,1.482,1.354,5.463,1.914h0l-1.218,1.922-.657.24-1.2-1-1.49.313-.681,1.65-1.746,1.162-1.922,1.986-.905,1.714-1.369,6.488-1.362,3.14-2.443,3.548-4.429,2.8-1.818-.473-.873-2.147.128-.689-.833-2.555-1.137-1.778-1.242-.417-5.583.248-6.231-.352-3.644,1.161h0l-.665-1.362-.673-3.036-2.283-4.894-.553-3.829.953-3.2-.649-2.251.1-1.121,1.522-3.4,1.3-1.2,1.746-.753,1.594-1.313Z" transform="translate(-27.938 -72.77)" fill="#58bb8c" stroke="rgba(237,237,237,0.24)" stroke-width="1"/>
        <path id="NG-EN" d="M262.672,440.759l2.187-4.013.729.2.144,1.826.593.04,1.065,1.61.553.272.993-.264,3.981-4.317,4.79-3.092,4.95-5.943,1.954-.729,1.714-1.682,2.651-.609,1.954.6.889,1.3h0l-.1.425,2.194,5.214,2.315,2.683,2.867,2.211,2.339,1.218,1.682-.585,1.77-1.69,2.251.28,1.217.921,1.137,1.714.721,4.5-1.826,5.142h0l-1.434.288-5.166-.44,1.185,3.924.3,2.635.521.921-.008,4.662-2.195,4.894-.016.985.865.857.5,2.043.793,5.319-.641,1.386-2.139,2.187.12,2.115.641,2.339-.521,1.153-.585-.056-1.69-2.01-.617-.072-1.594-1.362-2.908.809h0l-.264-1.169-1.642-1.073-2.171-.216-3.869.713-.481-.617h0l-.665-.136.032-.433-.9-.593-.865-.072-1.33.769-1.914-1.122-.609-.785-.144-1.209-1.506-3.036.28-1.722-1.065-.5-.473-2.066-.489-.1-1.514.905-.577-.593.4-1.3-.328-1.1.657-.232.24-.769-1.049-1.482-1.073-2.916-1.137-1.442-3.084-.929-.312-.432.345-1.882.5-.665-.192-.769,1.482-1.987,1.354-.913.6-.865,1-2.763-.288-.633-2.988-1.362L268.118,445l-1.954-1.13-3.068.1-.072-2.9Z" transform="translate(-52.563 -84.586)" fill="#58bb8c" stroke="rgba(237,237,237,0.24)" stroke-width="1"/>
        <path id="NG-FC" d="M280.785,287.525l4.9-.5,2.563.256,1.217.681.905-.681,1.45-2.435.849-.433.857.345,1.177,2.491.753.248.945-.633h0l-.056,1.954-.337.5-.825.056-.425.489-1.69,5.222-.064,4.5.409,1.754-.44,5.607-1.586,4.221-1.218,6.368-.633.289-.865,2.723-.833,1.314-3.027,3.7-5.575,2.915-3.708.849-2.331.961-8.915,1.4h0l-1.121.369-5.975-.12h0l-1.466.168-1.137-.376-1.562-3.933.368-1.1-.6-24.2.288-10.941.272-.3,2.146-.264,8.835-.376,1.41.5L273.1,297.6l.753-.192Z" transform="translate(-50.596 -56.791)" fill="#58bb8c" stroke="rgba(237,237,237,0.24)" stroke-width="1"/>
        <path id="NG-GO" d="M511.082,162.963l.729-.7,3.34-1.209,3.236.136,2.387.809,1.746,1.033,6.8,5.014,3.8,5.126,2.74,2.867-.8,1.233,1.265-.817,2.948,2.707.537,3.9-.961,9.491.617,5.166.24.408,5.431-.008h0l1.081,2.643-.5,2.419-4.149,6.055.649,2.267,1.947,2.811,1.466,1.458,4.533,1.874,2.507,4.942,1.449,1.281,3.132,1.762h0l-.545,8.194.417,2.964-.881,1.866-4.605,3.2-7.529,4.533-2.7,1.145-4.966.729h0l-5.1.376-9.98-.016-4.726.481-2.859-.569h0l.464-.128.1-.761-1.354-1.7-2.067-4.229-.488-4.958-.985-3.036-7.329-5.679-2-1.129-3.436-3.508-.264-1.3,1.049-1.53,1.594-.737,3.124-.5.665-1.41-.321-2.291.385-6.912-1.666-3.957-5.767-2.1-.7-.921-.7-5.727-.913-1.37-5.911-2.395.16-1.105,2.891-4.061,2.091-5.951.777-3.957,1.105-1.626,1.153-1.09,3.132-.7,1.193-.609,1.61-1.4,2.059-2.964,4.838-2.627,2.171-3.012Z" transform="translate(-97.264 -32.238)" fill="#58bb8c" stroke="rgba(237,237,237,0.24)" stroke-width="1"/>
        <path id="NG-IM" d="M276.271,497.489l1.61,1.353,4.277,1.426.833,1.161.377,1.081.3,6.784-.985.617,1.209,1.954-.224,1.642.288,2.763-.344,1.61-.713.721-.945,2.435-1.458,1.345-1.682,3.1-2.475,8.21h0l-2.058.761-3.62-.905-1.706.032-3.324.849-3.757-.889-5.382.112-1.714-.328L253.051,532l-1.378-2.723-1.474-1.041-.208-1.1.873-2.211.417-3.709-.36-1.33-1.7-.617-2.771.537-1.209-.353,2.2-10.484h0l1.674-.665,2.4-3.067,1.3-.641,3.612,1.538,2.146-.216,1.9-3.692.745-2.844,1.426-.833,5.054-.929,4.309,1Z" transform="translate(-49.094 -99.202)" fill="#58bb8c" stroke="rgba(237,237,237,0.24)" stroke-width="1"/>
        <path id="NG-JI" d="M414.851,65.223l1.434.945,4.806.585,2.515-1.442,1.682-3.2,4.261-2.075,2.531-.5,2.259-1.1,5.07-1.57,1.77,1,1.706,3.829.553,3.484,1.169,2.026.9-.577,4.694-1.49,4,1.778,1.626-.489,1.481.7,1.77,2.723,1.41,9.235.7,2.323h0l-8.858,5.551-.1-1.113-.665-1.314-.793-.657-2.787.441-3.636,1.562-5.375,16.492.457,1.506.024,1.8-.953.753-4.99,2.01-8.763,2.988-4.381,2.435-4.934.368-2.579,3.636-.392,3.412,1.081.5,2.091-.032,1.7-.825,2.2-.216,1.45.4,1.169,3.54.417,3.46-2.01,4,.44,1.394.945.889,3.076-.753.376,2.058.841,2,4.245,5.943,2.4,1.482,5.118.617,4.581,1.017,7.1.449.833,1.169-.881,2.179-1.482,1.113-1.153.625-3.236.793-2.027,1.089-1.225,1.53-.032,1.442.889,2.747-1.49.457-1.971-.5-1.49-1.089-1.25-.136-4.485,1.113-4.565-.953-1.081-1.089-.649-1.642.665-6.288-.432-1.722-2.139-3.925-.913-.24-2.859.729-6.167.384-2.507-.168-1.426-2.94-1.842-.585-2.683,1.169-5.951-1.93-4.806-.881-.8.152h0l-.064-1.794.865-2.98,5.7-5.511-.713-.921-1.674-.424-2.267-2.115-1.185-2.2-.4-1.6-.873-.793-4.053.12-.16-1.57.4-1.674,2.691-3.757.152-1.642.849-1.474-.152-1.97-1.826-5.751-1,.425-1.178,1.4-1.858,1.137-1.458.144-1.1-.2-.008-2.059-.457-1.153-2.515.2-1.522.953V103.8l-1.322-.577.425-1.378.945-1.113.064-4.493-.641-2.355-.737-.649-1.482-.449-4.357-.449L370.95,92l-.817-1.113.457-1.61-.881-2.467-3.052-1.7-.905-1.105-.361-4.742-6.231-1.618-3.02.28-3.2,1.546-1.385,1.081-.5,2.083-1.5,2.891-.857-.9-.08-1.57-2.811-5.03h0l-.993-2.1-.665-.561-3.957-.1-2.291-.745-.473-.577-.056-3.084.6-2.723-.016-2.155.369-.24,8.322-1.105,4.3.793,7.385-.625.937.985,1.129,3.749.545.753,2.13,1.338,1.594.417,2.1-1.209.513,1.25,1.193.561,2.947-.441,3.348-1.394,2.555-2.067.825-2.107.465-.6,1.6-.7.008-.689h0l1.017-.312,8.058.352,7.225,1.137,4.2-.6,4.854.625,8.034.36Z" transform="translate(-67.433 -11.502)" fill="#58bb8c" stroke="rgba(237,237,237,0.24)" stroke-width="1"/>
        <path id="NG-KD" d="M295.816,157.7l2.475.016,1.954-.537,3.348-3.068,3.844-2.275h1.322l3.268-.993.977.152.905.657.256,1-1.69,3.22.424,2.059.833.945,2.827,1.466,3,.985,2.811,3.308,1.225.441,2.227-.024,1.962.473,4.309,3.548,2.876,5.142.3,3.108-.809,1.954-.809,3.933.961,4.846-.16,1.386-.577.881-2.843.769-.441.633.481,1.666.849.857,5.623.777,1.586,2.2,1.281.841,2.4.513.841-.232h0l-.425,3.172-1.882,3.364.216.585,2.235,1.4,2.026,2.171h0l-.3.232-.168,2.323-.441,1.146-1.057,1.249-1.754.585-1.522,1.121-1.706,3.981-.176,2.171,1.089,2.259.6,2.819-1.914,1.578-.272.881.144,1.578-.561,6.255.424,1.682-.336.857L336.361,241l-.32,2.467-1.41,1.025.168,3.8-.841,1.121.08.929,2.611,4.229,2.059,2.467,1.37.969.8,1.674.1,2.731-1.338,3.156h0l-.873.457-2.123,4.493-2.651,4.325-.657.577-1.29.336-1.978-.1-.481-1.522-4.277-4.734-3.052-.192-1.2-1-1.065-.176-1.033.785-.713,1.522-3.332,3.8-1.882,1.281-.921.168-1.073-.769-.32-1.049.04-7.769-.825-1.29-3.38-1.954-.256-2.6-2.347-2.139-.881-.312-.809.28-1.322,1.7-.753,2.034-1.85,1.682h-.881l-1.4-.849-1.073.2-1.954-1.434-.745-.112-1.2.489-.561-.633-.481-1.506-.6-.088-1.073.817h0l-.945.633-.753-.248-1.177-2.491-.857-.344-.849.432-1.45,2.435-.905.681-1.217-.681-2.563-.256-4.9.5h0l-.985-.336-1.97.481,1.105-3.308-2.715-2.227.072-1.858.448-.745,1.962-1.033.633-.7.481-2.235,2.475-2.539-.465-1.506-2.4-1.3.665-2.419-2.9-1.089-.905-.617-.136-.729.232-.513.7-.336,2.587-.328.5-1.21-.08-2.475-.737-3.108-.128-4.053-.264-.809-1.1-.537-10.308.064-5.343-1.995-1.37-1.33-.825-1.586.729-.993,1.738-1.089,1.3-1.346.681-1.185,3.4-2.083.817-1.434.248-1.586-2.587-1.4-3.869-1.33,1.081-3.316.04-2.059-1.586-3.044-1.29-.353-1.8.537-1.113-.112-.224-3.6-.384-1.538-.489-.408-3.789-.4-.945.961.537,1.914-.513.785-3.18-.448-6.111,2.291-.833-2.131-.817-.8-2.331.1L229,196.99l-1.97,1.2-4.477,3.6-4.309,5.615-1.129.713-1.145-.481-.977-2.819-2.443-1.6-.176-1.1.264-1.85,1.474-1.442-.192-3.052.593-1.6-.112-1.185-1.153-1.906.32-3.837L216,182.941h0l1.346-.1,1.025-.609,2.291-3.332,4.221-3.773,4.517-.761,6.36.457,3.773-.5,1.866-1.209,2.435-2.483,1.209-2.587.513-2.843,1.37-2.731.681-.913,2.2-1.418,1.874-1.906.809.024h0l3.532.7,1.554-.144,1.089.721.633,1.394-.184.857L256.8,163.95l-.312,1.057,5.086,1.546,3.4,3.436,1.4.184,2.155-1.217,1.105-1.53-1.45-2.691-.1-1.634,2.763-.873,1.562.088,2.219.881,1.121-.072.465-.432-.008-1.113.961-2.379,2.451-2.074,1.113-.224,5.43,1.834,1.642,1.386.777,1.266,1.257.625,4.5-1.794.673-1.642Z" transform="translate(-42.551 -30.206)" fill="#58bb8c" stroke="rgba(237,237,237,0.24)" stroke-width="1"/>
        <path id="NG-KE" d="M82.971,42.524l5.3-.112,1.49.593,3.708-1.266.609.248,1.322,1.7,2.555,1.458.849.881,7.657,2.5,2.363,1.658,2.451.545,1.458-.344.5-.449,1.994-2.956.929-.248.865.7.32,1-1.3,3.148.072,1.922-1.137,2.387-.336,2.964,1.49,1.722,1.442,3.428-.144,2.659L116.4,71.519l.032,1.634,1.346,4.421L117.581,84l-.513,1.249-.817.032-2.539-1.634-2.147.016-3.164.945-1.025,1.185-.809,3.028-.112,7.962.633,10.453-1.7,7.841-2.09,4.509-.929,3.821,2.042,2.924.609.408,2.227.232,1.37-1.081,1.922-2.4,9.612-4.365,1.354-.1,1.514.689,1.634-.577.617,1.4.753.056,1.3-.777h0l.689-.384h1.458l3.292,1.8,5.078-1.169.657-1.858.849-.5.633-.12.729.513,1.674.248,2.891-.521.865.457,1.354,2.643,2.3.088,2.923,1.93,4.381-.609,3.036.4,1.994-.473.977-.649,3.885.5,3.484,1.418,1.129,1.722-.008,1.978-1.642,5.2v.961l4.309,2.171,1.546,2.411,1.105,6.071.168,4.389h0l-1.089-.881-1.482-.288-2.739,2.211-1.025,1.762-3.148.328-9.692,4.069-8.546.553-1.314-1-.288-3.22.3-3.853-.384-1.426-3-1.978-.649-1.009-.785-5.214-1.354-1.282-2.275-.569-2.915-.032-7.9,1.274-6.3,1.466-3.548,1.3-3.885,2.074-1.1,1.658.128,1.233.7,1.009,2.908,1.61,4.325,1.754,4.293.424.841,1.61,1.37-.024.625.593.9,5.254-.2.857-1.746,1.161-.5,1.177.392,1.161,2.195,1.306.937,1.089-.056,1.658-.809,1.193-3.044.777-4.181,2.115-4-.416-1.241.336-.721.6-.032,7.681-.36,1.1,1,2.267,1.45,1.578,1.49,2.427.6,1.954-.224,1.226-1.418,1.706-2.115,1.258-2.707.208-5.943,2-.4,4.686-.449.384-3.46-.368-1.137-.793-.016-1.826.825-2.627.232-3.156-2.347-2.131-.9-1.93.144-5.062,1.169-2.611,1.474-1.6,1.185-.809,3.14-1.153,3.7-3.548,1.946-8.578.16-3.244-.409-.593-2.315-.849-1.266.08-6.728-4.565-4.2-1.354-2.355.056-3.6.681-4.958-.288-9.748.649L77,153.473l-2.8-1.137-8.843-4.87-2.315-.288-.713.416h0l-1.033-.008-9.716-8.234,3.468-16.332,1.7-3.773,3.917-3.348-.657-2.611-1.938-1.458-.457-3.9,2.539-3.076-1.89-7.016.312-4.181,1.017-3.444-.745-12.7,8.666-7.473L73.7,65.2l7.633-11.71L83,45.776Z" transform="translate(-10.548 -8.491)" fill="#58bb8c" stroke="rgba(237,237,237,0.24)" stroke-width="1"/>
        <path id="NG-KN" d="M340.577,83.193l2.812,5.03.08,1.57.857.9,1.5-2.891.5-2.083,1.385-1.081,3.2-1.546,3.02-.28,6.232,1.618.361,4.742.905,1.105,3.052,1.7.881,2.467-.457,1.61.817,1.113.665.336,4.357.449,1.482.449.737.649.641,2.355-.064,4.493-.945,1.113-.425,1.378,1.322.577v.825l1.522-.953,2.515-.2.457,1.153.008,2.059,1.1.2,1.458-.144,1.858-1.137,1.177-1.4,1-.424,1.826,5.751.152,1.97-.849,1.474-.152,1.642-2.691,3.757-.4,1.674.16,1.57,4.053-.12.873.793.4,1.6,1.186,2.2,2.267,2.115,1.674.425.713.921-5.7,5.511-.865,2.98.064,1.794h0l-4.421,1.738-.913-.072-.913-.857-1.354.24-1.987,1.258-.537.881-3.8,3.34-2.123,3.292-2.194,2.571-1.634.408-2.162-.128-.817.344-1.281,3.66-.36,2.8.32,5.519.36,1.594,3.092,3.468.617,1.338.064,1.6-1.065,3.084-2.074,3.276-.793.449h0l-.841.232-2.4-.513-1.281-.841-1.586-2.2-5.623-.777-.849-.857-.48-1.666.44-.633,2.843-.769.577-.881.16-1.386-.961-4.846.809-3.933.809-1.954-.3-3.108-2.875-5.142-4.309-3.548-1.962-.473-2.227.024-1.225-.441-2.812-3.308-3-.985-2.828-1.466-.833-.945-.424-2.059,1.69-3.22-.256-1-.905-.657-.977-.152-3.268.993h-1.322l-3.844,2.275-3.348,3.068-1.954.537-2.475-.016h0l-2.884-2.147-.889-1.81-.625-2.891,1.218-2.139.056-1.77,1.458-1.306,3-.825,1.962-1.362,2.171-.056.761-.465-2.515-6.247.537-3.252-1.674-3.668.689-5.07-.561-9.868.216-2.315,1.746-1.826,3.4-1.9,6.119-1.906,2.947-1.546.625-.681.905-3.516,1.714-3.692,1.025-.416Z" transform="translate(-62.194 -16.665)" fill="#58bb8c" stroke="rgba(237,237,237,0.24)" stroke-width="1"/>
        <path id="NG-KO" d="M208.991,323.919l1.762.457,2.219,1.265,2.819,2.6,2.219,3.46,2.042,6.608,2.972,1.842,2.171,2.155,4.381,5.823,2.179,2.034,1.306.2.264-.281.5-2.314.993-2.027.152-.208.793.7.369-.072.048-2.379,2.859-1.394.9-2.6h0l5.975.12,1.121-.368h0l-.481,2.115-1.242,2.131v.689l.657,1.353,1.754,2.131.432,4.942-.937,3.772-.032,3.757-1.29,1.338-.681,1.7-.136,3,.553.449,3.412-2.363,7.417-3.26,9.932-2.7,5.663-.561,2.867.545,6.167.457h0l-.256,2.275.433,4.7,1.506,2.579,2.163,2.091.585,1.482.008,5.527.457,5.454.993,4.429,1.017.841,2.651-.256,1.185.376-.288,1.45-.985.969-.376,1.033-.336,3.148-1.554,4.67-2.643,2.491-5.158,2.5-.769,1.154-.272,3.54h-1.41l-1.081-.841-.657.08-2.7-2.635-.673-.464-.328.4h0l-.889-1.3-1.954-.6-2.651.608-1.714,1.682-1.954.729-4.95,5.943-4.79,3.092-3.981,4.317-.993.264-.553-.272-1.065-1.61-.593-.04-.144-1.826-.729-.2-2.187,4.013h0l-1.073,1.5-1.233.689-1.794,1.85-.993,3.3-.048,2.187-1.474,2.01-1.145.713-2.876-.529-1.337.617h0l-.825-4.83-1.13-1.61-.713-2.082.745-4.421-1.025-1.722,1.73-2.844,1.53-3.861-.048-3.332,1.3-3.156.248-1.538-.12-2.731-.633-1.61-1.161-.865-.441-1.7-1.4-1.129-1.5.329-1.169.793-.344-.3-3,.673-.529-1.306.192-.408-.593-.449-.384-1.394-.681-.488-.056-.977-.849-1.61-2.051-.12-.593.409-1.81.152-1.57-1.786-.441.048-1.009-1.129-.521.056-1.25-1.682-4.758,2.347-1.706-.424-.865-.625-.224-.841.184-1.546.769-1.482-.216-.641-1.746.2-.368-.521.3-.713-.224-.545-.561-.288-1.4.3-.617-.513h0l-.184-.624-3.8-3.34-1.634-2.163.569-3.316-2.01-.345-3.7.705h0l-5.463-1.914-1.482-1.354-1.025-.024-1.057-.769-1.057-3,.064-1.25L181,361.436l1.073-.513.224-1.1-.448-.561-1.85-.216-2.94.513L175.07,360.7l-.44-.36.024-3.428.873-.337h0l.6-1.153-.657-1.93-3.813-2.066-.1-.472-1.938-1.45-.056-.537L167.63,347l-1.538-2.963.136-.793,1.714-1.946,1.834-3.132,2.972-3.236,2.884-1.834,1.418,2.1,1.738,1.41,5.639,2.411,1.474.064,2.211.865,2.972-.168,1.706.553,3.14-.1,5.046,1.218,2.427-.4,1.258-3.012.513-5.2,1.85-6.239Z" transform="translate(-33.34 -64.655)" fill="#58bb8c" stroke="rgba(237,237,237,0.24)" stroke-width="1"/>
        <path id="NG-KT" d="M310.341,35.051l7.337,1.081,4.157,1.105,2.867,1.554,2.339,2,2.187.585,7.922,7.721,2.635-.7,2.339.3,2.427,1.241,1.834,1.4,1.482,1.69.833,1.954,2.371,1.1,4.213,1.017,9.7,3.14h0l-.008.689-1.6.7-.465.6-.825,2.107-2.555,2.066L356.18,67.8l-2.947.441-1.194-.561-.513-1.25-2.1,1.209-1.594-.416-2.13-1.338-.545-.753-1.13-3.749-.937-.985-7.385.625-4.3-.793-8.322,1.105-.368.24.016,2.155-.6,2.723.056,3.084.473.577,2.291.745,3.957.1.665.561.993,2.1h0l-3.708.288-1.025.417-1.714,3.692-.905,3.516-.625.681-2.947,1.546-6.119,1.906-3.4,1.9-1.746,1.826-.216,2.315.561,9.868-.689,5.07,1.674,3.668-.537,3.252,2.515,6.248-.761.465-2.171.056-1.962,1.362-3,.825-1.458,1.306-.056,1.77-1.217,2.139.625,2.891.889,1.81,2.884,2.147h0l-.793.881-.673,1.642-4.5,1.794-1.258-.625-.777-1.266L295.8,135.62l-5.431-1.834-1.113.224-2.451,2.075-.961,2.379.008,1.113-.465.433-1.121.072-2.219-.881-1.562-.088-2.763.873.1,1.634,1.45,2.691-1.105,1.53-2.155,1.217-1.4-.184-3.4-3.436-5.086-1.546.312-1.057,2.315-2.155.184-.857-.633-1.394-1.089-.721-1.554.144-3.532-.7h0l.016-1.866,1-4.886-.721-2.956-1.53-1.522-.128-.857.36-3.012,1.25-3.316.521-3.2,1.2-.673,5.294-.1,1.025.7,3.909-3.18.441-2.563,2.675.649,1.514-1.3-.4-1.562-.929-1.145-2.147-1.834-2.026-.929-1.009-.969,1.458-2.908.873-4.133L274.01,91.6l.1-1.346-.553-2.443-2-4.165.32-2.859-1.049-2.571-.312-3.8-.8-4.141.056-4.846-.793-4.942,1.154-8.666h0l3.892-1.257,4.229-4.293,6.968.625,2.867-.593,18.742-11.334,1.025-.264Z" transform="translate(-52.183 -7.09)" fill="#58bb8c" stroke="rgba(237,237,237,0.24)" stroke-width="1"/>
        <path id="NG-KW" d="M50.758,236.106l4.309-.737,9.067-.28,2.9.745,11.2,12.7,1.594,2.483,4.493,5.19,1.834,1.266,1.362-.144.833.384.216,2.355-.585,3.724.048,4.309.7,2.947,1.041.313,6.063-.633.673.593.344,1.3-.152,2.747.28,1.121.529.817,2.571,1.93,2.435.312.857.44.721,1.69.593,4.365L106.2,287.1l1.6-.008,7.337-2.851,1.93-.128,5.086,2.411,1.137.881,5.086,5.791,1.8.553,3.172-.929,3.62.649,2.988,1.289.513-.216,9.427,5.863,4.157,2.94.745,1.194,1.169.569,1.474.481,3.941.256,2.715-.729,6.023-.248,6.616,1.37h0l-1.97,2.683-1.85,6.239-.513,5.2-1.258,3.012-2.427.4-5.046-1.217-3.14.1-1.706-.553-2.972.168-2.211-.865-1.474-.064-5.639-2.411-1.738-1.41-1.418-2.1-2.883,1.834-2.972,3.236-1.834,3.132-1.714,1.946-.136.793,1.538,2.964,1.93,1.962.056.537,1.938,1.45.1.472,3.813,2.067.657,1.93-.6,1.153h0l-4.614.072-3.292,1.073-.657,1.778.232.5-.833,1.73-1.033-.441-1.562.465-1.842-.5-1.866.184-.761-.392-1.177-1.65-.761-.3-3.588,1-.825-.393-.489-1.338-.328.136h0l-.312-.432-1.338.641-2.8.1-1.185-2.539-1.746-.465-3.8,1.362-2.123-.3.064.7-.144-.681-.288.072-2.843,1.29-2.083.248-6.624-.176h0l-.392-.529-1.161-.056-.569-.753-1.522-3.853-.312-2.219-.625-.529-.024-.641-2.771-1.8-2.363-3.4-.977-2.755-.072-1.682-.633-2.219-1.578-2.107-2.4-5.695-1.33-1.53-1.057-4.237-.649-1.265.825-3.6,1.666-1.241.28-1.282.457-.473,2.531-1.674,1.874-2.531-.128-1.041-1.049-.625-2.267,1.442-1.77.064-3.068-.865-.881.1-1.922-1.233-4.565-1.394-2.6-1.938-1.354-1.634-.433-1.986-3.268-1.97-1.634.072-3.06,1.666-1.354,2.972-.016,2.123-.36.889-3.54,2.747-5.318,2.339-4.638,2.643-1.994,1.554-.905.208-2.411,1.77L29.717,305.1l-.745.12-.425-.6-.36.088-.729-.905-.553-.152-2.058.216L19.3,308.3l-1.33.529-3.132,2.755-.152.793-1.2.633-3.268.577-2.539.016-2.555,2.227h0l.449-1.426-.473-1.089-.008-2.835-.569-.721L4.71,308.6l.441-1.113-.312-2.171-.777-1.434.593-1.121,1.145-.729-.32-2.675.553-.184L6.3,297.8l-.16-.5.016-.7.553-1.314.344-1.249-.328-.609-.216-.617-.28-.625.1-.937.2-1.386.128-.553,4.3.144.569-.128.841-.945,2.843-.448.529.657.993.36,1.193-.08L21.9,287.48l.2-1.41,1.562-3.108.136-3,1.53-1.506-.272-4.662-1.025-3.212.248-1.137.929-1.506,1.978-1.105.657-1.466,2.074-2.9.681-2.483.833-.473,1.714.2,1.674-1.386.08-.977L33.826,255.3l-.256-1.546.3-1.073.889-.977,5.407-2.163,2.715.192.913-.24,1.618-1.65.1-1.041,1.89-2.074.457-1.93.2-3.981.681-.881,1.666-.689Z" transform="translate(-1.09 -46.974)" fill="#58bb8c" stroke="rgba(237,237,237,0.24)" stroke-width="1"/>
        <path id="NG-LA" d="M3.268,460.777l1,.32L7,460.752l1.554.713,2.771-1.954v-1.29l.328-.088,2.843.425,10.981-.152.849-.809.617-3.164,1.666-1.322.072-1.882,1.089-2.01,1.482.2,2.731,1.145.961.641.649,1.145,3.66-.384-.408-1.161,1.274-.849,30.1.313.857.168.433.721-2.187,2.307-.184.753.585.993.032,1.169,1.754.873,2.579-1.73,2.763-.328.849,1.185.1.761-.9.849-2.243,1.049-.449.825.176.561.737.593,2.219.617.905,1.049.465.112.9-.465,4.221.521.28,1-.288,1.89h0l-7.633-.921-1.754-.537-9.628-1.474-6.88-.369-7.938.753-12.1.128-.457.249-.152,1.057-.425-.08.192.272-4.341-.657-4.822.008-17.3.585-7.6.881-.288-2.491Z" transform="translate(-0.817 -89.594)" fill="#58bb8c" stroke="rgba(237,237,237,0.24)" stroke-width="1"/>
        <path id="NG-NA" d="M298.775,286.828l1.073-.817.6.088.481,1.506.561.633,1.2-.489.745.112,1.954,1.434,1.073-.2,1.4.849h.881l1.85-1.682.753-2.035,1.322-1.7.809-.28.881.313,2.347,2.138.256,2.6,3.38,1.954.825,1.29-.04,7.769.32,1.049,1.073.769.921-.168,1.883-1.282,3.332-3.8.713-1.522,1.033-.785,1.065.176,1.2,1,3.052.192L340,300.677l.481,1.522,1.978.1,1.289-.336.657-.577,2.651-4.325,2.123-4.493.873-.457h0l1.353,1.322,1.938.088,1.666.681.5,3.588,1.546,2.731,1.73.785,4.261.448h2.964l2.219-1.081.833.449,1.61,1.77-.633,2.347-2.163,3.212-1.69,1.586-1.129.16-1.169.841-1.242,2.29-1.241,1.089-.256,1.8.513,1.378,1.674,1.947.256.993-.24,4.333,1.153,1.658,4.125,2.171,2.932,1.041,6.56-.12,7.817-2.235,8.3,3.468,2.018,1.658,1.169,2.146h0l-2.066,2.947-2.194.657-3.612-.761-.265-.328-1.217.184-.8-.857-1.386-.721H384.4l-1.025.689-1.065,1.714-.585,2.291,1.37,1.089,1.626,2.01.28,2.307-.432.52.8,2.147-.088.953-8.995,5.775-.969,1.113h0l-9.443-7.153-.008.561-3.172.176-3.909-.328-5.495-1.242-8.082-2.979-2.147-.352-2.075.144-1.105.224-3.164,1.762-.993,1.129-.817,2.291.064,2.019,3.765,9.323-.072,1.089-.913.881-4.269-1.786-2.659-2.243-.857.112-4.205-.793-3.941-2.259-6.976-2.844-6.816-1-7.313-1.986h0l-6.168-.457-2.867-.545-5.663.561-9.932,2.7-7.417,3.26-3.412,2.363-.553-.448.136-3,.681-1.7,1.29-1.337.032-3.756.937-3.773-.432-4.942-1.754-2.131-.657-1.353v-.689l1.241-2.131.481-2.115h0l8.915-1.4,2.331-.961,3.708-.849,5.575-2.915,3.028-3.7.833-1.313.865-2.723.633-.288,1.217-6.368,1.586-4.221.441-5.607-.409-1.754.064-4.5,1.69-5.222.424-.489.825-.056.336-.5Z" transform="translate(-52.967 -56.759)" fill="#58bb8c" stroke="rgba(237,237,237,0.24)" stroke-width="1"/>
        <path id="NG-NI" d="M63.417,171.168l.713-.416,2.315.288,8.843,4.87,2.8,1.137,1.49.232,9.748-.649,4.958.288,3.6-.681,2.355-.056,4.2,1.354,6.728,4.566,1.266-.08,2.315.849.409.593-.16,3.244-1.946,8.578-3.7,3.548-3.14,1.153-1.185.809-1.474,1.6-1.169,2.611-.144,5.062.9,1.93,2.347,2.131-.232,3.156-.825,2.627.016,1.826,1.137.793,3.46.368.449-.385.4-4.686,5.943-2,2.707-.208,2.115-1.257,1.418-1.706.224-1.225-.6-1.954-1.49-2.427-1.45-1.578-1-2.267.36-1.1.032-7.681.721-.6,1.241-.337,4,.416,4.181-2.114,3.044-.777.809-1.194.056-1.658-.937-1.089-2.195-1.306-.392-1.161.5-1.177,1.746-1.161.2-.857-.9-5.254-.625-.593-1.37.024-.841-1.61-4.293-.425-4.325-1.754-2.908-1.61-.7-1.009-.128-1.234,1.1-1.658,3.885-2.074,3.548-1.3,6.3-1.466,7.9-1.274,2.915.032,2.275.569,1.354,1.281.785,5.214.649,1.009,3,1.978.384,1.426-.3,3.853.288,3.22,1.314,1,8.546-.553,9.692-4.069,3.148-.328,1.025-1.762,2.739-2.211,1.482.288,1.089.881h0l2.659,3.524,3.044,5.318,1.273,3.276-.056.673h0l-2.435,4.309-.32,3.837,1.153,1.906.112,1.185-.593,1.6.192,3.052-1.474,1.442-.264,1.85.176,1.1,2.443,1.6.977,2.819,1.145.481,1.129-.713,4.309-5.615,4.477-3.6,1.97-1.2,1.682-.489,2.331-.1.817.8.833,2.131,6.111-2.291,3.18.448.513-.785-.537-1.914.945-.961,3.789.4.489.409.385,1.538.224,3.6,1.113.112,1.8-.537,1.29.352,1.586,3.044-.04,2.059-1.081,3.316,3.869,1.33,2.587,1.4-.248,1.586-.817,1.434-3.4,2.083L224.828,219l-1.3,1.346-1.738,1.089-.729.993.825,1.586,1.37,1.33,5.342,1.994,10.308-.064,1.1.537.264.809.128,4.053.737,3.108.08,2.475-.5,1.209-2.587.328-.7.336-.232.513.136.729.905.617,2.9,1.089-.665,2.419,2.4,1.3.464,1.506-2.475,2.539-.481,2.235-.633.7-1.962,1.033-.449.745-.072,1.858,2.715,2.227-1.105,3.308,1.97-.481.985.336h0l-6.928,9.884-.753.192-7.361-6.488-1.41-.5-8.835.376-2.147.264-.272.3-.288,10.941.6,24.2-.368,1.1L215.624,307l1.137.376,1.466-.168h0l-.9,2.6-2.859,1.394-.048,2.379-.368.072-.793-.7-.152.208-.993,2.026-.5,2.315-.264.28-1.306-.2-2.179-2.034-4.381-5.823-2.171-2.155-2.972-1.842-2.042-6.608-2.219-3.46-2.819-2.6-2.219-1.266-1.762-.457h0l-6.616-1.369-6.023.248-2.715.729-3.941-.256-1.474-.481-1.169-.569-.745-1.193-4.157-2.94-9.427-5.863-.513.216-2.988-1.29-3.62-.649-3.172.929-1.8-.553-5.086-5.791-1.137-.881-5.086-2.411-1.93.128-7.337,2.851-1.6.008-1.514-1.057-.593-4.365-.721-1.69-.857-.441-2.435-.312-2.571-1.93-.529-.817-.28-1.121.152-2.747-.344-1.3-.673-.593-6.063.633-1.041-.312-.7-2.948-.048-4.309.585-3.724-.216-2.355-.833-.384-1.362.144L94.863,241.3l-4.493-5.19-1.594-2.483-11.2-12.7-2.9-.745-9.067.28L61.3,221.2h0l.392-2.419-1.57-.561L58.443,216.6l-1.4-2.835,2.467-5.583-.112-1.354.713-.913,2.066-1.065,4.87,2.555.8-2.5.2-2.395,2.259-5.15-.529-4.966-2.155-1.522-2.379-4.485.969-3.685.1-1.634-.985-4.045-1.706-.657.336-1.562-.224-1.562.408-1.562Z" transform="translate(-11.635 -32.065)" fill="#58bb8c" stroke="rgba(237,237,237,0.24)" stroke-width="1"/>
        <path id="NG-OG" d="M.84,374.493l4.782-3.436,2.8-.168,1.522.745.993,1.434.328,1.146.12,5.19.449,1.89,1.049,1.738.673.1.753-4.453.457-1,.376-.36h1.1l.7.489.433,1.4-.128,2.475-1.394,4.79-.328-.192-.408.457.417,2.931,1.7,2.01,2.443,1.979.817,2.435,2.563,3.612,2.411,1.89,1.874.905,3.244.224,1.394-.392,2.227-3.18.913-3.4,1.3-1.186,2.083.232,1.4,3.476,1.274.905.817-.208.905-.889,1.978-.481,4.966.176.937,1.514.264,4.533.328.569,2.387.977.513.881-.08,1.778.881,2.163.328,2.3-3.18,3.212-.264.905.3.224,4.878-.2,2.163-.465,2.435.1,2.547-.993,1.209-1.1,4.718-.7h0l2.195-.865,1.121-.889.753.312.416.673.473,3.428,1.578-.008,3.084-1.586,2.715.473,2.379,5.695,2.451-1.57.881-.016.921.553,1.7-.737,3.332-.208.248.1-.24.809h0l-.6,4.405-.849,2.611-1.882,1.682-1.65.777-2.907,2.627-2.387,3.941.024,2.731L85.558,440l3.853.649,1.466-.1,1.137-.849,1.322-1.818,1.41-.408.521.625-.016,3.58.681,2.86-.577,1.45-1.954.529-.617.913-.9.545-1.922.088-1.057,1.073.785.344,2.235-.2,2.643,1.394.168.865-.657,1.378-3.212-.224h0l-4-1.794-3.508-.745h0l.288-1.89-.28-1-4.221-.521-.9.464-.465-.112-.905-1.049-2.219-.616-.737-.593-.176-.561.449-.825,2.243-1.049.9-.849-.1-.761-.849-1.185-2.763.328-2.579,1.73-1.754-.873-.032-1.169-.585-.993.184-.753,2.187-2.307-.433-.721-.857-.168-30.1-.312-1.274.849.408,1.161-3.66.385-.649-1.146-.961-.641-2.731-1.146-1.482-.2-1.089,2.01-.072,1.882-1.666,1.322-.617,3.164-.849.809-10.981.152-2.843-.425-.328.088v1.289l-2.771,1.955-1.554-.713-2.731.344-1-.32h0l.336-2.627.905-.945.5-1.234-1.073-3,1.041-1.73,1.69-1.442.16-2.195L6.2,431.25l-1.714-.224-.625-.312-.328-.689L3.4,428.566l.961-1.522-.272-.857.384-2.771-.176-.785-1.041-.112-.433-.489.12-2.291,1.121-1.29,2.451-1.426-1.97-1.786-.384-.769,1.5-1.762.473-1.538L5.6,407.437l-1.225-1.33-.1-7.761,1.9-.064.657-.384.032-.577-.336-2.8-2.147-1.634-.176-1.41-.785-1.217-.24-3.364.2-7.177-.24-.761-.657-.28-.777-2.066L.352,374.87Z" transform="translate(-0.352 -74.004)" fill="#58bb8c" stroke="rgba(237,237,237,0.24)" stroke-width="1"/>
        <path id="NG-ON" d="M176.967,383.973l3.7-.7,2.01.344-.569,3.316,1.634,2.163,3.8,3.34.184.625h0l-1.962,2.8-.721.481-1.249-.112-1.129,1.377-.144,1.105.32.673,1.618.657-.7,2.315.617,1.994.336.224-1.145,2.836-1.722.841-1.41,1.466-.376.833.12,1.114-2.587,5.519.256.665-.3.681-1.21.585-.993,1.338-.5,3.708.945,1.025.128.657-.7.409-.008,1.305-.953-.408-.2.2-.761,3.973-1.209,2.715-2.147.825-.649-.289-.953-1.185-1.073-.1-3.02,2.531-.593.024-1.682-4.373,1.61-1.8-1.394-1.674-1.314-.272-2.635.313-5.318-.088-1.346-.288-1.826.3-1.7-.312-1.762.809-.368.625-.072,1.57-.761.544-.633,1.818-1.386.641-.36.833-1.41,1.29-.393.769.072,1.778-.641.793v2.275l.985.513,1.113,1.826.465,1.161-.288,1.378-.665,1.57-1.394,1.37-.681,3-2.355.689-.465.5-.769,2.9-.641.561.224-.353-.2.481.352.729.561.04,1.554,1.089,1.322,2.355,1.25.08,1.065.833.993,1.81-.312.929h0l-5.527,13.408h0l-3.893-4.758-7.345-7.4-11.87-9.58-2.163-1.33h0l3.2.224.665-1.385-.168-.857-2.643-1.394-2.235.2-.785-.344,1.057-1.082,1.922-.08.889-.545.625-.913,1.954-.529.577-1.458-.673-2.86.008-3.58-.513-.625-1.418.408-1.322,1.818-1.137.849-1.466.1-3.845-.649-1.61-1.57-.024-2.731,2.387-3.941,2.907-2.627,1.65-.769,1.882-1.682.857-2.6.593-4.413h0l2.139-1.137,1.722-3.981,3.436-2.755,1.858-.016,2.01.993,2.331,1.778,1.45.024.513-1.009-.184-1.306.328-1.69-.368-3.188,1.25-5.238.673-.457,4.694-1.274-.5-1.922h0l3.644-1.162,6.232.345,5.583-.249,1.241.425,1.137,1.77.825,2.555-.128.689.873,2.155,1.826.472,4.429-2.8,2.435-3.548,1.37-3.14,1.362-6.488.905-1.714L170,388.291l1.746-1.161.681-1.65,1.49-.3,1.2.993.657-.24Z" transform="translate(-21.123 -76.468)" fill="#58bb8c" stroke="rgba(237,237,237,0.24)" stroke-width="1"/>
        <path id="NG-OS" d="M110.687,366.263l6.624.176,2.083-.249,2.843-1.29.288-.072.144.681-.064-.705,2.123.3,3.8-1.362,1.746.465,1.185,2.539,2.8-.1,1.338-.641.312.433h0l-1.217,4.245L133.09,372l-1.746.753-1.3,1.2-1.522,3.4-.1,1.121.649,2.251-.953,3.2.553,3.829,2.283,4.894.673,3.036.665,1.362h0l.5,1.93-4.694,1.266-.673.465-1.25,5.238.368,3.188-.32,1.69.184,1.306-.513,1.009-1.45-.024-2.331-1.778-2.01-.993-1.858.008-3.428,2.763-1.722,3.973-2.139,1.146h0l.24-.809-.248-.1-3.332.208-1.7.737L105,417.71l-.881.016-2.451,1.57-2.379-5.7-2.715-.472-3.084,1.586-1.578.008-.472-3.428-.417-.673-.753-.312-1.121.889-2.195.865h0l1.874-7.882.344-4.237,1.338-6.984-.7-.392-2.443-3.909-2.491-1.866-.216-.745-.112-.7.921-.873.625-1.41.7-7.425.481-.224,3.444,1.073,1.858-.6.625-.793.1-1.842.849-.457,2.251-2.659,2.411,1.474,2.875,4.453,1.706-.745.521-1.145,1.642-.929.785-1.114.224.313,1.466-1.209,1.834-.609.2.3.793-1.073.248-1.025Z" transform="translate(-17.111 -72.582)" fill="#58bb8c" stroke="rgba(237,237,237,0.24)" stroke-width="1"/>
        <path id="NG-OY" d="M4.5,327.858l2.555-2.227,2.539-.016,3.268-.577,1.2-.633.152-.793,3.132-2.755,1.33-.529L24.23,315.9l2.058-.216.553.152.729.9.36-.088.425.6.745-.12,5.607-2.611,2.411-1.77.905-.208,1.994-1.554,4.638-2.643,5.318-2.339,3.54-2.747.36-.889.016-2.123,1.354-2.971,3.06-1.666,1.634-.072,3.268,1.97.433,1.987,1.354,1.634,2.6,1.939,4.565,1.394,1.922,1.233.881-.1,3.068.865,1.77-.064,2.267-1.442,1.049.625.128,1.041-1.874,2.531-2.531,1.674-.457.472-.28,1.281-1.666,1.242-.825,3.6.649,1.265,1.057,4.237,1.33,1.53,2.4,5.695,1.578,2.107.633,2.219.072,1.682.977,2.755,2.363,3.4,2.771,1.8.024.641.625.529.312,2.219,1.522,3.853.569.753,1.161.056.392.529h0l.425,2.563-.248,1.025-.793,1.073-.2-.3-1.834.609-1.466,1.209-.224-.312-.785,1.113-1.642.929-.521,1.145-1.706.745-2.875-4.453-2.411-1.474-2.251,2.659-.849.457-.1,1.842-.625.793-1.858.6-3.444-1.073-.481.224-.7,7.425-.625,1.41-.921.873.112.7.216.745,2.491,1.866,2.443,3.909.7.392-1.338,6.984-.344,4.237-1.874,7.882h0l-4.718.7-1.209,1.1-2.547.993-2.435-.1-2.163.465-4.878.2-.3-.224.264-.905,3.18-3.212-.328-2.3-.881-2.163.08-1.778-.513-.881-2.387-.977-.328-.569-.264-4.533-.937-1.514-4.966-.176-1.978.48-.905.889-.817.208-1.274-.905-1.4-3.476-2.083-.232-1.3,1.185-.913,3.4-2.227,3.18-1.394.393-3.244-.224-1.874-.905-2.411-1.89L20.609,381.1l-.817-2.435-2.443-1.979-1.7-2.01-.417-2.931.408-.457.328.192,1.394-4.79.128-2.475-.433-1.4-.7-.489h-1.1l-.376.36-.457,1-.753,4.453-.673-.1L11.951,366.3l-.449-1.89-.12-5.19-.328-1.146-.993-1.434-1.522-.745-2.8.168L.962,359.5h0l.857-1.666.585-3.444,1.065-3.324-.24-.9.3-2.163.905-1.81.288-2.315-1.954-2.451-.937-3.2.064-1.618.841-1.5-.352-1.642.384-.561,1-.24,1.1-2.307-.344-.352.585-.777.008-.857Z" transform="translate(-0.473 -59.006)" fill="#58bb8c" stroke="rgba(237,237,237,0.24)" stroke-width="1"/>
        <path id="NG-PL" d="M376.05,223.4l1.225-.392,2.547.064,2.227.7,2.091,3.332.625,3.845-.032,9.916,8.787-1.754.849.168,1.442,1.538.777,2.507.208,4.758-.184.937L394.7,252.6l-.072,1.354.48.681,3.14,1.137.633.569.721.929,1.322,3.26,1.249,1.073,1.21.425,3.845.216,4.381,1.185,8.042-.473,3.516-1.129,2.315-4.173,3.813-1.041.4-1.338-.216-1.394-2.539-3.252.241-1.153,2.427-1.426,6.087,3.164,2.058.408,7.417,3.949,8.866,3.8,4.95,3.236,5.094,2.747h0l1.25,3.156.168,1.722-.408,3.268.609,4.774,1.842,3.092.841,4.822-.441,1.065.24,1.8h.344l.168,4.438-1.426,2.467-9.756,4.694-1.522-.088-7.625,1.682-1.994,1.153-1.65,3.356-3.8,4.582-5.7,3.012-6.151,6.127-1.947.953-3.532.809-3.292.432-3.084-.2h0l-1.169-2.147-2.019-1.658-8.3-3.468-7.818,2.235-6.56.12-2.932-1.041-4.125-2.171-1.153-1.658.24-4.333-.256-.993-1.674-1.946-.513-1.378.256-1.8,1.242-1.089,1.241-2.291,1.169-.841,1.129-.16,1.69-1.586,2.163-3.212.633-2.347-1.61-1.77-.833-.449-2.219,1.081H382.85l-4.261-.448-1.73-.785-1.546-2.731-.5-3.588-1.666-.681-1.938-.088-1.354-1.322h0l1.338-3.156-.1-2.731-.8-1.674-1.37-.969-2.059-2.467-2.611-4.229-.08-.929.841-1.121-.168-3.8,1.41-1.025.321-2.467,1.53-1.241.336-.857-.425-1.682.561-6.255-.144-1.578.272-.881,1.914-1.578-.6-2.819-1.089-2.259.176-2.171,1.706-3.981,1.522-1.121,1.754-.585,1.057-1.25.44-1.145.168-2.323Z" transform="translate(-72.765 -44.57)" fill="#58bb8c" stroke="rgba(237,237,237,0.24)" stroke-width="1"/>
        <path id="NG-RI" d="M268.319,569.8l-1.169,1.113.016.617-.5-.192.176-1.137,1.153-.657Zm-2.515-1.474-1.378-.785-.441.12-.441.12-.168-.552.689-.633-.248-.537.248-.521-.056-.841-.457-.649-.729-.136-.176.128-.569-1.362-.216-.136.112-.368-.689-.689-.216.288-.769.12-.152.657.457.825.4.841.328,1.634-.384-.185-.361.505.857,2.787-.112,1.017.937,3.236-.192.176.617.368,1.65-.344.32-.36.1-.464,1.4.392.024-1.786.537-1.25Zm-3.044-8.218.328.368,1.746.072.152-.729-.328-.248-1.354.24Zm1.017-1.97.288.905.417.152-.232-1.521Zm5.767,7.8-1.153-2.291-.8-.561-1.306-.648-.216-.1-.673.521.521.072,1.049.906.112.168-.184.369.417.745.1,1.538,1.033.961.729.136.537-1.13-.16-.689Zm4.742,4.9-1.666-2.1-1.049,1.305.633.633.649-.192.3.729h.609l.176.5.937-.4.865.865,1.49-1.194-.5-.44Zm-15.947-5.294-.9.424-.224,1.057.913.321,1.153.865.825,1.826-.232-2.691-.288-.12.208-1.194Zm14.521,2.05-1.9-1.3-1.241-1.882-.024-.216-.384-1.362-.384.345-.32-.288.344-.537-.024-1.194-.1-.056-.457,1.482-1.8-.561-.424-.08-.7-.865-.056-1.218-.288-.232-.056-.368-.208-.136-.12-.52.4-.633L264.33,557l-.649.425-.272.713.521,1.233-1.65.617-.328.288-.745.3-.417.04-.8.617-.369.5-.072-1.209-.464.593-.176.409.8,1.322.441,1.962-1.049.361-.425.168-1.105-1.29L257,562.528l-1.161-1.93-1.2-.409.448-1.241-.545-1.778.785-.649.28-.384-.425-.537-1.45-.192-1.45-.889-.224,1.273-.713.457-.264-.617-1.017-.112-.272-.273-.513.152-.617.024-.5-.7-.152-.112-.441.328.152.793-.112.264.369.248L249,557.265l-.1,1.226.785,3.716,2.579,2.652.016.945-1.45,1.169-.08.465,1.458,5.254.441,2.659,1.93,1.987-.232.264-5.8.553-1.794-.6-.072-2.171-.192-2.034.112-.368-.024-.136-.368-2.171-.152-.6,1.554-2.939-.152-2.139-.537.12-.545.08-3.172-2.082-.961-3.508-1.105-1.5-1.594-.016-5.238,2.034-.833-.208-.28-1.554.336-1.17-2.651-1.153-.4-.665.056-3.476,1.522-2.138.609-1.642.024-1.017-1.033.128-.673-.625,1.065-3.556,3.6-6.28,2.219.136.441-.4.6-1.995,1.233-.632-.184-1.45,1.266-.857.761-1.185-.024-1.554-.5-1.233-.609-.465-1.538-.665-2.355.393-.833-.225-.457-.833.168-.352,2.819-1.45.152-4.245.561-1.185,1.642-1.138.713-1.4.657-2.547-.873-2.835.184-.281.889,1.025,1.922.168-2.2,10.477,1.209.353,2.779-.537,1.7.625.352,1.329-.416,3.7-.873,2.211.208,1.1,1.474,1.041,1.378,2.732,1.73,1.322,1.714.328,5.383-.113,3.764.9,3.324-.857,1.706-.024,3.612.905,2.058-.761.44.04.529,1.378.048,2.227-1.922,3.356-2.731,3.468-1.1,2.972-.128.873.481.889,1.161,1.129,1.442.216,2.507-.473.889-.512,2.235-.1,2.627.977,1.45-.336,2.355,1.121,1.882,1.433,1.562,2.8.5,1.842-.769,3.42.464,3.644-.408.257-.032.513.489.937-.977.617-.673-.577-.136-.785-.977-.216-.441-.208-.208.369-1.113.945-.465-.192-.208-.288-.3-.016-.569.313-1.2-1.891-1.017.769-.745-.288-1.282-.4-.521-.825-.537.152-.593-.689-.5.408-.152.633-.713.264.272.865.216.825.192.481.625.48.617-.192.457.064.689-.249-.136,1.4-1.418.136-1.153.424-.593-.961-.08-.264-.841-.937-.12-.753.088-.176ZM290.1,571.05l-.553-.312-.344-.024-.7-.288-.016-.016-.32-.288-.336.368-.256-.1.28-.433-.7-1.193-.721.424-.833-.721-.288-.272-.136-.408-1.113.008-.208.224-.985.7-1.065-.04-.368.032-.344-.185-.5-.5-.425-.248-.072-.649-.993.272-.825.016.016-.337-1-.272-.729-.369-1.073-.072-.384.192-.184.465-.016.632h1.378l.072.065.937.857.184.536.288,1.1.673.249.128-.32.272.224.857.024.048.176-1.474.593-.344.12-.553,1.922,4.381.617,3.348-.737,4.75-.112-.152-.977.417-.929Zm-38.991-14.473.633-.136.737-.632.064-.9,1.033.721,1.281.5-.769.937.344,1.482.216.256-.024.465-.481.753.176.513.809.248,1.009,1.082,1.658,3.492-.745.489-.336.673.12.729,2.523,1.481.481,2.323.7,1.058-.1,1.113.385,1.29,1.186.905-.9,1.113-.769.288-.689-.4-.481.328-5.11-1.113-.649-2.034.425-.5-.481.016-1.089-3.116-.649-1.521.08-1.65,1.306-1.25-.136-1.081-1.45-1.33-1.354-.921L249.465,559l-.232-.465.016-1.458-.617-.865.993-.593.7.5h.537Z" transform="translate(-46.156 -101.765)" fill="#58bb8c" stroke="rgba(237,237,237,0.24)" stroke-width="1"/>
        <path id="NG-SO" d="M160.984.229,171.3,4.778l16.444,5.807,3.2,1.882,3.716-1.193,2.924-.016,6.84,3.3,12.719,12.463,4.79,8.346h0l-2.427,2.083-5.687,3.2-7.617-1.025-1.522-.529-1.362-1.642-1.818-.545-3.981-.152-.473,4.389-.585,1.514-.4.176L193.9,41.687h-2.235l-3.885,1.25-1.69,1.458-.088.561.625,4.117.056,6.76-1.081.8-3.236,1.314-8.026.633-4.878.761-4.67,6.872-1.506,1.5-2.459,1.53.048,2.307,1.145,3.716.521,3.4-.593,2.427-1.97,1.362-4.894.425-1.025-.232-3.845.513-2.115-.248-3.58.264-7.473-1.338-.737.481-.745,3.612.08,14.586-.529,11.037h0l-1.3.777-.753-.056-.617-1.4-1.634.577-1.514-.689-1.354.1-9.612,4.365-1.922,2.4-1.37,1.081-2.227-.232-.609-.408-2.042-2.924.929-3.821,2.09-4.509,1.7-7.841-.633-10.453.112-7.962.809-3.028,1.025-1.185,3.164-.945,2.147-.016,2.539,1.634.817-.032.513-1.25.192-6.424-1.346-4.421-.032-1.634,1.041-4.854.144-2.659-1.442-3.428-1.49-1.722.336-2.964,1.137-2.387-.072-1.922,1.3-3.148-.32-1-.865-.7-.929.248-1.994,2.956-.5.449-1.458.344-2.451-.545-2.363-1.658-7.657-2.5-.849-.881L103.2,35.423l-1.322-1.7-.609-.248-3.708,1.266-1.49-.593-5.3.112h0l.072-13.168,3.316-.016L107.424,9.4l20.12-4.013,1.93,1.714,4.574.384,5.166-.577,3.885.449,4.269-.128,4.205-5.014" transform="translate(-18.348 -0.229)" fill="#58bb8c" stroke="rgba(237,237,237,0.24)" stroke-width="1"/>
        <path id="NG-TA" d="M471.019,274.541l3.676-2.122,4.686.625,8.482-3.885,5.159.873,3.2.024h0l2.859.569,4.726-.481,9.98.016,5.1-.376h0l4.365,8.154,1.169,1.538,3.724.865,1.666,1.033,4.213,7.866-.368,1.738.272,3.076,2.131,2.355,3.316,1.177,1.618,3.076.208,1.45-.8,2.9-4.8,9.163.3,4.63-.352,1.666-4.9,4.181-6.912,9.227-4.069,4.389-3.043,2.579-3.316,3.829-.657,1.266,2.018,5.391L517,355.094l2.171,1.962,2.179-1.594,2.267-3.212,1.314-.3,1.137.344,1.218.9,2,2.523,3.46,3.076,1.722,2.083.833,1.618-.464,4.4.593,1.386.3,2.835,1.554,3.7-.04,1.25.977.7h0l-3.957,4.389L533.4,382.7l-.713,2.339.3,4.742.737,2.659,1.065,1.7-.144,1.033-.785.585-3.236-.28-.544.368-1.65.048-.144,1.313-1.378.6-1.233,1.546-1.53.344-.873,3.372-1.7.521-1.1,2.178.048.4.753-.04.369.352.072,1.418.7.088.152.713-.793.344-.5.921.753,1.217-.064.833-1.538.889-.176,2.579-1.169,1.153-.457,1.53-1.45.625-1.418-.665-.48.432-.993.12-.369.513.369.7-.144,1.386-.352.4-3,.545-.336.176-.16,1.1-1.1-.144-2.427-1.626-1.8.809-.537-.561-2.411-.529-1.137-.977-.465.04-.977,1.129-1.626-.064.192-6.992-1.626-1.73-1.794-.088-1.89,1.714-2.275-.385-1.49-.681-1.145-2.707-.945-1.754-.977-.649-.937-.056-1.049-1.69-.1-.585,1.329-3.837-2.131-1.474-1.193-.16-.481.593-1.353-1.722-.825-.064-1.2-1.29-.617-.056-.288-1.217-1-.5-.32.368-1.177-.288-1.482-1.266.417-1.546-.321-1.674-1.322-1.049-.609,3.813.064,2.315-1.113,4.822-.7.8-1.338.457-.272.7-.512.088-.753-.777-12.567,1.218-2.115-2.467.5-1.4-.681-1.65-.152-.945.056-.649-.713-.256-6.568,5.927-.513.9-1.954,1.378-.9,1.474-3.7,3.708-1.073-.577-1.762-.08-1.281-.176-.641-.489-.721,1.706.24.633-.609.777-.3,1.442.289,1.626-.224.857-.48.3-.817,2.259-1.081,4.3-.4.313-.545-.272-1.057.3-.825-1.057-.352.368h0l1.522-6.56.024-7.016.264-.865-.489-.585,1.69-9.211,2.651-4.934,2.755-2.6,2.475-1.554.737-1.145-.232-4.742,1.906-4.718.472-2.587-.448-1.426.208-.833-.937-1.089.112-.521-6.7-6.063-3.556-4.526-4.117-3.925-5.991-1.418-6.552-.384-5.983.761-4.9,2.107-1.522-.457,3.036-4.782h0l.969-1.113,8.995-5.775.088-.953-.8-2.146.433-.521-.281-2.307-1.626-2.01-1.37-1.089.585-2.291,1.065-1.714,1.025-.689h1.49l1.386.721.8.857,1.217-.184.264.328,3.613.761,2.195-.657,2.066-2.947h0l3.084.2,3.292-.432,3.532-.809,1.947-.953,6.151-6.127,5.695-3.012,3.8-4.582,1.65-3.356,1.994-1.154,7.625-1.682,1.522.088,9.756-4.694,1.426-2.467-.168-4.438h-.344l-.24-1.8.441-1.065-.841-4.822-1.842-3.092-.609-4.774.408-3.268-.168-1.722Z" transform="translate(-79.699 -53.755)" fill="#58bb8c" stroke="rgba(237,237,237,0.24)" stroke-width="1"/>
        <path id="NG-YO" d="M508.047,32.449l9.972.152,7.657.961,8.618,3.348,9.363,2.042,2.187,1.209,4.878,4.141,3.829,2.4,1.265.112.24-.657.8-.224,1.322.521.5-.417-.441-.945,1.194.128,1.362.753,1.33-.336.665.569.5.857.833-.5,2.283.489.593.4.745.1.793-.008h0l-.064,3.372-1.193,6.424.985,3.084,1.161,1.458,3.845,3.076.384,3-1.474,3.372-1.9,2.467-5.655,5.054-.44,1.762,1.378,3.068-.04,4.638-2.034,13.048-.1,2.8,1.353,5.959-3.781,7.321.12,1.554.513.288,3.933-.168,2.507,3,.673,2.667-.793,1.69-3.637,3.548-2.643,4.726-2.315,2.683-.721,2.291.032,2.379.609,3.324-.192,2.355-1.674,2.467-4.894,2.924L543.5,155.6l-2.131,1.538-1.378,2.267-.489,2.219.224,6.72-2.731,3.628-2.435.553h0l-5.431.008-.24-.408-.617-5.166.961-9.491-.537-3.9-2.948-2.707-1.266.817.8-1.233-2.739-2.867-3.8-5.126-6.8-5.014-1.746-1.033-2.387-.809-3.236-.136-3.34,1.209-.729.7h0l-2.435-.3-1.305-1.225.793-5.43.841-2.179.184-3.941-6.688-16.748-.16-3.1-.761-2.171-.264-2.163-.168-5.4-2.531-3.732.152-1.45-.617-5.671-.913-2.347-6.2-4.958h0l-.7-2.323L478.323,65l-1.77-2.723-1.482-.7-1.626.489-4-1.778-4.694,1.49-.9.577-1.169-2.026-.553-3.484-1.706-3.829-1.77-1-5.07,1.57-2.259,1.1-2.531.5-4.261,2.074-1.682,3.2-2.515,1.442-4.806-.585-1.434-.945h0l5.911-6.007,2.6-3.684,3.268-2.811,4.157-4.686,3.188-2.034,7.249-3.252,12.864-.753,10.052-3.765,15.683-.857Z" transform="translate(-86.684 -6.642)" fill="#58bb8c" stroke="rgba(237,237,237,0.24)" stroke-width="1"/>
        <path id="NG-ZA" d="M236.21,49.041l4.365,5.222,4.069-.088,2.675-.489h0l-1.153,8.666.793,4.942L246.9,72.14l.8,4.141.312,3.8,1.049,2.571-.32,2.859,2,4.165.553,2.443-.1,1.346.761,1.978-.873,4.133-1.458,2.908,1.009.969,2.027.929,2.146,1.834.929,1.145.4,1.562-1.514,1.3-2.675-.649-.44,2.563-3.909,3.18-1.025-.7-5.294.1-1.2.673-.521,3.2-1.249,3.316-.36,3.012.128.857,1.53,1.522.721,2.956-1,4.886-.016,1.866h0l-.809-.024-1.874,1.906-2.2,1.418-.681.913-1.37,2.731-.513,2.843-1.209,2.587-2.435,2.483-1.866,1.209-3.773.5-6.36-.457-4.517.761-4.221,3.773-2.291,3.332-1.025.609-1.346.1h0l.056-.673-1.274-3.276-3.044-5.318L195.9,148.9h0l-.168-4.389-1.105-6.071-1.546-2.411-4.309-2.171V132.9l1.642-5.2.008-1.978L189.29,124l-3.484-1.418-3.885-.5-.977.649-1.995.473-3.036-.4-4.381.609-2.923-1.93-2.3-.088-1.354-2.643-.865-.457-2.892.521-1.674-.248-.729-.513-.633.12-.849.5-.657,1.858L151.58,121.7l-3.292-1.8h-1.458l-.689.384h0l.529-11.037-.08-14.586.745-3.612.737-.481,7.473,1.338,3.58-.264,2.115.248,3.844-.513,1.025.232L171,91.187l1.97-1.362.593-2.427-.521-3.4L171.9,80.278l-.048-2.307,2.459-1.53,1.506-1.5,4.67-6.872,4.878-.761,8.026-.633,3.236-1.314,1.081-.8-.056-6.76-.625-4.117.088-.561,1.69-1.458,3.885-1.25h2.235l2.162,1.153.4-.176.585-1.514.473-4.389,3.981.152,1.818.545,1.362,1.642,1.522.529,7.617,1.025,5.687-3.2,2.427-2.082h0Z" transform="translate(-29.369 -8.96)" fill="#58bb8c" stroke="rgba(237,237,237,0.24)" stroke-width="1"/>
      </g>
    </g>
    <g id="Layer_2" transform="translate(570.174 1056.309)">
      <g id="Group_569" data-name="Group 569" transform="translate(675.752 337.752)">
        <path id="Path_652" data-name="Path 652" d="M755.417,1427.037l-4.377,8.519,6.911-3.467,1.132,2.257-10.6,5.316-1.163-2.319,4.2-8.249-6.656,3.34-1.132-2.257,10.6-5.316Z" transform="translate(-734.974 -1284.839)" fill="#fff"/>
        <path id="Path_653" data-name="Path 653" d="M724.377,1323.319l-1.674,1.338,1.591,4.828,2.141.08.9,2.718-12.69-.627-.99-3,9.829-8.05Zm-7.832,6.045,5.424.158-1.158-3.511Z" transform="translate(-708.769 -1194.008)" fill="#fff"/>
        <path id="Path_654" data-name="Path 654" d="M698.52,1266.27l-9.446,1.893.681,3.4-2.178.437-1.857-9.272,2.178-.437.677,3.381,9.446-1.893Z" transform="translate(-684.436 -1143.208)" fill="#fff"/>
        <path id="Path_655" data-name="Path 655" d="M692.675,1210.67l-11.792,1.234-.263-2.51,11.792-1.234Z" transform="translate(-679.993 -1096.05)" fill="#fff"/>
        <path id="Path_656" data-name="Path 656" d="M681.784,1103.162a6.2,6.2,0,1,1,6.233-6.1A5.958,5.958,0,0,1,681.784,1103.162Zm.16-9.793a3.61,3.61,0,1,0,3.833,3.653A3.585,3.585,0,0,0,681.944,1093.369Z" transform="translate(-675.752 -993.782)" fill="#fff"/>
        <path id="Path_657" data-name="Path 657" d="M693.74,979.891l-8.522,4.371,7.637,1.211-.4,2.492-11.709-1.856.406-2.563,8.215-4.258-7.356-1.166.4-2.492,11.709,1.856Z" transform="translate(-680.106 -893.47)" fill="#fff"/>
        <path id="Path_658" data-name="Path 658" d="M723.019,887.061l-2.139.112-1.52,4.851,1.694,1.313-.857,2.731-9.947-7.9.947-3.019,12.679-.813Zm-9.888.346,4.315,3.29,1.105-3.528Z" transform="translate(-705.807 -813.93)" fill="#fff"/>
        <path id="Path_659" data-name="Path 659" d="M749.546,818.612l-10.776-4.943,1.06-2.311,8.756,4.017,2.09-4.556,2.02.926Z" transform="translate(-730.653 -749.888)" fill="#fff"/>
        <path id="Path_660" data-name="Path 660" d="M818.667,674.011l-.824-2.266a5.211,5.211,0,0,0,3.483-2.165c.8-1.151.67-2.047.1-2.443-1.691-1.18-4.415,5.242-8.075,2.689-1.618-1.13-1.982-3.464-.386-5.752a6.59,6.59,0,0,1,4-2.844l.742,2.229a5.1,5.1,0,0,0-3.037,2.085c-.611.875-.577,1.635.006,2.042,1.53,1.068,4.391-5.237,8.02-2.7,1.779,1.24,2.224,3.46.4,6.069A6.847,6.847,0,0,1,818.667,674.011Z" transform="translate(-794.396 -619.566)" fill="#fff"/>
        <path id="Path_661" data-name="Path 661" d="M879.9,589a6.195,6.195,0,1,1,8.716-.361A5.956,5.956,0,0,1,879.9,589Zm6.673-7.168a3.611,3.611,0,1,0,.4,5.281A3.584,3.584,0,0,0,886.568,581.831Z" transform="translate(-851.832 -547.237)" fill="#fff"/>
        <path id="Path_662" data-name="Path 662" d="M966.518,508.888a6.018,6.018,0,0,1,1.13-8.739,5.386,5.386,0,0,1,5.67-.811l-1.032,2.186a3.207,3.207,0,0,0-3.243.379,3.9,3.9,0,0,0,4.851,6.091,3.207,3.207,0,0,0,1.095-3.076l2.349-.531a5.431,5.431,0,0,1-2.049,5.358A6.03,6.03,0,0,1,966.518,508.888Z" transform="translate(-927.852 -478.123)" fill="#fff"/>
        <path id="Path_663" data-name="Path 663" d="M1046.2,471.776l-6.394-9.985,2.125-1.361,6.394,9.983Z" transform="translate(-992.919 -444.629)" fill="#fff"/>
        <path id="Path_664" data-name="Path 664" d="M1118.622,429.052l-1.57-1.458-4.54,2.286.237,2.129-2.555,1.287-1.253-12.643,2.826-1.423,9.413,8.533Zm-7.134-6.855.644,5.388,3.3-1.663Z" transform="translate(-1053.145 -408.736)" fill="#fff"/>
        <path id="Path_665" data-name="Path 665" d="M1190.977,399.684l-3.957-11.176,2.4-.848,3.215,9.082,4.726-1.673.742,2.094Z" transform="translate(-1121.168 -381.232)" fill="#fff"/>
        <path id="Path_666" data-name="Path 666" d="M1330.581,354.051l-.737-4.94-5.537.826.737,4.94-2.5.372-1.748-11.726,2.5-.372.687,4.606,5.537-.826-.687-4.606,2.514-.375,1.748,11.726Z" transform="translate(-1237.717 -341.409)" fill="#fff"/>
        <path id="Path_667" data-name="Path 667" d="M1436.493,343.784a6.2,6.2,0,1,1,6.1,6.233A5.958,5.958,0,0,1,1436.493,343.784Zm9.793.158a3.61,3.61,0,1,0-3.653,3.833A3.585,3.585,0,0,0,1446.286,343.942Z" transform="translate(-1338.508 -337.752)" fill="#fff"/>
        <path id="Path_668" data-name="Path 668" d="M1557.271,349.692l1.11-7.022,2.529.4-1.1,6.953a2.782,2.782,0,1,0,5.495.869l1.1-6.953,2.545.4-1.11,7.022c-.459,2.9-2.495,4.627-6.059,4.062S1556.813,352.589,1557.271,349.692Z" transform="translate(-1443.656 -342.037)" fill="#fff"/>
        <path id="Path_669" data-name="Path 669" d="M1655.7,379.2l1.9-1.483a5.213,5.213,0,0,0,3.132,2.647c1.344.41,2.154.006,2.356-.657.6-1.972-6.347-2.586-5.046-6.854.576-1.887,2.684-2.953,5.354-2.139a6.6,6.6,0,0,1,3.939,2.929l-1.893,1.392a5.1,5.1,0,0,0-2.92-2.248c-1.02-.312-1.734-.045-1.941.635-.545,1.785,6.336,2.563,5.045,6.8-.632,2.074-2.605,3.183-5.649,2.254A6.848,6.848,0,0,1,1655.7,379.2Z" transform="translate(-1529.481 -366.226)" fill="#fff"/>
        <path id="Path_670" data-name="Path 670" d="M1743.47,407.077,1748,396.12l2.333.963-4.526,10.957Z" transform="translate(-1605.946 -388.602)" fill="#fff"/>
        <path id="Path_671" data-name="Path 671" d="M1792.318,431.564l-1.26-9.5-3.7,6.788-2.216-1.208,5.677-10.408,2.279,1.243,1.256,9.168,3.566-6.538,2.216,1.208-5.678,10.408Z" transform="translate(-1642.249 -407.002)" fill="#fff"/>
        <path id="Path_672" data-name="Path 672" d="M1893.373,494.771a6.017,6.017,0,0,1,8.747-1.069,5.536,5.536,0,0,1,2.3,5.062l-2.344-.349a3.407,3.407,0,0,0-1.3-2.928,3.9,3.9,0,0,0-4.7,6.207,3.943,3.943,0,0,0,2.545.791l.859-1.133-2.494-1.888,1.33-1.757,4.507,3.412-2.747,3.627a6.554,6.554,0,0,1-5.352-1.266A6.025,6.025,0,0,1,1893.373,494.771Z" transform="translate(-1735.409 -472.392)" fill="#fff"/>
        <path id="Path_673" data-name="Path 673" d="M1992.25,593.655l8.887-7.845,3.67,4.158a3.817,3.817,0,1,1-5.718,5.047l-2-2.266-3.171,2.8Zm10.621-.107a1.6,1.6,0,0,0,.035-2.378l-1.765-2-2.385,2.106,1.765,2A1.6,1.6,0,0,0,2002.871,593.548Z" transform="translate(-1822.683 -553.86)" fill="#fff"/>
        <path id="Path_674" data-name="Path 674" d="M2056.227,678.116l2.2-4.283-1.03-1.534-3.5,2.349-1.408-2.1,9.841-6.613,3.092,4.6a3.707,3.707,0,0,1-.941,5.451,3.429,3.429,0,0,1-4.378-.206l-2.25,4.746Zm6.821-4.284a1.6,1.6,0,0,0,.333-2.343l-1.486-2.213-2.656,1.784,1.487,2.213A1.606,1.606,0,0,0,2063.048,673.832Z" transform="translate(-1875.164 -623.669)" fill="#fff"/>
        <path id="Path_675" data-name="Path 675" d="M2120.181,768.562a6.195,6.195,0,1,1-2.854,8.243A5.956,5.956,0,0,1,2120.181,768.562Zm4.227,8.834a3.611,3.611,0,1,0-5.061-1.56A3.585,3.585,0,0,0,2124.409,777.4Z" transform="translate(-1931.061 -712.501)" fill="#fff"/>
        <path id="Path_676" data-name="Path 676" d="M2164.069,878.912a6.017,6.017,0,0,1,7.7,4.288,5.532,5.532,0,0,1-1.125,5.445l-1.69-1.663a3.408,3.408,0,0,0,.67-3.135,3.9,3.9,0,0,0-7.454,2.247,3.942,3.942,0,0,0,1.592,2.138l1.361-.411-.9-2.995,2.11-.636,1.632,5.412-4.356,1.314a6.559,6.559,0,0,1-3.58-4.174A6.027,6.027,0,0,1,2164.069,878.912Z" transform="translate(-1968.579 -808.955)" fill="#fff"/>
        <path id="Path_677" data-name="Path 677" d="M2180.259,994.7l3.814-2.935-.278-1.828-4.164.634-.38-2.495,11.721-1.784.835,5.483a3.706,3.706,0,0,1-3.176,4.529,3.43,3.43,0,0,1-3.873-2.053l-4.06,3.333Zm8-.966a1.6,1.6,0,0,0,1.3-1.977l-.4-2.635-3.163.482.4,2.635A1.607,1.607,0,0,0,2188.256,993.732Z" transform="translate(-1985.597 -902.757)" fill="#fff"/>
        <path id="Path_678" data-name="Path 678" d="M2192,1094.207l2-.779-.083-5.083-2.021-.714-.046-2.862,11.928,4.375.052,3.163-11.78,4.76Zm9.277-3.44-5.13-1.766.061,3.7Z" transform="translate(-1996.574 -988.553)" fill="#fff"/>
        <path id="Path_679" data-name="Path 679" d="M2178.868,1205.126l8.464,1.207-7.992-4.514.156-1.091,8.935-2.1-8.464-1.207.355-2.5,11.737,1.673-.5,3.5-7.743,1.8,6.931,3.9-.5,3.519-11.737-1.673Z" transform="translate(-1984.952 -1084.515)" fill="#fff"/>
        <path id="Path_680" data-name="Path 680" d="M2142.851,1326.809l8.126,2.658-7.086-5.835.343-1.047,9.165-.518-8.125-2.658.784-2.4,11.269,3.686-1.1,3.362-7.941.433,6.149,5.041-1.1,3.378-11.269-3.686Z" transform="translate(-1953.197 -1190.88)" fill="#fff"/>
        <path id="Path_681" data-name="Path 681" d="M2106.013,1433.93l10.6,5.317-3.762,7.5-1.986-1,2.63-5.243-2.225-1.115-2.575,5.131-1.986-1,2.574-5.131-2.415-1.212-2.63,5.243-1.986-1Z" transform="translate(-1918.515 -1292.74)" fill="#fff"/>
      </g>
      <g id="Group_577" data-name="Group 577" transform="translate(696.318 357.846)">
        <g id="Group_576" data-name="Group 576" transform="translate(0 0)">
          <path id="Path_682" data-name="Path 682" d="M931.221,620.449s28.045,11.865,55.62,3.811a83.12,83.12,0,1,0-137.036-.63C861.059,617.406,890.168,605.637,931.221,620.449Z" transform="translate(-835.42 -493.76)" fill="#cfefef"/>
          <g id="Group_570" data-name="Group 570" transform="translate(41.924 32.014)">
            <path id="Path_683" data-name="Path 683" d="M1168.481,742.31a7.571,7.571,0,1,1-7.571,7.571,7.571,7.571,0,0,1,7.571-7.571" transform="translate(-1160.91 -742.31)" fill="#ff0"/>
          </g>
          <g id="Group_575" data-name="Group 575">
            <g id="Group_571" data-name="Group 571" clip-path="url(#clip-path)">
              <path id="Path_684" data-name="Path 684" d="M939.925,1244.184c-1.088-1.962-8.787-1.533-18.6-.08a.229.229,0,0,1-.146-.027c-2.519-1.39-3.966-.347-5.041.8a.224.224,0,0,1-.129.07c-3.454.586-7.054,1.258-10.638,1.967a.23.23,0,0,1-.213-.067c-.068-.071-.137-.144-.206-.219-5.76-6.224-10.633-3.509-12.185-3.107s-5.742,6.1-8.793,0-19.381,1.255-20.617,1.793-5.582-4.846-10.249-5.922-8.255,3.051-11.485-.359c-3.029-3.2-16.212,3.339-17.9,4.191-.1.05-.565.373-.535.48h0c.033.117.116-.041,0,0-2.924,1.046-6.678,1.634-9.381-1.366-5.22-5.8-23.256-.343-24.318-.016a.223.223,0,0,0-.086.05c-1.095,1-25.316,23.419,9.163,16.7a189.972,189.972,0,0,1,32.717-3.389h.021l15.089,1.32c-4.439,2.93,15.809,1.967,17.2,2.855,7.7,4.923,78.351,10.832,83.561-2.059C952.055,1245.687,943.212,1250.111,939.925,1244.184Z" transform="translate(-787.246 -1142.282)" fill="#009245" opacity="0.57"/>
            </g>
            <g id="Group_572" data-name="Group 572" clip-path="url(#clip-path)">
              <path id="Path_686" data-name="Path 686" d="M1453.874,1175.136v25.791s-16.3,2.8-30.923-3.12a75.73,75.73,0,0,0-27.221-5.638l2.366-17.035,17.227-2.835Z" transform="translate(-1323.561 -1084.903)" fill="#fff"/>
              <path id="Path_687" data-name="Path 687" d="M1410.278,1063.58l-14.548,14.349v19.526c1.69.113,5.276.376,7.872.729v-17.266h11.39v19.873q3.683.954,7.387,2.285l.045.017.045.019c.037.015,1.481.613,3.912,1.347l.238-25.832Z" transform="translate(-1323.561 -990.186)" fill="#fdd179"/>
              <path id="Path_688" data-name="Path 688" d="M1635.281,1190.722a15.838,15.838,0,0,1-.76-4.871c0-8.1,6.024-14.673,13.456-14.673,6,0,11.077,4.279,12.815,10.189V1161.95H1633.24v28.189c.617.188,1.3.384,2.042.582" transform="translate(-1530.479 -1075.886)" fill="#fcb320"/>
              <path id="Path_689" data-name="Path 689" d="M1337.71,1059.058h7.473l14.578-13.774-3.518-3.364Z" transform="translate(-1273.014 -971.316)" fill="#555557"/>
              <path id="Path_690" data-name="Path 690" d="M1481.6,1041.92l19.3,19.629h36.828L1514.4,1041.92Z" transform="translate(-1398.371 -971.316)" fill="#333"/>
              <path id="Path_691" data-name="Path 691" d="M1681.507,1282.82a3.106,3.106,0,1,1-3.107,3.107,3.106,3.106,0,0,1,3.107-3.107" transform="translate(-1569.823 -1181.188)" fill="#009245"/>
              <path id="Path_692" data-name="Path 692" d="M1766.929,1284.2a3.106,3.106,0,0,0-5.158,0,4.275,4.275,0,0,0-1.211,3.126h1.014a3.106,3.106,0,0,0,5.551,0h.908a3.62,3.62,0,0,0-1.1-3.123" transform="translate(-1641.401 -1181.188)" fill="#009245"/>
              <path id="Path_693" data-name="Path 693" d="M1729.445,1326.23a2.485,2.485,0,1,1-2.485,2.484,2.484,2.484,0,0,1,2.485-2.484" transform="translate(-1612.128 -1219.006)" fill="#009245"/>
              <path id="Path_694" data-name="Path 694" d="M1669.573,1337.566v-2.333a4.339,4.339,0,0,1,1.1-2.888l.312-.35a3.735,3.735,0,0,1,.014-2.267,4.341,4.341,0,0,1-5.408-1.009,4.341,4.341,0,0,0-1.65,3.407v4.365c1.682.4,3.578.775,5.633,1.074" transform="translate(-1557.225 -1221.176)" fill="#009245"/>
              <path id="Path_695" data-name="Path 695" d="M1724.392,1368.287c.125,0,.25,0,.373,0v-2.951a3.087,3.087,0,0,0-.786-2.062,3.723,3.723,0,0,1-5.884,0,3.094,3.094,0,0,0-.786,2.062v2.5a56.892,56.892,0,0,0,7.082.455" transform="translate(-1603.721 -1251.275)" fill="#009245"/>
              <path id="Path_696" data-name="Path 696" d="M1773.784,1332l.312.35a4.338,4.338,0,0,1,1.1,2.888v2.928a48.033,48.033,0,0,0,5.633-.5v-5.531a4.339,4.339,0,0,0-1.65-3.407,4.344,4.344,0,0,1-5.408,1.009,3.727,3.727,0,0,1,.014,2.266" transform="translate(-1652.909 -1221.185)" fill="#009245"/>
            </g>
            <g id="Group_573" data-name="Group 573" clip-path="url(#clip-path)">
              <path id="Path_698" data-name="Path 698" d="M857.67,1362.03s17.159-7.36,58.637-.564,86.725,10.227,98.021,1.638,0,32.354,0,32.354l-144.1-11.058Z" transform="translate(-854.804 -1247.194)" fill="#009245"/>
            </g>
            <g id="Group_574" data-name="Group 574" clip-path="url(#clip-path)">
              <path id="Path_700" data-name="Path 700" d="M907.56,1422.2s10.964-4.333,28.195-5.229,105.092,14.835,122.275,5.924-20.321,18.433-20.321,18.433H924.3l-15.988-18.433" transform="translate(-898.268 -1298.026)" fill="#043d1e"/>
            </g>
          </g>
        </g>
      </g>
      <g id="Group_579" data-name="Group 579" transform="translate(711.046 504.714)">
        <g id="Group_578" data-name="Group 578" transform="translate(0 0)">
          <path id="Path_702" data-name="Path 702" d="M973.883,1673.046l-16.67-22.8v22.8H949.77V1638.08h7.653l16.2,21.964V1638.08h7.443v34.966Z" transform="translate(-949.77 -1637.557)" fill="#fff"/>
          <path id="Path_703" data-name="Path 703" d="M1227.74,1664.582l4.089-5.819a15.365,15.365,0,0,0,11.113,4.771c4.141,0,6.081-1.836,6.081-3.88,0-6.081-20.13-1.835-20.13-14.992,0-5.819,5.032-10.642,13.263-10.642,5.556,0,10.17,1.677,13.63,4.875l-4.141,5.557a15.019,15.019,0,0,0-10.17-3.827c-3.145,0-4.928,1.363-4.928,3.459,0,5.5,20.078,1.783,20.078,14.836,0,6.4-4.614,11.219-14,11.219C1235.865,1670.139,1231.042,1667.885,1227.74,1664.582Z" transform="translate(-1191.937 -1634.02)" fill="#fff"/>
          <path id="Path_704" data-name="Path 704" d="M1514.616,1673.046v-14.731H1498.1v14.731h-7.443V1638.08h7.443v13.734h16.512V1638.08h7.5v34.966Z" transform="translate(-1420.992 -1637.557)" fill="#fff"/>
          <path id="Path_705" data-name="Path 705" d="M1788.17,1673.046V1638.08h16.355c7.6,0,11.743,5.138,11.743,11.27,0,6.081-4.194,11.219-11.743,11.219h-8.912v12.477Zm20.5-23.694c0-2.935-2.254-4.718-5.189-4.718h-7.863v9.383h7.863C1806.412,1654.017,1808.666,1652.235,1808.666,1649.351Z" transform="translate(-1680.183 -1637.557)" fill="#fff"/>
        </g>
      </g>
      <g id="Group_580" data-name="Group 580" transform="translate(710.288 551.398)">
        <path id="Path_706" data-name="Path 706" d="M943.88,2007.02l2.083-9.45h4.307a2.282,2.282,0,0,1,2.508,2.225,2.539,2.539,0,0,1-2.168,2.493,1.957,1.957,0,0,1,1.36,1.913c0,1.36-.949,2.819-3.259,2.819Zm6.418-2.961a1.122,1.122,0,0,0-1.233-1.134h-2.621l-.581,2.635h2.749A1.536,1.536,0,0,0,950.3,2004.059Zm.694-4a1.082,1.082,0,0,0-1.162-1.034h-2.522l-.538,2.437h2.706A1.338,1.338,0,0,0,950.992,2000.064Z" transform="translate(-943.88 -1997.428)" fill="#fff"/>
        <path id="Path_707" data-name="Path 707" d="M1017.03,2020.613a4,4,0,0,1,3.91-4.123,2.859,2.859,0,0,1,3.032,3.018,4.948,4.948,0,0,1-.142,1.063h-5.285a1.075,1.075,0,0,0-.014.227c0,.793.68,1.658,2.068,1.658a3.023,3.023,0,0,0,1.828-.581l.482,1.048a4.413,4.413,0,0,1-2.423.751C1018.376,2023.673,1017.03,2022.483,1017.03,2020.613Zm5.6-1.105c0-.042.014-.142.014-.184a1.6,1.6,0,0,0-1.8-1.615,2.221,2.221,0,0,0-2.139,1.8h3.925Z" transform="translate(-1007.608 -2013.911)" fill="#fff"/>
        <path id="Path_708" data-name="Path 708" d="M1079.517,2010.785a3.384,3.384,0,0,1,.042-.439l.864-3.9h-1.134l.3-1.289h1.133l.411-1.87h1.488l-.411,1.87h1.388l-.3,1.289h-1.389l-.779,3.528a1.566,1.566,0,0,0-.028.255c0,.383.227.624.68.624a1.076,1.076,0,0,0,.567-.184l.085,1.19a1.829,1.829,0,0,1-1.077.312C1080.253,2012.174,1079.517,2011.734,1079.517,2010.785Z" transform="translate(-1061.849 -2002.412)" fill="#fff"/>
        <path id="Path_709" data-name="Path 709" d="M1119.146,2017.638l.213-.978h1.488l-1.516,6.843h-1.488l.213-.907a2.724,2.724,0,0,1-2.154,1.077,2.546,2.546,0,0,1-2.621-2.834c0-2.125,1.332-4.35,3.6-4.35A2.618,2.618,0,0,1,1119.146,2017.638Zm-4.307,2.9a1.665,1.665,0,0,0,1.686,1.813,2.341,2.341,0,0,0,1.8-.978l.581-2.649a2.051,2.051,0,0,0-1.8-.921A2.527,2.527,0,0,0,1114.839,2020.542Z" transform="translate(-1091.461 -2013.911)" fill="#fff"/>
        <path id="Path_710" data-name="Path 710" d="M1210.484,2007.02l.907-4.137h-4.917l-.907,4.137h-1.658l2.083-9.45h1.658l-.85,3.854h4.916l.85-3.854h1.659l-2.083,9.45Z" transform="translate(-1170.418 -1997.428)" fill="#fff"/>
        <path id="Path_711" data-name="Path 711" d="M1285.2,2020.585a4,4,0,0,1,3.9-4.095,2.965,2.965,0,0,1,3.273,3.074,4.013,4.013,0,0,1-3.9,4.109A2.975,2.975,0,0,1,1285.2,2020.585Zm5.625-.949a1.671,1.671,0,0,0-1.785-1.828,2.544,2.544,0,0,0-2.3,2.72,1.671,1.671,0,0,0,1.785,1.828A2.553,2.553,0,0,0,1290.825,2019.635Z" transform="translate(-1241.237 -2013.911)" fill="#fff"/>
        <path id="Path_712" data-name="Path 712" d="M1351.937,2017.81l-.949,4.279a2.367,2.367,0,0,0-.071.439c0,.694.552.978,1.275.978a2.771,2.771,0,0,0,1.828-.935l1.048-4.761h1.488l-1.516,6.843h-1.488l.212-.935a3.453,3.453,0,0,1-2.338,1.105c-1.275,0-2.1-.652-2.1-1.729a4.124,4.124,0,0,1,.071-.567l1.048-4.718Z" transform="translate(-1297.107 -2015.062)" fill="#fff"/>
        <path id="Path_713" data-name="Path 713" d="M1406.64,2022.441l.878-1.02a3.226,3.226,0,0,0,2.338,1.063c.779,0,1.247-.425,1.247-.921,0-1.077-3.542-.864-3.542-2.848,0-1.176.978-2.224,2.72-2.224a3.856,3.856,0,0,1,2.791,1.1l-.808.992a2.621,2.621,0,0,0-2.026-.921c-.751,0-1.19.354-1.19.808,0,1.006,3.528.822,3.528,2.862,0,1.261-1.034,2.338-2.848,2.338A4.074,4.074,0,0,1,1406.64,2022.441Z" transform="translate(-1347.036 -2013.911)" fill="#fff"/>
        <path id="Path_714" data-name="Path 714" d="M1462.63,2020.613a4,4,0,0,1,3.91-4.123,2.859,2.859,0,0,1,3.032,3.018,4.956,4.956,0,0,1-.142,1.063h-5.285a1.084,1.084,0,0,0-.014.227c0,.793.68,1.658,2.068,1.658a3.023,3.023,0,0,0,1.828-.581l.482,1.048a4.414,4.414,0,0,1-2.423.751C1463.976,2023.673,1462.63,2022.483,1462.63,2020.613Zm5.6-1.105c0-.042.014-.142.014-.184a1.6,1.6,0,0,0-1.8-1.615,2.221,2.221,0,0,0-2.139,1.8h3.925Z" transform="translate(-1395.814 -2013.911)" fill="#fff"/>
        <path id="Path_715" data-name="Path 715" d="M1518.293,2060.377l-.553-.581a2.749,2.749,0,0,0,1.3-1.19h-.127a.756.756,0,0,1-.765-.808,1.1,1.1,0,0,1,1.091-1.049.93.93,0,0,1,.949,1.006A3.29,3.29,0,0,1,1518.293,2060.377Z" transform="translate(-1443.826 -2048.986)" fill="#fff"/>
        <path id="Path_716" data-name="Path 716" d="M1576.92,2007.02l2.083-9.45h4.307a2.282,2.282,0,0,1,2.508,2.225,2.539,2.539,0,0,1-2.168,2.493,1.957,1.957,0,0,1,1.36,1.913c0,1.36-.949,2.819-3.259,2.819Zm6.418-2.961a1.122,1.122,0,0,0-1.233-1.134h-2.621l-.581,2.635h2.749A1.536,1.536,0,0,0,1583.338,2004.059Zm.694-4a1.082,1.082,0,0,0-1.162-1.034h-2.522l-.538,2.437h2.706A1.338,1.338,0,0,0,1584.032,2000.064Z" transform="translate(-1495.383 -1997.428)" fill="#fff"/>
        <path id="Path_717" data-name="Path 717" d="M1650.07,2020.613a4,4,0,0,1,3.911-4.123,2.859,2.859,0,0,1,3.032,3.018,4.956,4.956,0,0,1-.142,1.063h-5.285a1.075,1.075,0,0,0-.014.227c0,.793.68,1.658,2.069,1.658a3.023,3.023,0,0,0,1.828-.581l.482,1.048a4.413,4.413,0,0,1-2.423.751C1651.416,2023.673,1650.07,2022.483,1650.07,2020.613Zm5.6-1.105c0-.042.014-.142.014-.184a1.6,1.6,0,0,0-1.8-1.615,2.221,2.221,0,0,0-2.139,1.8h3.925Z" transform="translate(-1559.111 -2013.911)" fill="#fff"/>
        <path id="Path_718" data-name="Path 718" d="M1712.557,2010.785a3.362,3.362,0,0,1,.042-.439l.864-3.9h-1.134l.3-1.289h1.134l.411-1.87h1.488l-.411,1.87h1.388l-.3,1.289h-1.388l-.779,3.528a1.566,1.566,0,0,0-.028.255c0,.383.227.624.68.624a1.076,1.076,0,0,0,.567-.184l.085,1.19a1.829,1.829,0,0,1-1.077.312C1713.293,2012.174,1712.557,2011.734,1712.557,2010.785Z" transform="translate(-1613.352 -2002.412)" fill="#fff"/>
        <path id="Path_719" data-name="Path 719" d="M1752.186,2017.638l.212-.978h1.488l-1.516,6.843h-1.488l.213-.907a2.724,2.724,0,0,1-2.154,1.077,2.546,2.546,0,0,1-2.621-2.834c0-2.125,1.332-4.35,3.6-4.35A2.62,2.62,0,0,1,1752.186,2017.638Zm-4.307,2.9a1.666,1.666,0,0,0,1.686,1.813,2.342,2.342,0,0,0,1.8-.978l.581-2.649a2.051,2.051,0,0,0-1.8-.921A2.527,2.527,0,0,0,1747.879,2020.542Z" transform="translate(-1642.964 -2013.911)" fill="#fff"/>
        <path id="Path_720" data-name="Path 720" d="M1836.07,2007.02l2.083-9.45h1.657l-1.757,7.991h4.165l-.326,1.459Z" transform="translate(-1721.154 -1997.428)" fill="#fff"/>
        <path id="Path_721" data-name="Path 721" d="M1892.28,2006.541l1.516-6.843h1.488l-1.516,6.843Zm1.7-8.472a1.061,1.061,0,0,1,1.048-1.048.8.8,0,0,1,.836.793,1.062,1.062,0,0,1-1.049,1.049A.811.811,0,0,1,1893.98,1998.068Z" transform="translate(-1770.124 -1996.949)" fill="#fff"/>
        <path id="Path_722" data-name="Path 722" d="M1921.65,2006.062l1.219-5.554h-1.134l.3-1.289h1.119l.085-.4c.312-1.29.963-2.352,2.437-2.352a2.331,2.331,0,0,1,1.729.637l-.765.893a1.033,1.033,0,0,0-.808-.312c-.623,0-.935.382-1.1,1.147l-.085.383h1.4l-.3,1.289h-1.388l-1.219,5.554Z" transform="translate(-1795.711 -1996.47)" fill="#fff"/>
        <path id="Path_723" data-name="Path 723" d="M1954.87,2020.613a4,4,0,0,1,3.91-4.123,2.859,2.859,0,0,1,3.032,3.018,4.939,4.939,0,0,1-.142,1.063h-5.285a1.093,1.093,0,0,0-.014.227c0,.793.68,1.658,2.069,1.658a3.022,3.022,0,0,0,1.827-.581l.482,1.048a4.414,4.414,0,0,1-2.423.751C1956.216,2023.673,1954.87,2022.483,1954.87,2020.613Zm5.6-1.105c0-.042.014-.142.014-.184a1.6,1.6,0,0,0-1.8-1.615,2.221,2.221,0,0,0-2.139,1.8h3.925Z" transform="translate(-1824.653 -2013.911)" fill="#fff"/>
      </g>
    </g>
  </g>
</svg>
