<svg xmlns="http://www.w3.org/2000/svg" xmlns:xlink="http://www.w3.org/1999/xlink" width="97" height="95" viewBox="0 0 97 95"><defs><clipPath id="a"><path d="M872.164,542.351s10.756,4.551,21.333,1.462a31.88,31.88,0,1,0-52.559-.242C845.254,541.183,856.418,536.67,872.164,542.351Z" transform="translate(-835.42 -493.76)"/></clipPath></defs><g transform="translate(-454.82 -57.616)"><g transform="translate(465.68 57.616)"><path d="M748.213,1425.695l-1.679,3.267,2.651-1.33.434.865-4.065,2.039-.446-.89,1.609-3.164-2.553,1.281-.434-.865,4.065-2.039Z" transform="translate(-740.372 -1371.156)" fill="#fff"/><path d="M717.764,1321.643l-.642.513.61,1.851.821.031.344,1.042-4.867-.24-.38-1.153,3.77-3.088Zm-3,2.318,2.08.061-.444-1.347Z" transform="translate(-711.778 -1272.046)" fill="#fff"/><path d="M690.629,1263.816l-3.623.726.261,1.3-.835.167-.712-3.557.835-.167.26,1.3,3.623-.726Z" transform="translate(-685.228 -1216.617)" fill="#fff"/><path d="M685.243,1209.123l-4.523.473-.1-.963,4.523-.473Z" transform="translate(-680.38 -1165.161)" fill="#fff"/><path d="M678.066,1095.524a2.376,2.376,0,1,1,2.391-2.341A2.285,2.285,0,0,1,678.066,1095.524Zm.061-3.756a1.385,1.385,0,1,0,1.47,1.4A1.375,1.375,0,0,0,678.127,1091.768Z" transform="translate(-675.752 -1053.573)" fill="#fff"/><path d="M685.732,977.264l-3.268,1.677,2.929.464-.152.956-4.491-.712.156-.983,3.151-1.633-2.821-.447.152-.956,4.491.712Z" transform="translate(-680.503 -944.118)" fill="#fff"/><path d="M715.147,885.377l-.82.043-.583,1.86.65.5-.329,1.047L710.25,885.8l.363-1.158,4.863-.312Zm-3.792.133,1.655,1.262.424-1.353Z" transform="translate(-708.546 -857.328)" fill="#fff"/><path d="M742.9,813.809l-4.133-1.9.406-.886,3.358,1.541.8-1.747.775.355Z" transform="translate(-735.657 -787.45)" fill="#fff"/><path d="M814.518,666.132l-.316-.869a2,2,0,0,0,1.336-.83c.308-.442.257-.785.039-.937-.649-.453-1.693,2.011-3.1,1.031a1.517,1.517,0,0,1-.148-2.206,2.528,2.528,0,0,1,1.534-1.091l.285.855a1.954,1.954,0,0,0-1.165.8c-.234.335-.221.627,0,.783.587.41,1.684-2.009,3.076-1.037.682.476.853,1.327.155,2.328A2.626,2.626,0,0,1,814.518,666.132Z" transform="translate(-805.209 -645.25)" fill="#fff"/><path d="M878.643,582.347a2.376,2.376,0,1,1,3.343-.138A2.285,2.285,0,0,1,878.643,582.347Zm2.56-2.749a1.385,1.385,0,1,0,.155,2.025A1.374,1.374,0,0,0,881.2,579.6Z" transform="translate(-867.88 -566.329)" fill="#fff"/><path d="M965.658,502.716a2.308,2.308,0,0,1,.433-3.352,2.066,2.066,0,0,1,2.175-.311l-.4.838a1.23,1.23,0,0,0-1.244.145,1.495,1.495,0,0,0,1.86,2.336,1.23,1.23,0,0,0,.42-1.18l.9-.2a2.083,2.083,0,0,1-.786,2.055A2.313,2.313,0,0,1,965.658,502.716Z" transform="translate(-950.828 -490.916)" fill="#fff"/><path d="M1042.262,464.782l-2.452-3.829.815-.522,2.452,3.829Z" transform="translate(-1021.825 -454.37)" fill="#fff"/><path d="M1112.653,423l-.6-.559-1.741.877.091.817-.98.494-.481-4.849,1.084-.546,3.61,3.273Zm-2.736-2.629.247,2.066,1.266-.638Z" transform="translate(-1087.54 -415.205)" fill="#fff"/><path d="M1188.538,392.272l-1.518-4.286.919-.325,1.233,3.483,1.813-.642.285.8Z" transform="translate(-1161.763 -385.194)" fill="#fff"/><path d="M1324.552,346.591l-.283-1.895-2.124.317.283,1.894-.957.143-.67-4.5.957-.143.263,1.767,2.124-.317-.263-1.767.964-.144.67,4.5Z" transform="translate(-1288.934 -341.743)" fill="#fff"/><path d="M1436.493,340.066a2.376,2.376,0,1,1,2.341,2.391A2.285,2.285,0,0,1,1436.493,340.066Zm3.756.061a1.385,1.385,0,1,0-1.4,1.47A1.375,1.375,0,0,0,1440.249,340.126Z" transform="translate(-1398.911 -337.752)" fill="#fff"/><path d="M1557.219,345.363l.426-2.693.97.153-.422,2.667a1.067,1.067,0,1,0,2.108.333l.422-2.667.976.155-.426,2.693a2.058,2.058,0,0,1-4.053-.641Z" transform="translate(-1513.643 -342.427)" fill="#fff"/><path d="M1655.7,373.8l.729-.569a2,2,0,0,0,1.2,1.015c.515.157.826,0,.9-.252.231-.756-2.434-.992-1.936-2.629a1.517,1.517,0,0,1,2.054-.821,2.531,2.531,0,0,1,1.511,1.123l-.726.534a1.956,1.956,0,0,0-1.12-.862c-.391-.12-.665-.017-.745.244-.209.685,2.43.983,1.935,2.607-.243.8-1,1.221-2.167.864A2.627,2.627,0,0,1,1655.7,373.8Z" transform="translate(-1607.289 -368.821)" fill="#fff"/><path d="M1743.47,400.323l1.736-4.2.895.37-1.736,4.2Z" transform="translate(-1690.724 -393.237)" fill="#fff"/><path d="M1787.893,422.734l-.483-3.642-1.42,2.6-.85-.463,2.178-3.992.874.477.482,3.516,1.368-2.508.85.463-2.178,3.992Z" transform="translate(-1730.335 -413.313)" fill="#fff"/><path d="M1892.572,493.246a2.308,2.308,0,0,1,3.355-.41,2.123,2.123,0,0,1,.881,1.941l-.9-.134a1.307,1.307,0,0,0-.5-1.123,1.494,1.494,0,0,0-1.8,2.381,1.513,1.513,0,0,0,.976.3l.33-.435-.956-.724.51-.674,1.729,1.309-1.054,1.391a2.514,2.514,0,0,1-2.053-.486A2.311,2.311,0,0,1,1892.572,493.246Z" transform="translate(-1831.985 -484.663)" fill="#fff"/><path d="M1992.25,588.819l3.409-3.009,1.407,1.595a1.464,1.464,0,1,1-2.193,1.936l-.767-.869-1.216,1.074Zm4.073-.041a.616.616,0,0,0,.013-.912l-.677-.767-.915.808.677.767A.614.614,0,0,0,1996.323,588.778Z" transform="translate(-1927.214 -573.556)" fill="#fff"/><path d="M2053.923,670.61l.843-1.643-.4-.588-1.341.9-.54-.8,3.774-2.536,1.186,1.766a1.422,1.422,0,0,1-.361,2.091,1.315,1.315,0,0,1-1.679-.079l-.863,1.82Zm2.616-1.643a.614.614,0,0,0,.127-.9l-.57-.849-1.019.684.57.849A.616.616,0,0,0,2056.54,668.967Z" transform="translate(-1984.478 -649.727)" fill="#fff"/><path d="M2118,768.157a2.376,2.376,0,1,1-1.095,3.162A2.285,2.285,0,0,1,2118,768.157Zm1.622,3.388a1.385,1.385,0,1,0-1.941-.6A1.375,1.375,0,0,0,2119.626,771.546Z" transform="translate(-2045.469 -746.656)" fill="#fff"/><path d="M2161.386,878.732a2.308,2.308,0,0,1,2.953,1.645,2.122,2.122,0,0,1-.431,2.088l-.648-.638a1.308,1.308,0,0,0,.257-1.2,1.494,1.494,0,0,0-2.859.862,1.512,1.512,0,0,0,.611.82l.522-.158-.346-1.149.809-.244.626,2.076-1.671.5a2.516,2.516,0,0,1-1.373-1.6A2.311,2.311,0,0,1,2161.386,878.732Z" transform="translate(-2086.407 -851.9)" fill="#fff"/><path d="M2179.637,989.515l1.463-1.126-.106-.7-1.6.243-.146-.957,4.5-.684.32,2.1a1.421,1.421,0,0,1-1.218,1.737,1.316,1.316,0,0,1-1.486-.787l-1.557,1.279Zm3.067-.371a.614.614,0,0,0,.5-.758l-.154-1.011-1.213.185.154,1.011A.616.616,0,0,0,2182.7,989.144Z" transform="translate(-2104.976 -954.251)" fill="#fff"/><path d="M2191.909,1088.39l.766-.3-.032-1.949-.775-.274-.018-1.1,4.575,1.678.02,1.214-4.518,1.826Zm3.558-1.32-1.968-.677.023,1.418Z" transform="translate(-2116.953 -1047.867)" fill="#fff"/><path d="M2178.647,1198.835l3.246.463-3.065-1.731.06-.418,3.427-.806-3.246-.463.136-.958,4.5.642-.191,1.343-2.97.692,2.658,1.494-.192,1.35-4.5-.642Z" transform="translate(-2104.272 -1152.575)" fill="#fff"/><path d="M2142.363,1320.768l3.116,1.02-2.718-2.238.131-.4,3.516-.2-3.117-1.02.3-.92,4.322,1.414-.422,1.289-3.046.166,2.359,1.934-.424,1.3-4.322-1.414Z" transform="translate(-2069.623 -1268.634)" fill="#fff"/><path d="M2103.693,1433.93l4.065,2.039-1.443,2.876-.762-.382,1.009-2.011-.853-.428-.988,1.968-.762-.382.987-1.968-.926-.465-1.009,2.011-.762-.382Z" transform="translate(-2031.78 -1379.778)" fill="#fff"/><g transform="translate(7.888 7.707)"><g transform="translate(0 0)"><path d="M872.164,542.351s10.756,4.551,21.333,1.462a31.88,31.88,0,1,0-52.559-.242C845.254,541.183,856.418,536.67,872.164,542.351Z" transform="translate(-835.42 -493.76)" fill="#cfefef"/><g transform="translate(16.08 12.279)"><path d="M1163.814,742.31a2.9,2.9,0,1,1-2.9,2.9,2.9,2.9,0,0,1,2.9-2.9" transform="translate(-1160.91 -742.31)" fill="#ff0"/></g><g clip-path="url(#a)"><path d="M841.414,1240.472c-.417-.752-3.37-.588-7.134-.031a.086.086,0,0,1-.056-.01,1.394,1.394,0,0,0-1.934.309.086.086,0,0,1-.049.027c-1.325.225-2.706.483-4.08.754a.088.088,0,0,1-.081-.026l-.079-.084c-2.209-2.387-4.078-1.346-4.673-1.192s-2.2,2.339-3.373,0-7.433.481-7.908.688-2.141-1.858-3.931-2.271-3.166,1.17-4.405-.138c-1.162-1.226-6.218,1.28-6.864,1.608-.038.019-.217.143-.205.184h0c.013.045.045-.016,0,0a3.134,3.134,0,0,1-3.6-.524c-2-2.224-8.92-.131-9.327-.006a.085.085,0,0,0-.033.019c-.42.384-9.71,8.982,3.514,6.4a72.872,72.872,0,0,1,12.548-1.3h.008l5.787.506c-1.7,1.124,6.064.754,6.6,1.1,2.954,1.888,30.051,4.155,32.049-.79C846.067,1241.048,842.675,1242.745,841.414,1240.472Z" transform="translate(-782.856 -1201.388)" fill="#009245" opacity="0.57"/></g><g clip-path="url(#a)"><path d="M1418.031,1173.388v9.892a24.6,24.6,0,0,1-11.86-1.2,29.049,29.049,0,0,0-10.44-2.162l.908-6.534,6.607-1.087Z" transform="translate(-1368.05 -1138.779)" fill="#fff"/><path d="M1401.31,1063.58l-5.58,5.5v7.489c.648.043,2.023.144,3.019.28v-6.622h4.369v7.622q1.412.366,2.833.876l.017.006.017.007c.014.006.568.235,1.5.517l.091-9.908Z" transform="translate(-1368.05 -1035.43)" fill="#fdd179"/><path d="M1634.023,1172.985a6.075,6.075,0,0,1-.292-1.868,5.409,5.409,0,0,1,5.161-5.628,5.231,5.231,0,0,1,4.915,3.908v-7.447H1633.24v10.812c.237.072.5.147.783.223" transform="translate(-1593.827 -1128.94)" fill="#fcb320"/><path d="M1337.71,1048.493h2.866l5.591-5.283-1.349-1.29Z" transform="translate(-1312.896 -1014.84)" fill="#555557"/><path d="M1481.6,1041.92l7.4,7.529h14.125l-8.95-7.529Z" transform="translate(-1449.678 -1014.84)" fill="#fff"/><path d="M1679.591,1282.82a1.191,1.191,0,1,1-1.192,1.192,1.191,1.191,0,0,1,1.192-1.192" transform="translate(-1636.756 -1243.839)" fill="#009245"/><path d="M1763,1283.348a1.191,1.191,0,0,0-1.979,0,1.639,1.639,0,0,0-.464,1.2h.389a1.191,1.191,0,0,0,2.129,0h.348a1.388,1.388,0,0,0-.423-1.2" transform="translate(-1714.857 -1243.84)" fill="#009245"/><path d="M1727.913,1326.23a.953.953,0,1,1-.953.953.953.953,0,0,1,.953-.953" transform="translate(-1682.917 -1285.105)" fill="#009245"/><path d="M1666.1,1332.113v-.895a1.664,1.664,0,0,1,.422-1.108l.12-.134a1.431,1.431,0,0,1,.005-.869,1.665,1.665,0,0,1-2.074-.387,1.665,1.665,0,0,0-.633,1.307v1.674c.645.152,1.372.3,2.16.412" transform="translate(-1623.01 -1287.472)" fill="#009245"/><path d="M1720.026,1365.194h.143v-1.132a1.184,1.184,0,0,0-.3-.791,1.428,1.428,0,0,1-2.257,0,1.187,1.187,0,0,0-.3.791v.959a21.828,21.828,0,0,0,2.716.174" transform="translate(-1673.744 -1320.315)" fill="#009245"/><path d="M1773.775,1329.986l.12.134a1.663,1.663,0,0,1,.422,1.108v1.123a18.458,18.458,0,0,0,2.16-.193v-2.121a1.664,1.664,0,0,0-.633-1.307,1.666,1.666,0,0,1-2.074.387,1.43,1.43,0,0,1,.005.869" transform="translate(-1727.415 -1287.482)" fill="#009245"/></g><g clip-path="url(#a)"><path d="M857.67,1359.906s6.581-2.823,22.49-.216,33.263,3.922,37.6.628,0,12.409,0,12.409l-55.27-4.241Z" transform="translate(-856.571 -1315.862)" fill="#009245"/></g><g clip-path="url(#a)"><path d="M907.56,1418.952a37.429,37.429,0,0,1,10.814-2.006c6.609-.344,40.307,5.69,46.9,2.272s-7.794,7.07-7.794,7.07h-43.5l-6.132-7.07" transform="translate(-903.996 -1371.326)" fill="#043d1e"/></g></g></g><g transform="translate(13.537 64.037)"><g transform="translate(0 0)"><path d="M959.018,1651.491l-6.393-8.746v8.746H949.77V1638.08h2.935l6.213,8.424v-8.424h2.855v13.411Z" transform="translate(-949.77 -1637.88)" fill="#fff"/><path d="M1227.74,1645.742l1.569-2.232a5.892,5.892,0,0,0,4.262,1.83c1.588,0,2.332-.7,2.332-1.488,0-2.332-7.721-.7-7.721-5.75,0-2.232,1.93-4.081,5.087-4.081a7.46,7.46,0,0,1,5.228,1.87l-1.588,2.131a5.761,5.761,0,0,0-3.9-1.468c-1.207,0-1.89.523-1.89,1.327,0,2.111,7.7.684,7.7,5.69,0,2.453-1.77,4.3-5.369,4.3A7.743,7.743,0,0,1,1227.74,1645.742Z" transform="translate(-1214.008 -1634.02)" fill="#fff"/><path d="M1499.848,1651.491v-5.65h-6.333v5.65h-2.855V1638.08h2.855v5.267h6.333v-5.267h2.875v13.411Z" transform="translate(-1463.939 -1637.88)" fill="#fff"/><path d="M1788.17,1651.491V1638.08h6.273a4.317,4.317,0,1,1,0,8.625h-3.418v4.785Zm7.861-9.088a1.814,1.814,0,0,0-1.99-1.81h-3.016v3.6h3.016A1.81,1.81,0,0,0,1796.031,1642.4Z" transform="translate(-1746.752 -1637.88)" fill="#fff"/></g></g></g><text transform="translate(454.82 148.615)" fill="#fff" font-size="10" font-family="Avenir-HeavyOblique, Avenir" font-weight="800" font-style="oblique"><tspan x="0" y="0">beta house, beta life</tspan></text></g></svg>