<svg id="team" xmlns="http://www.w3.org/2000/svg" width="62.688" height="62.688" viewBox="0 0 62.688 62.688">
  <path id="Path_112" data-name="Path 112" d="M66.76,100.494l.551.318v3.5l-2.51.627,5.821,3.4-.042,2.041-.089.313,3.443-.766V109.1a5.491,5.491,0,0,1,1.581-3.846l-3.787-.946,0-3.493.552-.319a5.54,5.54,0,0,0,2.762-4.776V93.791A5.706,5.706,0,0,0,69.688,88,5.516,5.516,0,0,0,64,93.513V95.72A5.534,5.534,0,0,0,66.76,100.494Zm0,0" transform="translate(-55.17 -76.243)" fill="#fff"/>
  <path id="Path_113" data-name="Path 113" d="M120.68,12.315a14.334,14.334,0,0,1,24.344-.065c.044-.044.083-.093.128-.137a7.694,7.694,0,0,1,2.33-1.549l1.252-2.931L145.212,4.11l-3.1,2.02-.594-.364a16.47,16.47,0,0,0-4.779-1.982l-.68-.164L135.288,0h-4.833l-.766,3.62-.679.162a16.486,16.486,0,0,0-4.779,1.983l-.594.364-3.1-2.02-3.526,3.526,1.238,2.952A7.806,7.806,0,0,1,120.68,12.315Zm0,0" transform="translate(-101.528)" fill="#fff"/>
  <path id="Path_114" data-name="Path 114" d="M0,184v20.174l4.737,1.58,4.005-16.02Zm0,0" transform="translate(0 -159.411)" fill="#fff"/>
  <path id="Path_115" data-name="Path 115" d="M162.482,74.473a7.749,7.749,0,0,1-3.311-6.333V65.933a7.676,7.676,0,0,1,.811-3.437,12.132,12.132,0,0,0-21.534.089,8.135,8.135,0,0,1,.856,3.626v1.929a7.751,7.751,0,0,1-3.312,6.334V75l4.416,1.105L144.823,75v-.53a7.749,7.749,0,0,1-3.311-6.333V65.933a7.727,7.727,0,0,1,7.963-7.723,7.93,7.93,0,0,1,7.489,8v1.929a7.751,7.751,0,0,1-3.312,6.334V75l4.416,1.105L162.482,75Zm0,0" transform="translate(-117.893 -48.274)" fill="#fff"/>
  <path id="Path_116" data-name="Path 116" d="M55.959,235.421l-2.517-1.468-3.891,15.562,2.172.724h.093l4.143-14.5Zm0,0" transform="translate(-42.715 -202.573)" fill="#fff"/>
  <path id="Path_117" data-name="Path 117" d="M154.508,105.888A3.309,3.309,0,0,0,152,109.1v.327l.633-.14a13.63,13.63,0,0,1,7.072.322l5,1.6a6.885,6.885,0,0,1,1.637.234l6.787,1.939h.676l.273-.143V109.1a3.309,3.309,0,0,0-2.508-3.213l-6.321-1.58,0-3.493.552-.319a5.54,5.54,0,0,0,2.762-4.776V93.791A5.706,5.706,0,0,0,163.207,88a5.516,5.516,0,0,0-5.688,5.515V95.72a5.534,5.534,0,0,0,2.76,4.774l.551.318v3.5Zm0,0" transform="translate(-131.693 -76.271)" fill="#fff"/>
  <path id="Path_118" data-name="Path 118" d="M317.02,93.513V95.72a5.534,5.534,0,0,0,2.76,4.774l.551.318v3.5l-3.788.946a5.494,5.494,0,0,1,1.581,3.846v2.973l12.137-6.388-5.514-1.377,0-3.493.552-.319a5.54,5.54,0,0,0,2.762-4.776V93.791A5.707,5.707,0,0,0,322.708,88a5.516,5.516,0,0,0-5.688,5.515Zm0,0" transform="translate(-274.198 -76.257)" fill="#fff"/>
  <path id="Path_119" data-name="Path 119" d="M107.281,264.3a2.276,2.276,0,0,0-2.647-.255l-4.11,2.464a3.7,3.7,0,0,1-5.6-3.171v-.218a3.677,3.677,0,0,1,2.044-3.307l5.512-2.756-1.626-.52a11.37,11.37,0,0,0-5.922-.268l-7.451,1.657-2.972,10.4,3.391,2.034a3.338,3.338,0,0,1,.309-.378l1.94-1.94a3.436,3.436,0,0,1,5.866,2.315,3.436,3.436,0,0,1,3.311,3.311,3.436,3.436,0,0,1,3.311,3.311,3.433,3.433,0,0,1,2.963,1.929l2.463,2.053a1.818,1.818,0,0,0,1.16.42,1.151,1.151,0,0,0,.737-2.035l-5.812-4.843,1.414-1.7,5.995,5a1.146,1.146,0,0,0,.736.268h.241a1.151,1.151,0,0,0,.737-2.035l-5.812-4.843,1.414-1.7,5.985,4.988a1.186,1.186,0,0,0,.759.276h.191a1.187,1.187,0,0,0,.795-2.069Zm0,0" transform="translate(-73.343 -222.008)" fill="#fff"/>
  <path id="Path_120" data-name="Path 120" d="M195.035,219.933l-1.679-.042-6.936-1.981a4.8,4.8,0,0,0-3.44.319l-6.157,3.078a1.482,1.482,0,0,0-.825,1.332v.218a1.49,1.49,0,0,0,2.254,1.279l4.111-2.466a4.441,4.441,0,0,1,5.26.507l9.324,8.392c.066.059.129.12.19.184l18.594-9.3V209.039Zm0,0" transform="translate(-153.044 -181.104)" fill="#fff"/>
  <path id="Path_121" data-name="Path 121" d="M228.2,443.191a3.418,3.418,0,0,1-.7,1.026l-.829.829.826.728a1.146,1.146,0,0,0,.76.288h.2a1.151,1.151,0,0,0,.737-2.035Zm0,0" transform="translate(-196.085 -383.374)" fill="#fff"/>
  <path id="Path_122" data-name="Path 122" d="M195.177,424a1.246,1.246,0,0,0-.875.362l-1.94,1.94a1.238,1.238,0,0,0,1.75,1.75l1.94-1.94a1.238,1.238,0,0,0-.875-2.113Zm0,0" transform="translate(-166.101 -366.83)" fill="#fff"/>
  <path id="Path_123" data-name="Path 123" d="M148.415,377.237a1.238,1.238,0,0,0-2.113-.875l-1.94,1.94a1.238,1.238,0,0,0,1.75,1.75l1.94-1.94A1.246,1.246,0,0,0,148.415,377.237Zm0,0" transform="translate(-124.575 -325.452)" fill="#fff"/>
  <path id="Path_124" data-name="Path 124" d="M172.415,401.237a1.238,1.238,0,0,0-2.113-.875l-1.94,1.94a1.238,1.238,0,0,0,1.75,1.75l1.94-1.94A1.246,1.246,0,0,0,172.415,401.237Zm0,0" transform="translate(-145.338 -346.141)" fill="#fff"/>
  <path id="Path_125" data-name="Path 125" d="M124.415,353.237a1.238,1.238,0,0,0-2.113-.875l-1.94,1.94a1.238,1.238,0,0,0,1.75,1.75l1.94-1.94A1.246,1.246,0,0,0,124.415,353.237Zm0,0" transform="translate(-103.813 -304.518)" fill="#fff"/>
</svg>
