<svg xmlns="http://www.w3.org/2000/svg" width="703.876" height="451" viewBox="0 0 703.876 451"><rect width="703.576" height="450.601" transform="translate(0.3 0.399)" fill="#e6e6e6"/><rect width="663.339" height="171.773" transform="translate(20.419 56.915)" fill="#fff"/><rect width="140.281" height="8.053" transform="translate(185.418 81.727)" fill="#e6e6e6"/><rect width="216.625" height="8.053" transform="translate(185.418 111.101)" fill="#58bb8c"/><rect width="176.544" height="8.053" transform="translate(185.418 138.776)" fill="#e6e6e6"/><rect width="103.064" height="8.053" transform="translate(185.418 166.346)" fill="#e6e6e6"/><rect width="155.55" height="8.053" transform="translate(185.418 193.915)" fill="#e6e6e6"/><rect width="17.177" height="17.177" transform="translate(121.48 78.864)" fill="#e6e6e6"/><rect width="17.177" height="17.177" transform="translate(121.48 106.539)" fill="#58bb8c"/><rect width="17.177" height="17.177" transform="translate(121.48 134.213)" fill="#e6e6e6"/><rect width="17.177" height="17.177" transform="translate(121.48 161.888)" fill="#e6e6e6"/><rect width="17.177" height="17.177" transform="translate(121.48 189.562)" fill="#e6e6e6"/><rect width="57.258" height="57.258" transform="translate(533.736 117.99)" fill="#e6e6e6"/><rect width="663.339" height="171.773" transform="translate(20.419 252.546)" fill="#fff"/><rect width="17.177" height="17.177" transform="translate(151.064 267.812)" fill="#e6e6e6"/><rect width="17.177" height="17.177" transform="translate(121.48 267.812)" fill="#58bb8c"/><path d="M568.786,429.363a65.046,65.046,0,0,0-105-9.7l-4.186-3.658A70.594,70.594,0,0,1,573.57,426.532Z" transform="translate(-156.062 -123.988)" fill="#e6e6e6"/><path d="M571.406,501.782l-4.613-3.1a65.078,65.078,0,0,0,1.994-69.316l4.784-2.832A70.638,70.638,0,0,1,571.406,501.782Z" transform="translate(-156.062 -123.988)" fill="#58bb8c"/><path d="M460.176,509.527a70.59,70.59,0,0,1-.579-93.521l4.186,3.658a65.031,65.031,0,0,0,.534,86.154Z" transform="translate(-156.062 -123.988)" fill="#58bb8c"/><path d="M512.776,533.04a70.709,70.709,0,0,1-52.6-23.514l4.141-3.709a65.043,65.043,0,0,0,102.476-7.138l4.613,3.1a70.554,70.554,0,0,1-58.63,31.259Z" transform="translate(-156.062 -123.988)" fill="#58bb8c"/><rect width="57.258" height="57.258" transform="translate(533.736 305.032)" fill="#e6e6e6"/><rect width="57.258" height="57.258" transform="translate(119.095 342.249)" fill="#e6e6e6"/><rect width="703.576" height="29.89" fill="#58bb8c"/><circle cx="5.54" cy="5.54" r="5.54" transform="translate(16.672 9.742)" fill="#fff"/><circle cx="5.54" cy="5.54" r="5.54" transform="translate(37.701 9.742)" fill="#fff"/><circle cx="5.54" cy="5.54" r="5.54" transform="translate(58.729 9.742)" fill="#fff"/></svg>