<svg xmlns="http://www.w3.org/2000/svg" width="53.083" height="52.427" viewBox="0 0 53.083 52.427">
  <g id="cart" transform="translate(0 -3.009)">
    <path id="Path_564" data-name="Path 564" d="M19.162,192.665l-6.225-3.843.643-1.767-.073.029a4.483,4.483,0,0,1-6.115-3.668l-.892-7.97c-.015-.135,0-.265,0-.4L2.783,185.254a6.788,6.788,0,0,0,.281,4.286c.078.276,2.616,7.324,2.616,7.324L.615,203.716a3.138,3.138,0,1,0,5.048,3.731l6.081-8.227a3.138,3.138,0,0,0,.413-2.972l-.26-.689,2.314,1.429-.755,8.31a3.139,3.139,0,0,0,2.843,3.409c.1.009.193.013.287.013a3.14,3.14,0,0,0,3.123-2.855l.93-10.245A3.139,3.139,0,0,0,19.162,192.665Z" transform="translate(0 -153.284)" fill="#fff"/>
    <path id="Path_565" data-name="Path 565" d="M78.938,126.148l.238,2.128,1.963-.782a5.359,5.359,0,0,0-9.841-3.977,4.46,4.46,0,0,1,7.639,2.631Z" transform="translate(-63.526 -104.983)" fill="#fff"/>
    <path id="Path_566" data-name="Path 566" d="M96.292,14.107a5.549,5.549,0,1,0-5.547-5.549A5.549,5.549,0,0,0,96.292,14.107Z" transform="translate(-80.852 0)" fill="#fff"/>
    <path id="Path_567" data-name="Path 567" d="M310.5,301.173H293.906a2.354,2.354,0,0,0-2.354,2.354v6.614a2.354,2.354,0,0,0,2.354,2.354H310.5a2.354,2.354,0,0,0,2.354-2.354v-6.614A2.354,2.354,0,0,0,310.5,301.173Z" transform="translate(-259.768 -265.659)" fill="#fff"/>
    <path id="Path_568" data-name="Path 568" d="M276.425,184.723h9.248a2.354,2.354,0,0,0,2.354-2.354v-5.891a2.354,2.354,0,0,0-2.354-2.354h-9.248a2.354,2.354,0,0,0-2.354,2.354v5.891A2.354,2.354,0,0,0,276.425,184.723Z" transform="translate(-244.192 -152.46)" fill="#fff"/>
    <path id="Path_569" data-name="Path 569" d="M116.155,179.764H95.528V159.249a1.793,1.793,0,0,0-1.794-1.794h-2.7a2.684,2.684,0,0,0-3.486-3.5l-5.866,2.337-.5-4.465a2.69,2.69,0,1,0-5.346.6l.892,7.97a2.689,2.689,0,0,0,3.668,2.2l5.845-2.328a1.76,1.76,0,0,0,1.438.776h4.26v20.514a1.793,1.793,0,0,0,1.794,1.794h2.189a2.971,2.971,0,0,0,5.822,0h6.733a2.971,2.971,0,0,0,5.822,0h1.853a1.794,1.794,0,0,0,0-3.587Z" transform="translate(-67.556 -130.462)" fill="#fff"/>
  </g>
</svg>
