<svg xmlns="http://www.w3.org/2000/svg" width="50" height="50" viewBox="0 0 50 50">
  <g id="Group_268" data-name="Group 268" transform="translate(-1150 -8981)">
    <circle id="Ellipse_29" data-name="Ellipse 29" cx="25" cy="25" r="25" transform="translate(1150 8981)" fill="#fff" opacity="0.091"/>
    <path id="Icon_awesome-twitter" data-name="Icon awesome-twitter" d="M21.5,8.231c.015.213.015.426.015.639A13.876,13.876,0,0,1,7.541,22.841,13.877,13.877,0,0,1,0,20.637a10.159,10.159,0,0,0,1.186.061,9.835,9.835,0,0,0,6.1-2.1,4.919,4.919,0,0,1-4.592-3.406,6.193,6.193,0,0,0,.927.076A5.194,5.194,0,0,0,4.911,15.1a4.911,4.911,0,0,1-3.938-4.82v-.061a4.946,4.946,0,0,0,2.22.623,4.918,4.918,0,0,1-1.52-6.568A13.959,13.959,0,0,0,11.8,9.417a5.544,5.544,0,0,1-.122-1.125,4.915,4.915,0,0,1,8.5-3.36,9.668,9.668,0,0,0,3.117-1.186,4.9,4.9,0,0,1-2.159,2.706,9.845,9.845,0,0,0,2.828-.76A10.556,10.556,0,0,1,21.5,8.231Z" transform="translate(1163.02 8992.889)" fill="#fff"/>
  </g>
</svg>
