<svg xmlns="http://www.w3.org/2000/svg" width="56.957" height="56.964" viewBox="0 0 56.957 56.964">
  <g id="crane" transform="translate(-2 -1.992)">
    <path id="Path_77" data-name="Path 77" d="M57.7,19.594h2.848V12H52Z" transform="translate(-2.536 -0.508)" fill="none"/>
    <path id="Path_78" data-name="Path 78" d="M22,19.594H33.391L27.7,12Z" transform="translate(-1.014 -0.508)" fill="none"/>
    <path id="Path_79" data-name="Path 79" d="M3.949,12H3v7.594H9.645Z" transform="translate(-0.051 -0.508)" fill="none"/>
    <path id="Path_80" data-name="Path 80" d="M9.7,19.594,15.391,12H4Z" transform="translate(-0.101 -0.508)" fill="none"/>
    <path id="Path_81" data-name="Path 81" d="M27.391,12H16l5.7,7.594Z" transform="translate(-0.71 -0.508)" fill="none"/>
    <path id="Path_82" data-name="Path 82" d="M21.391,19.594,15.7,12,10,19.594Z" transform="translate(-0.406 -0.508)" fill="none"/>
    <path id="Path_83" data-name="Path 83" d="M28,12l5.7,7.594L39.391,12Z" transform="translate(-1.319 -0.508)" fill="none"/>
    <path id="Path_84" data-name="Path 84" d="M40,12l5.7,7.594L51.391,12Z" transform="translate(-1.927 -0.508)" fill="none"/>
    <path id="Path_85" data-name="Path 85" d="M46,19.594H57.391L51.7,12Z" transform="translate(-2.231 -0.508)" fill="none"/>
    <path id="Path_86" data-name="Path 86" d="M34,19.594H45.391L39.7,12Z" transform="translate(-1.623 -0.508)" fill="none"/>
    <path id="Path_87" data-name="Path 87" d="M3,54v6.645H27.681V54H3Z" transform="translate(-0.051 -2.638)" fill="#00923f"/>
    <path id="Path_88" data-name="Path 88" d="M9.949,20H9v3.8H22.29V20H9.949Z" transform="translate(-0.355 -0.913)" fill="#00923f"/>
    <path id="Path_89" data-name="Path 89" d="M19.594,48.594V41L12,44.8Z" transform="translate(-0.507 -1.978)" fill="none"/>
    <path id="Path_90" data-name="Path 90" d="M12,53.544,19.594,48.8,12,45Z" transform="translate(-0.507 -2.181)" fill="none"/>
    <path id="Path_91" data-name="Path 91" d="M19.594,53.746V49L12,53.746Z" transform="translate(-0.507 -2.384)" fill="none"/>
    <path id="Path_92" data-name="Path 92" d="M12,44.594l7.594-3.8L12,37Z" transform="translate(-0.507 -1.775)" fill="none"/>
    <path id="Path_93" data-name="Path 93" d="M19.594,32.594V25L12,28.8Z" transform="translate(-0.507 -1.167)" fill="none"/>
    <g id="Group_29" data-name="Group 29" transform="translate(11.493 22.884)">
      <path id="Path_94" data-name="Path 94" d="M12,28.746l7.594-3.8V24H12Z" transform="translate(-12 -24)" fill="none"/>
      <path id="Path_95" data-name="Path 95" d="M12,36.594l7.594-3.8L12,29Z" transform="translate(-12 -24.254)" fill="none"/>
      <path id="Path_96" data-name="Path 96" d="M19.594,40.594V33L12,36.8Z" transform="translate(-12 -24.456)" fill="none"/>
    </g>
    <path id="Path_97" data-name="Path 97" d="M50,20h3.8v5.7H50Z" transform="translate(-2.434 -0.913)" fill="#00923f"/>
    <path id="Path_98" data-name="Path 98" d="M43,26v2.848H60.087V26H43Z" transform="translate(-2.079 -1.218)" fill="#00923f"/>
    <circle id="Ellipse_12" data-name="Ellipse 12" cx="1.5" cy="1.5" r="1.5" transform="translate(13.478 3.471)" fill="#00923f"/>
    <path id="Path_99" data-name="Path 99" d="M34,60.087h5.7v-3.8h2.848v-3.8h8.544V48.7h5.7V43H34Z" transform="translate(-1.623 -2.08)" fill="none"/>
    <path id="Path_100" data-name="Path 100" d="M55,53h2.848v3.8H55Z" transform="translate(-2.688 -2.587)" fill="#00923f"/>
    <path id="Path_101" data-name="Path 101" d="M31,42.493H59.479L45.239,33Z" transform="translate(-1.471 -1.573)" fill="#00923f"/>
    <path id="Path_102" data-name="Path 102" d="M52,57v3.8h5.7V57H52Z" transform="translate(-2.536 -2.79)" fill="#00923f"/>
    <path id="Path_103" data-name="Path 103" d="M48.848,57H46v3.8h5.7V57Z" transform="translate(-2.231 -2.79)" fill="#00923f"/>
    <path id="Path_104" data-name="Path 104" d="M51.848,56.8H54.7V53H49v3.8Z" transform="translate(-2.384 -2.587)" fill="#00923f"/>
    <path id="Path_105" data-name="Path 105" d="M42.848,57H40v3.8h5.7V57Z" transform="translate(-1.927 -2.79)" fill="#00923f"/>
    <path id="Path_106" data-name="Path 106" d="M48.7,56.8V53H43v3.8h5.7Z" transform="translate(-2.079 -2.587)" fill="#00923f"/>
    <path id="Path_107" data-name="Path 107" d="M52,52.8h5.7V49H52Z" transform="translate(-2.536 -2.384)" fill="#00923f"/>
    <path id="Path_108" data-name="Path 108" d="M3,54H27.681v2.848H3Z" transform="translate(-0.051 -2.638)" fill="#00923f"/>
    <path id="Path_109" data-name="Path 109" d="M9,20H22.29v1.9H9Z" transform="translate(-0.355 -0.913)" fill="#00923f"/>
    <path id="Path_110" data-name="Path 110" d="M58.008,20.036a.949.949,0,0,0,.949-.949V11.492a.94.94,0,0,0-.665-.892C58.26,10.581,18,4.018,18,4.018A2.838,2.838,0,0,0,12.5,4.29s-10.157,6.47-10.176,6.5a.935.935,0,0,0-.32.7v7.594a.949.949,0,0,0,.949.949H7.7v2.848a.949.949,0,0,0,.949.949h1.9v26.58H2.949A.949.949,0,0,0,2,51.362v6.645a.949.949,0,0,0,.949.949H27.631a.949.949,0,0,0,.949-.949V51.362a.949.949,0,0,0-.949-.949H20.036V23.833h1.9a.949.949,0,0,0,.949-.949V20.036H46.616v3.8h-5.7a.949.949,0,0,0-.949.949V27.63a.949.949,0,0,0,.949.949H58.008a.949.949,0,0,0,.949-.949V24.782a.949.949,0,0,0-.949-.949h-5.7v-3.8Zm-.949-1.9H55.635l-4.272-5.7h5.7ZM17.922,5.929l28.347,4.614H16.239V7.526a2.862,2.862,0,0,0,1.683-1.6Zm1.165,12.209H11.493l3.8-5.063ZM15.29,3.9a.949.949,0,1,1-.949.949A.949.949,0,0,1,15.29,3.9ZM12.86,6.311a2.862,2.862,0,0,0,1.481,1.194v3.038H6.209ZM3.9,18.137V13.075l3.8,5.063Zm1.9-5.7h7.594L9.594,17.5Zm20.884,39.87v4.746H3.9V52.312ZM12.442,26.094V23.833h4.522Zm5.7-.725v4.522L13.615,27.63Zm-1.173,6.058-4.522,2.261V29.166Zm1.173,1.536v4.522l-4.522-2.261Zm-1.173,6.058-4.522,2.261V36.761Zm1.173,1.536V45.08l-4.522-2.261Zm-.989,6.153-4.707,2.943v-5.3Zm.989,1.614v2.088H14.8Zm2.848-26.39H9.594v-1.9H20.986Zm0-4.43-3.8-5.063h7.594Zm1.9.633,3.8-5.063,3.8,5.063Zm5.7-5.7h7.594l-3.8,5.063Zm5.7,5.7,3.8-5.063,3.8,5.063Zm5.7-5.7h7.594l-3.8,5.063Zm17.087,13.29v.949H41.87v-.949Zm-8.544-1.9v-3.8h1.9v3.8Zm-2.848-5.7,3.8-5.063,3.8,5.063Z" fill="#00923f"/>
    <path id="Path_111" data-name="Path 111" d="M59.955,41.652,45.715,32.159a.949.949,0,0,0-1.054,0L30.422,41.652a.949.949,0,0,0,.527,1.739h1.9V59.529a.949.949,0,0,0,.949.949H56.58a.949.949,0,0,0,.949-.949V43.391h1.9a.949.949,0,0,0,.527-1.739ZM45.189,34.088l11.107,7.4H34.082Zm-1.9,18.8h3.8v1.9h-3.8Zm5.7,0h3.8v1.9h-3.8Zm2.848-3.8h3.8v1.9h-3.8Zm3.8,3.8v1.9h-.949v-1.9Zm-11.391,3.8v1.9h-3.8v-1.9Zm1.9,0h3.8v1.9h-3.8Zm9.493,1.9h-3.8v-1.9h3.8Zm0-11.391H48.036a.949.949,0,1,0,0,1.9h1.9v1.9H43.29v-.949a.949.949,0,1,0-1.9,0v4.746h-1.9a.949.949,0,0,0-.949.949V58.58h-3.8V43.391H55.631Z" transform="translate(-1.42 -1.522)" fill="#00923f"/>
  </g>
</svg>
