<svg id="Group_26" data-name="Group 26" xmlns="http://www.w3.org/2000/svg" width="54.998" height="55" viewBox="0 0 54.998 55">
  <g id="Group_25" data-name="Group 25" transform="translate(0 0)">
    <path id="Path_67" data-name="Path 67" d="M54.258,23.513l-4.583-4.166L29.05.6a2.292,2.292,0,0,0-3.085,0L5.34,19.346.757,23.513A2.291,2.291,0,1,0,3.842,26.9l.749-.681V52.708A2.291,2.291,0,0,0,6.883,55H18.341V36.667a9.167,9.167,0,1,1,18.333,0V55H48.132a2.291,2.291,0,0,0,2.292-2.292V26.221l.749.681a2.291,2.291,0,1,0,3.085-3.389Z" transform="translate(-0.008 0)" fill="#00923f"/>
    <path id="Path_68" data-name="Path 68" d="M217.818,298.666a4.484,4.484,0,0,0-4.48,4.48v17.92h8.96v-17.92A4.484,4.484,0,0,0,217.818,298.666Z" transform="translate(-190.319 -266.066)" fill="#00923f"/>
  </g>
</svg>
