<svg id="team" xmlns="http://www.w3.org/2000/svg" width="68.087" height="68.087" viewBox="0 0 68.087 68.087">
  <path id="Path_112" data-name="Path 112" d="M67,101.571l.6.346v3.8l-2.726.681,6.322,3.688-.046,2.217-.1.339,3.739-.832v-.888a5.964,5.964,0,0,1,1.717-4.177l-4.113-1.028,0-3.793.6-.347a6.017,6.017,0,0,0,3-5.187v-2.1A6.2,6.2,0,0,0,70.178,88,5.992,5.992,0,0,0,64,93.988v2.4A6.011,6.011,0,0,0,67,101.571Zm0,0" transform="translate(-54.41 -75.232)" fill="#58bb8c"/>
  <path id="Path_113" data-name="Path 113" d="M121,13.376a15.568,15.568,0,0,1,26.44-.071c.048-.048.09-.1.139-.149a8.357,8.357,0,0,1,2.53-1.682l1.36-3.184-3.825-3.826L144.27,6.658l-.645-.4a17.888,17.888,0,0,0-5.191-2.153l-.739-.178L136.862,0h-5.249l-.832,3.932-.738.176a17.905,17.905,0,0,0-5.191,2.153l-.645.4-3.371-2.194-3.83,3.83,1.345,3.206A8.479,8.479,0,0,1,121,13.376Zm0,0" transform="translate(-100.195)" fill="#58bb8c"/>
  <path id="Path_114" data-name="Path 114" d="M0,184v21.912l5.145,1.716,4.35-17.4Zm0,0" transform="translate(0 -157.294)" fill="#58bb8c"/>
  <path id="Path_115" data-name="Path 115" d="M164.763,76.064a8.416,8.416,0,0,1-3.6-6.878v-2.4a8.337,8.337,0,0,1,.881-3.733,13.177,13.177,0,0,0-23.388.1,8.835,8.835,0,0,1,.93,3.938v2.1a8.418,8.418,0,0,1-3.6,6.879v.574l4.8,1.2,4.795-1.2v-.575a8.416,8.416,0,0,1-3.6-6.878v-2.4a8.393,8.393,0,0,1,8.649-8.388,8.613,8.613,0,0,1,8.134,8.69v2.1a8.418,8.418,0,0,1-3.6,6.879v.574l4.8,1.2,4.795-1.2Zm0,0" transform="translate(-116.335 -47.609)" fill="#58bb8c"/>
  <path id="Path_116" data-name="Path 116" d="M56.511,235.548l-2.734-1.594-4.226,16.9,2.359.786h.1l4.5-15.752Zm0,0" transform="translate(-42.126 -199.871)" fill="#58bb8c"/>
  <path id="Path_117" data-name="Path 117" d="M154.724,107.429a3.594,3.594,0,0,0-2.724,3.49v.355l.687-.152a14.8,14.8,0,0,1,7.681.35l5.427,1.734a7.478,7.478,0,0,1,1.778.255l7.371,2.106h.735l.3-.156v-4.492a3.594,3.594,0,0,0-2.723-3.49l-6.865-1.716,0-3.793.6-.347a6.017,6.017,0,0,0,3-5.187v-2.1A6.2,6.2,0,0,0,164.172,88a5.992,5.992,0,0,0-6.178,5.99v2.4a6.011,6.011,0,0,0,3,5.185l.6.346v3.8Zm0,0" transform="translate(-129.944 -75.261)" fill="#58bb8c"/>
  <path id="Path_118" data-name="Path 118" d="M317.061,93.988v2.4a6.011,6.011,0,0,0,3,5.185l.6.346v3.8l-4.114,1.028a5.967,5.967,0,0,1,1.717,4.177v3.229l13.183-6.938-5.989-1.5,0-3.793.6-.347a6.017,6.017,0,0,0,3-5.187v-2.1A6.2,6.2,0,0,0,323.239,88a5.992,5.992,0,0,0-6.178,5.99Zm0,0" transform="translate(-270.551 -75.246)" fill="#58bb8c"/>
  <path id="Path_119" data-name="Path 119" d="M109.242,265.016a2.472,2.472,0,0,0-2.875-.277l-4.464,2.677a4.015,4.015,0,0,1-6.08-3.444v-.237a3.994,3.994,0,0,1,2.22-3.592l5.987-2.993-1.766-.565a12.35,12.35,0,0,0-6.432-.291l-8.093,1.8-3.228,11.3,3.683,2.21a3.626,3.626,0,0,1,.335-.41l2.107-2.107a3.732,3.732,0,0,1,6.371,2.514,3.732,3.732,0,0,1,3.6,3.6,3.732,3.732,0,0,1,3.6,3.6,3.729,3.729,0,0,1,3.219,2.095l2.676,2.23a1.974,1.974,0,0,0,1.26.457,1.25,1.25,0,0,0,.8-2.211l-6.313-5.26,1.536-1.843,6.511,5.425a1.245,1.245,0,0,0,.8.292h.262a1.25,1.25,0,0,0,.8-2.211l-6.313-5.26,1.536-1.843,6.5,5.417a1.289,1.289,0,0,0,.825.3h.207a1.289,1.289,0,0,0,.863-2.248Zm0,0" transform="translate(-72.381 -219.08)" fill="#58bb8c"/>
  <path id="Path_120" data-name="Path 120" d="M196.675,220.871l-1.823-.046-7.533-2.152a5.216,5.216,0,0,0-3.736.347l-6.687,3.343a1.61,1.61,0,0,0-.9,1.447v.237a1.618,1.618,0,0,0,2.448,1.39l4.465-2.678a4.823,4.823,0,0,1,5.713.55l10.127,9.115c.072.064.14.131.206.2l20.2-10.1V209.039Zm0,0" transform="translate(-151.068 -178.698)" fill="#58bb8c"/>
  <path id="Path_121" data-name="Path 121" d="M228.335,443.191a3.713,3.713,0,0,1-.755,1.114l-.9.9.9.791a1.244,1.244,0,0,0,.826.313h.222a1.25,1.25,0,0,0,.8-2.211Zm0,0" transform="translate(-193.451 -378.222)" fill="#58bb8c"/>
  <path id="Path_122" data-name="Path 122" d="M195.451,424a1.353,1.353,0,0,0-.951.393l-2.107,2.107a1.344,1.344,0,0,0,1.9,1.9l2.107-2.107a1.344,1.344,0,0,0-.951-2.294Zm0,0" transform="translate(-163.87 -361.907)" fill="#58bb8c"/>
  <path id="Path_123" data-name="Path 123" d="M148.795,377.344a1.344,1.344,0,0,0-2.294-.951l-2.107,2.107a1.344,1.344,0,0,0,1.9,1.9l2.107-2.107A1.353,1.353,0,0,0,148.795,377.344Zm0,0" transform="translate(-122.903 -321.099)" fill="#58bb8c"/>
  <path id="Path_124" data-name="Path 124" d="M172.795,401.344a1.344,1.344,0,0,0-2.294-.951l-2.107,2.107a1.344,1.344,0,0,0,1.9,1.9l2.107-2.107A1.353,1.353,0,0,0,172.795,401.344Zm0,0" transform="translate(-143.386 -341.503)" fill="#58bb8c"/>
  <path id="Path_125" data-name="Path 125" d="M124.795,353.344a1.344,1.344,0,0,0-2.294-.951l-2.107,2.107a1.344,1.344,0,0,0,1.9,1.9l2.107-2.107A1.353,1.353,0,0,0,124.795,353.344Zm0,0" transform="translate(-102.419 -300.429)" fill="#58bb8c"/>
</svg>
