<svg xmlns="http://www.w3.org/2000/svg" width="82.958" height="66.875" viewBox="0 0 82.958 66.875">
  <g id="nigeria" transform="translate(-0.352 -0.229)">
    <path id="NG-AB" d="M279.474,491.552l.069.088.553-.1.31.031.235.153.038.167h0l.008.5-.063.328.006.084.108.118,1.614.1.142.213.025.251.08.119.368.267.153.024h0l.124.148-.068.426.017.433.157.53.084.192.2.229.087.292-.069.139-.392-.087h0l-.308-.3-.291-.1-.316-.245-.066-.242-.136-.168-.389-.1-.277.016-.032.1.061.4-.211.584.037.052.255-.018-.08.28-.084.1-.7-.018-.126.112-.008.086.123.222-.139.665,0,.275.076.285-.134.331-.289.222.01.088-.054.073.025.168.068.077,0,.134-.077.186.2.386.015.212h0l-.27-.205-.337-.161-.206.049-.376-.14-.32.014-.127.073-.358.066-.206-.031-.166-.161-.068-.126.018-.126.157-.424.392-.5.274-.48-.006-.318-.076-.2-.062-.006h0l.354-1.174.241-.443.208-.192.135-.348.1-.1.049-.23-.041-.4.032-.235-.173-.279.141-.088-.044-.97-.054-.155-.119-.166-.612-.2-.23-.194h0l.145-.254.156-.149Z" transform="translate(-246.716 -436.818)" fill="#00923f"/>
    <path id="NG-AD" d="M557.127,185.9l-.015.21-.094.2-.117.18-.126.1-.2.332-.156.56-.3.281-.055.126-.07.345.082.413.088.121v.195l-.184.19-.03.528-.111.191.015.4-.089.222-.235.294-.03.346-.184.119-.165.3-.672.133-.479.673.017.112.176.186,0,.073-.132.314-.212.159,0,.2.079.183.308.152.116.182-.247.354-.015.258-.062.148.031.127-.124.168.038.089-.025.161.049.072-.085.252-.117.188-.111-.015-.195.151-.917.094-.315.247-.186.033-.431.388-.431.227.01.153.271.031.056.048.01.857-.084.079-.1.505.1.237-.133.462.034.151-.322.55-.3.263v.115l.081.113-.094.235.145.449-.129.212-.125.043-.191-.026-.167.062-.065.126-.018.313-.112.085-.113.212-.25.022-.389.316-.1.014-.673-.188-.076.076-.027.2-.135.133-.093.349-.2.268-.267.016-.128.1-.283-.032-.212.139-.219.038-.082.094-.078.463.165.6.066.661-.007.119-.088.064-.278.517.071.287.025.427-.473.727-.4.354-.2.345-.055.229-.128.168-.047.4-.127.179.079.7.074.206-.336.169-.224.031-.315.36h0l-.14-.1.006-.179-.222-.529-.044-.405-.085-.2.066-.629-.119-.231-.246-.3-.495-.44-.286-.361-.174-.128-.163-.049-.188.044-.324.459-.312.228-.31-.281-.333-.538-.289-.771.094-.181.474-.547.435-.369.582-.628.988-1.319.7-.6.05-.238-.044-.662.686-1.31.115-.415-.03-.207-.231-.44-.474-.168-.3-.337-.039-.44.053-.249-.6-1.125-.238-.148-.533-.124-.167-.22-.624-1.166h0l.71-.1.386-.164,1.077-.648.659-.458.126-.267-.06-.424.078-1.172h0l.726.111.309-.022.523-.151.2-.123.195-.218.427-.636.71-.809.287-.1.721-.056.676-.254.279-.3.094-.3.38-.016.269-.131.254-.424.241-.247.287-.168.976.09.329.118.3.178.325.356.278.132.273.117h.5l.131-.14.169-.889.31-.651.14-.417.1-.47.032-.917.354-.049.071.085.429.131.442-.033.644-.2h0Z" transform="translate(-480.837 -165.128)" fill="#00923f"/>
    <path id="NG-AK" d="M297.82,529.322h0l0,0h0Zm.867-.08.111.057.105-.022.1-.016.038.032-.41.086-.056-.068Zm4.617-.866.1.239-.087.094-.123.025-.025-.142.064-.012.04-.1Zm-5.905-1.268-.014-.212-.205-.385.077-.187,0-.134-.068-.077-.025-.168.054-.074-.01-.088.289-.222.135-.331-.076-.285,0-.276.139-.665-.123-.222.008-.086.126-.112.7.018.084-.1.08-.279-.255.018-.037-.052.211-.584-.061-.4.033-.1.277-.016.389.1.136.168.066.242.315.245.291.1.308.3h0l-.1.012-.132.281.076.205.1.035.089.222.546-.064.568.307.046.241-.07.7.187.588.391.562.365.321.432.5.42.322.068.116h0l-.049.247.091.05,0,.286-.057.052-.047-.077-.008.066.136.134-.069.206-.085.022.011.118-.118.132.027.019-.12.273-.6-.072-.657-.008-1.227.063-1.38.192-.06-.053-.208.041-.107-.055-.1.041-.109-.01,0,0,.057.093.031.049-.38.151-.112-.195-.134-.074-.1-.022-.11-.121.043-.1-.01-.014-.061.057-.057-.044h0l-.07-.134,0-.073.058-.037-.066-.521.11-.489-.072-.263Z" transform="translate(-263.766 -463.86)" fill="#00923f"/>
    <path id="NG-AN" d="M246.565,444.909l.05.046.01.415.439-.015.279.161.235.009.427.195.041.09-.143.4-.086.124-.194.131-.212.284.027.11-.071.1-.049.269.045.062.441.133.163.206.153.417.15.212-.034.11-.094.033.047.157-.057.186.082.085.216-.129.07.015.068.3.152.072-.04.246.215.434.021.173.087.112.274.16.19-.11.124.01.128.085,0,.062.1.019h0l-.5.265-.156.149-.145.254h0l-.609.163-.616-.143-.723.133-.2.119-.107.407-.271.528-.307.031-.517-.22-.186.092-.344.439-.239.1h0l-.275-.024-.127-.147h0l.116-.134.22-.447.039-.3.2-.537.286-.521.044-.688.147-.418-.141-.432-.169-.835.009-.157-.129-.129-.244-1.1h0l-.008-.033h0l.191-.088.411.076.164-.1.211-.287.007-.313.142-.472.257-.265.176-.1Z" transform="translate(-216.942 -395.528)" fill="#00923f"/>
    <path id="NG-BA" d="M386.987,87.519l.886.709.131.336.088.811-.022.207.362.534.024.772.038.309.109.31.023.443.956,2.395-.026.563-.12.312-.113.777.187.175.348.042h0l-.092.027-.31.431-.692.376-.294.424-.23.2-.171.087-.448.1-.165.156-.158.232-.111.566-.3.851-.413.581-.023.158.845.342.131.2.1.819.1.132.825.3.238.566-.055.988.046.328-.1.2-.447.072-.228.105-.15.219.038.186.491.5.286.161,1.048.812.141.434.07.709.3.6.194.243-.015.109-.066.018h0l-.457,0-.738-.125-1.213.555-.67-.089-.526.3h0l-.728-.393-.708-.463-1.268-.543-1.061-.565-.294-.058-.87-.452-.347.2-.034.165.363.465.031.2-.057.191-.545.149-.331.6-.5.161-1.15.068-.626-.17-.55-.031-.173-.061-.179-.153-.189-.466-.1-.133-.09-.081-.449-.163-.069-.1.01-.194.273-.512.026-.134-.03-.68-.111-.358-.206-.22-.121-.024-1.256.251,0-1.418-.089-.55-.3-.476-.318-.1-.364-.009-.175.056h0l-.29-.31-.32-.2-.031-.084.269-.481.061-.454h0l.113-.064.3-.468.152-.441-.009-.229-.088-.191-.442-.5-.052-.228-.046-.789.052-.4.183-.523.117-.049.309.018.234-.058.314-.368.3-.471.543-.478.077-.126.284-.18.194-.034.131.123.131.01.632-.249h0l.115-.022.687.126.851.276.384-.167.263.084.2.42.358.024.882-.055.409-.1.131.034.306.561.062.246-.1.9.093.235.155.156.653.136.641-.159.179.019.213.156.282.071.213-.065-.127-.393,0-.206.175-.219.29-.156.463-.113.165-.089.212-.159.126-.312-.119-.167-1.016-.064-.655-.145-.732-.088-.342-.212-.607-.85-.12-.286-.054-.294-.44.108-.135-.127-.063-.2.287-.573-.06-.495-.167-.506-.207-.057-.315.031-.243.118-.3,0-.155-.072.056-.488.369-.52.706-.053.627-.348,1.253-.427.714-.287.136-.108,0-.258-.065-.215.769-2.358.52-.223.4-.063.113.094.1.188.014.159Z" transform="translate(-331.714 -77.292)" fill="#00923f"/>
    <path id="NG-BE" d="M300.161,361.056l1.046.284.975.143,1,.407.564.323.6.113.123-.016.38.321.61.255.131-.126.01-.156-.538-1.333-.009-.289.117-.328.142-.162.452-.252.158-.032.3-.021.307.05,1.156.426.786.178.559.047.454-.025v-.08l1.35,1.023h0l-.434.684.218.065.7-.3.856-.109.937.055.857.2.589.561.509.647.959.867-.016.074.134.156-.03.119.064.2-.068.37-.273.675.033.678-.105.164-.354.222-.394.372-.379.706-.242,1.317.07.084-.038.124,0,1-.218.938h0l-.082.034-.243-.084-.089.163.011.229-.323.2-.205.025-.318-.05h0l-.074-.177-.559-.759-.633-.656-.171-.082-.354-.025-1.1.257-.5-.05-.139-.1.076-.546-.064-.188-.99-.616-.622-.194-.242-.008-.265.068-.242.077-.174.137.088.515-.36.22-.358.1-.44-.016-.236-.077-.22.052-.156.2-.27.224-.342.056h0l-.195-.26-.1-.488-.2-.149-.117.265-.391.042-.2.33-.22.107-.338-.029-.4.046-.143.943-.113.235-.162.068-.2-.085-.459-.422-.074-.176.019-.1h0l.261-.735-.1-.644-.163-.245-.174-.132-.322-.04-.253.242-.241.084-.334-.174-.41-.316-.331-.384-.314-.746.015-.061h0l.047-.057.1.066.386.377.094-.011.155.12h.2l.039-.506.11-.165.738-.357.378-.356.222-.668.048-.45.054-.148.141-.139.041-.207-.169-.054-.379.037-.145-.12-.142-.633-.065-.78v-.79l-.084-.212-.309-.3-.215-.369-.062-.672Z" transform="translate(-265.494 -320.029)" fill="#00923f"/>
    <path id="NG-BO" d="M567.335,11.079l.08.647-.095.344.4.717-.023.289-.053.056.032-.249-.119.152-.025.22.273.292.282.07-.074.077.032.062.089.022.511.862.324.353.12.025.2.11.187.137.443.086.03.1h-.066l-.064.126-.023-.119-.076.066-.085,0,.165.183.031.2.444-.133.265-.3.283-.231.183-.077-.124.2.017.052.074-.022.065.268-.038.025-.077-.158-.1.055-.065.141-.231.065L570.6,16l-.136.129-.213.427.047.088.157-.052-.008.279-.066.132.1,0-.039.156-.132.176.046.065.18-.049.033.063-.3.159.226.057-.017.1.137.006-.086.1-.151.038.014.048.142-.026.014.069-.055.05-.026-.042-.116.026.027.086.085-.014-.1.191.173.024.025.153-.065.085.03.143.111.025.061.139-.027.132.223.063.039.167.07.06.184-.109.053.023.081.219.14.081.036.124.247.088,0,.126.077.115-.042.136.081.073.127.063.162-.057.229.03-.031.119.1.007.045-.079.207-.008.168-.093.282-.009.019.14.123.01-.014.1-.143.037.025.061-.043.073.109.032.258.3.392-.061.118-.006.049.093.2-.1.336.1.4-.04.078.036.1.014.184.039.09.137.146.039.039.1-.077,0,.009.128.249.116.08.157-.083.159.342.088.087.172-.062.053.129.062.089.014.014-.056.111-.009.058-.058.152.287-.157.148-.037.206-.085.1.078.229-.2.133-.007.18.252.433-.139.2.026.155-.266.317V24.6l.033.434-.08.141-.322.246-.007.063.144.2.23.129.247.25.05.247-.071.536-.144.107-.728.294-.444.1-.195.354-.927.363-.376.237-.221.3-.511.222-.266,0-.312-.271-.289-.05-.123-.1-.123.018-.07.087-.066.266-.238.27-.089.307-.082.12-.167.11.027.171-.074.024-.124.192-.266.234-.139.333-.371.184-.277.062-.088.086-.022.2h0l-.644.2-.442.033-.429-.131-.071-.085-.354.049-.032.917-.1.47-.14.417-.31.651-.17.889-.13.14h-.5l-.273-.117-.278-.132-.325-.356-.3-.178-.329-.118-.976-.09-.287.168-.241.247-.254.424-.269.131-.38.016-.094.3-.279.3-.676.254-.72.056-.287.1-.71.809-.427.636-.195.218-.2.123-.523.151-.309.022-.726-.111h0l-.448-.252-.207-.183-.359-.707-.648-.268-.21-.208-.278-.4-.093-.324.593-.866.071-.346-.155-.378h0l.348-.079.391-.519L556.288,32l.07-.317.2-.324.3-.22,1.284-.346.7-.418.239-.353.027-.337-.087-.475,0-.34.1-.328.331-.384.378-.676.52-.507.113-.242-.1-.381-.358-.429-.562.024-.073-.041-.017-.222.541-1.047-.194-.852.015-.4.291-1.866.006-.663-.2-.439.063-.252.809-.723.271-.353.211-.482-.055-.428-.55-.44-.166-.208-.141-.441.171-.919.009-.482h0l.166-.014.5.1,0-.136.068-.047.008-.085.022-.2.17-.152.13.027.155-.084-.039-.133.084-.124-.026-.037-.1-.022.046-.129.088-.152.092-.2.073-.069.261.04.158-.1.11.01.07.085.11-.127.026-.165.154-.026.168-.033.033-.053-.039-.046.112-.134.242-.055.071-.142.157-.089.018-.09.066-.085.046-.085,0-.1.126-.049.049-.117-.093-.036.065-.07.141.072-.033-.18.126.014.007.054.1.033.126-.016.214-.191.117-.042.037.044.227-.011.159-.152.117.056.006-.124.124-.041.117.01-.1.134.168.09.105-.15.155.119-.023-.15.17-.058-.036.238.105.014.052-.111.132-.029.105.159.11-.29.19-.1,0-.05-.063-.022.022-.081.136.023.073-.092-.073-.019-.046-.117.192-.183-.007-.066.171-.077-.006-.107.12-.121.142-.027.045-.121Z" transform="translate(-493.393 -9.607)" fill="#00923f"/>
    <path id="NG-BY" d="M177.515,536.036l-.024-.071-.078.011-.454-.3-.137-.5-.158-.214-.228,0-.749.291-.119-.03-.04-.222.048-.167-.379-.165-.057-.1.008-.5.218-.306.087-.235,0-.145-.148.018-.1-.089.152-.508.514-.9.317.02.063-.057.086-.285.176-.091-.026-.207.181-.122.109-.17,0-.222-.072-.176-.087-.066-.22-.1-.337.056-.119-.032.088.283-.137.1-.582.251-.4-.05-.314.056-.23.47-.242.06-.09-.069-.168-.009-.041.109.03.265-.324.179-.186.064-.345-.027-.141.228-.265.071-.216-.077-.113-.19-.242-.147-.086.057-.169.352-.378.188-.3-.048-.857.47L170.13,533l-.266.046-.115-.126-.308-.183-.349-.081-.332-.19-.241-.241-.064.082-.082-.065-.164.061-.041-.057-.187.1.27.528.219.665-.039.091.109.174.04.213.465.775.022.165.108.063v.02l.006.126.859,1.189.136.071,0,.086.317.155-.031.047.12.086.014.074.293.182.022-.045.035.039-.025.027,0,.039.3.247.055,0-.016-.088-.052-.024.181-.053-.087.08.038.082-.03.031.008.058.266.195.581.27.022-.229-.09-.058-.063-.143.039.014.033.1.09.025-.014-.08.047,0,0,.08.06.019.03.088-.071.135.03.049-.039.149.046.033.593.151.022-.255.074-.066.044.44.955-.08-.073-.275.118-.349.074-.126-.033-.157-.219-.132.055-.006.136.031.11.181.069-.129-.063-.09.01-.245-.1-.155.036-.085.019.118.079.063,0,.044.085.231-.011.355.312-.283-.066-.072.011-.222.219-.069.057-.072.079.184.014.148-.055.118.069.151.006.184.153.03.124.173.055-.006-.022.038.025.049.249-.055.022.039-.071.074.175.091.969-.1,0-.055-.046-.058-.008-.088-.011-.039.077-.1.069-.067-.06.234.025.045.233.2.11-.112.4-.044-.057-.283-.01-.043-.044-.13-.132-.086-.022-.113,0-.022.033-.121-.061-.258-.047-.063.04-.041.087.1.143.481.044-.066-.074-.6.195-.388.03-.21Zm-8.968-2.223Zm6.816,4.293-.941.113-.321-.012-.025-.08.156-.289.017,0,.052,0,.016-.149.227-.251.014-.036.049-.1.052-.022-.068-.088-.021-.149.063-.04.118-.022.1.154-.057.152.089.186-.025.18.187.05.074.105Z" transform="translate(-148.991 -471.262)" fill="#00923f"/>
    <path id="NG-CR" d="M325.061,439.131l.342-.056.27-.224.156-.2.22-.052.236.077.44.016.358-.1.36-.22-.088-.515.174-.137.242-.077.265-.068.242.008.622.194.99.616.064.188-.076.546.139.1.5.05,1.1-.257.354.025.171.082.633.656.559.759.074.178h0l-.249.955-.59-.253-.089.211,0,.227-.066.084-.124.108-.321.557-.37.108-.187.136-.137.135-.109.286-.113.111-1,.89-.436.313-.128.038-.188.263-.194.1-.149.169.046.1.156.119-.12.169.046.1-.052.11-.168.214-.065-.066.006.172.584.646.035.2-.275.464-.073.275-.128.156.024.446-.207.673.017.751-.291.481-.216.088-.009.1-.153.119-.14.378-.143.119.111.117-.1.04-.112.142.006.065-.116.044.01.2-.226.086-.117.143,0,.11.137.131.039.175-.277.167-.125-.027-.078-.082-.118.094-.073.174-.086.061-.018.168.077.008.069-.2.03.287-.041.064-.049-.077-.069.016.066.165-.169.031.007.087-.2.033-.168-.069.058-.2.123-.014-.145-.184-.092.14-.133.055-.237-.053-.074-.132.088-.08.024-.018-.035-.1-.156.047-.129-.072-.273.25h0l-.068-.116-.42-.322-.433-.5-.364-.321-.391-.562-.187-.588.07-.7-.045-.24-.568-.307-.546.064-.09-.222-.1-.035-.076-.205.132-.281.1-.011h0l.392.087.069-.139-.087-.292-.2-.229-.084-.192-.157-.53-.017-.433.068-.426-.124-.148h0l.044-.274.268-.356-.041-.3.167-.144.039-.155.227-.262.009-.277-.131-.206.022-.112.26-.124.3-.021.308.515.154-.238.247-.088.252-.2.032-.15.215-.033.25.144.1-.1.078-.263.011-.3.092-.168.793-.961,0-.16-.213-.3V441.4l.189-.187.251-.042.1-.195-.027-.12-.158-.115-.047-.172-.06-.042.011-.222-.147-.128-.057-.2-.309-.214-.228-.3Z" transform="translate(-285.939 -389.038)" fill="#00923f"/>
    <path id="NG-DE" d="M157.22,462.816l-.17-.835.009-.157-.129-.129-.244-1.1-.215.234-.47-.044-.427.093-.938.586-.842.355-.462.519-.073.006-.3-.451-.116-.048-.191-.036-.2.181-.1.232-.017.271.046.086.167.093.062.552.232.411.224.277.215.167.255.093.033.2-.08.371-.178.219-.187.19-.353.232-.262.352-.318.228-.207.069-.6.119-.244-.064.08-.206-.183-.184.234-.462-.054-.1-.448-.269-.229-.324-.535-.3-.363-.143-.188-.154-.586.212-.212.273-.2-.046-.26-.227-.158-.033-.363.077-.341-.082-.113.035-.072.034-.007.118.1.18-.06.121-.47.369-.19.008-.006-.283-.076-.292.08-.336-.017-.164-.19-.191-.622-.321-.79,1.917.284.513.159.1.066-.183.15-.143.889-.483.144-.025.212-.147.129-.062.041.058,0,.019-.229.109-.116.183-.008.03-.1-.061-.258.112-.364.287-.039.086-.227-.052-.12.094-.091.36.03.176.3.515.364.36.128-.061.345-.153.34.047.085-.362.132-.246,0-.044.046-.034h0l.044.014-.026.016-.027.218-.128.26.115.244.219.072.187-.031.181-.364.183.011.022-.029h0l.342.176.128.077.022.055L148.32,467l.031.088.011.151-.152-.04.111-.077-.038-.154-.128-.082-.358-.033-.069.016.01.187-.063.129-.268.226.115-.181-.205.017-.241-.063-.509-.077-.224.022-.014.1-.186.124-.144.191.317.454.348.3.692.3.583.033,0-.074-.136-.159-.109-.332-.03-.052.008-.085.054-.014-.022.094.115.252.1-.069h.041l-.008.025-.109.124.03.057.3.128.065-.024.189-.55.1-.167.11-.071-.073-.038.367.014.055.017.12-.053.053-.129.085-.044.128.019.109.1.07-.076.01.026-.014.086-.1,0-.158-.108-.116.192-.181.091-.207-.014.025.1-.11-.112-.151.041-.063.346.031.151.066.124.052.083.385.125-.034.092-.178-.128-.074.041,0,.08-.008.025-.056.015.037-.168-.036-.014-.049-.039-.052-.053-.052.055-.085.057-.041.061-.09.014-.128.065.1.053.235-.011-.34.11-.046.072-.115-.184-.069.006-.032,0-.29.017-.134.072-.008-.045-.079-.008-.047-.036-.077.025-.1-.049.006.279.219.874-.027.19.238.259.235-.1.3-.019-.1-.155-.01-.128.017-.028.057-.273.033,0-.017.069.017.047-.06.308.1.063-.011.175-.092.036.241.24.332.19.349.081.308.183.115.126.266-.046.108.042.857-.47.3.048.378-.188.17-.352.086-.057.242.147.113.19.216.077.265-.071.141-.228.345.028.186-.064.324-.179-.03-.265.041-.109.168.009.09.069.242-.06.23-.47.314-.056.4.05.582-.251.137-.1-.088-.283-.065-.119.024-.05.4-.207.022-.607.08-.169.235-.163.1-.2.094-.364-.125-.405.026-.04.116-.134.22-.447.039-.3.2-.537.286-.521.044-.688.145-.418Z" transform="translate(-128.497 -409.421)" fill="#00923f"/>
    <path id="NG-EB" d="M303.192,444.517l-.019.1.074.176.459.422.2.085.161-.068.113-.235.143-.943.4-.046.338.029.22-.107.2-.33.391-.042.117-.265.2.149.1.488.195.26h0l.056.331.228.3.309.214.057.2.147.128-.011.222.06.042.047.172.158.115.027.12-.1.195-.251.042-.189.187v.183l.213.3,0,.16-.793.961-.092.168-.011.3-.078.263-.1.1-.25-.144-.215.033-.032.15-.252.2-.247.088-.153.238-.308-.515-.3.021-.26.124-.022.112.131.206-.009.277-.227.262-.039.155-.167.144.041.3-.268.356-.043.274h0l-.154-.024-.368-.267-.08-.119-.025-.251-.142-.213-1.614-.1-.108-.118-.006-.084.063-.328-.008-.5h0l.416-.116.228.195.088.01.242.288.084.008.074-.165-.092-.334-.017-.3.306-.313.092-.2-.113-.76-.071-.292-.124-.122,0-.141.314-.7v-.667l-.074-.132-.044-.377-.169-.561.739.063Z" transform="translate(-267.226 -394.103)" fill="#00923f"/>
    <path id="NG-ED" d="M150.779,395.489l.088.073.2-.042.08.041.032.078-.044.1.053.074.25-.029.031.092-.11.212-.026.221.032.12.124.089.244.061.68-.336.179.241.074-.008.144.161.063-.007.225.255.259-.022.085-.058.293.017.121.23.008.14.1.07.055.2.085.064-.027.058.076.187.43-.1.049.044.167-.113.214-.047.2.161.063.243.166.124.09.23.017.391-.035.22-.186.451.007.477-.219.552-.247.407.147.246-.107.632.1.3.161.23.118.691h0l.008.033h0l-.215.233-.468-.044-.427.093-.938.585-.842.355-.462.519-.074,0-.3-.451-.116-.047-.19-.037-.2.182-.1.231-.017.271.046.086.167.093.062.552.233.41.224.277.215.167.255.093.032.2-.079.371-.178.219-.186.19-.353.233-.263.352-.317.228-.207.069-.6.119-.244-.065.08-.206-.183-.184.232-.462-.054-.1-.447-.269-.229-.324-.536-.3-.362-.143-.188-.153-.586.212-.212.273-.2-.046-.26-.227-.158-.033-.363.077-.34-.082-.113.036-.073.034-.007.118.1.18-.06.121-.468.37-.19.008-.006-.283-.076-.292.081-.336-.017-.164-.19-.191-.622-.32h0l.045-.133-.141-.259-.152-.119-.179-.01-.189-.337-.222-.156-.08-.007-.05-.1.029-.068-.032.05.092-.08.11-.416.066-.07.338-.1.1-.428.2-.2.1-.224.04-.2-.065-.166-.16-.261L144,402.4v-.325l.093-.112-.011-.254.056-.11.2-.186.052-.118.2-.092.09-.26.11-.079.01-.223.052-.089.252-.116.244.046.261-.044.192.041.76.013.377-.044.188.039.2.238-.23.259.241.625.085,0,.432-.362.153.014.136.169.093.04.307-.117.173-.388.109-.568.029-.029.136.058v-.187l.1-.06-.017-.093-.135-.147.07-.531.142-.19.174-.084.042-.1-.037-.1.37-.789-.017-.159.054-.119.2-.21.246-.12.164-.405-.049-.032-.088-.284.1-.331-.23-.094-.046-.1.021-.159.161-.2.179.016.1-.069Z" transform="translate(-127.099 -351.437)" fill="#00923f"/>
    <path id="NG-EK" d="M140.064,364.966l.047-.019.07.191.118.056.513-.143.109.042.168.236.109.056.267-.026.263.071.223-.066.148.063.119-.247-.033-.072.094-.254.471-.153.66-.01h0l-.125.048,0,.49.063.052.284-.163.42-.073.265.031.064.08-.032.157-.153.073-.262.345-.009.179.151.43.151.11.147,0,.212.194.781.274h0l-.174.275-.094.034-.172-.143-.213.045-.1.236-.25.166-.275.284-.129.245-.2.928-.195.449-.349.507-.633.4-.26-.068-.125-.307.018-.1-.119-.365-.163-.254-.178-.06-.8.036-.891-.05-.521.166h0l-.1-.195-.1-.434-.326-.7-.079-.547.136-.457-.093-.322.014-.16.218-.487.186-.172.25-.108.228-.188Z" transform="translate(-123.171 -323.896)" fill="#00923f"/>
    <path id="NG-EN" d="M262.672,426.447l.313-.574.1.029.021.261.085.006.152.23.079.039.142-.038.569-.617.685-.442.708-.85.279-.1.245-.24.379-.087.279.086.127.186h0l-.015.061.314.746.331.384.41.316.334.174.241-.084.253-.242.322.04.174.132.163.245.1.644-.261.735h0l-.205.041-.739-.063.169.561.044.377.074.132v.667l-.314.7,0,.141.124.123.071.292.113.76-.092.2-.306.313.017.3.092.334-.074.165-.084-.008-.242-.287-.088-.01-.228-.195-.416.116h0l-.038-.167-.235-.153-.31-.031-.553.1-.069-.088h0l-.1-.02,0-.062-.128-.085-.124-.01-.19.11-.274-.16-.087-.112-.021-.173-.215-.434.04-.246-.152-.072-.068-.3-.07-.015-.216.129-.082-.085.057-.186-.047-.157.094-.033.034-.11-.15-.212-.153-.417-.163-.206-.441-.133-.045-.062.049-.269.071-.1-.027-.11.212-.284.194-.13.086-.124.143-.4-.041-.09-.427-.195-.235-.009-.279-.162-.439.015-.01-.415Z" transform="translate(-233.122 -376.722)" fill="#00923f"/>
    <path id="NG-FC" d="M256.795,284.854l.7-.072.367.037.174.1.129-.1.207-.348.121-.062.123.049.168.356.108.036.135-.09h0l-.008.279-.048.071-.118.008-.061.07-.242.747-.009.644.058.251-.063.8-.227.6-.174.911-.09.041-.124.389-.119.188-.433.529-.8.417-.53.121-.333.137-1.275.2h0l-.16.053-.854-.017h0l-.21.024-.163-.054-.223-.562.053-.157-.086-3.46.041-1.565.039-.044.307-.038,1.263-.054.2.072,1.053.928.108-.028Z" transform="translate(-224.336 -252.568)" fill="#00923f"/>
    <path id="NG-GO" d="M490.668,161.322l.1-.1.478-.173.463.019.341.116.25.148.972.717.544.733.392.41-.115.176.181-.117.422.387.077.558-.137,1.357.088.739.034.058h.777l.155.378-.071.346-.593.866.093.324.278.4.21.208.648.268.359.707.207.183.448.252h0l-.078,1.172.06.424-.126.267-.659.458-1.077.648-.386.164-.71.1h0l-.73.054-1.427,0-.676.069-.409-.081h0l.066-.018.015-.109-.194-.243-.3-.6-.07-.709-.141-.434-1.048-.812-.286-.161-.491-.5-.038-.186.15-.219.228-.105.447-.072.1-.2-.046-.328.055-.988-.238-.566-.825-.3-.1-.132-.1-.819-.131-.2-.845-.342.023-.158.413-.581.3-.851.111-.566.158-.232.165-.156.448-.1.171-.087.23-.2.294-.424.692-.376.31-.431Z" transform="translate(-432.78 -142.985)" fill="#00923f"/>
    <path id="NG-IM" d="M249.679,497.489l.23.194.612.2.119.166.054.155.043.97-.141.088.173.279-.032.235.041.4-.049.23-.1.1-.135.348-.208.192-.241.443-.354,1.174h0l-.294.109-.518-.129-.244,0-.475.121-.537-.127-.77.016-.245-.047-.247-.189-.2-.389-.211-.149-.03-.157.125-.316.06-.53-.052-.19-.243-.088-.4.077-.173-.05.315-1.5h0l.239-.1.344-.439.186-.092.517.22.307-.031.271-.528.107-.407.2-.119.723-.133.616.143Z" transform="translate(-217.619 -442.086)" fill="#00923f"/>
    <path id="NG-JI" d="M348.459,58.063l.205.135.687.084.36-.206.241-.457.609-.3.362-.072.323-.157.725-.224.253.143.244.547.079.5.167.29.128-.082.671-.213.572.254.233-.07.212.1.253.389.2,1.321.1.332h0l-1.267.794-.014-.159-.1-.188-.113-.094-.4.063-.52.223-.768,2.358.065.215,0,.258-.136.108-.714.287-1.253.427-.627.348-.706.053-.369.52-.056.488.155.072.3,0,.243-.118.315-.031.207.057.167.506.06.495-.288.573.063.2.135.127.44-.108.054.294.12.286.607.85.342.212.732.088.655.145,1.016.064.119.167-.126.312-.212.159-.165.089-.463.113-.29.156-.175.219,0,.206.127.393-.213.065-.282-.071-.213-.156-.179-.019-.641.159-.653-.136-.155-.156-.093-.235.1-.9-.062-.246-.306-.561-.131-.034-.409.1-.882.055-.359-.024-.2-.42-.263-.084-.384.167-.851-.276-.687-.126-.115.022h0l-.009-.257.124-.426.815-.788-.1-.132-.239-.061-.324-.3-.169-.315-.057-.229-.125-.113-.579.017-.023-.224.057-.239.385-.537.022-.235.121-.211-.022-.282-.261-.822-.143.061-.168.2L344.3,64l-.208.021-.157-.029V63.7l-.065-.165-.36.029-.218.136v-.118L343.1,63.5l.061-.2.135-.159.009-.643-.092-.337-.105-.093L342.9,62l-.623-.064-.1-.048-.117-.159.065-.23L342,61.15l-.436-.243-.129-.158-.052-.678-.891-.231-.432.04-.457.221-.2.155-.071.3-.214.413L339,60.838l-.011-.224-.4-.719h0l-.142-.3-.1-.08-.566-.014-.327-.107-.068-.082-.008-.441.086-.389,0-.308.053-.034,1.19-.158.615.113L340.379,58l.134.141.162.536.078.108.3.191.228.06.3-.173.073.179.171.08.421-.063.479-.2.365-.3.118-.3.066-.086.229-.1v-.1h0l.145-.045,1.152.05,1.033.163.6-.086.694.089,1.149.052Z" transform="translate(-299.691 -50.153)" fill="#00923f"/>
    <path id="NG-KD" d="M224.3,151.819l.354,0,.279-.077.479-.439.55-.325h.189l.467-.142.14.022.129.094.037.143-.242.46.061.294.119.135.4.21.43.141.4.473.175.063.318,0,.281.068.616.507.411.735.044.444-.116.279-.116.562.137.693-.023.2-.082.126-.407.11-.063.09.069.238.121.123.8.111.227.315.183.12.344.073.12-.033h0l-.061.454-.269.481.031.084.32.2.29.31h0l-.042.033-.024.332-.063.164-.151.179-.251.084-.218.16-.244.569-.025.31.156.323.086.4-.274.226-.039.126.021.226-.08.894.061.241-.048.123-.219.178-.046.353-.2.147.024.543-.12.16.011.133.373.6.294.353.2.139.115.239.014.391-.191.451h0l-.125.065-.3.643-.379.618-.094.082-.184.048-.283-.015-.069-.218-.612-.677-.436-.027-.172-.143-.152-.025-.148.112-.1.218-.476.544-.269.183-.132.024-.153-.11-.046-.15.006-1.111-.118-.184-.483-.279-.037-.372-.336-.306-.126-.045-.116.04-.189.243-.108.291-.265.241h-.126l-.2-.121-.153.029-.279-.205-.106-.016-.172.07-.08-.09-.069-.215-.086-.013-.153.117h0l-.135.09-.108-.036-.168-.356-.123-.049-.121.062-.207.348-.129.1-.174-.1-.367-.037-.7.072h0l-.141-.048-.282.069.158-.473-.388-.318.01-.266.064-.107.281-.148.09-.1.069-.32.354-.363-.066-.215-.344-.186.1-.346-.415-.156-.129-.088-.019-.1.033-.073.1-.048.37-.047.072-.173-.011-.354-.105-.444-.018-.58-.038-.116-.157-.077-1.474.009-.764-.285-.2-.19-.118-.227.1-.142.249-.156.186-.192.1-.169.486-.3.117-.205.035-.227-.37-.2-.553-.19.155-.474.006-.294-.227-.435-.184-.05-.258.077-.159-.016-.032-.515-.055-.22-.07-.058-.542-.057-.135.137.077.274-.073.112-.455-.064-.874.328-.119-.3-.117-.115-.333.015-.241.07-.282.172-.64.515-.616.8-.161.1-.164-.069-.14-.4-.349-.229-.025-.157.038-.265.211-.206-.027-.436.085-.229-.016-.169-.165-.273.046-.549.348-.616h0l.192-.014.147-.087.328-.476.6-.539.646-.109.909.065.539-.071.267-.173.348-.355.173-.37.073-.407.2-.391.1-.131.315-.2.268-.273.116,0h0l.505.1.222-.021.156.1.09.2-.026.123-.331.308-.045.151.727.221.487.491.2.026.308-.174.158-.219-.207-.385-.014-.234.4-.125.223.013.317.126.16-.01.066-.062v-.159l.137-.34.35-.3.159-.032.776.262.235.2.111.181.18.089.644-.257.1-.235Z" transform="translate(-188.548 -133.964)" fill="#00923f"/>
    <path id="NG-KE" d="M56.07,41.851l.758-.016.213.085.53-.181.087.036.189.243.365.208.121.126,1.095.357.338.237.35.078.208-.049.072-.064.285-.423.133-.036.124.1.046.143-.186.45.01.275-.163.341-.048.424.213.246.206.49L61,45.3,60.85,46l0,.234.192.632-.027.919-.073.179-.117,0-.363-.234-.307,0-.452.135-.147.17-.116.433-.016,1.138.09,1.495-.243,1.121-.3.645-.133.546.292.418.087.058.318.033.2-.155.275-.344,1.374-.624.194-.014.216.1.234-.082.088.2.108.008.186-.111h0l.1-.055h.208l.471.258.726-.167.094-.266.121-.071.09-.017.1.073.239.036.413-.074.124.065.194.378.329.013.418.276.626-.087.434.057.285-.068.14-.093.555.071.5.2.161.246v.283l-.235.743v.137l.616.31.221.345.158.868.024.628h0l-.156-.126-.212-.041-.392.316-.147.252-.45.047-1.386.582-1.222.079-.188-.143-.041-.46.042-.551-.055-.2-.429-.283-.093-.144-.112-.746-.194-.183-.325-.081-.417,0-1.129.182-.9.21-.507.186-.555.3-.157.237.018.176.1.144.416.23.618.251.614.061.12.23.2,0,.089.085.128.751-.029.123-.25.166-.072.168.056.166.314.187.134.156-.008.237-.116.171-.435.111-.6.3-.573-.06-.178.048-.1.086,0,1.1-.052.157.143.324.207.226.213.347.086.279-.032.175-.2.244-.3.18-.387.03-.85.286-.057.67-.064.055-.495-.053-.163-.113,0-.261.118-.376.033-.451-.336-.3-.128-.276.021-.724.167-.373.211-.229.17-.116.449-.165.529-.507.278-1.227.023-.464-.058-.085-.331-.121-.181.011-.962-.653-.6-.194-.337.008-.515.1-.709-.041-1.394.093-.213-.033-.4-.163-1.264-.7-.331-.041-.1.06h-.148L51.582,55.7l.5-2.335.243-.539.56-.479-.094-.373-.277-.208-.065-.558.363-.44-.27-1,.045-.6.145-.492-.107-1.815,1.239-1.069.885-.693,1.091-1.674.238-1.1Z" transform="translate(-45.363 -36.756)" fill="#00923f"/>
    <path id="NG-KN" d="M315.282,82.864l.4.719.011.224.123.128.214-.413.071-.3.2-.155.457-.221.432-.04.891.231.052.678.129.158.436.243.126.353-.065.23.117.159.1.048.623.064.212.064.105.093.092.337-.009.643-.135.159-.061.2.189.082v.118l.218-.136.36-.029.065.165v.294l.157.029.208-.021.266-.163.168-.2.143-.061.261.822.022.282-.121.211-.022.235-.385.537-.057.239.023.224.58-.017.125.113.057.229.17.315.324.3.239.061.1.132-.815.788-.124.426.009.257h0l-.632.249-.131-.01-.131-.123-.194.034-.284.18-.077.126-.543.478-.3.471-.314.368-.234.058-.309-.018-.117.049-.183.523-.052.4.046.789.052.228L319,96l.088.191.009.229-.152.441-.3.468-.113.064h0l-.12.033-.344-.073-.183-.12-.227-.315-.8-.111-.121-.123-.069-.238.063-.09.407-.11.082-.126.023-.2-.137-.693.116-.562.116-.279-.044-.444-.411-.735-.616-.507-.281-.068-.318,0-.175-.063-.4-.473-.429-.141-.4-.21-.119-.135-.061-.294.242-.46-.037-.143-.129-.094-.14-.022-.467.142h-.189l-.55.325-.479.439-.279.077-.354,0h0l-.412-.307-.127-.259-.089-.413.174-.306.008-.253.208-.187.43-.118.281-.195.31-.008.109-.066-.36-.893.077-.465-.239-.525.1-.725-.08-1.411.031-.331.25-.261.487-.271.875-.273.421-.221.089-.1.129-.5.245-.528.147-.06Z" transform="translate(-276.194 -73.122)" fill="#00923f"/>
    <path id="NG-KO" d="M172.226,323.919l.252.065.317.181.4.372.317.495.292.945.425.263.31.308.626.833.312.291.187.029.038-.04.071-.331.142-.29.022-.03.113.1.053-.01.007-.34.409-.2.128-.372h0l.854.017.16-.053h0l-.069.3-.178.3v.1l.094.193.251.3.062.707-.134.539,0,.537-.184.191-.1.243-.019.428.079.064.488-.338,1.061-.466,1.42-.386.81-.08.41.078.882.065h0l-.037.325.062.672.215.369.309.3.084.212v.79l.065.78.142.633.145.12.379-.037.17.054-.041.207-.141.139-.054.148-.048.45-.222.668-.378.356-.738.357-.11.165-.039.506h-.2l-.155-.12-.094.011-.386-.377-.1-.066-.047.057h0l-.127-.186-.279-.086-.379.087-.245.241-.279.1-.708.85-.685.442-.569.617-.142.038-.079-.039-.152-.23-.085-.006-.021-.261-.1-.029-.313.574h0l-.153.214-.176.1-.257.265-.142.472-.007.313-.211.288-.164.1-.411-.076-.191.088h0l-.118-.691-.161-.23-.1-.3.107-.632-.147-.246.247-.407.219-.552-.007-.476.186-.451.036-.22-.017-.391-.09-.23-.166-.124-.063-.243-.2-.162-.214.047-.167.113-.049-.043-.429.1-.076-.187.028-.058-.085-.064-.055-.2-.1-.07-.008-.14-.121-.23-.293-.017-.085.058-.259.022-.224-.255-.063.007-.144-.161-.074.008-.179-.241-.68.336-.244-.061-.124-.089-.032-.12.026-.221.11-.212-.031-.092-.25.029-.053-.074.044-.1-.032-.078-.08-.041-.2.042-.088-.073h0l-.026-.089-.543-.478-.234-.309.081-.474-.287-.049-.529.1h0l-.781-.274-.212-.194-.147,0-.151-.11-.151-.43.009-.179.262-.345.153-.073.032-.157-.064-.08-.265-.031-.42.073-.284.163-.063-.052,0-.49.125-.048h0l.086-.165-.094-.276-.545-.3-.015-.068-.277-.207-.008-.077-.276-.281-.22-.424.019-.113.245-.278.262-.448.425-.463.412-.262.2.3.249.2.806.345.211.009.316.124.425-.024.244.079.449-.014.722.174.347-.057.18-.431.073-.743.265-.892Z" transform="translate(-147.381 -287.86)" fill="#00923f"/>
    <path id="NG-KT" d="M267.851,34.749l1.049.155.594.158.41.222.334.286.313.084,1.133,1.1.377-.1.334.044.347.178.262.2.212.242.119.279.339.157.6.145,1.387.449h0v.1l-.229.1-.066.086-.118.3-.365.3-.479.2-.421.063-.171-.08-.073-.179-.3.173-.228-.06-.3-.191-.078-.108-.162-.536-.134-.141-1.056.089-.615-.113-1.19.158-.053.034,0,.308-.086.389.008.441.068.082.327.107.566.014.1.08.142.3h0l-.53.041-.147.06-.245.528-.129.5-.089.1-.422.221-.875.273-.487.271-.25.261-.031.331.08,1.411-.1.725.239.525-.077.465.36.893-.109.066-.31.008-.281.195-.43.118-.208.187-.008.253-.174.306.089.413.127.259.412.307h0l-.113.126-.1.235-.644.257-.18-.089-.111-.181-.235-.2L265,48.868l-.159.032-.35.3-.137.34V49.7l-.066.062-.16.01-.317-.126-.223-.013-.4.125.014.234.207.385-.158.219-.308.174-.2-.026-.487-.491-.727-.221.045-.151.331-.308.026-.123-.091-.2-.156-.1-.222.021-.505-.1h0l0-.267.143-.7-.1-.423-.219-.218-.018-.123.052-.431.179-.474.074-.458.172-.1L262,45.86l.147.1.559-.455.063-.367.383.093.216-.186-.057-.223-.133-.164-.307-.262-.29-.133-.144-.139.208-.416.125-.591-.109-.283.015-.192-.079-.349-.286-.6.046-.409-.15-.368-.045-.544-.115-.592.008-.693-.113-.707.165-1.239h0l.557-.18.6-.614,1,.089.41-.085,2.68-1.621.147-.038Z" transform="translate(-231.521 -30.522)" fill="#00923f"/>
    <path id="NG-KW" d="M10.739,235.234l.616-.105,1.3-.04.415.107,1.6,1.816.228.355.643.742.262.181.195-.021.119.055.031.337-.084.533.007.616.1.421.149.045.867-.09.1.085.049.186-.022.393.04.16.076.117.368.276.348.045.123.063.1.242.085.624.216.151H18.9l1.049-.408.276-.018.727.345.163.126.727.828.258.079.454-.133.518.093.427.184.073-.031,1.348.838.594.42.107.171.167.081.211.069.563.037.388-.1.861-.035.946.2h0l-.282.384-.265.892-.073.743-.18.431-.347.057-.722-.174-.449.014-.244-.079-.425.024-.316-.124-.211-.009-.806-.345-.249-.2-.2-.3-.412.262-.425.463-.262.448-.245.278-.019.113.22.424.276.281.008.077.277.207.015.068.545.3.094.276-.086.165h0l-.66.01-.471.153-.094.254.033.072-.119.247-.148-.063-.223.066-.263-.071-.267.026-.109-.056-.168-.236-.109-.042-.513.143-.118-.056-.07-.191-.047.019h0l-.045-.062-.191.092-.4.015-.17-.363-.25-.066-.543.195-.3-.044.009.1-.021-.1-.041.01-.407.184-.3.035-.947-.025h0l-.056-.076L16.8,250.1l-.081-.108-.218-.551-.045-.317-.089-.076,0-.092-.4-.258-.338-.486-.14-.394-.01-.241-.09-.317-.226-.3-.344-.814-.19-.219-.151-.606-.093-.181.118-.515.238-.177.04-.183.065-.068.362-.239.268-.362-.018-.149-.15-.089-.324.206-.253.009-.439-.124-.126.015-.275-.176-.653-.2-.372-.277-.194-.234-.062-.284-.467-.282-.234.01-.438.238-.194.425,0,.3-.052.127-.506.393-.76.334-.663.378-.285.222-.129.03-.345.253-.8.373-.107.017-.061-.086-.052.013-.1-.129-.079-.022-.294.031-.794.633-.19.076-.448.394-.022.113-.172.09-.467.082-.363,0-.365.318h0l.064-.2-.068-.156v-.405l-.081-.1.027-.165.063-.159-.045-.31-.111-.205.085-.16.164-.1-.046-.383.079-.026.039-.2-.023-.071,0-.1.079-.188.049-.179-.047-.087-.031-.088-.04-.089.015-.134.029-.2.018-.079.615.021.081-.018.12-.135.407-.064.076.094.142.052.171-.011.567-.2.029-.2.223-.444.019-.428.219-.215-.039-.667-.147-.459L6.952,240l.133-.215.283-.158.094-.21.3-.415.1-.355.119-.068.245.029.239-.2.011-.14-.153-.293-.037-.221.042-.153.127-.14.773-.309.388.027.131-.034.231-.236.014-.149.27-.3.065-.276.029-.569.1-.126.238-.1Z" transform="translate(-3.285 -208.862)" fill="#00923f"/>
    <path id="NG-LA" d="M2.774,450.871l.143.046.391-.049.222.1.4-.279v-.184l.047-.013.407.061,1.57-.022.121-.116.088-.452.238-.189.01-.269.156-.288.212.029.391.164.137.092.093.164.523-.055-.058-.166.182-.121,4.3.045.123.024.062.1-.313.33-.026.108.084.142,0,.167.251.125.369-.247.4-.047.121.169.014.109-.128.121-.321.15-.064.118.025.08.105.085.317.088.129.15.066.016.128-.066.6.074.04.143-.041.27h0L13.2,451.45l-.251-.077-1.377-.211-.984-.053-1.135.108-1.731.018-.065.036-.022.151-.061-.011.027.039-.621-.094H6.294l-2.474.084-1.087.126-.041-.356Z" transform="translate(-2.072 -398.946)" fill="#00923f"/>
    <path id="NG-NA" d="M269.574,284.618l.153-.117.086.013.069.215.08.09.172-.07.106.016.279.205.154-.029.2.121H271l.265-.241.108-.291.189-.243.116-.04.126.045.336.306.037.372.483.279.118.184-.006,1.111.046.15.153.11.132-.024.269-.183.476-.544.1-.218.148-.112.152.025.172.143.436.027.612.677.069.218.283.015.184-.048.094-.082.379-.618.3-.643.125-.065h0l.194.189.277.013.238.1.072.513.221.391.247.112.609.064h.424l.317-.155.119.064.23.253-.09.336-.309.459-.242.227-.161.023-.167.12-.178.328-.178.156-.037.258.073.2.239.278.037.142-.034.62.165.237.59.31.419.149.938-.017,1.118-.32,1.187.5.289.237.167.307h0l-.3.422-.314.094-.517-.109-.038-.047-.174.026-.115-.123-.2-.1h-.213l-.147.1-.152.245-.084.328.2.156.232.288.04.33-.062.074.115.307-.013.136-1.286.826-.139.159h0l-1.35-1.023v.08l-.454.025-.559-.047-.786-.178L276.213,293l-.307-.05-.3.021-.158.032-.452.252-.142.162-.117.328.009.289.538,1.333-.01.156-.131.126-.61-.255-.38-.321-.123.016-.6-.113-.564-.323-1-.407-.975-.143-1.046-.284h0l-.882-.065-.41-.078-.81.08-1.42.386-1.061.466-.488.338-.079-.064.02-.428.1-.243.184-.191,0-.537.134-.539-.062-.707-.251-.3-.094-.194v-.1l.177-.3.069-.3h0l1.275-.2.333-.137.53-.121.8-.417.433-.529.119-.188.124-.389.09-.041.174-.911.227-.6.063-.8-.058-.251.009-.644.242-.747.061-.07.118-.008.048-.071Z" transform="translate(-235.083 -252.501)" fill="#00923f"/>
    <path id="NG-NI" d="M57.953,161.75l.1-.06.331.041,1.264.7.4.163.213.033,1.394-.093.709.041.515-.1.337-.008.6.194.962.653.181-.011.331.121.058.085-.023.464L65.05,165.2l-.529.507-.449.165-.17.116-.211.229-.167.373-.021.724.128.276.336.3-.033.451-.118.376,0,.261.163.113.495.053.064-.055.057-.67.85-.286.387-.03.3-.18.2-.244.032-.175-.086-.279-.213-.347-.207-.226-.143-.324.052-.157,0-1.1.1-.086.178-.048.573.06.6-.3.435-.111.116-.171.008-.237-.134-.156-.314-.187-.056-.166.072-.168.25-.166.029-.123-.128-.751-.089-.085-.2,0-.12-.23-.614-.061-.618-.251-.416-.23-.1-.144-.018-.176.157-.237.555-.3.507-.186.9-.21,1.129-.182.417,0,.325.081.194.183.112.746.093.144.429.283.055.2-.042.551.041.46.188.143,1.222-.079,1.386-.582.45-.047.147-.252.392-.316.212.041.156.126h0l.38.5.435.76.182.468-.008.1h0l-.348.616-.046.549.165.273.016.169-.085.229.027.436-.211.206-.038.265.025.157.349.229.14.4.164.069.161-.1.616-.8.64-.515.282-.172.241-.07.333-.015.117.115.119.3.874-.328.455.064.073-.112-.077-.274.135-.137.542.057.07.058.055.22.032.515.159.016.258-.077.184.05.227.435-.006.294-.155.474.553.19.37.2-.036.227-.117.205-.486.3-.1.169-.186.192-.249.156-.1.142.118.227.2.19.764.285,1.474-.009.157.077.038.116.018.58.105.444.011.354-.072.173-.37.047-.1.048-.033.073.019.1.129.088.415.156-.1.346.344.186.066.215-.354.363-.069.32-.09.1-.281.148-.064.107-.01.266.388.318-.158.473.282-.069.141.048h0l-.991,1.413-.108.027-1.053-.928-.2-.072-1.263.054-.307.038-.039.044-.041,1.564.086,3.46-.053.157.223.562.163.054.21-.024h0l-.128.372-.409.2-.007.34-.053.01-.113-.1-.022.03-.142.29-.071.331-.038.04-.187-.029-.312-.291-.626-.833-.31-.308-.425-.263-.292-.945-.317-.495-.4-.372L75.918,179l-.252-.065h0l-.946-.2-.861.035-.388.1-.563-.037-.211-.069-.167-.081-.107-.171-.594-.42-1.348-.838-.073.031-.427-.184-.518-.093-.454.133-.258-.079-.727-.828-.163-.126-.727-.345-.276.018-1.049.408h-.229l-.216-.151-.085-.624-.1-.242-.123-.063-.348-.045-.368-.276-.076-.117-.04-.16.022-.393-.049-.186-.1-.085-.867.09-.149-.045-.1-.421-.007-.616.084-.533-.031-.337-.119-.055-.195.021-.262-.181-.643-.742-.228-.355-1.6-1.816-.415-.107-1.3.04-.616.105h0l.056-.346-.224-.08-.241-.231-.2-.405.353-.8-.016-.194.1-.131.3-.152.7.365.115-.357.029-.342.323-.736-.076-.71-.308-.218-.34-.641.139-.527.015-.234-.141-.578-.244-.094.048-.223L58,162.047l.058-.223Z" transform="translate(-50.197 -142.337)" fill="#00923f"/>
    <path id="NG-OG" d="M.422,371.4l.684-.491.4-.024.218.106.142.205.047.164.017.742.064.27.15.249.1.015L2.347,372l.065-.143.054-.052h.157l.1.07.062.2-.018.354-.2.685-.047-.028-.058.065.06.419.243.287.349.283.117.348.367.517.345.27.268.129.464.032.2-.056.318-.455.131-.486.186-.17.3.033.2.5.182.129.117-.03.129-.127.283-.069.71.025.134.216.038.648.047.081.341.14.073.126-.011.254.126.309.047.329-.455.459-.038.129.042.032.7-.029.309-.066.348.015.364-.142.173-.157.675-.1h0l.314-.124.16-.127.108.045.06.1.068.49h.226l.441-.227.388.068.34.814.35-.224.126,0,.132.079.243-.105.476-.03.036.015-.034.116h0l-.086.63-.121.373-.269.241-.236.111-.416.376-.341.564,0,.391.23.226.551.093.21-.015.163-.121.189-.26.2-.058.074.089,0,.512.1.409-.082.207-.279.076-.088.131-.128.078-.275.013-.151.153.112.049.32-.029.378.2.024.124-.094.2-.459-.032h0l-.573-.257-.5-.107h0l.041-.27-.04-.143-.6-.074-.128.066-.066-.016-.129-.15-.317-.088-.105-.085-.025-.08.064-.118.321-.15.128-.121-.014-.109-.121-.169-.4.047-.369.247-.251-.125,0-.167-.084-.142.026-.108.313-.33-.062-.1-.123-.024-4.3-.045-.182.121.058.166-.523.055-.093-.164-.137-.092-.391-.164-.212-.029-.156.287-.01.269-.238.189L4,381.058l-.121.116-1.57.022-.407-.061-.047.013v.184l-.4.279-.222-.1-.391.049L.7,381.513h0l.048-.376L.88,381l.072-.176L.8,380.4l.149-.247.242-.206.023-.314-.024-.11-.245-.032-.089-.045-.047-.1-.019-.208.137-.218L.885,378.8l.055-.4-.025-.112-.149-.016L.7,378.2l.017-.328.16-.184.35-.2-.282-.255L.9,377.12l.214-.252.068-.22-.076-.534-.175-.19-.014-1.11.271-.009.094-.055,0-.082-.048-.4-.307-.234-.025-.2-.112-.174-.034-.481.029-1.026-.034-.109L.656,372l-.111-.3-.194-.249Z" transform="translate(0 -329.534)" fill="#00923f"/>
    <path id="NG-ON" d="M115.044,383.37l.529-.1.287.049-.081.474.234.309.543.478.026.089h0l-.281.4-.1.069-.179-.016-.161.2-.021.158.046.1.231.094-.1.331.088.285.048.032-.164.405-.246.12-.2.21-.054.119.017.159-.37.789.037.1-.042.1-.173.084-.142.191-.071.53.135.147.018.094-.1.058v.187l-.136-.058-.029.029-.109.568-.173.388-.307.118-.093-.041-.136-.169-.153-.014-.432.362-.085,0-.241-.625.23-.258-.2-.239-.188-.039-.377.045-.76-.013-.192-.041-.261.044-.243-.045-.252.116-.053.089-.01.225-.109.078-.09.26-.2.092-.052.119-.2.184-.056.11.01.254-.092.113v.325l.141.073.159.261.066.166-.041.2-.1.224-.2.2-.1.428-.337.1-.066.071-.11.415-.092.08.032-.05-.029.069.05.1.08.006.222.156.189.337.179.011.152.119.142.259-.045.133h0l-.79,1.917h0l-.557-.68-1.05-1.058-1.7-1.37-.309-.19h0l.458.032.1-.2-.024-.123-.378-.2-.32.029-.112-.049.151-.155.275-.011.127-.078.089-.131.279-.076.082-.208-.1-.409v-.512l-.073-.089-.2.058-.189.26-.163.121-.21.015-.55-.093-.23-.224,0-.391.341-.564.416-.376.236-.11.269-.241.123-.372.085-.631h0l.306-.163.246-.569.491-.394.266,0,.287.142.333.254.207,0,.073-.144-.026-.187.047-.242-.053-.456.179-.749.1-.065.671-.182-.071-.275h0l.521-.166.891.049.8-.036.178.061.163.253.118.365-.018.1.125.308.261.068.633-.4.348-.507.2-.449.195-.928.129-.245.275-.284.25-.166.1-.236.213-.043.172.142.094-.034Z" transform="translate(-92.407 -340.586)" fill="#00923f"/>
    <path id="NG-OS" d="M88.289,364.108l.947.025.3-.035.407-.184.041-.01L90,364l-.009-.1.3.044.543-.195.25.066.17.363.4-.015.191-.092.045.062h0l-.174.607-.228.188-.25.108-.186.172-.218.487-.014.16.093.322-.136.457.079.547.326.7.1.434.1.195h0l.071.276-.671.181-.1.066-.179.749.053.456-.046.242.026.187-.073.144-.207,0-.333-.254-.287-.142H89.37l-.49.4-.246.568-.306.164h0l.034-.116-.035-.015-.476.03-.243.105-.132-.079-.126,0-.35.224-.34-.814-.388-.068-.441.227H85.6l-.068-.49-.06-.1-.108-.045-.16.127-.314.124h0l.268-1.127.049-.606.191-1-.1-.056-.349-.559-.356-.267-.031-.107-.016-.1.132-.125.089-.2.1-1.062.069-.032.492.153.266-.086.089-.113.015-.263.121-.065.322-.38.345.211.411.637.244-.107.074-.164.235-.133.112-.159.032.045.21-.173.262-.087.029.044.113-.153.036-.147Z" transform="translate(-74.556 -323.105)" fill="#00923f"/>
    <path id="NG-OY" d="M1.468,300.16l.365-.318.363,0,.467-.082.172-.091.022-.113.448-.394.19-.076.794-.633.294-.031.079.022.1.129.052-.013.061.086.107-.017.8-.373L6.132,298l.129-.03.285-.222.663-.378.76-.334.506-.393.052-.127,0-.3.194-.425.438-.238.234-.01.467.282.062.284.194.234.372.277.653.2.275.176.126-.015.439.124.253-.009.324-.206.15.089.018.149-.268.362-.362.239-.065.068-.04.183-.238.178-.118.515.093.181.151.606.19.219.344.814.226.3.09.317.01.24.14.394.338.486.4.258,0,.092.089.076.045.317.218.551.081.108.166.008.056.076h0l.061.367-.036.147-.113.153-.029-.044-.262.087-.21.173-.032-.045-.112.159-.235.133L13.23,305l-.244.107-.411-.637-.345-.211-.322.38-.121.065-.015.263-.089.113-.266.086-.492-.154-.069.032-.1,1.062-.089.2-.132.125.016.1.031.107.356.267.349.559.1.056-.191,1-.049.606-.268,1.127h0l-.675.1-.173.157-.364.142-.348-.015-.309.066-.7.029-.042-.032.038-.129.455-.459-.047-.329-.126-.309.011-.254-.073-.126-.341-.14-.047-.081-.038-.648-.134-.216-.71-.025-.283.069-.129.127-.117.03-.182-.129-.2-.5-.3-.033-.186.169-.131.486-.318.455-.2.056-.464-.032-.268-.129-.345-.27-.367-.517-.117-.348-.349-.283-.243-.288L3,306.435l.058-.065.047.027.2-.685.018-.354-.062-.2-.1-.07H3.006l-.054.052-.065.143-.108.637-.1-.015-.15-.249-.064-.27-.017-.742L2.4,304.48l-.142-.205-.218-.107-.4.024-.684.491h0l.123-.238.084-.492.152-.475-.034-.128.042-.309.129-.259.041-.331-.279-.351-.134-.457.009-.231.12-.214-.05-.235.055-.08.143-.034.157-.33-.049-.05.084-.111v-.123Z" transform="translate(-0.54 -262.613)" fill="#00923f"/>
    <path id="NG-PL" d="M365.87,223.065l.175-.056.364.009.318.1.3.476.089.55,0,1.418,1.256-.251.121.024.206.22.111.358.03.68-.026.134-.273.512-.01.194.069.1.449.163.09.081.1.133.189.466.179.153.173.061.55.031.626.169,1.15-.068.5-.161.331-.6.545-.149.057-.191-.031-.2-.363-.465.034-.165.347-.2.87.452.294.058,1.061.565,1.268.543.708.463.728.393h0l.179.451.024.246-.058.467.087.683.263.442.12.689-.063.152.034.258h.049l.024.635-.2.353-1.4.671-.218-.013-1.09.241-.285.165-.236.48-.543.655-.814.431-.88.876-.278.136-.505.116-.471.062-.441-.029h0l-.167-.307-.289-.237-1.187-.5-1.118.32-.938.017-.419-.149-.59-.31-.165-.237.034-.62-.037-.142-.239-.278-.073-.2.037-.258.178-.156.178-.328.167-.12.161-.023.242-.227.309-.459.091-.336-.23-.253-.119-.064-.317.155h-.424l-.609-.064-.247-.112-.221-.391-.072-.513-.238-.1-.277-.013-.194-.189h0l.191-.451-.014-.391-.115-.239-.2-.139-.294-.353-.373-.6-.011-.133.12-.16-.024-.543.2-.147.046-.353.219-.178.048-.123-.061-.241.08-.895-.021-.226.039-.126.274-.226-.086-.4-.156-.323.025-.31.244-.569.218-.16.251-.084.151-.179.063-.164.024-.332Z" transform="translate(-323.46 -198.099)" fill="#00923f"/>
    <path id="NG-RI" d="M235.892,518.867l-.167.159,0,.088-.071-.027.025-.163.165-.094Zm-.36-.211-.2-.112-.063.017-.063.017-.024-.079.1-.09-.036-.077.036-.074-.008-.12-.065-.093-.1-.02-.025.018-.081-.195-.031-.019.016-.053-.1-.1-.031.041-.11.017-.022.094.065.118.057.12.047.234-.055-.026-.052.072.123.4-.016.145.134.463-.027.025.088.053.236-.049.046-.052.015-.066.2.056,0-.255.077-.179Zm-.435-1.175.047.053.25.01.022-.1-.047-.035-.194.034Zm.145-.282.041.129.06.022-.033-.218Zm.825,1.115-.165-.328-.115-.08-.187-.093-.031-.014-.1.075.074.01.15.129.016.024-.026.053.06.107.014.22.148.137.1.019.077-.161-.023-.1Zm.678.7-.238-.3-.15.187.091.09.093-.028.044.1h.087l.025.071.134-.057.124.124.213-.171-.071-.063Zm-2.28-.757-.128.061-.032.151.131.046.165.124.118.261-.033-.385-.041-.017.03-.171Zm2.077.293-.271-.186-.178-.269,0-.031-.055-.195-.055.049-.046-.041.049-.077,0-.171-.014-.008-.065.212-.258-.08-.061-.011-.1-.124-.008-.174-.041-.033-.008-.053-.03-.02-.017-.074.057-.09-.112-.14-.093.061-.039.1.074.176-.236.088-.047.041-.107.044-.06.006-.115.088-.053.071-.01-.173-.066.085-.025.058.115.189.063.281-.15.052-.061.024-.158-.184-.081-.218-.166-.276-.172-.058.064-.178-.078-.254.112-.093.04-.055-.061-.077-.207-.027-.207-.127-.032.182-.1.065-.038-.088-.145-.016-.039-.039-.073.022-.088,0-.071-.1-.022-.016-.063.047.022.113-.016.038.053.036.145.145-.014.175.112.531.369.379,0,.135-.207.167-.011.067.208.751.063.38.276.284-.033.038-.829.079-.257-.086-.01-.31-.027-.291.016-.053,0-.019-.053-.31-.022-.086.222-.42-.022-.306-.077.017-.078.011-.454-.3-.137-.5-.158-.214-.228,0-.749.291-.119-.03-.04-.222.048-.167-.379-.165-.057-.1.008-.5.218-.306.087-.235,0-.145-.148.018-.1-.089.152-.508.514-.9.317.02.063-.057.086-.285.176-.09-.026-.207.181-.122.109-.169,0-.222-.072-.176-.087-.066-.22-.1-.337.056-.119-.032-.065-.119.024-.05.4-.207.022-.607.08-.169.235-.163.1-.2.094-.364-.125-.405.026-.04.127.147.275.024-.315,1.5.173.05.4-.077.243.089.05.19-.06.529-.125.316.03.157.211.149.2.391.247.189.245.047.77-.016.538.128.475-.123.244,0,.517.129.294-.109.063.006.076.2.007.318-.275.48-.391.5-.157.425-.018.125.069.127.166.161.206.031.358-.068.127-.073.32-.014.376.14.207-.048.337.16.269.205.223.4.072.263-.11.489.066.521-.058.037,0,.073.07.134-.14.088-.1-.082-.019-.112-.14-.031-.063-.03-.03.053-.159.135-.066-.028-.03-.041-.044,0-.081.045-.172-.27-.145.11-.106-.041-.183-.057-.074-.118-.077.022-.085-.1-.071.058-.022.091-.1.038.039.124.031.118.027.069.089.069.088-.028.065.009.1-.035-.019.2-.2.02-.165.061-.085-.137-.011-.038-.12-.134-.017-.108.013-.025Zm2.465.494-.079-.045-.049,0-.1-.041,0,0-.046-.041-.048.053-.037-.015.04-.062-.1-.171-.1.061-.119-.1-.041-.039-.019-.058h-.159l-.03.032-.141.1-.152-.006-.053,0-.049-.026-.072-.072-.061-.035-.01-.093-.142.039-.118,0,0-.048-.143-.039-.1-.053-.153-.01-.055.027-.026.067,0,.09h.2l.01.009.134.122.026.077.041.157.1.036.018-.046.039.032.123,0,.007.025-.211.085-.049.017-.079.275.626.088.479-.105.679-.016-.022-.14Zm-5.575-2.07.09-.02.105-.09.009-.128.148.1.183.072-.11.134.049.212.031.037,0,.066-.069.108.025.073.116.036.144.155.237.5-.107.07-.048.1.017.1.361.212.069.332.1.151-.014.159.055.184.17.129-.128.159-.11.041-.1-.057-.069.047-.731-.159-.093-.291.061-.071-.069,0-.156-.446-.093-.218.011-.236.187-.179-.02-.155-.207-.19-.194-.132-.087-.465-.033-.066,0-.208-.088-.124.142-.085.1.072h.077Z" transform="translate(-204.531 -453.491)" fill="#00923f"/>
    <path id="NG-SO" d="M100.812.229l1.475.651,2.351.83.458.269.531-.171.418,0,.978.472,1.819,1.782.685,1.193h0l-.347.3-.813.458-1.089-.147-.218-.076-.195-.235-.26-.078-.569-.022-.068.628-.084.216-.057.025-.309-.165h-.32l-.555.179-.242.208-.013.08.089.589.008.967-.155.115-.463.188-1.148.09-.7.109-.668.983-.215.214-.352.219.007.33.164.531.074.487-.085.347-.282.195-.7.061-.147-.033-.55.073-.3-.036-.512.038L97.389,11.9l-.105.069-.107.517.011,2.086-.076,1.578h0l-.186.111-.108-.008-.088-.2-.234.082-.216-.1-.194.014-1.374.624-.275.344-.2.155-.318-.033-.087-.058-.292-.418.133-.546.3-.645.243-1.121-.09-1.495.016-1.138.116-.433.147-.17.452-.135.307,0,.363.234.117,0,.073-.179.027-.919-.192-.632,0-.234.149-.694.021-.38-.206-.49L95.3,7.431l.048-.424.163-.341-.01-.275.186-.45L95.642,5.8l-.124-.1-.133.036-.285.423-.072.064-.208.049-.35-.078-.338-.237L93.036,5.6l-.121-.126-.365-.208-.189-.243-.087-.036-.53.181-.213-.085-.758.016h0l.01-1.883.474,0,1.9-1.67L96.03.966l.276.245.654.055.739-.082.555.064.61-.018.6-.717" transform="translate(-80.064)" fill="#00923f"/>
    <path id="NG-TA" d="M409.308,269.928l.526-.3.67.089,1.213-.555.738.125.457,0h0l.409.081L414,269.3l1.427,0,.73-.054h0l.624,1.166.167.22.533.124.238.148.6,1.125-.053.249.039.44.3.337.474.168.231.44.03.207-.115.415-.686,1.31.043.662-.05.238-.7.6-.988,1.319-.582.628-.435.369-.474.547-.094.181.289.771.333.538.31.281.312-.228.324-.459.188-.043.163.049.174.128.286.361.495.44.246.3.119.231-.066.629.085.2.043.405.222.529-.006.179.14.1h0l-.566.628-.125.222-.1.335.043.678.105.38.152.243-.021.148-.112.084-.463-.04-.078.053-.236.007-.021.188-.2.086-.176.221-.219.049-.125.482-.243.074-.157.312.007.057.108-.006.053.05.01.2.1.013.022.1-.113.049-.071.132.108.174-.009.119-.22.127-.025.369-.167.165-.065.219-.207.089-.2-.1-.069.062-.142.017-.053.073.053.1-.021.2-.05.057-.429.078-.048.025-.023.157-.157-.021-.347-.233-.258.116-.077-.08-.345-.076-.163-.14-.066.006-.14.161-.233-.009.028-1-.233-.247-.257-.013-.27.245-.325-.055-.213-.1-.164-.387-.135-.251-.14-.093-.134-.008-.15-.242-.014-.084.19-.549-.3-.211-.171-.023-.069.085-.194-.246-.118-.009-.172-.184-.088-.008-.041-.174-.143-.072-.046.053-.168-.041-.212-.181.06-.221-.046-.239-.189-.15-.087.545.009.331-.159.689-.1.115-.191.065-.039.1-.073.013-.108-.111-1.8.174-.3-.353.071-.2-.1-.236-.022-.135.008-.093-.1-.037-.939.848-.073.128-.279.2-.128.211-.529.53-.153-.082-.252-.011-.183-.025-.092-.07-.1.244.034.09-.087.111-.043.206.041.232-.032.123-.069.042-.117.323-.155.615-.057.045-.078-.039-.151.042-.118-.151-.05.053h0l.218-.938,0-1,.038-.124-.07-.084.242-1.317.379-.706.394-.372.354-.222.105-.164-.033-.678.273-.675.068-.37-.064-.2.03-.119-.134-.156.016-.074-.959-.867-.509-.647-.589-.561-.857-.2-.937-.055-.856.109-.7.3-.218-.065.434-.684h0l.139-.159,1.286-.826.013-.136-.115-.307.062-.074-.04-.33-.233-.287-.2-.156.084-.328.152-.245.147-.1h.213l.2.1.115.123.174-.026.038.047.517.109.314-.094.3-.421h0l.441.029.471-.062.505-.116.278-.136.88-.876L406,276.5l.543-.655.236-.48.285-.165,1.09-.241.218.013,1.395-.671.2-.353-.024-.635h-.049l-.034-.258.063-.152-.12-.689-.263-.442-.087-.683.058-.467-.024-.246Z" transform="translate(-354.555 -239.305)" fill="#00923f"/>
    <path id="NG-YO" d="M444.676,32.449l1.426.022,1.095.137,1.232.479,1.339.292.313.173.7.592.547.344.181.016.034-.094.115-.032.189.074.071-.06-.063-.135.171.018.195.108.19-.048.1.081.072.123.119-.071.326.07.085.057.106.014h.113l-.009.482-.171.919.141.441.166.208.55.44.055.428-.211.482-.271.353-.809.723-.063.252.2.439-.006.663L452.6,42.3l-.015.4.194.852-.541,1.047.017.222.073.041.562-.024.359.429.1.381-.113.242-.52.507-.378.676-.331.384-.1.328,0,.34L452,48.6l-.027.337-.239.353-.7.418-1.284.346-.3.22-.2.324-.07.317.032.961-.391.519-.348.079h-.776l-.034-.058-.088-.739.137-1.357-.077-.558-.422-.387-.181.117.115-.176-.392-.41-.544-.733-.972-.717-.25-.148-.341-.116-.463-.019-.478.173-.1.1h0l-.348-.042-.187-.175.113-.777.12-.312.026-.563-.956-2.395-.023-.443-.109-.31-.038-.309-.024-.772-.362-.534.022-.207-.088-.811-.131-.336-.886-.709h0l-.1-.332-.2-1.321-.253-.389-.212-.1-.232.07-.572-.254-.671.213-.128.082-.167-.29-.079-.5-.244-.547-.253-.143-.725.224-.323.157-.362.072-.609.3-.24.457-.36.206-.687-.084-.205-.135h0l.845-.859.372-.527.467-.4.594-.67.456-.291,1.037-.465,1.839-.108,1.437-.538,2.243-.123Z" transform="translate(-385.753 -28.53)" fill="#00923f"/>
    <path id="NG-ZA" d="M159.021,44.805l.624.747.582-.013.383-.07h0l-.165,1.239.113.707-.008.693.115.592.045.544.15.368-.046.409.286.6.079.349-.015.192.109.283-.125.591-.208.416.144.139.29.133.307.262.133.164.057.223-.216.186-.383-.093-.063.367-.559.455-.147-.1-.757.015-.172.1-.074.458-.179.474-.052.431.018.123.219.218.1.423-.143.7,0,.267h0l-.116,0-.268.273-.315.2-.1.131-.2.391-.073.407-.173.37-.348.355-.267.173-.539.071-.909-.065-.646.109-.6.539-.328.476-.147.087-.192.014h0l.008-.1-.182-.468-.435-.76-.38-.5h0l-.024-.628-.158-.868-.221-.345-.616-.31V56.8l.235-.743v-.283l-.161-.246-.5-.2-.555-.071-.14.093-.285.068-.434-.057-.627.087-.418-.276-.329-.013-.194-.378-.124-.065-.413.074-.239-.036-.1-.073-.09.017-.121.071-.094.266-.726.167-.471-.258h-.208l-.1.055h0l.076-1.578-.011-2.086.107-.517.105-.069,1.069.191L148,50.9l.3.036.55-.073.147.033.7-.061.282-.195.085-.347-.074-.487-.164-.531-.007-.33.352-.219.215-.214.668-.983.7-.109,1.148-.09.463-.188.155-.115-.008-.967-.089-.589.013-.08.242-.208.556-.179h.32l.309.165.057-.025.084-.216.068-.628.569.022.26.078.195.235.218.076,1.089.147.813-.458.347-.3h0Z" transform="translate(-129.623 -38.845)" fill="#00923f"/>
  </g>
</svg>
