<svg id="portfolio" xmlns="http://www.w3.org/2000/svg" width="56.272" height="51.089" viewBox="0 0 56.272 51.089">
  <g id="Group_28" data-name="Group 28">
    <g id="Group_27" data-name="Group 27">
      <rect id="Rectangle_81" data-name="Rectangle 81" width="13.328" height="8.145" transform="translate(21.472 33.319)" fill="#00923f"/>
      <path id="Path_74" data-name="Path 74" d="M37.021,279.2v3.924a1.185,1.185,0,0,1-1.037,1.259h-15.7a1.185,1.185,0,0,1-1.037-1.259V279.2H3.48A6.288,6.288,0,0,1,0,277.42v10.366c0,1.851,1.629,4,3.48,4H52.792c1.851,0,3.48-2.147,3.48-4V277.42a6.288,6.288,0,0,1-3.48,1.777Z" transform="translate(0 -240.695)" fill="#00923f"/>
      <path id="Path_75" data-name="Path 75" d="M52.792,91.429H3.48A3.21,3.21,0,0,0,0,94.465v18.881c0,1.851,1.629,4,3.48,4H19.251v-4.294c0-.592.444-.888,1.037-.888h15.7c.592,0,1.037.3,1.037.888v4.294H52.792c1.851,0,3.48-2.147,3.48-4V94.465A3.21,3.21,0,0,0,52.792,91.429Z" transform="translate(0 -81.063)" fill="#00923f"/>
      <path id="Path_76" data-name="Path 76" d="M112.676,23.765a2.436,2.436,0,0,1,2.74-2.517h13.772a2.436,2.436,0,0,1,2.74,2.517v3.406h2.962V23.765a5.388,5.388,0,0,0-5.7-5.479H115.415a5.388,5.388,0,0,0-5.7,5.479v3.406h2.962Z" transform="translate(-94.165 -18.286)" fill="#00923f"/>
    </g>
  </g>
</svg>
