<svg id="team" xmlns="http://www.w3.org/2000/svg" width="65.931" height="65.931" viewBox="0 0 65.931 65.931">
  <path id="Path_112" data-name="Path 112" d="M66.9,101.141l.579.335v3.676l-2.64.66,6.122,3.571-.044,2.146-.094.329,3.621-.806v-.86a5.776,5.776,0,0,1,1.662-4.045l-3.983-1,0-3.673.58-.336a5.826,5.826,0,0,0,2.905-5.023V94.091A6,6,0,0,0,69.982,88,5.8,5.8,0,0,0,64,93.8V96.12A5.82,5.82,0,0,0,66.9,101.141Zm0,0" transform="translate(-54.714 -75.636)" fill="#00923f"/>
  <path id="Path_113" data-name="Path 113" d="M120.87,12.952a15.075,15.075,0,0,1,25.6-.069c.046-.046.087-.1.135-.144a8.091,8.091,0,0,1,2.45-1.629l1.317-3.083-3.7-3.705-3.264,2.124-.625-.383a17.321,17.321,0,0,0-5.026-2.085l-.715-.172L136.234,0h-5.083l-.805,3.807-.714.171a17.339,17.339,0,0,0-5.026,2.085l-.625.383-3.264-2.124L117.008,8.03l1.3,3.1A8.211,8.211,0,0,1,120.87,12.952Zm0,0" transform="translate(-100.727)" fill="#00923f"/>
  <path id="Path_114" data-name="Path 114" d="M0,184v21.218l4.982,1.661L9.194,190.03Zm0,0" transform="translate(0 -158.14)" fill="#00923f"/>
  <path id="Path_115" data-name="Path 115" d="M163.852,75.429a8.15,8.15,0,0,1-3.482-6.66V66.447a8.072,8.072,0,0,1,.853-3.614,12.76,12.76,0,0,0-22.648.094,8.555,8.555,0,0,1,.9,3.813v2.029a8.152,8.152,0,0,1-3.483,6.661v.556l4.644,1.162,4.643-1.162v-.557a8.15,8.15,0,0,1-3.482-6.66V66.447a8.127,8.127,0,0,1,8.375-8.122,8.34,8.34,0,0,1,7.876,8.414v2.029a8.152,8.152,0,0,1-3.483,6.661v.556l4.644,1.162,4.643-1.162Zm0,0" transform="translate(-116.957 -47.875)" fill="#00923f"/>
  <path id="Path_116" data-name="Path 116" d="M56.29,235.5l-2.647-1.544L49.551,250.32l2.285.761h.1l4.357-15.253Zm0,0" transform="translate(-42.361 -200.95)" fill="#00923f"/>
  <path id="Path_117" data-name="Path 117" d="M154.637,106.813A3.48,3.48,0,0,0,152,110.192v.343l.665-.147a14.334,14.334,0,0,1,7.438.339l5.255,1.679a7.241,7.241,0,0,1,1.722.247l7.138,2.039h.711l.287-.151v-4.349a3.48,3.48,0,0,0-2.637-3.379l-6.648-1.661,0-3.673.58-.336a5.826,5.826,0,0,0,2.905-5.023V94.091A6,6,0,0,0,163.786,88a5.8,5.8,0,0,0-5.982,5.8V96.12a5.82,5.82,0,0,0,2.9,5.021l.579.335v3.676Zm0,0" transform="translate(-130.642 -75.664)" fill="#00923f"/>
  <path id="Path_118" data-name="Path 118" d="M317.044,93.8V96.12a5.82,5.82,0,0,0,2.9,5.021l.579.335v3.676l-3.984,1a5.779,5.779,0,0,1,1.662,4.045v3.127L330.97,106.6l-5.8-1.449,0-3.673.58-.336a5.826,5.826,0,0,0,2.905-5.023V94.091A6,6,0,0,0,323.027,88a5.8,5.8,0,0,0-5.982,5.8Zm0,0" transform="translate(-272.008 -75.65)" fill="#00923f"/>
  <path id="Path_119" data-name="Path 119" d="M108.458,264.73a2.394,2.394,0,0,0-2.783-.268l-4.323,2.592a3.888,3.888,0,0,1-5.887-3.335v-.23a3.867,3.867,0,0,1,2.15-3.478l5.8-2.9-1.71-.547a11.957,11.957,0,0,0-6.228-.282l-7.836,1.742-3.126,10.94,3.566,2.14a3.513,3.513,0,0,1,.325-.4l2.04-2.04a3.614,3.614,0,0,1,6.169,2.434,3.614,3.614,0,0,1,3.482,3.482,3.614,3.614,0,0,1,3.482,3.482,3.611,3.611,0,0,1,3.117,2.029l2.591,2.159a1.911,1.911,0,0,0,1.22.442,1.211,1.211,0,0,0,.775-2.141l-6.113-5.093,1.487-1.784,6.3,5.253a1.206,1.206,0,0,0,.774.282h.253a1.211,1.211,0,0,0,.775-2.141l-6.113-5.093,1.487-1.784,6.295,5.246a1.248,1.248,0,0,0,.8.29h.2a1.249,1.249,0,0,0,.836-2.177Zm0,0" transform="translate(-72.765 -220.249)" fill="#00923f"/>
  <path id="Path_120" data-name="Path 120" d="M196.02,220.5l-1.766-.044-7.295-2.084a5.051,5.051,0,0,0-3.618.336l-6.475,3.237a1.559,1.559,0,0,0-.867,1.4v.23a1.567,1.567,0,0,0,2.37,1.346l4.324-2.593a4.67,4.67,0,0,1,5.532.533l9.806,8.827c.07.062.136.126.2.194l19.556-9.778V209.039Zm0,0" transform="translate(-151.857 -179.659)" fill="#00923f"/>
  <path id="Path_121" data-name="Path 121" d="M228.283,443.191a3.6,3.6,0,0,1-.731,1.079l-.872.872.868.766a1.205,1.205,0,0,0,.8.3h.215a1.211,1.211,0,0,0,.775-2.141Zm0,0" transform="translate(-194.503 -380.28)" fill="#00923f"/>
  <path id="Path_122" data-name="Path 122" d="M195.342,424a1.31,1.31,0,0,0-.92.381l-2.04,2.04a1.3,1.3,0,0,0,1.841,1.841l2.04-2.04a1.3,1.3,0,0,0-.92-2.222Zm0,0" transform="translate(-164.761 -363.873)" fill="#00923f"/>
  <path id="Path_123" data-name="Path 123" d="M148.643,377.3a1.3,1.3,0,0,0-2.222-.92l-2.04,2.04a1.3,1.3,0,0,0,1.841,1.841l2.04-2.04A1.31,1.31,0,0,0,148.643,377.3Zm0,0" transform="translate(-123.571 -322.838)" fill="#00923f"/>
  <path id="Path_124" data-name="Path 124" d="M172.643,401.3a1.3,1.3,0,0,0-2.222-.92l-2.04,2.04a1.3,1.3,0,0,0,1.841,1.841l2.04-2.04A1.311,1.311,0,0,0,172.643,401.3Zm0,0" transform="translate(-144.166 -343.355)" fill="#00923f"/>
  <path id="Path_125" data-name="Path 125" d="M124.643,353.3a1.3,1.3,0,0,0-2.222-.92l-2.04,2.04a1.3,1.3,0,0,0,1.841,1.841l2.04-2.041A1.31,1.31,0,0,0,124.643,353.3Zm0,0" transform="translate(-102.976 -302.062)" fill="#00923f"/>
</svg>
