<svg xmlns="http://www.w3.org/2000/svg" width="72.487" height="71.591" viewBox="0 0 72.487 71.591">
  <g id="cart_1_" data-name="cart (1)" transform="translate(0 -3.009)">
    <path id="Path_564" data-name="Path 564" d="M26.167,199.1l-8.5-5.248.878-2.413-.1.04a6.122,6.122,0,0,1-8.35-5.008L8.876,175.591c-.021-.184,0-.361-.006-.543L3.8,188.984c-.727,2-.155,3.956.384,5.852.107.378,3.572,10,3.572,10L.84,214.2a4.286,4.286,0,1,0,6.893,5.094l8.3-11.234A4.286,4.286,0,0,0,16.6,204l-.355-.941,3.16,1.951-1.031,11.348a4.287,4.287,0,0,0,3.882,4.656c.132.012.263.018.392.018a4.288,4.288,0,0,0,4.265-3.9l1.27-13.99A4.287,4.287,0,0,0,26.167,199.1Z" transform="translate(0 -146.428)" fill="#fcb320"/>
    <path id="Path_565" data-name="Path 565" d="M81.731,128.089,82.056,131l2.681-1.068A7.318,7.318,0,0,0,71.3,124.5a6.091,6.091,0,0,1,10.432,3.593Z" transform="translate(-60.685 -100.288)" fill="#fcb320"/>
    <path id="Path_566" data-name="Path 566" d="M98.32,18.164a7.577,7.577,0,1,0-7.575-7.577A7.577,7.577,0,0,0,98.32,18.164Z" transform="translate(-77.236)" fill="#fcb320"/>
    <path id="Path_567" data-name="Path 567" d="M317.422,301.173H294.767a3.215,3.215,0,0,0-3.215,3.215v9.032a3.215,3.215,0,0,0,3.215,3.215h22.656a3.215,3.215,0,0,0,3.215-3.215v-9.032A3.215,3.215,0,0,0,317.422,301.173Z" transform="translate(-248.149 -253.778)" fill="#fcb320"/>
    <path id="Path_568" data-name="Path 568" d="M277.286,188.6h12.629a3.215,3.215,0,0,0,3.215-3.215v-8.045a3.215,3.215,0,0,0-3.215-3.215H277.286a3.215,3.215,0,0,0-3.215,3.215v8.045A3.215,3.215,0,0,0,277.286,188.6Z" transform="translate(-233.271 -145.641)" fill="#fcb320"/>
    <path id="Path_569" data-name="Path 569" d="M130.9,190.851H102.732V162.838a2.448,2.448,0,0,0-2.449-2.449H96.6a3.665,3.665,0,0,0-4.76-4.781l-8.01,3.191-.684-6.1a3.673,3.673,0,1,0-7.3.816L77.063,164.4a3.672,3.672,0,0,0,5.008,3.005l7.982-3.179a2.4,2.4,0,0,0,1.963,1.06h5.817V193.3a2.449,2.449,0,0,0,2.449,2.449h2.99a4.056,4.056,0,0,0,7.95,0h9.195a4.056,4.056,0,0,0,7.95,0H130.9a2.449,2.449,0,0,0,0-4.9Z" transform="translate(-64.534 -124.627)" fill="#fcb320"/>
  </g>
</svg>
