<svg xmlns="http://www.w3.org/2000/svg" width="50" height="50" viewBox="0 0 50 50">
  <g id="Group_409" data-name="Group 409" transform="translate(-1150 -8981)">
    <circle id="Ellipse_29" data-name="Ellipse 29" cx="25" cy="25" r="25" transform="translate(1150 8981)" fill="#001a0b" opacity="0.091"/>
    <g id="Icon_feather-instagram" data-name="Icon feather-instagram" transform="translate(1161.609 8992.809)">
      <path id="Path_398" data-name="Path 398" d="M8.1,3H18.286a5.1,5.1,0,0,1,5.1,5.1V18.286a5.1,5.1,0,0,1-5.1,5.1H8.1a5.1,5.1,0,0,1-5.1-5.1V8.1A5.1,5.1,0,0,1,8.1,3Z" fill="none" stroke="#001a0b" stroke-linecap="round" stroke-linejoin="round" stroke-width="2"/>
      <path id="Path_399" data-name="Path 399" d="M20.173,15.413a4.076,4.076,0,1,1-3.434-3.434,4.076,4.076,0,0,1,3.434,3.434Z" transform="translate(-2.906 -2.865)" fill="none" stroke="#001a0b" stroke-linecap="round" stroke-linejoin="round" stroke-width="2"/>
      <path id="Path_400" data-name="Path 400" d="M26.25,9.75h0" transform="translate(-7.454 -2.164)" fill="none" stroke="#001a0b" stroke-linecap="round" stroke-linejoin="round" stroke-width="2"/>
    </g>
  </g>
</svg>
