<svg id="Group_440" data-name="Group 440" xmlns="http://www.w3.org/2000/svg" width="157.743" height="144.191" viewBox="0 0 157.743 144.191">
  <path id="Path_403" data-name="Path 403" d="M497.659,190.105a55.909,55.909,0,0,0-3.918-49.2l-89.323,12.368,85.6-17.84a55.819,55.819,0,0,0-99.528,41.639Z" transform="translate(-350.402 -104.502)" fill="#f2f2f2"/>
  <path id="Path_404" data-name="Path 404" d="M409.908,519.317a55.831,55.831,0,0,0,102.537,3.793Z" transform="translate(-366.608 -434.251)" fill="#f2f2f2"/>
  <path id="Path_405" data-name="Path 405" d="M322.966,313.9c0,21.934-32.339,39.713-72.229,39.713-21.43,0-40.68-5.13-53.907-13.281-8.63-5.316-14.7-11.92-17.131-19.217a22.619,22.619,0,0,1-1.191-7.214c0-21.931,59.856-120.861,72.229-39.711S322.966,291.972,322.966,313.9Z" transform="translate(-178.508 -209.424)" fill="#fcb320"/>
  <path id="Path_406" data-name="Path 406" d="M291.8,636.316c0,8.1-25.576,14.665-57.127,14.665A189.293,189.293,0,0,1,202,648.345c-8.63-5.317-14.7-11.92-17.131-19.217,9.795-4.463,28.43-7.477,49.807-7.477C266.229,621.651,291.8,628.218,291.8,636.316Z" transform="translate(-183.68 -517.435)" opacity="0.1"/>
  <path id="Path_407" data-name="Path 407" d="M384.206,218.728c-4.527-7.65-13.484-8.006-13.484-8.006s-8.728-1.116-14.327,10.535c-5.219,10.859-12.421,21.345-1.16,23.887l2.034-6.331,1.26,6.8a44.058,44.058,0,0,0,4.818.082c12.06-.389,23.546.114,23.176-4.214C386.033,235.73,388.563,226.089,384.206,218.728Z" transform="translate(-317.317 -183.377)" fill="#2f2e41"/>
  <path id="Path_408" data-name="Path 408" d="M369.757,594.187a17.853,17.853,0,0,1-.578,2.486c-.283.8-.721,1.533-.98,2.338-.826,2.566.319,5.426,2.147,7.406a12.085,12.085,0,0,0,5.892,3.5,24.039,24.039,0,0,0,5.064.532c4.706.16,9.534.3,13.994-1.21a24.311,24.311,0,0,0,4.066-1.847,3.044,3.044,0,0,0,1.055-.831,2.9,2.9,0,0,0,.381-1.7c-.01-2-.414-3.98-.318-5.973a23.68,23.68,0,0,0,.158-3.307,6.1,6.1,0,0,0-4.663-5.256,12.668,12.668,0,0,0-3.865,0,98.567,98.567,0,0,1-10.059.45c-3.432-.022-6.842-.546-10.257-.6-1.01-.016-.989.3-1.311,1.272A23.807,23.807,0,0,0,369.757,594.187Z" transform="translate(-332.482 -491.844)" fill="#2f2e41"/>
  <path id="Path_409" data-name="Path 409" d="M411.935,330.5a5.99,5.99,0,0,1-.862,2.468c-.6.816-1.57,1.283-2.213,2.064-.967,1.176-1.022,2.831-1.026,4.353a5.363,5.363,0,0,0,2.842,5.856c2.933,1.977,6.1,3.989,9.639,4.054a5.126,5.126,0,0,0,4-1.455,6.006,6.006,0,0,0,.969-1.728,22.946,22.946,0,0,0,1.624-6.985,8.2,8.2,0,0,0-.309-3.356,30.984,30.984,0,0,0-1.872-3.319,7.388,7.388,0,0,1-.711-4.372.472.472,0,0,0-.025-.317.462.462,0,0,0-.38-.154l-7.012-.5a15.251,15.251,0,0,1-1.947-.223c-.378-.077-1.376-.614-1.737-.471C412.247,326.681,412.072,329.789,411.935,330.5Z" transform="translate(-364.921 -277.427)" fill="#a0616a"/>
  <path id="Path_410" data-name="Path 410" d="M411.935,331.674a5.99,5.99,0,0,1-.862,2.468c-.6.816-1.57,1.283-2.213,2.064-.967,1.176-1.022,2.831-1.026,4.353a5.363,5.363,0,0,0,2.842,5.856c2.933,1.977,6.1,3.989,9.639,4.054a5.126,5.126,0,0,0,4-1.455,6.007,6.007,0,0,0,.969-1.728,22.946,22.946,0,0,0,1.624-6.985,8.2,8.2,0,0,0-.309-3.356,30.982,30.982,0,0,0-1.872-3.319,7.388,7.388,0,0,1-.711-4.372.472.472,0,0,0-.025-.317.462.462,0,0,0-.38-.154l-7.012-.5a15.262,15.262,0,0,1-1.947-.223c-.378-.077-1.376-.614-1.737-.471C412.247,327.85,412.072,330.958,411.935,331.674Z" transform="translate(-364.921 -278.378)" opacity="0.1"/>
  <circle id="Ellipse_54" data-name="Ellipse 54" cx="10.287" cy="10.287" r="10.287" transform="translate(43.432 33.444)" fill="#a0616a"/>
  <path id="Path_411" data-name="Path 411" d="M421.314,391.717a6.308,6.308,0,0,0,1.807,1.444,5.678,5.678,0,0,0,2.257.43,6.806,6.806,0,0,0,5.155-1.621c1.663-1.719,1.608-4.49,2.911-6.5a1.447,1.447,0,0,1,.42-.459,1.361,1.361,0,0,1,.714-.164c1.646-.015,3.08,1.052,4.374,2.07a5.761,5.761,0,0,1,1.54,1.568,5.316,5.316,0,0,1,.519,1.59,69.854,69.854,0,0,1,1.057,9.534c.114,1.764.228,3.529.22,5.3-.028,5.823-1.381,11.549-2.727,17.215a2.69,2.69,0,0,1-1.075,1.9,2.649,2.649,0,0,1-.938.229,114.757,114.757,0,0,1-11.6.966q-2.272.035-4.542-.11a2.446,2.446,0,0,1-.765-.133,2.157,2.157,0,0,1-.834-.708c-2.1-2.646-2.223-6.3-2.21-9.68q.049-12.386.885-24.752a2.723,2.723,0,0,0-.434-2.042A25.569,25.569,0,0,0,421.314,391.717Z" transform="translate(-372.858 -324.945)" fill="#d0cde1"/>
  <path id="Path_412" data-name="Path 412" d="M356.843,354.079c-.347.629-2.909,2.191-3.4,2.712-2.763,2.912-7.806,2.8-10.333,5.923a9.72,9.72,0,0,0-1.691,3.847,9.205,9.205,0,0,0,.068,5.882c.775,1.759,2.4,2.975,3.512,4.547a17.512,17.512,0,0,1,2.286,5.865,13.5,13.5,0,0,1,.626,4.608c-.171,1.764-1.025,3.378-1.528,5.077s-.591,3.722.574,5.057a5.769,5.769,0,0,0,3.482,1.588,39.991,39.991,0,0,0,4.962.432c1.467.065,3.084.077,4.211-.863a4.234,4.234,0,0,0,1.327-3.1,20.03,20.03,0,0,0-.342-3.453c-.156-1.191-.216-2.392-.267-3.592q-.338-8.076-.092-16.163a13.755,13.755,0,0,0-.164-3.354,18.385,18.385,0,0,0-1.744-4.056,15.349,15.349,0,0,1-1.7-8.108C356.821,354.039,358.079,351.84,356.843,354.079Z" transform="translate(-310.565 -299.185)" fill="#575a89"/>
  <path id="Path_413" data-name="Path 413" d="M487.571,349.938c.529.544,2.327.723,3,1.073a10.515,10.515,0,0,0,1.973.683,25.609,25.609,0,0,1,6.93,3.18,4.207,4.207,0,0,1,1.159,1,4.587,4.587,0,0,1,.641,1.81,15.406,15.406,0,0,1-.552,10.114l-1.972,6.306c-1.472,4.707-2.954,9.46-3.368,14.374a33.813,33.813,0,0,0,.3,8.164.968.968,0,0,1-.1.791.779.779,0,0,1-.483.222,4.737,4.737,0,0,1-2.736-.766,30.3,30.3,0,0,0-8.351-2.733,19.415,19.415,0,0,0,2.594-5.347,32.368,32.368,0,0,0,.784-3.677l.918-5.307a52.148,52.148,0,0,0,.787-5.868,7.346,7.346,0,0,0-.128-2.211,10.721,10.721,0,0,0-.838-1.994,17.034,17.034,0,0,1-1.627-10.174,14.862,14.862,0,0,0,.555-4.525,31.853,31.853,0,0,0-.365-4.024C485.163,345.122,486.575,348.914,487.571,349.938Z" transform="translate(-426.847 -294.825)" fill="#575a89"/>
  <path id="Path_414" data-name="Path 414" d="M341.7,412.555c-.689,1.431-1.842,2.649-2.234,4.188a9.149,9.149,0,0,0-.195,2.189,10.4,10.4,0,0,0,.325,3.291c.219.679.575,1.3.832,1.97a7.142,7.142,0,0,1,.468,2.918c-.069,1.378-.537,2.716-.574,4.095-.058,2.169.946,4.208,1.925,6.144a4.517,4.517,0,0,1,6.565-2.149,1.346,1.346,0,0,0,.3-.981q.108-3.774.209-7.549a45.139,45.139,0,0,0-.688-11.624,10.967,10.967,0,0,0-2.186-4.742c-.607-.7-2.668-2.539-3.665-1.756-.448.352-.343,1.31-.414,1.8A7.615,7.615,0,0,1,341.7,412.555Z" transform="translate(-309.183 -344.054)" fill="#575a89"/>
  <path id="Path_415" data-name="Path 415" d="M528.423,392.86a10.526,10.526,0,0,1,.352,3.167q.02,3.263-.086,6.525a12.163,12.163,0,0,1-.424,3.3c-.223.7-.566,1.357-.8,2.054-.689,2.091-.312,4.359-.253,6.559a7.453,7.453,0,0,1-.18,2.122,17.475,17.475,0,0,1-2.023,3.7,36.4,36.4,0,0,1-1.812,3.585,3.419,3.419,0,0,1-3.411,1.627,3.765,3.765,0,0,1-2.166-2.019,9.9,9.9,0,0,1-1.024-6.424c.485-2.671,2.054-5.041,2.62-7.7.777-3.646-.4-7.409-.369-11.137a5.384,5.384,0,0,1,.235-1.726,7.225,7.225,0,0,1,1.523-2.214,27.972,27.972,0,0,0,2.047-2.687c.422-.629.994-2.246,1.742-2.38C526.065,388.923,528.009,391.571,528.423,392.86Z" transform="translate(-453.208 -328.481)" fill="#575a89"/>
  <path id="Path_416" data-name="Path 416" d="M264.792,601.651a10.155,10.155,0,0,0-2.825-.3,7.05,7.05,0,0,0-6.545,8.31,11.841,11.841,0,0,0,1.119,3.058,10.218,10.218,0,0,0,3.034,4.011A11.819,11.819,0,0,0,262.254,618l7.3,2.751c1.074.4,2.149.81,3.234,1.185a63.26,63.26,0,0,0,16.892,3.358,18.29,18.29,0,0,0,5.245-.266,1.707,1.707,0,0,0,1.074-.58,1.84,1.84,0,0,0,.24-.793l.449-3.146a2.635,2.635,0,0,0-.038-1.326,2.541,2.541,0,0,0-1.214-1.144c-4.8-2.758-10.408-4.279-14.45-8.064-.951-.891-1.748-2.3-2.9-2.909-1.311-.686-2.855-1.078-4.21-1.711C270.915,603.978,268,602.389,264.792,601.651Z" transform="translate(-240.936 -500.929)" fill="#2f2e41"/>
  <path id="Path_417" data-name="Path 417" d="M330.755,622.508c2.582.809,13.481,6.413,15.349,8.37-.25.09-8.746-4.671-9-4.748a51.345,51.345,0,0,1-6.848-2.413c-.443-.2-2.876-1.167-2.766-1.726C327.612,621.361,330.3,622.364,330.755,622.508Z" transform="translate(-299.607 -517.544)" opacity="0.1"/>
  <path id="Path_418" data-name="Path 418" d="M471.088,709.071a.606.606,0,0,0,.409-.12.632.632,0,0,0,.128-.471q-.006-2.143-.012-4.286a13.177,13.177,0,0,0-3.965-.956l-6.314-.844c.145.019-.987,2.72-.814,3.08.306.635,2.645,1.2,3.3,1.5C466.12,708.014,468.5,709.161,471.088,709.071Z" transform="translate(-407.734 -583.068)" fill="#a0616a"/>
  <path id="Path_419" data-name="Path 419" d="M394.3,698.561c-1.192.19-2.523.358-3.295,1.286-.979,1.177-.562,2.931-.1,4.389a1.423,1.423,0,0,0,1.66,1.188,5.738,5.738,0,0,0,3.194-.411,14.027,14.027,0,0,0,1.241-.922,7.955,7.955,0,0,1,2.281-1.043,23.075,23.075,0,0,1,4.58-.944,7.123,7.123,0,0,0,1.8-.318,2,2,0,0,0,1.27-1.234,2.939,2.939,0,0,0-.667-2.256,9,9,0,0,0-1.92-2.373c-1.177-.914-1.759-.212-2.944.372A24.974,24.974,0,0,1,394.3,698.561Z" transform="translate(-350.755 -577.451)" fill="#a0616a"/>
  <path id="Path_420" data-name="Path 420" d="M331.913,705.583l-7.57-2.237a10.022,10.022,0,0,0-2.817-.546,3.382,3.382,0,0,0-2.587,1.046,5.039,5.039,0,0,0-.9,2.524l-.313,1.911a9.6,9.6,0,0,0-.175,2.934,3.244,3.244,0,0,0,1.5,2.417,5.179,5.179,0,0,0,3.5.053,38.113,38.113,0,0,1,7.174-.769,5.757,5.757,0,0,0,2.657-.424A3.317,3.317,0,0,0,334,709.848C334.152,708.216,333.608,706.084,331.913,705.583Z" transform="translate(-291.486 -583.399)" fill="#2f2e41"/>
  <path id="Path_421" data-name="Path 421" d="M519.036,700.659a18.381,18.381,0,0,0,2.788-1.059,12.4,12.4,0,0,1,4.16-.458,2.014,2.014,0,0,1,2.373,2.268l.634,4.432a6.957,6.957,0,0,1,.052,2.511,2.362,2.362,0,0,1-1.561,1.825c-.99.257-1.96-.375-2.895-.79-2.336-1.038-5.052-.773-7.487-1.549a1.678,1.678,0,0,1-1.121-.8,1.826,1.826,0,0,1-.087-.766c.042-1.425-.259-3.37.17-4.732C516.447,700.315,517.941,700.659,519.036,700.659Z" transform="translate(-452.707 -580.425)" fill="#2f2e41"/>
  <path id="Path_422" data-name="Path 422" d="M481.517,591.733a13.147,13.147,0,0,1,4.631-.316,4.881,4.881,0,0,1,4.9,5.509,13.032,13.032,0,0,1-2.833,8.323,7.555,7.555,0,0,1-1.619,1.559,10.664,10.664,0,0,1-2.107,1.015l-16.356,6.451a105.676,105.676,0,0,1-13.109,4.518,1.022,1.022,0,0,1-1.375-.5,33.888,33.888,0,0,1-3.585-6.558.442.442,0,0,1,.2-.7l11.569-6.647a11.7,11.7,0,0,0,2.355-1.622,5.845,5.845,0,0,0,1.209-1.683c.24-.5.262-1.683.568-2.053s1.326-.391,1.8-.534a16.335,16.335,0,0,0,1.959-.741c2.588-1.158,4.892-2.84,7.373-4.2A18.921,18.921,0,0,1,481.517,591.733Z" transform="translate(-399.168 -492.795)" fill="#2f2e41"/>
  <path id="Path_423" data-name="Path 423" d="M502.87,614.473c-1.988,1.493-4.561,2.865-6.531,4.4-.672.523-11.88,6.824-12.038,7.661,1.838.31,13.545-7.88,15.22-8.7a27.049,27.049,0,0,0,4.631-3.114c.375-.292,1.964-1.168.888-1.494C504.433,613.042,503.318,614.174,502.87,614.473Z" transform="translate(-427.079 -510.57)" opacity="0.1"/>
  <path id="Path_424" data-name="Path 424" d="M422.226,360.015H404.779a2.673,2.673,0,0,0-2.673,2.673v.979h-.19v2.189h.19v1.532h-.19V368.7h.19v16.15a2.673,2.673,0,0,0,2.673,2.673h17.447a2.673,2.673,0,0,0,2.673-2.673V362.687A2.673,2.673,0,0,0,422.226,360.015Z" transform="translate(-360.111 -304.757)" fill="#3f3d56"/>
  <path id="Path_425" data-name="Path 425" d="M244.253,164.838,235.4,160.2l-12.22,1.9-2.528,11.167,6.294-.242,1.758-4.1v4.035l2.9-.112,1.686-6.531,1.053,6.953,10.324-.211Z" transform="translate(-179.365 -130.225)" fill="#2f2e41"/>
  <path id="Path_426" data-name="Path 426" d="M357.014,462.016a4.6,4.6,0,0,0,1.652,1.643,3.23,3.23,0,0,0,2.839-.076,5,5,0,0,0,2.049-2.055,10.225,10.225,0,0,0,1.041-5.678c-.12-1.948-.536-3.866-.72-5.809-.134-1.412-.145-2.833-.155-4.252a1.414,1.414,0,0,1,.179-.86,1.688,1.688,0,0,1,.949-.474c1.941-.577,3.229-2.4,4.153-4.2a7.276,7.276,0,0,0,1.034-3.865,3.035,3.035,0,0,0-2.432-2.841,3.9,3.9,0,0,0-2.933,1.367,12.575,12.575,0,0,0-3.682,7.359,28.5,28.5,0,0,1-.5,4.105c-.8,2.839-3.284,4.579-4.524,7.133C354.6,456.331,355.354,459.526,357.014,462.016Z" transform="translate(-322.184 -364.524)" fill="#a0616a"/>
  <path id="Path_427" data-name="Path 427" d="M509.984,414.4a5.364,5.364,0,0,1-3.008,2.891,4.155,4.155,0,0,1-2.615.16,2.9,2.9,0,0,1-1.916-1.714,4.615,4.615,0,0,1-.216-1.287,13.262,13.262,0,0,1,.619-5.675c.268-.69.63-1.344.841-2.052a10.292,10.292,0,0,0,.317-2.5l.229-5.223a3.4,3.4,0,0,0-.078-1.132,3.579,3.579,0,0,0-1.582-1.7,10.4,10.4,0,0,1-3.87-4.107,2.881,2.881,0,0,1-.267-1.7,2.828,2.828,0,0,1,2.295-1.935,5.134,5.134,0,0,1,6.154,4.137c.1.589.1,1.191.161,1.787.127,1.263.528,2.48.779,3.724.618,3.064.3,6.232.908,9.3C509.245,409.926,511.171,411.6,509.984,414.4Z" transform="translate(-438.538 -327.753)" fill="#a0616a"/>
  <circle id="Ellipse_55" data-name="Ellipse 55" cx="2.189" cy="2.189" r="2.189" transform="translate(51.436 62.629)" fill="#d0cde1"/>
  <path id="Path_428" data-name="Path 428" d="M907.891,423.632a11.726,11.726,0,1,0,11.726,11.726A11.726,11.726,0,0,0,907.891,423.632Zm5.8,8.752c.006.127.009.256.009.386a8.456,8.456,0,0,1-8.514,8.517,8.358,8.358,0,0,1-4.577-1.353,6.067,6.067,0,0,0,.714.043,5.994,5.994,0,0,0,3.715-1.282,2.994,2.994,0,0,1-2.795-2.078,2.823,2.823,0,0,0,.562.056,3.008,3.008,0,0,0,.787-.1,2.993,2.993,0,0,1-2.4-2.934V433.6a2.92,2.92,0,0,0,1.359.374,3,3,0,0,1-.93-4,8.473,8.473,0,0,0,6.164,3.128,2.92,2.92,0,0,1-.077-.683,2.989,2.989,0,0,1,5.173-2.044,5.941,5.941,0,0,0,1.9-.726,3,3,0,0,1-1.316,1.655,6.045,6.045,0,0,0,1.717-.473A6.085,6.085,0,0,1,913.686,432.384Z" transform="translate(-761.874 -356.47)" fill="#3f3d56"/>
  <circle id="Ellipse_56" data-name="Ellipse 56" cx="2.084" cy="2.084" r="2.084" transform="translate(140.163 32.463)" fill="#3f3d56"/>
  <path id="Path_429" data-name="Path 429" d="M918.656,221.5h-5.209a2.612,2.612,0,0,0-2.6,2.6v5.209a2.612,2.612,0,0,0,2.6,2.6h5.209a2.612,2.612,0,0,0,2.6-2.6V224.1A2.612,2.612,0,0,0,918.656,221.5Zm-2.6,8.334a3.125,3.125,0,1,1,3.125-3.125,3.125,3.125,0,0,1-3.125,3.125Zm3.386-5.73a.779.779,0,1,1,.553-.228A.781.781,0,0,1,919.437,224.1Z" transform="translate(-773.805 -192.16)" fill="#3f3d56"/>
  <path id="Path_430" data-name="Path 430" d="M884.266,183.859a12.362,12.362,0,1,0,12.362,12.362A12.362,12.362,0,0,0,884.266,183.859Zm6.385,14.857A3.657,3.657,0,0,1,887,202.362H881.8a3.657,3.657,0,0,1-3.646-3.646v-5.209a3.657,3.657,0,0,1,3.646-3.646H887a3.657,3.657,0,0,1,3.646,3.646Z" transform="translate(-742.153 -161.565)" fill="#3f3d56"/>
  <path id="Path_431" data-name="Path 431" d="M617.163,64.718a12.163,12.163,0,1,0,12.163,12.163A12.163,12.163,0,0,0,617.163,64.718ZM621,72.078h-1.557c-1.063,0-1.266.5-1.266,1.244V74.9h2.532l-.331,2.47h-2.2v6.7h-2.823v-6.7h-2.025V74.9h2.025V73.07a3.218,3.218,0,0,1,3.471-3.379c.935,0,1.941.071,2.174.1Z" transform="translate(-525.193 -64.718)" fill="#3f3d56"/>
</svg>
