<svg xmlns="http://www.w3.org/2000/svg" width="117.11" height="165.233" viewBox="0 0 117.11 165.233">
  <g id="Group_397" data-name="Group 397" transform="translate(-167.263)">
    <path id="Path_205" data-name="Path 205" d="M500.816,119.722h-.908V94.851a14.4,14.4,0,0,0-14.395-14.395H432.821a14.4,14.4,0,0,0-14.395,14.395V231.3a14.4,14.4,0,0,0,14.395,14.395h52.692A14.4,14.4,0,0,0,499.908,231.3V137.426h.908Z" transform="translate(-232.154 -80.456)" fill="#3f3d56"/>
    <path id="Path_206" data-name="Path 206" d="M499.617,96.951h-6.878a5.107,5.107,0,0,1-4.729,7.036H457.824a5.107,5.107,0,0,1-4.729-7.036h-6.424a10.75,10.75,0,0,0-10.75,10.75V243.945a10.75,10.75,0,0,0,10.75,10.75h52.946a10.75,10.75,0,0,0,10.75-10.75h0V107.7a10.75,10.75,0,0,0-10.75-10.75Z" transform="translate(-245.676 -93.206)" fill="#fff"/>
    <path id="Path_232" data-name="Path 232" d="M335.267,460.4c2.035-2.292,5.445-2.121,8.079-1.093,3.259,1.272,5.617,4.1,8.248,6.284a17.932,17.932,0,0,0,4.509,2.831,15.975,15.975,0,0,0,5.126,1.191A15.474,15.474,0,0,0,370.921,467a16.066,16.066,0,0,0,5.912-7.418c.142-.367.269-.741.382-1.118a.341.341,0,0,0-.657-.181,15.219,15.219,0,0,1-5.364,7.685,14.841,14.841,0,0,1-9.455,2.986,15.414,15.414,0,0,1-5.111-1.052,16.7,16.7,0,0,1-4.516-2.765c-2.642-2.186-4.991-4.966-8.208-6.334-2.608-1.11-5.973-1.448-8.346.39a5.687,5.687,0,0,0-.773.724C334.495,460.245,334.975,460.729,335.267,460.4Z" transform="translate(-167.432 -372.202)" fill="#2f2e41"/>
    <path id="Path_233" data-name="Path 233" d="M702.276,331.72c-.427-2.827-2.912-4.681-5.484-5.5-3.411-1.091-6.953-.264-10.388.262a21.051,21.051,0,0,1-5.592.255,14.987,14.987,0,0,1-12.981-17.883c.085-.419.189-.834.309-1.244a.341.341,0,0,0-.657-.181,15.918,15.918,0,0,0,.416,10.026,15.491,15.491,0,0,0,6.2,7.584,16,16,0,0,0,9.64,2.434c1.972-.13,3.912-.526,5.863-.815a17.724,17.724,0,0,1,5.278-.188c2.6.4,5.566,1.781,6.5,4.44a5.48,5.48,0,0,1,.243,1C701.685,332.333,702.341,332.15,702.276,331.72Z" transform="translate(-424.189 -255.71)" fill="#2f2e41"/>
    <g id="Group_398" data-name="Group 398" transform="translate(219.102 18.495)">
      <rect id="Rectangle_151" data-name="Rectangle 151" width="65.272" height="12.887" fill="#e6e6e6"/>
      <path id="Path_235" data-name="Path 235" d="M569.15,248.152h62.489v-10.1H569.15Z" transform="translate(-567.758 -236.656)" fill="#fff"/>
      <path id="Path_238" data-name="Path 238" d="M3.849,0A3.849,3.849,0,1,1,0,3.849,3.849,3.849,0,0,1,3.849,0Z" transform="translate(3.012 2.51)" fill="#00923f"/>
      <rect id="Rectangle_152" data-name="Rectangle 152" width="37.991" height="0.837" transform="translate(16.067 4.854)" fill="#e6e6e6"/>
      <rect id="Rectangle_153" data-name="Rectangle 153" width="37.991" height="0.837" transform="translate(16.067 7.029)" fill="#e6e6e6"/>
    </g>
    <g id="Group_399" data-name="Group 399" transform="translate(219.102 38.701)">
      <rect id="Rectangle_151-2" data-name="Rectangle 151" width="65.272" height="12.887" transform="translate(0 0)" fill="#e6e6e6"/>
      <path id="Path_235-2" data-name="Path 235" d="M569.15,248.152h62.489v-10.1H569.15Z" transform="translate(-567.758 -236.656)" fill="#fff"/>
      <path id="Path_238-2" data-name="Path 238" d="M3.849,0A3.849,3.849,0,1,1,0,3.849,3.849,3.849,0,0,1,3.849,0Z" transform="translate(3.012 2.51)" fill="#00923f"/>
      <rect id="Rectangle_152-2" data-name="Rectangle 152" width="37.991" height="0.837" transform="translate(16.067 4.854)" fill="#e6e6e6"/>
      <rect id="Rectangle_153-2" data-name="Rectangle 153" width="37.991" height="0.837" transform="translate(16.067 7.029)" fill="#e6e6e6"/>
    </g>
    <g id="Group_401" data-name="Group 401" transform="translate(219.102 79.114)">
      <rect id="Rectangle_151-3" data-name="Rectangle 151" width="65.272" height="12.887" fill="#e6e6e6"/>
      <path id="Path_235-3" data-name="Path 235" d="M569.15,248.152h62.489v-10.1H569.15Z" transform="translate(-567.758 -236.656)" fill="#fff"/>
      <path id="Path_238-3" data-name="Path 238" d="M3.849,0A3.849,3.849,0,1,1,0,3.849,3.849,3.849,0,0,1,3.849,0Z" transform="translate(3.012 2.51)" fill="#00923f"/>
      <rect id="Rectangle_152-3" data-name="Rectangle 152" width="37.991" height="0.837" transform="translate(16.067 4.854)" fill="#e6e6e6"/>
      <rect id="Rectangle_153-3" data-name="Rectangle 153" width="37.991" height="0.837" transform="translate(16.067 7.029)" fill="#e6e6e6"/>
    </g>
    <g id="Group_400" data-name="Group 400" transform="translate(174.602 58.908)">
      <rect id="Rectangle_154" data-name="Rectangle 154" width="65.272" height="12.887" transform="translate(0 0)" fill="#e6e6e6"/>
      <path id="Path_236" data-name="Path 236" d="M387.15,396.152h62.489v-10.1H387.15Z" transform="translate(-385.758 -384.656)" fill="#fff"/>
      <path id="Path_237" data-name="Path 237" d="M3.849,0A3.849,3.849,0,1,1,0,3.849,3.849,3.849,0,0,1,3.849,0Z" transform="translate(3.013 2.51)" fill="#fcb320"/>
      <rect id="Rectangle_155" data-name="Rectangle 155" width="37.991" height="0.837" transform="translate(16.067 4.854)" fill="#e6e6e6"/>
      <rect id="Rectangle_156" data-name="Rectangle 156" width="37.991" height="0.837" transform="translate(16.067 7.029)" fill="#e6e6e6"/>
    </g>
    <g id="Group_402" data-name="Group 402" transform="translate(174.602 97.05)">
      <rect id="Rectangle_154-2" data-name="Rectangle 154" width="65.272" height="12.887" transform="translate(0 0)" fill="#e6e6e6"/>
      <path id="Path_236-2" data-name="Path 236" d="M387.15,396.152h62.489v-10.1H387.15Z" transform="translate(-385.758 -384.656)" fill="#fff"/>
      <path id="Path_237-2" data-name="Path 237" d="M3.849,0A3.849,3.849,0,1,1,0,3.849,3.849,3.849,0,0,1,3.849,0Z" transform="translate(3.013 2.51)" fill="#fcb320"/>
      <rect id="Rectangle_155-2" data-name="Rectangle 155" width="37.991" height="0.837" transform="translate(16.067 4.854)" fill="#e6e6e6"/>
      <rect id="Rectangle_156-2" data-name="Rectangle 156" width="37.991" height="0.837" transform="translate(16.067 7.029)" fill="#e6e6e6"/>
    </g>
  </g>
</svg>
