<svg xmlns="http://www.w3.org/2000/svg" width="501.598" height="251.517" viewBox="0 0 501.598 251.517">
  <g id="Group_396" data-name="Group 396" transform="translate(-0.098)">
    <rect id="Rectangle_147" data-name="Rectangle 147" width="223.227" height="111.613" transform="translate(259.069 16.611)" fill="#e6e6e6"/>
    <path id="Path_169" data-name="Path 169" d="M551.1,622.448l5.287-1.524a69.234,69.234,0,0,0,2.4-7.429L556.3,613.4l2.707-.78c.784-3.123,1.1-5.242,1.1-5.242s-10.723,3.194-18.8,9.426l-1,6.99-.953-5.375a28.044,28.044,0,0,0-2.482,2.5c-7.774,8.938-11.157,18.722-7.556,21.854s12.822-1.575,20.6-10.512a36.884,36.884,0,0,0,5.772-9.649Z" transform="translate(-317.692 -393)" fill="#e6e6e6"/>
    <path id="Path_170" data-name="Path 170" d="M189.157,561.4l-3.014-11.886a154.34,154.34,0,0,0-16.375-5.875l-.38,5.524-1.543-6.086c-6.9-1.97-11.6-2.838-11.6-2.838s6.341,24.114,19.642,42.549l15.5,2.722-12.04,1.736a62.461,62.461,0,0,0,5.386,5.707c19.348,17.959,40.9,26.2,48.134,18.4s-2.584-28.673-21.932-46.632c-6-5.568-13.533-10.036-21.076-13.552Z" transform="translate(-156.06 -363.797)" fill="#e6e6e6"/>
    <path id="Path_171" data-name="Path 171" d="M247.716,527.81l3.564-11.733A154.339,154.339,0,0,0,240.3,502.584l-3.181,4.532,1.825-6.007c-4.889-5.254-8.459-8.423-8.459-8.423s-7.036,23.92-5.18,46.577l11.86,10.341-11.2-4.737a62.453,62.453,0,0,0,1.66,7.67c7.28,25.375,21.469,43.568,31.692,40.635s12.609-25.881,5.329-51.256c-2.257-7.866-6.4-15.586-11.037-22.495Z" transform="translate(-185.958 -343.115)" fill="#e6e6e6"/>
    <path id="Path_172" data-name="Path 172" d="M194.275,412.807l1.245,5.6,8.711-.623-.622-6.222Z" transform="translate(-84.305 -178.998)" fill="#a1616a"/>
    <path id="Path_173" data-name="Path 173" d="M148.072,412.807l-1.244,5.6-8.712-.623.623-6.222Z" transform="translate(-59.88 -178.998)" fill="#a1616a"/>
    <circle id="Ellipse_31" data-name="Ellipse 31" cx="11.822" cy="11.822" r="11.822" transform="translate(73.881 28.471)" fill="#a1616a"/>
    <path id="Path_174" data-name="Path 174" d="M135.722,76.812l-3.111,14.312L148.166,96.1l-.622-18.045Z" transform="translate(-57.485 -33.407)" fill="#a1616a"/>
    <path id="Path_175" data-name="Path 175" d="M291.825,328.064,284,322.137s-1.5-2.162-2.127-.3-6.222,8.711-6.222,8.711L280,381.576l32.979.622s-12.886-59.479-14.532-57.429S292.447,326.819,291.825,328.064Z" transform="translate(-207.988 -268.481)" fill="#d0cde1"/>
    <path id="Path_176" data-name="Path 176" d="M314.613,320.774s-2.489,2.489-1.244,4.356.311,5.328,1.556,5.62S313.68,352.2,317.413,357.8s1.867,19.911,1.867,22.4,3.733,17.423,3.733,17.423,12.445,1.244,12.445-1.867-4.356-24.889-4.356-24.889l3.733-38.579a5.478,5.478,0,0,0-4.356-4.978c-4.356-1.244-13.067-4.356-13.067-4.356Z" transform="translate(-224.243 -268.347)" fill="#2f2e41"/>
    <path id="Path_177" data-name="Path 177" d="M333.281,393.515h-3.111s-16.178,1.244-14.934-5.6,13.689-1.867,13.689-1.867l3.733,1.867Z" transform="translate(-225.177 -295.976)" fill="#a0616a"/>
    <path id="Path_178" data-name="Path 178" d="M275.391,318.922s-5.111,3.224-5.733,4.469-14.934,8.089-14.934,13.067,4.356,10.578,4.356,10.578l5.6,54.757s9.334,3.111,9.956.622,3.111-57.246,1.867-59.735-1.245-18.667-1.245-18.667Z" transform="translate(-198.889 -267.542)" fill="#2f2e41"/>
    <path id="Path_179" data-name="Path 179" d="M261.954,478.79l-.622,3.733s.622,12.445,5.6,11.823,1.867-13.067,1.867-13.067l-.622-2.489Z" transform="translate(-201.762 -337.072)" fill="#a1616a"/>
    <path id="Path_180" data-name="Path 180" d="M275.647,422.631s.622,56,3.733,74.046,4.356,49.157,4.356,49.157,8.089,1.244,9.334,1.867,4.356-1.245,4.356-1.245l.622-92.091,11.823,41.69s1.867,50.4,5.6,51.646,14.934-1.245,14.934-1.245-4.356-47.912-5.6-49.779-4.356-56.624-9.334-66.579l-1.867-6.845S278.136,424.5,275.647,422.631Z" transform="translate(-207.988 -312.647)" fill="#2f2e41"/>
    <path id="Path_181" data-name="Path 181" d="M350.5,644.98s-3.111-2.489-3.111-.622-3.111,13.378.622,13.378,28.623,2.178,28-2.8-15.6-12.927-15.6-12.927-5.561,1.726-6.183,2.349S350.5,644.98,350.5,644.98Z" transform="translate(-238.662 -408.059)" fill="#2f2e41"/>
    <path id="Path_182" data-name="Path 182" d="M289.037,644.98s3.111-2.489,3.111-.622,3.111,13.378-.622,13.378-28.623,2.178-28-2.8,15.6-12.927,15.6-12.927,5.561,1.726,6.183,2.349S289.037,644.98,289.037,644.98Z" transform="translate(-202.711 -408.059)" fill="#2f2e41"/>
    <path id="Path_183" data-name="Path 183" d="M343.918,340.044l4.356.622,8.711,24.889s2.489,12.445-1.244,14.311-10.78,1.5-10.78,1.5l-1.043-13.947,3.111.622-3.111-6.222Z" transform="translate(-237.681 -276.728)" fill="#2f2e41"/>
    <path id="Path_184" data-name="Path 184" d="M255.857,345.55l-3.111,2.489s-3.111,31.734-2.489,34.845,4.356,41.068,4.356,41.068l10.578-2.489-7.467-75.291Z" transform="translate(-196.91 -279.123)" fill="#2f2e41"/>
    <path id="Path_185" data-name="Path 185" d="M283.112,274.433s-3.442-4.366,0-6.55v1.092s7.376-8.187,11.8-6l3.934-1.092v1.092l2.459-1.092-.492,1.637h3.442l-1.475,1.092s11.31-.546,4.426,7.641c0,0,3.272,4.909.161,7.64,0,0-2.62-6-6.062-4.365a5.482,5.482,0,0,1-5.9-.546s-6.884-.546-5.9,2.729.492,4.367.492,4.367-2.459,1.637-1.967,2.729a16.969,16.969,0,0,1,.492,4.367s-2.459-3.821-3.442-3.275S278.687,280.982,283.112,274.433Z" transform="translate(-210.488 -242.732)" fill="#2f2e41"/>
    <path id="Path_186" data-name="Path 186" d="M344.061,101.747l-26.164.65-3.522-31.2h29.685Z" transform="translate(-136.539 -30.967)" fill="#2f2e41"/>
    <path id="Path_187" data-name="Path 187" d="M457.977,424.334l-9.55,66.215s-8.277,23.557-8.914,35.017l-2.547,16.554,11.46,2.547,12.1-46.478,16.554-42.021-1.91,48.388-3.82,39.474,11.46,1.91,7-50.3,7.64-36.927s5.73-31.834-3.183-35.017Z" transform="translate(-278.15 -313.111)" fill="#2f2e41"/>
    <path id="Path_188" data-name="Path 188" d="M446.433,626.075l-1.274,15.5s13.638,7.885,9.262,9.413-10.365-.438-11.59-.785c-1.294-.367-3.709-.952-5.537-1.385a4.061,4.061,0,0,1-3.143-3.657l0-.057c-.11-1.907,4.192-18.478,4.192-18.478Z" transform="translate(-276.923 -401.13)" fill="#2f2e41"/>
    <path id="Path_189" data-name="Path 189" d="M507.761,626.761l1.074,14.818s15.53,5.77,11.527,8.106-10.258,1.551-11.527,1.444c-2.339-.2-8.162-.394-8.162-.394s-1.076.932-1.549-.919.63-18.383.63-18.383Z" transform="translate(-305.133 -401.428)" fill="#2f2e41"/>
    <circle id="Ellipse_32" data-name="Ellipse 32" cx="12.097" cy="12.097" r="12.097" transform="translate(181.1 33.548)" fill="#a1616a"/>
    <path id="Path_190" data-name="Path 190" d="M327.2,93.171l-2.547,14.007,10.823,5.094,2.547-17.827Z" transform="translate(-141.011 -40.522)" fill="#a1616a"/>
    <path id="Path_191" data-name="Path 191" d="M483.161,434.914l13.37,9.55s5.73,14.644,10.187,12.1-5.094-15.28-5.094-15.28L490.8,430.458Z" transform="translate(-298.241 -316.051)" fill="#a1616a"/>
    <path id="Path_192" data-name="Path 192" d="M545.26,430.458l1.273,7.64s-3.183,15.917-7,12.734,1.273-13.37,1.273-13.37l-.637-6.367Z" transform="translate(-322.14 -316.051)" fill="#a1616a"/>
    <path id="Path_193" data-name="Path 193" d="M482.618,341.347l-1.273-5.093-7.64-3.82-2.547,3.183-8.277,2.547,9.55,50.934s32.471,1.91,33.107-3.183-6.367-19.1-6.367-19.1,1.91-7,1.273-10.824L497.9,340.71l-10.187-3.183-2.327-2.815-2.13,3.451Z" transform="translate(-289.421 -273.418)" fill="#d0cde1"/>
    <path id="Path_194" data-name="Path 194" d="M460.495,343.847l-1.91-1.273s-3.82.637-5.094,5.73,0,28.014,3.183,32.471,12.1,17.827,12.1,17.827l12.1-5.73-12.734-14.644-3.183-18.464Z" transform="translate(-285.125 -277.828)" fill="#d0cde1"/>
    <path id="Path_195" data-name="Path 195" d="M515.836,348.354l5.094-1.273a8.622,8.622,0,0,1,4.457,5.73c1.273,4.457,8.277,26.741,7.64,28.651s5.73,14.644,5.73,14.644l-8.913.637-5.094-13.37L519.656,370Z" transform="translate(-312.452 -279.788)" fill="#d0cde1"/>
    <path id="Path_196" data-name="Path 196" d="M460.7,307.042c2.551-1.4,3.738-4.545,3.823-7.455s-.621-5.788-.676-8.7a6.724,6.724,0,0,1,.151-1.774,6.822,6.822,0,0,1,.976-2.019,18.854,18.854,0,0,1,15.159-8.716,6.731,6.731,0,0,1,2.565.472c.628.251.833.221.954.992a6.419,6.419,0,0,1,4.405.14,14.9,14.9,0,0,1,3.852,2.294,17.375,17.375,0,0,1,1.948,1.686c3.21,3.326,3.949,8.451,3.019,12.978-.3,1.472,1.148,2.893,2.349,3.8s2.586,1.734,3.176,3.117c.567,1.33.256,2.85.37,4.291a7.339,7.339,0,0,0,4.682,6.167,2.259,2.259,0,0,1-2.179.766A5.363,5.363,0,0,1,503,314a13.508,13.508,0,0,1-5.036-7.472,21.917,21.917,0,0,0-.2,4.9,13.685,13.685,0,0,0,.992,5.351,7.835,7.835,0,0,0,3.608,3.972,4.254,4.254,0,0,1-4.644-.925,9.706,9.706,0,0,1-2.672-4.453,22.193,22.193,0,0,1-1.069-8.423,12.027,12.027,0,0,0-1.509,8.2,12.536,12.536,0,0,0,4.252,7.38,24.422,24.422,0,0,1-11.178-2.815,6.328,6.328,0,0,1-2.293-1.766c-1.109-1.539-.847-3.638-.536-5.51.246-1.48-1.6-3.619-.544-4.682a1.756,1.756,0,0,1,1.177-.506,10.418,10.418,0,0,0,7.935-4.677,12.045,12.045,0,0,0,2.005-6.176,11.239,11.239,0,1,0-21.974,3.335,22.552,22.552,0,0,1,.818,3.809,29.934,29.934,0,0,0,.912,4.431c.8,2.79,2.159,5.637,4.671,7.092a7.289,7.289,0,0,1-2.777.588,17.06,17.06,0,0,1-9.319-1.114C462.76,313.154,460.492,310.206,460.7,307.042Z" transform="translate(-288.465 -249.908)" fill="#2f2e41"/>
    <path id="Path_197" data-name="Path 197" d="M472.876,297.953c9.052-3.628,17.975-4.4,26.666,0v-7.313a4.763,4.763,0,0,0-4.763-4.763H476.639a3.763,3.763,0,0,0-3.763,3.763Z" transform="translate(-293.768 -253.17)" fill="#2f2e41"/>
    <ellipse id="Ellipse_33" data-name="Ellipse 33" cx="1.334" cy="2.135" rx="1.334" ry="2.135" transform="translate(180.591 45.043)" fill="#a1616a"/>
    <rect id="Rectangle_148" data-name="Rectangle 148" width="294" height="2" transform="translate(0.098 249.518)" fill="#3f3d56"/>
    <path id="Path_198" data-name="Path 198" d="M871.068,340.739H646.71V228H871.068Zm-223.228-1.13h222.1V229.125H647.84Z" transform="translate(-369.372 -227.995)" fill="#3f3d56"/>
    <path id="Path_199" data-name="Path 199" d="M830.042,383.261a9.1,9.1,0,1,1-2.665-6.461A9.119,9.119,0,0,1,830.042,383.261Z" transform="translate(-441.175 -291.555)" fill="#00923f"/>
    <path id="Path_200" data-name="Path 200" d="M830.042,383.261a9.1,9.1,0,1,1-2.665-6.461A9.119,9.119,0,0,1,830.042,383.261Z" transform="translate(-441.741 -291.555)" opacity="0.3"/>
    <path id="Path_201" data-name="Path 201" d="M832.956,291.48a21.133,21.133,0,0,1-1.8,8.663,21.576,21.576,0,0,1-1.87,3.362,27.836,27.836,0,0,1-5.334,5.764c-.35.294-.735.6-1.249.995-.644.48-1.362.983-2.187,1.526a45.657,45.657,0,0,0-4.2,3.068,9.311,9.311,0,0,0-2.04,2.2c-.7,1.215-1.045,3.566-1.045,6.99v.565H797.995v-2.645c0-2.068.051-3.809.147-5.323a38.051,38.051,0,0,1,.429-4.1,10.167,10.167,0,0,1,1.062-3.419c1-1.667,3.413-3.933,7.369-6.928.17-.124.339-.254.514-.384.164-.113.322-.232.486-.356a23.455,23.455,0,0,0,3.763-3.334,12.025,12.025,0,0,0,.915-1.221l.074-.113a9.763,9.763,0,0,0,1.255-5.154,9.044,9.044,0,0,0-.091-1.362,7.2,7.2,0,0,0-2.294-4.589,8.207,8.207,0,0,0-5.148-2.147c-.243-.023-.469-.028-.7-.028a10.933,10.933,0,0,0-2.673.316,8.053,8.053,0,0,0-4.2,2.6,10.929,10.929,0,0,0-1.469,2.243,32.766,32.766,0,0,0-2.531,9.685l-.057.593-14.342-3.82v-6.323c.068-.254.141-.509.22-.757a28.533,28.533,0,0,1,4.312-8.832,22.413,22.413,0,0,1,2.786-3.147c.243-.243.509-.48.774-.712a25.753,25.753,0,0,1,5.7-3.752l.181-.085a28.7,28.7,0,0,1,12.449-2.645c.446,0,.972.006,1.492.034a28.435,28.435,0,0,1,12.257,3.125,24.973,24.973,0,0,1,4.764,3.21,20.352,20.352,0,0,1,7.352,13.381,23.881,23.881,0,0,1,.17,2.848Z" transform="translate(-427.561 -245.777)" fill="#00923f"/>
    <path id="Path_202" data-name="Path 202" d="M832.956,291.48a21.133,21.133,0,0,1-1.8,8.663,21.576,21.576,0,0,1-1.87,3.362,27.836,27.836,0,0,1-5.334,5.764c-.35.294-.735.6-1.249.995-.644.48-1.362.983-2.187,1.526a45.657,45.657,0,0,0-4.2,3.068,9.311,9.311,0,0,0-2.04,2.2c-.7,1.215-1.045,3.566-1.045,6.99v.565H797.995v-2.645c0-2.068.051-3.809.147-5.323a38.051,38.051,0,0,1,.429-4.1,10.167,10.167,0,0,1,1.062-3.419c1-1.667,3.413-3.933,7.369-6.928.17-.124.339-.254.514-.384.164-.113.322-.232.486-.356a23.455,23.455,0,0,0,3.763-3.334,12.025,12.025,0,0,0,.915-1.221l.074-.113a9.763,9.763,0,0,0,1.255-5.154,9.044,9.044,0,0,0-.091-1.362,7.2,7.2,0,0,0-2.294-4.589,8.207,8.207,0,0,0-5.148-2.147c-.243-.023-.469-.028-.7-.028a10.933,10.933,0,0,0-2.673.316,8.053,8.053,0,0,0-4.2,2.6,10.929,10.929,0,0,0-1.469,2.243,32.766,32.766,0,0,0-2.531,9.685l-.057.593-14.342-3.82v-6.323c.068-.254.141-.509.22-.757a28.533,28.533,0,0,1,4.312-8.832,22.413,22.413,0,0,1,2.786-3.147c.243-.243.509-.48.774-.712a25.753,25.753,0,0,1,5.7-3.752l.181-.085a28.7,28.7,0,0,1,12.449-2.645c.446,0,.972.006,1.492.034a28.435,28.435,0,0,1,12.257,3.125,24.973,24.973,0,0,1,4.764,3.21,20.352,20.352,0,0,1,7.352,13.381,23.881,23.881,0,0,1,.17,2.848Z" transform="translate(-427.561 -245.777)" opacity="0.3"/>
    <path id="Path_203" data-name="Path 203" d="M819.042,383.261a9.1,9.1,0,1,1-2.665-6.461A9.119,9.119,0,0,1,819.042,383.261Z" transform="translate(-436.391 -291.555)" fill="#fcb320"/>
    <path id="Path_204" data-name="Path 204" d="M821.017,291.48a21.127,21.127,0,0,1-1.8,8.663,21.553,21.553,0,0,1-1.87,3.362,27.833,27.833,0,0,1-5.334,5.764c-.35.294-.735.6-1.249.995-.644.48-1.362.983-2.187,1.526a45.659,45.659,0,0,0-4.2,3.068,9.313,9.313,0,0,0-2.04,2.2c-.7,1.215-1.046,3.566-1.046,6.99v.565H786.055v-2.645c0-2.068.051-3.809.147-5.323a38.051,38.051,0,0,1,.429-4.1,10.173,10.173,0,0,1,1.062-3.419c1-1.667,3.413-3.933,7.369-6.928.17-.124.339-.254.514-.384.164-.113.322-.232.486-.356a23.46,23.46,0,0,0,3.763-3.334,12.061,12.061,0,0,0,.915-1.221l.073-.113a9.76,9.76,0,0,0,1.255-5.154,9.027,9.027,0,0,0-.09-1.362,7.2,7.2,0,0,0-2.294-4.589,8.206,8.206,0,0,0-5.148-2.147c-.243-.023-.469-.028-.7-.028a10.936,10.936,0,0,0-2.673.316,8.053,8.053,0,0,0-4.2,2.6,10.934,10.934,0,0,0-1.469,2.243,22.454,22.454,0,0,0-1.966,7.99l-.057.593-16.127-2.3.079-.559a40.475,40.475,0,0,1,1.362-6.346,28.535,28.535,0,0,1,4.312-8.832,22.419,22.419,0,0,1,2.786-3.148c.243-.243.509-.48.774-.712a25.755,25.755,0,0,1,5.7-3.752l.181-.085a28.7,28.7,0,0,1,12.449-2.645c.446,0,.972.006,1.492.034a28.436,28.436,0,0,1,12.257,3.125,24.977,24.977,0,0,1,4.763,3.21,20.35,20.35,0,0,1,7.352,13.381A23.856,23.856,0,0,1,821.017,291.48Z" transform="translate(-421.837 -245.777)" fill="#fcb320"/>
  </g>
</svg>
